<svg width="90" height="38" viewBox="0 0 90 38" fill="none" xmlns="http://www.w3.org/2000/svg">
<path d="M22.8526 9.83457C20.5615 8.98683 18.0871 9.12906 15.4986 10.2726C15.4867 10.2786 15.4733 10.2811 15.46 10.2798C15.4466 10.2785 15.434 10.2733 15.4236 10.265C15.4131 10.258 15.405 10.2481 15.4001 10.2366C15.3952 10.225 15.3938 10.2123 15.396 10.2L15.9329 5.51864C15.945 5.41232 15.9345 5.30466 15.9018 5.20266C15.8692 5.10067 15.8153 5.00662 15.7436 4.92665C15.6719 4.84668 15.584 4.78258 15.4856 4.73851C15.3873 4.69445 15.2806 4.67141 15.1727 4.6709H12.283C12.0974 4.67147 11.9182 4.73851 11.7785 4.85967C11.6388 4.98083 11.548 5.14796 11.5228 5.33025L10.1554 15.5813C10.141 15.6918 10.1487 15.804 10.1781 15.9115C10.2074 16.019 10.2579 16.1197 10.3266 16.2079C10.3952 16.2961 10.4807 16.37 10.5782 16.4254C10.6757 16.4808 10.7832 16.5166 10.8947 16.5308L13.315 16.8293C13.4449 16.845 13.5767 16.8309 13.7003 16.7881C13.8238 16.7453 13.9358 16.675 14.0276 16.5826L14.0923 16.5176C14.1303 16.4799 17.9455 12.7498 21.2799 13.9885C22.6369 14.4943 23.0369 15.6482 23.1329 16.5317C23.1523 16.8087 23.1282 17.0871 23.0616 17.3568C22.2339 21.1566 18.89 23.47 14.9313 22.982C11.9172 22.6109 9.44653 20.8062 8.33189 18.4099C8.28408 18.3042 8.21367 18.2099 8.12553 18.1338C8.0374 18.0577 7.93364 18.0014 7.82142 17.9689C7.70921 17.9364 7.5912 17.9284 7.47557 17.9455C7.35994 17.9626 7.24944 18.0044 7.15169 18.068L4.98514 19.4809C4.82696 19.5852 4.71068 19.7412 4.65652 19.9217C4.60235 20.1023 4.61373 20.2959 4.68866 20.469C5.24675 21.7227 6.03561 22.8624 7.01486 23.8298C8.9448 25.7438 11.5618 26.9956 14.383 27.3451C14.9222 27.4099 15.4649 27.4413 16.008 27.4393C21.8615 27.4393 26.8787 23.5227 27.5544 18.1367C27.5544 18.1094 27.5591 18.0831 27.562 18.0567C27.562 18.0444 27.562 18.0322 27.562 18.0199C27.562 18.0077 27.562 18.0002 27.5667 17.9907C27.5715 17.9813 27.5734 17.9521 27.5753 17.9333C27.8603 15.6868 27.1952 11.4519 22.8478 9.83268" fill="#FFBE00"/>
<path d="M72.6842 24.7783C72.5825 24.3007 72.4752 23.5707 72.364 22.6118C72.269 21.5578 72.231 20.728 72.231 19.9904V13.4741C72.231 13.3959 72.2154 13.3184 72.1851 13.2461C72.1549 13.1738 72.1106 13.1082 72.0547 13.0529C71.9989 12.9976 71.9325 12.9537 71.8596 12.9239C71.7866 12.894 71.7084 12.8787 71.6294 12.8788H69.6339C69.4855 12.8789 69.3424 12.9334 69.232 13.0319C69.1217 13.1303 69.0519 13.2657 69.0362 13.412C69.021 13.557 69.0077 13.6776 69.0068 13.6946C69.0058 13.7115 68.9821 13.6823 68.9688 13.6757C67.6261 13.0169 66.149 12.6721 64.6509 12.6678C62.8292 12.6678 61.267 13.2876 60.0061 14.5103C58.7451 15.7329 58.1189 17.3455 58.1189 19.3292C58.1198 23.3418 60.5553 25.9321 64.3306 25.9321C66.3043 25.9321 67.8313 25.2615 68.8699 23.9381H68.9488L69.1864 25.1522C69.2183 25.3115 69.3049 25.455 69.4316 25.558C69.5583 25.6611 69.7171 25.7174 69.881 25.7174H72.0086C72.1113 25.7174 72.2128 25.6953 72.306 25.6524C72.3992 25.6096 72.4818 25.5471 72.5482 25.4694C72.6145 25.3916 72.6629 25.3004 72.69 25.2022C72.7171 25.104 72.7223 25.0011 72.7051 24.9007L72.6842 24.7783ZM65.2961 23.1129C63.4365 23.1129 62.281 21.6623 62.281 19.3273C62.281 16.9923 63.5904 15.4654 65.6173 15.4654C66.4573 15.4654 67.8285 15.9514 68.7227 16.5015L68.2304 20.9418C67.914 22.1663 66.6274 23.1205 65.2961 23.1205" fill="#404040"/>
<path d="M43.4159 24.7783C43.3152 24.3007 43.2069 23.5707 43.0967 22.6119C43.0016 21.5578 42.9627 20.728 42.9627 19.9905V13.2971C42.9628 13.2421 42.952 13.1877 42.9308 13.1369C42.9097 13.0861 42.8786 13.0399 42.8394 13.0011C42.8002 12.9622 42.7536 12.9314 42.7024 12.9105C42.6511 12.8895 42.5962 12.8787 42.5408 12.8789H40.206C40.1013 12.8788 40.0004 12.9174 39.9227 12.987C39.8451 13.0566 39.7964 13.1524 39.786 13.2556C39.7651 13.46 39.7423 13.6757 39.7394 13.6955C39.7366 13.7153 39.7147 13.6833 39.7014 13.6767C38.3592 13.0177 36.8823 12.6729 35.3845 12.6688C33.5629 12.6688 32.0007 13.2886 30.7397 14.5112C29.4787 15.7339 28.8516 17.3465 28.8516 19.3302C28.8516 23.3418 31.288 25.9322 35.0624 25.9322C37.037 25.9322 38.564 25.2615 39.6017 23.9381H39.6815L39.9523 25.3227C39.9741 25.4343 40.0344 25.5349 40.1228 25.6072C40.2112 25.6796 40.3223 25.7192 40.4369 25.7193H42.9921C43.0634 25.7192 43.1338 25.7038 43.1985 25.6742C43.2632 25.6446 43.3206 25.6015 43.3669 25.5478C43.4132 25.4941 43.4473 25.4311 43.4667 25.3632C43.4862 25.2952 43.4906 25.2239 43.4796 25.1541L43.4159 24.7783ZM36.0278 23.113C34.1682 23.113 33.0136 21.6624 33.0136 19.3273C33.0136 16.9923 34.3231 15.4654 36.3499 15.4654C37.189 15.4654 38.5602 15.9515 39.4553 16.5015L38.9621 20.9418C38.6457 22.1663 37.36 23.1205 36.0278 23.1205" fill="#404040"/>
<path d="M55.1866 12.8789C55.0506 12.8784 54.9176 12.9183 54.8048 12.9936C54.6919 13.0688 54.6045 13.1759 54.5537 13.3009C53.8638 15.0086 51.3143 21.2941 51.2469 21.0784C51.0397 20.4191 50.6634 19.3829 50.0914 17.9022C49.3426 15.9374 48.5168 13.9414 48.2032 13.1926C48.1647 13.1006 48.0996 13.022 48.0161 12.9666C47.9325 12.9113 47.8343 12.8818 47.7338 12.8817H44.1885C44.1323 12.8814 44.077 12.8953 44.0278 12.9222C43.9786 12.949 43.9372 12.9879 43.9075 13.0351C43.8777 13.0823 43.8607 13.1363 43.858 13.1919C43.8553 13.2475 43.867 13.3029 43.892 13.3527L49.0575 24.0719C49.1815 24.3324 49.2436 24.6177 49.239 24.9057C49.2344 25.1938 49.1632 25.4769 49.0309 25.7334C48.3657 27.07 45.6509 27.7831 43.853 28.3351V31.7091L45.3791 31.4114L45.4969 31.3813C49.1449 30.4714 51.4198 28.9888 52.2551 26.9834L58.8669 13.4639C58.8973 13.4018 58.9114 13.333 58.9077 13.2641C58.9039 13.1952 58.8826 13.1283 58.8456 13.0698C58.8086 13.0113 58.7573 12.9631 58.6963 12.9297C58.6354 12.8963 58.5669 12.8788 58.4972 12.8789H55.1866Z" fill="#404040"/>
<path d="M54.1268 28.5924C54.4076 28.5924 54.6308 28.7904 54.6308 29.1108C54.6308 29.4204 54.4076 29.6328 54.1268 29.6328C53.8496 29.6328 53.612 29.4312 53.612 29.1108C53.612 28.8012 53.8496 28.5924 54.1268 28.5924ZM53.144 27.4836V30H53.5544L53.5832 29.7552C53.72 29.9676 53.9396 30.0396 54.1556 30.0396C54.6776 30.0396 55.07 29.694 55.07 29.1108C55.07 28.4988 54.6848 28.182 54.1664 28.182C53.9792 28.182 53.6876 28.2828 53.5832 28.4664V27.4836H53.144ZM55.4048 28.2252V29.1576C55.4048 29.7084 55.7144 30.0288 56.1392 30.0288C56.3876 30.0288 56.5568 29.9424 56.7404 29.7624L56.7692 30.0036H57.1616V28.2252H56.726V29.1324C56.726 29.4024 56.5424 29.6292 56.2724 29.6292C55.9916 29.6292 55.844 29.424 55.844 29.154V28.2252H55.4048ZM58.8523 28.2252L58.5283 29.0028L58.3447 29.4924L58.1755 28.992L57.9055 28.2252H57.3943L58.1035 29.9712L57.7723 30.7416H58.2547L59.3383 28.2252H58.8523ZM60.2948 27.48V30H60.734V29.0928C60.734 28.8264 60.914 28.6068 61.1732 28.6068C61.4072 28.6068 61.5764 28.7436 61.5764 29.0676V30H62.0156V29.064C62.0156 28.542 61.7924 28.2 61.2884 28.2C61.0868 28.2 60.8924 28.2612 60.734 28.4664V27.48H60.2948ZM63.7798 28.47C63.679 28.2936 63.4522 28.182 63.2146 28.182C62.6962 28.1784 62.2894 28.4988 62.2894 29.1108C62.2894 29.7336 62.6782 30.0576 63.2038 30.054C63.4018 30.0504 63.679 29.9496 63.7798 29.7408L63.8014 30H64.2154V28.2252H63.7942L63.7798 28.47ZM63.2542 28.5744C63.9454 28.5744 63.9454 29.6508 63.2542 29.6508C62.9626 29.6508 62.7286 29.4492 62.7286 29.1108C62.7286 28.7724 62.9626 28.5744 63.2542 28.5744ZM65.5702 29.6184C65.2714 29.6184 65.0662 29.3916 65.0662 29.1144C65.0662 28.8372 65.2534 28.6104 65.5702 28.6104C65.887 28.6104 66.0742 28.8372 66.0742 29.1144C66.0742 29.3916 65.869 29.6184 65.5702 29.6184ZM65.0266 30.7416V29.7912C65.1526 29.9856 65.4298 30.0432 65.617 30.0432C66.1858 30.0432 66.5134 29.6328 66.5134 29.1144C66.5134 28.5924 66.1498 28.1856 65.6026 28.1856C65.401 28.1856 65.1634 28.272 65.0266 28.47L64.9978 28.2252H64.5874V30.7416H65.0266ZM67.8202 29.6184C67.5214 29.6184 67.3162 29.3916 67.3162 29.1144C67.3162 28.8372 67.5034 28.6104 67.8202 28.6104C68.137 28.6104 68.3242 28.8372 68.3242 29.1144C68.3242 29.3916 68.119 29.6184 67.8202 29.6184ZM67.2766 30.7416V29.7912C67.4026 29.9856 67.6798 30.0432 67.867 30.0432C68.4358 30.0432 68.7634 29.6328 68.7634 29.1144C68.7634 28.5924 68.3998 28.1856 67.8526 28.1856C67.651 28.1856 67.4134 28.272 67.2766 28.47L67.2478 28.2252H66.8374V30.7416H67.2766ZM69.5266 28.218V30H69.0874V28.218H69.5266ZM69.0478 27.7248C69.0478 28.0668 69.5662 28.0668 69.5662 27.7248C69.5662 27.3828 69.0478 27.3828 69.0478 27.7248ZM69.9241 27.4836V30H70.3597V27.4836H69.9241ZM72.0816 28.2252L71.7576 29.0028L71.574 29.4924L71.4048 28.992L71.1348 28.2252H70.6236L71.3328 29.9712L71.0016 30.7416H71.484L72.5676 28.2252H72.0816Z" fill="#FFBE00"/>
</svg>
