<svg width="18" height="19" viewBox="0 0 18 19" fill="none" xmlns="http://www.w3.org/2000/svg">
<path d="M14.6251 17.1338C14.6251 17.0906 14.6134 17.0482 14.5913 17.0111C14.5692 16.974 14.5376 16.9435 14.4996 16.9229C13.5479 16.4114 12.6799 15.6284 12.2981 15.2354C12.2414 15.1759 12.1657 15.1381 12.0841 15.1284C12.0024 15.1187 11.92 15.1378 11.8509 15.1823C10.0815 16.3221 7.92713 16.3228 6.15737 15.1841C6.08768 15.1391 6.00443 15.1199 5.92209 15.1299C5.83975 15.14 5.76352 15.1785 5.70666 15.2389C5.32803 15.6355 4.46952 16.4096 3.51186 16.9176C3.47378 16.9368 3.44123 16.9653 3.41729 17.0006C3.39336 17.0358 3.37883 17.0766 3.3751 17.1191C3.37225 17.1552 3.37774 17.1915 3.39114 17.2252C3.40455 17.2589 3.42551 17.289 3.45242 17.3133C3.47933 17.3376 3.51146 17.3554 3.54633 17.3653C3.5812 17.3752 3.61788 17.377 3.65354 17.3704C4.38655 17.2235 5.09494 16.8895 5.76994 16.5327C5.81324 16.5099 5.86138 16.4978 5.91031 16.4974C5.95925 16.497 6.00756 16.5084 6.05119 16.5305C6.96507 16.9952 7.97578 17.2373 9.00098 17.2373C10.0262 17.2373 11.0369 16.9952 11.9508 16.5305C11.9949 16.5082 12.0437 16.4967 12.0932 16.4971C12.1427 16.4974 12.1914 16.5096 12.2352 16.5327C12.9067 16.8842 13.614 17.2214 14.3446 17.3694C14.3791 17.376 14.4146 17.3749 14.4487 17.366C14.4827 17.3572 14.5143 17.3409 14.5413 17.3183C14.5682 17.2957 14.5898 17.2674 14.6044 17.2354C14.619 17.2035 14.6263 17.1686 14.6258 17.1335L14.6251 17.1338ZM16.7594 9.18043C16.6367 8.88547 16.3762 8.65695 16.0247 8.53531L15.1876 8.20203V5.28125C15.1876 4.68451 14.9505 4.11222 14.5286 3.69026C14.1066 3.2683 13.5343 3.03125 12.9376 3.03125H11.8126V2.75C11.8126 2.37704 11.6644 2.01935 11.4007 1.75563C11.137 1.49191 10.7793 1.34375 10.4064 1.34375H7.59385C7.22089 1.34375 6.8632 1.49191 6.59948 1.75563C6.33576 2.01935 6.1876 2.37704 6.1876 2.75V3.03125H5.0626C4.46586 3.03125 3.89357 3.2683 3.47161 3.69026C3.04965 4.11222 2.8126 4.68451 2.8126 5.28125V8.20449L1.98362 8.53461C1.63416 8.65062 1.36381 8.88617 1.24006 9.18289C1.15393 9.38996 1.05549 9.71023 1.19436 10.1131L1.19787 10.1237L2.83827 14.3227C2.8987 14.477 3.00444 14.6094 3.14156 14.7024C3.27868 14.7954 3.44075 14.8447 3.60643 14.8438C3.62401 14.8438 3.64159 14.8438 3.66022 14.842C4.76131 14.7717 5.62897 14.2348 6.21256 13.7307C7.04612 14.4504 8.02662 14.8438 9.0001 14.8438C9.97358 14.8438 10.9488 14.45 11.7824 13.7293C12.3656 14.2341 13.2343 14.7724 14.3351 14.842C14.5093 14.8542 14.6829 14.8106 14.8307 14.7174C14.9784 14.6242 15.0926 14.4863 15.1567 14.3238L16.7967 10.1402C16.912 9.85578 16.8987 9.51582 16.7594 9.18043ZM9.45713 5.92145L9.41705 5.90738C9.14553 5.82195 8.85432 5.82195 8.5828 5.90738L8.56241 5.91371L4.13026 7.67961C4.10891 7.68811 4.08581 7.69125 4.06297 7.68876C4.04013 7.68627 4.01825 7.67822 3.99924 7.66531C3.98024 7.65241 3.96468 7.63505 3.95393 7.61474C3.94319 7.59443 3.93758 7.5718 3.9376 7.54883V5.28125C3.9376 4.98288 4.05613 4.69673 4.26711 4.48575C4.47808 4.27478 4.76423 4.15625 5.0626 4.15625H12.9376C13.236 4.15625 13.5221 4.27478 13.7331 4.48575C13.9441 4.69673 14.0626 4.98288 14.0626 5.28125V7.54672C14.0626 7.56969 14.057 7.59232 14.0463 7.61263C14.0355 7.63294 14.02 7.6503 14.001 7.6632C13.9819 7.67611 13.9601 7.68416 13.9372 7.68665C13.9144 7.68914 13.8913 7.686 13.8699 7.6775L9.45713 5.92145Z" fill="#F58220"/>
</svg>
