<svg width="18" height="18" viewBox="0 0 18 18" fill="none" xmlns="http://www.w3.org/2000/svg">
<path d="M2.12391 13.6818C2.12391 13.6842 2.12391 13.6888 2.12109 13.6951C2.12215 13.6909 2.12285 13.6863 2.12391 13.6818ZM15.4643 14.2594C15.3485 14.2569 15.2343 14.233 15.1271 14.1891L13.131 13.4814L13.1162 13.4754C13.0727 13.4572 13.0259 13.4482 12.9788 13.4487C12.9353 13.4487 12.8922 13.4566 12.8515 13.4719C12.803 13.4902 12.366 13.6543 11.9075 13.7802C11.659 13.8484 10.7938 14.0709 10.0995 14.0709C8.32477 14.0709 6.66539 13.3889 5.42754 12.1504C4.82282 11.5493 4.34332 10.8344 4.01678 10.0468C3.69025 9.25921 3.52318 8.41469 3.52523 7.56211C3.52522 7.11787 3.57307 6.67493 3.66797 6.24094C3.97699 4.81289 4.79543 3.51387 5.97246 2.58469C7.17985 1.63759 8.67039 1.12354 10.2049 1.125C12.0404 1.125 13.7508 1.82813 15.0213 3.10008C16.2223 4.30489 16.8804 5.88903 16.8751 7.56035C16.8741 8.80227 16.5032 10.0158 15.8099 11.0461L15.8032 11.0559L15.7772 11.0911C15.7712 11.0992 15.7652 11.1069 15.7596 11.115L15.7543 11.1245C15.7404 11.1483 15.7277 11.1728 15.7164 11.198L16.2697 13.1646C16.2942 13.2457 16.3074 13.3298 16.3091 13.4146C16.3092 13.5256 16.2875 13.6355 16.2451 13.738C16.2027 13.8406 16.1404 13.9338 16.062 14.0123C15.9835 14.0907 15.8903 14.1529 15.7878 14.1954C15.6852 14.2378 15.5753 14.2595 15.4643 14.2594Z" fill="#27B4E9"/>
<path d="M10.5423 14.955C10.506 14.8844 10.4549 14.8224 10.3925 14.7732C10.33 14.7241 10.2578 14.689 10.1806 14.6702C9.97736 14.6165 9.74041 14.6256 9.55935 14.6122C7.84982 14.4934 6.24111 13.7597 5.03053 12.5468C3.9543 11.4766 3.25487 10.0858 3.03752 8.58364C2.9883 8.24122 2.9883 8.15614 2.9883 8.15614C2.98828 8.0419 2.95347 7.93037 2.8885 7.83639C2.82354 7.74241 2.73149 7.67044 2.62462 7.63006C2.51775 7.58968 2.40112 7.5828 2.29024 7.61033C2.17936 7.63786 2.07949 7.69851 2.00392 7.78419C2.00392 7.78419 1.72689 8.08583 1.59611 8.38853C1.22932 9.23364 1.0729 10.1551 1.14025 11.0739C1.2076 11.9927 1.49672 12.8815 1.98283 13.6641C2.07424 13.8163 2.07424 13.8866 2.05385 14.0448C1.95787 14.5409 1.78982 15.4159 1.70228 15.8698C1.6733 16.017 1.68408 16.1692 1.73352 16.3109C1.78295 16.4525 1.86925 16.5784 1.98353 16.6756L1.9997 16.6893C2.15088 16.8093 2.33821 16.8748 2.53127 16.8749C2.63985 16.875 2.74739 16.8536 2.84767 16.812L4.72888 16.086C4.79366 16.0614 4.86521 16.0614 4.92998 16.086C5.67072 16.3616 6.4417 16.5079 7.17224 16.5079C8.08249 16.5087 8.98172 16.3087 9.8058 15.9222C9.99775 15.8322 10.298 15.7344 10.4738 15.5312C10.5403 15.4524 10.5822 15.3558 10.5944 15.2534C10.6066 15.151 10.5885 15.0472 10.5423 14.955Z" fill="#27B4E9"/>
</svg>
