<svg width="72" height="73" viewBox="0 0 72 73" fill="none" xmlns="http://www.w3.org/2000/svg">
<g clip-path="url(#clip0_554_7733)">
<path d="M0.300781 15.465V57.535C0.306078 61.4125 1.84947 65.1296 4.59226 67.8705C7.33506 70.6115 11.0532 72.1523 14.9308 72.155H57.0008C60.8766 72.1497 64.5922 70.6077 67.3328 67.867C70.0735 65.1264 71.6155 61.4108 71.6208 57.535V15.465C71.6181 11.5874 70.0773 7.86924 67.3364 5.12644C64.5954 2.38365 60.8784 0.840257 57.0008 0.834961H14.9308C11.0515 0.83761 7.33182 2.37983 4.58873 5.12291C1.84565 7.866 0.30343 11.5857 0.300781 15.465ZM12.3008 35.105C12.3008 24.335 22.9008 15.605 35.9808 15.605C49.0608 15.605 59.6608 24.335 59.6608 35.105C59.6608 41.325 56.1208 46.865 50.6608 50.445L51.9108 57.945L43.4608 53.625C41.0398 54.2884 38.541 54.6248 36.0308 54.625C22.8808 54.605 12.2808 45.875 12.2808 35.105H12.3008Z" fill="#F4F5FD" stroke="url(#paint0_linear_554_7733)" stroke-width="0.61" stroke-miterlimit="10"/>
<path d="M19.3407 36.2649C19.3266 35.087 19.5511 33.9184 20.0006 32.8295C20.4501 31.7407 21.1153 30.754 21.9562 29.9291C22.797 29.1041 23.7962 28.4578 24.8934 28.0291C25.9906 27.6005 27.1633 27.3983 28.3407 27.4349C29.7437 27.3675 31.1409 27.6568 32.4018 28.2759C33.6627 28.895 34.746 29.8235 35.5507 30.9749L32.0007 33.6749C31.5879 33.0662 31.034 32.5665 30.3862 32.2182C29.7385 31.87 29.0161 31.6835 28.2807 31.6749C27.7157 31.6936 27.1603 31.8262 26.6478 32.0647C26.1352 32.3032 25.6761 32.6427 25.298 33.0629C24.9198 33.4831 24.6303 33.9753 24.447 34.51C24.2636 35.0448 24.19 35.611 24.2307 36.1749C24.2307 38.7249 25.9007 40.7249 28.2807 40.7249C29.0412 40.7202 29.789 40.529 30.4585 40.1681C31.128 39.8072 31.6987 39.2876 32.1207 38.6549L35.6607 41.1849C34.844 42.42 33.7209 43.4222 32.4011 44.0935C31.0813 44.7648 29.6099 45.0823 28.1307 45.0149C26.9738 45.0364 25.8244 44.8251 24.7509 44.3936C23.6773 43.962 22.7015 43.3189 21.8814 42.5026C21.0614 41.6863 20.4139 40.7134 19.9774 39.6418C19.5409 38.5702 19.3244 37.4218 19.3407 36.2649Z" fill="#F4F5FD" stroke="#F4F5FD" stroke-width="0.61" stroke-miterlimit="10"/>
<path d="M37.6504 27.725H46.3704C47.2054 27.6556 48.0458 27.7553 48.8413 28.0182C49.6368 28.2811 50.3712 28.7018 51.0004 29.255C51.361 29.6125 51.6447 30.04 51.8339 30.5112C52.023 30.9825 52.1137 31.4874 52.1004 31.995V32.045C52.1159 32.873 51.8702 33.6848 51.3981 34.3652C50.9259 35.0455 50.2514 35.5598 49.4704 35.835C51.5404 36.515 52.8504 37.675 52.8504 39.985C52.8504 42.895 50.4704 44.665 46.4204 44.665H37.6504V27.725ZM45.2004 34.535C46.6304 34.535 47.4404 34.055 47.4404 33.055C47.4404 32.135 46.7104 31.595 45.3004 31.595H42.2404V34.595L45.2004 34.535ZM45.8804 40.975C47.3104 40.975 48.1404 40.415 48.1404 39.415V39.365C48.1404 38.445 47.4104 37.835 45.8304 37.835H42.2404V40.935L45.8804 40.975Z" fill="#F4F5FD" stroke="#F4F5FD" stroke-width="0.61" stroke-miterlimit="10"/>
</g>
<defs>
<linearGradient id="paint0_linear_554_7733" x1="0.000781255" y1="36.495" x2="71.9308" y2="36.495" gradientUnits="userSpaceOnUse">
<stop stop-color="#4FACFE"/>
<stop offset="1" stop-color="#00F2FE"/>
</linearGradient>
<clipPath id="clip0_554_7733">
<rect width="71.93" height="71.93" fill="white" transform="translate(0 0.535156)"/>
</clipPath>
</defs>
</svg>
