<svg width="18" height="19" viewBox="0 0 18 19" fill="none" xmlns="http://www.w3.org/2000/svg">
<path d="M2.12391 14.1818C2.12391 14.1842 2.12391 14.1888 2.12109 14.1951C2.12215 14.1909 2.12285 14.1863 2.12391 14.1818ZM15.4643 14.7594C15.3485 14.7569 15.2343 14.733 15.1271 14.6891L13.131 13.9814L13.1162 13.9754C13.0727 13.9572 13.0259 13.9482 12.9788 13.9487C12.9353 13.9487 12.8922 13.9566 12.8515 13.9719C12.803 13.9902 12.366 14.1543 11.9075 14.2802C11.659 14.3484 10.7938 14.5709 10.0995 14.5709C8.32477 14.5709 6.66539 13.8889 5.42754 12.6504C4.82282 12.0493 4.34332 11.3344 4.01678 10.5468C3.69025 9.75921 3.52318 8.91469 3.52523 8.06211C3.52522 7.61787 3.57307 7.17493 3.66797 6.74094C3.97699 5.31289 4.79543 4.01387 5.97246 3.08469C7.17985 2.13759 8.67039 1.62354 10.2049 1.625C12.0404 1.625 13.7508 2.32813 15.0213 3.60008C16.2223 4.80489 16.8804 6.38903 16.8751 8.06035C16.8741 9.30227 16.5032 10.5158 15.8099 11.5461L15.8032 11.5559L15.7772 11.5911C15.7712 11.5992 15.7652 11.6069 15.7596 11.615L15.7543 11.6245C15.7404 11.6483 15.7277 11.6728 15.7164 11.698L16.2697 13.6646C16.2942 13.7457 16.3074 13.8298 16.3091 13.9146C16.3092 14.0256 16.2875 14.1355 16.2451 14.238C16.2027 14.3406 16.1404 14.4338 16.062 14.5123C15.9835 14.5907 15.8903 14.6529 15.7878 14.6954C15.6852 14.7378 15.5753 14.7595 15.4643 14.7594Z" fill="#4F4B6A"/>
<path d="M10.5423 15.455C10.506 15.3844 10.4549 15.3224 10.3925 15.2732C10.33 15.2241 10.2578 15.189 10.1806 15.1702C9.97736 15.1165 9.74041 15.1256 9.55935 15.1122C7.84982 14.9934 6.24111 14.2597 5.03053 13.0468C3.9543 11.9766 3.25487 10.5858 3.03752 9.08364C2.9883 8.74122 2.9883 8.65614 2.9883 8.65614C2.98828 8.5419 2.95347 8.43037 2.8885 8.33639C2.82354 8.24241 2.73149 8.17044 2.62462 8.13006C2.51775 8.08968 2.40112 8.0828 2.29024 8.11033C2.17936 8.13786 2.07949 8.19851 2.00392 8.28419C2.00392 8.28419 1.72689 8.58583 1.59611 8.88853C1.22932 9.73364 1.0729 10.6551 1.14025 11.5739C1.2076 12.4927 1.49672 13.3815 1.98283 14.1641C2.07424 14.3163 2.07424 14.3866 2.05385 14.5448C1.95787 15.0409 1.78982 15.9159 1.70228 16.3698C1.6733 16.517 1.68408 16.6692 1.73352 16.8109C1.78295 16.9525 1.86925 17.0784 1.98353 17.1756L1.9997 17.1893C2.15088 17.3093 2.33821 17.3748 2.53127 17.3749C2.63985 17.375 2.74739 17.3536 2.84767 17.312L4.72888 16.586C4.79366 16.5614 4.86521 16.5614 4.92998 16.586C5.67072 16.8616 6.4417 17.0079 7.17224 17.0079C8.08249 17.0087 8.98172 16.8087 9.8058 16.4222C9.99775 16.3322 10.298 16.2344 10.4738 16.0312C10.5403 15.9524 10.5822 15.8558 10.5944 15.7534C10.6066 15.651 10.5885 15.5472 10.5423 15.455Z" fill="#4F4B6A"/>
</svg>
