<svg width="73" height="73" viewBox="0 0 73 73" fill="none" xmlns="http://www.w3.org/2000/svg">
<g clip-path="url(#clip0_514_6877)">
<path d="M67.3263 0.185059H5.67427C2.64293 0.185059 0.185547 2.64245 0.185547 5.67379V67.3258C0.185547 70.3571 2.64294 72.8145 5.67427 72.8145H67.3263C70.3576 72.8145 72.815 70.3571 72.815 67.3258V5.67378C72.815 2.64244 70.3576 0.185059 67.3263 0.185059Z" fill="white" stroke="#404040" stroke-width="2.74436" stroke-miterlimit="10"/>
<path d="M57.6697 27.7045L56.2979 26.913V24.0226C56.2922 23.853 56.2208 23.6922 56.0988 23.5742C55.9767 23.4562 55.8136 23.3902 55.6439 23.3902C55.4741 23.3902 55.311 23.4562 55.189 23.5742C55.067 23.6922 54.9956 23.853 54.9899 24.0226V27.2931C54.9898 27.4079 55.02 27.5207 55.0774 27.6201C55.1348 27.7194 55.2173 27.802 55.3167 27.8594L57.0161 28.8406C57.0904 28.8836 57.1725 28.9115 57.2577 28.9227C57.3428 28.934 57.4293 28.9283 57.5123 28.9061C57.5952 28.8839 57.673 28.8456 57.7412 28.7934C57.8093 28.7411 57.8665 28.6759 57.9095 28.6016C57.9525 28.5272 57.9804 28.4451 57.9916 28.36C58.0028 28.2749 57.9972 28.1883 57.975 28.1054C57.9528 28.0224 57.9145 27.9446 57.8622 27.8765C57.81 27.8083 57.7448 27.7511 57.6705 27.7082L57.6697 27.7045ZM56.4247 19.5781C55.1309 19.578 53.8661 19.9615 52.7903 20.6802C51.7145 21.3989 50.876 22.4205 50.3809 23.6157C49.8857 24.811 49.7561 26.1262 50.0085 27.3951C50.2608 28.6641 50.8838 29.8296 51.7987 30.7445C52.7135 31.6593 53.8791 32.2823 55.148 32.5347C56.4169 32.787 57.7322 32.6574 58.9274 32.1623C60.1227 31.6671 61.1443 30.8286 61.8629 29.7528C62.5816 28.677 62.9652 27.4123 62.965 26.1185C62.965 24.3839 62.2759 22.7203 61.0494 21.4937C59.8228 20.2672 58.1593 19.5781 56.4247 19.5781ZM56.4247 31.3508C55.3898 31.3508 54.3782 31.0439 53.5178 30.469C52.6573 29.894 51.9867 29.0769 51.5907 28.1208C51.1946 27.1647 51.091 26.1127 51.2929 25.0977C51.4948 24.0827 51.9931 23.1504 52.7249 22.4187C53.4566 21.6869 54.3889 21.1886 55.4039 20.9867C56.4188 20.7848 57.4709 20.8885 58.427 21.2845C59.383 21.6805 60.2002 22.3511 60.7751 23.2116C61.3501 24.072 61.6569 25.0836 61.6569 26.1185C61.6569 26.8056 61.5216 27.486 61.2587 28.1208C60.9957 28.7556 60.6103 29.3324 60.1244 29.8183C59.6386 30.3041 59.0618 30.6895 58.427 30.9525C57.7922 31.2154 57.1118 31.3508 56.4247 31.3508Z" fill="#404040" stroke="#404040" stroke-width="1.09774" stroke-miterlimit="10"/>
<path d="M10.0352 25.7225C10.0352 21.6464 13.1627 18.7856 17.4271 18.7856C20.021 18.7856 22.0702 19.7328 23.3782 21.4388L20.5538 23.9586C19.7771 22.973 18.8493 22.4023 17.6538 22.4023C15.7966 22.4023 14.5456 23.6911 14.5456 25.7195C14.5456 27.748 15.7966 29.036 17.6538 29.036C18.8485 29.036 19.7771 28.4676 20.5538 27.4797L23.3782 29.9995C22.0702 31.7041 20.0232 32.6534 17.4271 32.6534C13.1627 32.6594 10.0352 29.7972 10.0352 25.7225Z" fill="#404040"/>
<path d="M31.5703 19.0889H36.0437V28.8872H42.0327V32.3556H31.5703V19.0889Z" fill="#404040"/>
<path d="M15.2997 49.8172L14.2955 50.9363V54.2128H9.89844V40.9468H14.2955V45.764L18.6547 40.9468H23.5253L18.219 46.7838L23.7907 54.2128H18.6169L15.2997 49.8172Z" fill="#404040"/>
<path d="M39.1759 49.4007V54.2128H34.7025V49.3436L29.6992 40.9468H34.4187L37.1289 45.5335L39.8584 40.9468H44.1792L39.1759 49.4007Z" fill="#404040"/>
<path d="M63.1024 40.9468V54.2128H59.4257L54.3861 48.186V54.2128H50.0254V40.9468H53.7021L58.7417 46.9743V40.9468H63.1024Z" fill="#404040"/>
</g>
<defs>
<clipPath id="clip0_514_6877">
<rect width="73" height="73" fill="white"/>
</clipPath>
</defs>
</svg>
