<svg width="21" height="21" viewBox="0 0 21 21" fill="none" xmlns="http://www.w3.org/2000/svg">
<path d="M10.1426 0.540039C4.64258 0.540039 0.142578 5.03004 0.142578 10.56C0.142578 15.56 3.80258 19.71 8.58258 20.46V13.46H6.04258V10.56H8.58258V8.35004C8.58258 5.84004 10.0726 4.46004 12.3626 4.46004C13.4526 4.46004 14.5926 4.65004 14.5926 4.65004V7.12004H13.3326C12.0926 7.12004 11.7026 7.89004 11.7026 8.68004V10.56H14.4826L14.0326 13.46H11.7026V20.46C14.059 20.0879 16.2048 18.8856 17.7525 17.0701C19.3002 15.2546 20.1479 12.9457 20.1426 10.56C20.1426 5.03004 15.6426 0.540039 10.1426 0.540039Z" fill="#404040"/>
</svg>
