<svg width="18" height="18" viewBox="0 0 18 18" fill="none" xmlns="http://www.w3.org/2000/svg">
<path d="M15.8305 3.9375H4.99219C3.79688 3.9375 2.8125 4.90465 2.8125 6.09363V14.7189C2.8125 15.9079 3.79688 16.875 4.99219 16.875H15.8203C17.0156 16.875 18 15.9546 18 14.7656V6.09363C18 4.90465 17.0269 3.9375 15.8305 3.9375ZM13.1182 6.09398C13.4376 6.09593 13.7493 6.19243 14.014 6.3713C14.2786 6.55018 14.4844 6.80342 14.6053 7.09909C14.7261 7.39476 14.7568 7.71961 14.6933 8.03266C14.6298 8.34571 14.475 8.63295 14.2484 8.85813C14.0219 9.08331 13.7337 9.23636 13.4203 9.29797C13.1068 9.35957 12.7822 9.32698 12.4872 9.20429C12.1923 9.08161 11.9403 8.87433 11.763 8.6086C11.5858 8.34287 11.4912 8.0306 11.4912 7.71117C11.4928 7.28104 11.6651 6.86915 11.9701 6.5659C12.2752 6.26264 12.6881 6.09279 13.1182 6.09363V6.09398ZM4.97777 15.7971C4.38012 15.7971 3.92801 15.3137 3.92801 14.7192V12.44L7.10824 9.59977C7.41914 9.32629 7.82217 9.18085 8.23607 9.19279C8.64996 9.20473 9.04393 9.37316 9.33855 9.6641L11.5407 11.8477L7.56809 15.7968L4.97777 15.7971ZM16.875 14.7189C16.875 14.8606 16.847 15.0008 16.7927 15.1317C16.7384 15.2626 16.6588 15.3815 16.5586 15.4816C16.4583 15.5817 16.3393 15.661 16.2083 15.7151C16.0774 15.7692 15.937 15.7969 15.7954 15.7968H9.10547L13.2216 11.707C13.5137 11.4606 13.8832 11.325 14.2654 11.324C14.6475 11.3229 15.0178 11.4566 15.3112 11.7014L16.875 13.0286V14.7189Z" fill="#4F4B6A"/>
<path d="M13.5 1.125H2.25C1.65326 1.125 1.08097 1.36205 0.65901 1.78401C0.237053 2.20597 0 2.77826 0 3.375L0 12.375C0.00041151 12.8738 0.166303 13.3585 0.47168 13.7529C0.777058 14.1473 1.20466 14.4293 1.6875 14.5547V5.34375C1.6875 4.67242 1.95418 4.02859 2.42889 3.55389C2.90359 3.07918 3.54742 2.8125 4.21875 2.8125H15.6797C15.5543 2.32966 15.2723 1.90206 14.8779 1.59668C14.4835 1.2913 13.9988 1.12541 13.5 1.125Z" fill="#4F4B6A"/>
</svg>
