<svg width="14" height="15" viewBox="0 0 14 15" fill="none" xmlns="http://www.w3.org/2000/svg">
<path d="M7 0.75C3.27344 0.75 0.25 3.77344 0.25 7.5C0.25 11.2266 3.27344 14.25 7 14.25C10.7266 14.25 13.75 11.2266 13.75 7.5C13.75 3.77344 10.7266 0.75 7 0.75ZM6.78906 11.4375C6.65 11.4375 6.51406 11.3963 6.39843 11.319C6.2828 11.2417 6.19268 11.1319 6.13946 11.0034C6.08624 10.875 6.07232 10.7336 6.09945 10.5972C6.12658 10.4608 6.19354 10.3355 6.29188 10.2372C6.39021 10.1389 6.5155 10.0719 6.65189 10.0448C6.78828 10.0176 6.92966 10.0316 7.05814 10.0848C7.18662 10.138 7.29643 10.2281 7.37369 10.3437C7.45095 10.4594 7.49219 10.5953 7.49219 10.7344C7.49219 10.9209 7.41811 11.0997 7.28625 11.2316C7.15439 11.3634 6.97554 11.4375 6.78906 11.4375ZM7.96469 7.85156C7.3948 8.23406 7.31641 8.58457 7.31641 8.90625C7.31641 9.03679 7.26455 9.16198 7.17225 9.25428C7.07995 9.34658 6.95475 9.39844 6.82422 9.39844C6.69368 9.39844 6.56849 9.34658 6.47619 9.25428C6.38389 9.16198 6.33203 9.03679 6.33203 8.90625C6.33203 8.13598 6.68641 7.52355 7.41555 7.03383C8.09336 6.57891 8.47656 6.29063 8.47656 5.65676C8.47656 5.22574 8.23047 4.89844 7.72106 4.65621C7.60117 4.59926 7.33434 4.54371 7.00598 4.54758C6.59395 4.55285 6.27402 4.65129 6.02758 4.84957C5.56281 5.22363 5.52344 5.63074 5.52344 5.63672C5.52032 5.70135 5.5045 5.76474 5.47689 5.82326C5.44928 5.88179 5.41041 5.9343 5.3625 5.9778C5.31459 6.0213 5.25859 6.05494 5.19768 6.07679C5.13677 6.09865 5.07215 6.10829 5.00752 6.10518C4.94288 6.10206 4.8795 6.08624 4.82097 6.05863C4.76245 6.03102 4.70994 5.99214 4.66644 5.94424C4.62294 5.89633 4.5893 5.84032 4.56745 5.77942C4.54559 5.71851 4.53595 5.65389 4.53906 5.58926C4.54293 5.50383 4.60234 4.73426 5.40988 4.08457C5.82859 3.74777 6.36121 3.5727 6.99191 3.56496C7.4384 3.55969 7.85781 3.63527 8.14223 3.76957C8.99336 4.17211 9.46094 4.84324 9.46094 5.65676C9.46094 6.84609 8.66605 7.38012 7.96469 7.85156Z" fill="#4F4B6A"/>
</svg>
