<svg width="21" height="21" viewBox="0 0 21 21" fill="none" xmlns="http://www.w3.org/2000/svg">
<path d="M14.328 2.84361C15.3424 2.84664 16.3144 3.25096 17.0317 3.96827C17.749 4.68558 18.1534 5.65759 18.1564 6.67201V14.328C18.1534 15.3424 17.749 16.3144 17.0317 17.0317C16.3144 17.749 15.3424 18.1534 14.328 18.1564H6.67201C5.65759 18.1534 4.68558 17.749 3.96827 17.0317C3.25096 16.3144 2.84664 15.3424 2.84361 14.328V6.67201C2.84664 5.65759 3.25096 4.68558 3.96827 3.96827C4.68558 3.25096 5.65759 2.84664 6.67201 2.84361H14.328ZM14.328 1.3125H6.67201C3.72422 1.3125 1.3125 3.72422 1.3125 6.67201V14.328C1.3125 17.2758 3.72422 19.6875 6.67201 19.6875H14.328C17.2758 19.6875 19.6875 17.2758 19.6875 14.328V6.67201C19.6875 3.72422 17.2758 1.3125 14.328 1.3125Z" fill="#404040"/>
<path d="M15.4764 6.67188C15.2493 6.67188 15.0273 6.60452 14.8384 6.47833C14.6495 6.35214 14.5023 6.17278 14.4154 5.96293C14.3285 5.75308 14.3057 5.52216 14.3501 5.29939C14.3944 5.07661 14.5037 4.87198 14.6644 4.71137C14.825 4.55076 15.0296 4.44138 15.2524 4.39707C15.4752 4.35275 15.7061 4.3755 15.9159 4.46242C16.1258 4.54934 16.3051 4.69654 16.4313 4.8854C16.5575 5.07426 16.6249 5.2963 16.6249 5.52344C16.6252 5.67434 16.5957 5.82383 16.5381 5.96331C16.4805 6.10279 16.3959 6.22952 16.2892 6.33623C16.1825 6.44294 16.0558 6.52752 15.9163 6.58512C15.7768 6.64272 15.6273 6.6722 15.4764 6.67188ZM10.5 7.43723C11.1057 7.43723 11.6979 7.61685 12.2015 7.95337C12.7052 8.2899 13.0977 8.76822 13.3295 9.32784C13.5613 9.88747 13.622 10.5033 13.5038 11.0974C13.3856 11.6914 13.0939 12.2372 12.6656 12.6655C12.2373 13.0938 11.6916 13.3855 11.0975 13.5037C10.5034 13.6218 9.88761 13.5612 9.32798 13.3294C8.76836 13.0976 8.29004 12.705 7.95351 12.2014C7.61699 11.6977 7.43737 11.1056 7.43737 10.4999C7.43823 9.68787 7.76118 8.90938 8.33535 8.33521C8.90952 7.76104 9.68801 7.4381 10.5 7.43723ZM10.5 5.90611C9.59144 5.90611 8.70329 6.17553 7.94785 6.6803C7.19241 7.18507 6.60362 7.90251 6.25593 8.74191C5.90824 9.58131 5.81727 10.505 5.99452 11.3961C6.17177 12.2872 6.60928 13.1057 7.25173 13.7481C7.89418 14.3906 8.71271 14.8281 9.60381 15.0053C10.4949 15.1826 11.4186 15.0916 12.258 14.7439C13.0974 14.3962 13.8148 13.8075 14.3196 13.052C14.8243 12.2966 15.0938 11.4084 15.0938 10.4999C15.0938 9.28153 14.6098 8.11309 13.7483 7.25159C12.8868 6.3901 11.7183 5.90611 10.5 5.90611Z" fill="#404040"/>
</svg>
