<svg width="18" height="15" viewBox="0 0 18 15" fill="none" xmlns="http://www.w3.org/2000/svg">
<path d="M17.4375 4.6875C17.4368 4.09096 17.1996 3.51904 16.7778 3.09723C16.356 2.67541 15.784 2.43815 15.1875 2.4375H13.5V1.875C13.4995 1.42759 13.3216 0.998638 13.0052 0.682271C12.6889 0.365904 12.2599 0.187965 11.8125 0.1875H6.1875C5.74009 0.187965 5.31114 0.365904 4.99477 0.682271C4.6784 0.998638 4.50047 1.42759 4.5 1.875V2.4375H2.8125C2.21596 2.43815 1.64404 2.67541 1.22223 3.09723C0.800413 3.51904 0.563151 4.09096 0.5625 4.6875V6.375H17.4375V4.6875ZM12.375 2.4375H5.625V1.875C5.625 1.72582 5.68426 1.58274 5.78975 1.47725C5.89524 1.37176 6.03832 1.3125 6.1875 1.3125H11.8125C11.9617 1.3125 12.1048 1.37176 12.2102 1.47725C12.3157 1.58274 12.375 1.72582 12.375 1.875V2.4375ZM11.8125 7.78125C11.8125 8.00503 11.7236 8.21964 11.5654 8.37787C11.4071 8.53611 11.1925 8.625 10.9688 8.625H7.03125C6.80747 8.625 6.59286 8.53611 6.43463 8.37787C6.27639 8.21964 6.1875 8.00503 6.1875 7.78125V7.64062C6.1875 7.60333 6.17268 7.56756 6.14631 7.54119C6.11994 7.51482 6.08417 7.5 6.04688 7.5H0.5625V12.5625C0.5625 13.1592 0.799553 13.7315 1.22151 14.1535C1.64347 14.5754 2.21576 14.8125 2.8125 14.8125H15.1875C15.7842 14.8125 16.3565 14.5754 16.7785 14.1535C17.2004 13.7315 17.4375 13.1592 17.4375 12.5625V7.5H11.9531C11.9158 7.5 11.8801 7.51482 11.8537 7.54119C11.8273 7.56756 11.8125 7.60333 11.8125 7.64062V7.78125Z" fill="#4F4B6A"/>
</svg>
