<svg width="55" height="33" viewBox="0 0 55 33" fill="none" xmlns="http://www.w3.org/2000/svg">
<path fill-rule="evenodd" clip-rule="evenodd" d="M8.45703 18.1528L11.542 0.70349L11.554 0.703064C13.6708 0.703064 15.6661 1.22833 17.4296 2.13122C20.0773 3.56492 22.0093 6.03507 22.7633 8.94983C23.5173 11.865 23.0249 14.962 21.4043 17.4996L16.88 24.5823L13.6107 19.9727C14.6134 19.3757 15.4549 18.7609 16.1354 18.1281C16.8156 17.4953 17.3229 16.845 17.6575 16.1764C17.9916 15.5077 18.1588 14.8276 18.1588 14.135C18.1588 13.0845 17.9318 12.4159 17.4783 12.1296C17.0247 11.8428 16.5233 11.6999 15.9741 11.6999C14.9475 11.6999 13.9209 11.9802 12.8943 12.5413C11.8676 13.1024 10.9366 13.8662 10.1007 14.8336C9.2652 15.8004 8.91061 16.9111 8.45703 18.1528Z" fill="#1A4B24"/>
<path fill-rule="evenodd" clip-rule="evenodd" d="M7.52281 23.4464C8.52555 20.7962 9.51677 18.7668 10.4956 17.3583C11.4745 15.9493 12.3936 14.9824 13.2529 14.4572C14.1127 13.9319 14.8287 13.6695 15.4018 13.6695C15.6646 13.6695 15.8374 13.7472 15.9211 13.902C16.0047 14.0574 16.0465 14.2067 16.0465 14.3501C16.0704 14.9705 15.7363 15.6272 15.0438 16.3197C14.3512 17.0118 13.3246 17.776 11.9639 18.6115C11.6771 18.7788 11.4745 18.958 11.355 19.1487C11.2355 19.3399 11.1758 19.531 11.1758 19.7218C11.1758 19.889 11.2415 20.1037 11.3729 20.3665C11.5043 20.6289 11.701 20.9396 11.9639 21.2976L15.2584 26.0249L15.6638 26.4171L11.5666 32.2969L7.08545 25.8901" fill="#297A3A"/>
<path fill-rule="evenodd" clip-rule="evenodd" d="M9.31416 0.924927L5.39836 23.2821L1.70445 17.4995C0.0838533 14.962 -0.408554 11.865 0.345419 8.94981C1.09939 6.03505 3.03147 3.5649 5.67913 2.1312C6.80475 1.55473 8.02425 1.13273 9.31416 0.924927Z" fill="#54C56B"/>
<path d="M30.6309 20V17.933L31.3199 17.348L32.8929 20H34.8299L32.5159 16.256L34.2839 14.722L33.3349 13.513L30.6309 15.996V10.822L28.9539 10.965V20H30.6309ZM38.5167 20.156C37.832 20.156 37.2384 20.0217 36.7357 19.753C36.233 19.4843 35.843 19.103 35.5657 18.609C35.2884 18.1063 35.1497 17.5213 35.1497 16.854C35.1584 16.178 35.297 15.593 35.5657 15.099C35.843 14.5963 36.233 14.2107 36.7357 13.942C37.247 13.6647 37.8407 13.526 38.5167 13.526C39.21 13.526 39.8037 13.6603 40.2977 13.929C40.8004 14.1977 41.1904 14.579 41.4677 15.073C41.745 15.567 41.8837 16.152 41.8837 16.828C41.8837 17.4953 41.745 18.0803 41.4677 18.583C41.1904 19.0857 40.8004 19.4757 40.2977 19.753C39.795 20.0217 39.2014 20.156 38.5167 20.156ZM38.5297 18.713C38.8504 18.713 39.1277 18.6307 39.3617 18.466C39.6044 18.3013 39.795 18.076 39.9337 17.79C40.0724 17.504 40.1417 17.1833 40.1417 16.828C40.1417 16.464 40.0724 16.1433 39.9337 15.866C39.795 15.5887 39.6044 15.372 39.3617 15.216C39.119 15.0513 38.8374 14.969 38.5167 14.969C38.2047 14.969 37.923 15.0513 37.6717 15.216C37.429 15.3807 37.2384 15.606 37.0997 15.892C36.961 16.1693 36.8917 16.49 36.8917 16.854C36.8917 17.218 36.961 17.5387 37.0997 17.816C37.2384 18.0933 37.4334 18.3143 37.6847 18.479C37.936 18.635 38.2177 18.713 38.5297 18.713ZM42.3437 14.995H43.3187V20H45.0347V14.995H46.7507L46.2177 13.721H45.0347V13.474C45.0347 13.136 45.0997 12.863 45.2297 12.655C45.3684 12.4383 45.5807 12.33 45.8667 12.33C45.9707 12.33 46.079 12.3473 46.1917 12.382C46.313 12.408 46.4387 12.4513 46.5687 12.512L47.0497 11.277C46.963 11.199 46.846 11.1297 46.6987 11.069C46.56 11.0083 46.4084 10.9607 46.2437 10.926C46.079 10.8913 45.9274 10.874 45.7887 10.874C45.2687 10.874 44.8267 10.9693 44.4627 11.16C44.0987 11.3507 43.817 11.6237 43.6177 11.979C43.4184 12.3257 43.3187 12.7417 43.3187 13.227V13.721H42.3567L42.3437 14.995ZM49.0523 18.115C49.0523 17.8897 49.1303 17.686 49.2863 17.504C49.4423 17.322 49.6676 17.231 49.9623 17.231H51.2363V18.193C51.0196 18.401 50.79 18.557 50.5473 18.661C50.3133 18.765 50.0793 18.817 49.8453 18.817C49.6893 18.817 49.5506 18.7867 49.4293 18.726C49.3166 18.6567 49.2256 18.57 49.1563 18.466C49.087 18.3533 49.0523 18.2363 49.0523 18.115ZM48.3763 15.502C48.6103 15.398 48.9006 15.3027 49.2473 15.216C49.594 15.1293 49.9146 15.086 50.2093 15.086C50.5213 15.086 50.764 15.177 50.9373 15.359C51.1193 15.5323 51.2146 15.775 51.2233 16.087V16.1H49.9883C49.2776 16.1087 48.7013 16.2863 48.2593 16.633C47.8173 16.971 47.5963 17.465 47.5963 18.115C47.5963 18.7217 47.7826 19.2157 48.1553 19.597C48.528 19.9697 49.1 20.156 49.8713 20.156C50.1833 20.156 50.478 20.078 50.7553 19.922C51.0413 19.766 51.3013 19.5667 51.5353 19.324L51.8213 20H52.9263V15.853C52.9263 15.4023 52.8006 15.0037 52.5493 14.657C52.3066 14.3017 51.9773 14.0243 51.5613 13.825C51.1453 13.6257 50.686 13.526 50.1833 13.526C50.01 13.526 49.7716 13.552 49.4683 13.604C49.1736 13.656 48.8833 13.7253 48.5973 13.812C48.3113 13.89 48.086 13.9853 47.9213 14.098L48.3763 15.502Z" fill="#404040"/>
</svg>
