<svg width="20" height="19" viewBox="0 0 20 19" fill="none" xmlns="http://www.w3.org/2000/svg">
<path d="M17.6456 0.3125H2.31031C1.47236 0.3125 0.740234 0.91543 0.740234 1.74354V17.1129C0.740234 17.9455 1.47236 18.6875 2.31031 18.6875H17.6411C18.4836 18.6875 19.1152 17.9406 19.1152 17.1129V1.74354C19.1202 0.91543 18.4836 0.3125 17.6456 0.3125ZM6.43607 15.629H3.80369V7.4443H6.43607V15.629ZM5.21094 6.19988H5.19207C4.34961 6.19988 3.8041 5.57275 3.8041 4.78772C3.8041 3.98832 4.36397 3.37596 5.22529 3.37596C6.08662 3.37596 6.61367 3.98381 6.63254 4.78772C6.63213 5.57275 6.08662 6.19988 5.21094 6.19988ZM16.0567 15.629H13.4243V11.1538C13.4243 10.0816 13.0412 9.34906 12.0888 9.34906C11.3612 9.34906 10.9306 9.84125 10.739 10.3207C10.6672 10.493 10.648 10.7276 10.648 10.9671V15.629H8.01559V7.4443H10.648V8.5833C11.0311 8.03779 11.6295 7.25275 13.022 7.25275C14.7499 7.25275 16.0571 8.39176 16.0571 10.8474L16.0567 15.629Z" fill="#404040"/>
</svg>
