<svg width="201" height="201" viewBox="0 0 201 201" fill="none" xmlns="http://www.w3.org/2000/svg">
<g opacity="0.2">
<line x1="0.5" y1="1" x2="0.499995" y2="201" stroke="#F4F5FD"/>
<line x1="40.5" y1="1" x2="40.5" y2="201" stroke="#F4F5FD"/>
<line x1="80.5" y1="1" x2="80.5" y2="201" stroke="#F4F5FD"/>
<line x1="120.5" y1="1" x2="120.5" y2="201" stroke="#F4F5FD"/>
<line x1="160.5" y1="1" x2="160.5" y2="201" stroke="#F4F5FD"/>
<line x1="200.5" y1="1" x2="200.5" y2="201" stroke="#F4F5FD"/>
</g>
<line opacity="0.2" x1="1" y1="0.5" x2="40" y2="0.5" stroke="#F4F5FD"/>
<line opacity="0.2" x1="41" y1="0.5" x2="80" y2="0.5" stroke="#F4F5FD"/>
<line opacity="0.2" x1="81" y1="0.5" x2="120" y2="0.5" stroke="#F4F5FD"/>
<line opacity="0.2" x1="121" y1="0.5" x2="160" y2="0.5" stroke="#F4F5FD"/>
<line opacity="0.2" x1="161" y1="0.5" x2="200" y2="0.5" stroke="#F4F5FD"/>
<line opacity="0.2" x1="1" y1="40.5" x2="40" y2="40.5" stroke="#F4F5FD"/>
<line opacity="0.2" x1="41" y1="40.5" x2="80" y2="40.5" stroke="#F4F5FD"/>
<line opacity="0.2" x1="81" y1="40.5" x2="120" y2="40.5" stroke="#F4F5FD"/>
<line opacity="0.2" x1="121" y1="40.5" x2="160" y2="40.5" stroke="#F4F5FD"/>
<line opacity="0.2" x1="161" y1="40.5" x2="200" y2="40.5" stroke="#F4F5FD"/>
<line opacity="0.2" x1="1" y1="80.5" x2="40" y2="80.5" stroke="#F4F5FD"/>
<line opacity="0.2" x1="41" y1="80.5" x2="80" y2="80.5" stroke="#F4F5FD"/>
<line opacity="0.2" x1="81" y1="80.5" x2="120" y2="80.5" stroke="#F4F5FD"/>
<line opacity="0.2" x1="121" y1="80.5" x2="160" y2="80.5" stroke="#F4F5FD"/>
<line opacity="0.2" x1="161" y1="80.5" x2="200" y2="80.5" stroke="#F4F5FD"/>
<line opacity="0.2" x1="1" y1="120.5" x2="40" y2="120.5" stroke="#F4F5FD"/>
<line opacity="0.2" x1="41" y1="120.5" x2="80" y2="120.5" stroke="#F4F5FD"/>
<line opacity="0.2" x1="81" y1="120.5" x2="120" y2="120.5" stroke="#F4F5FD"/>
<line opacity="0.2" x1="121" y1="120.5" x2="160" y2="120.5" stroke="#F4F5FD"/>
<line opacity="0.2" x1="161" y1="120.5" x2="200" y2="120.5" stroke="#F4F5FD"/>
<line opacity="0.2" x1="1" y1="160.5" x2="40" y2="160.5" stroke="#F4F5FD"/>
<line opacity="0.2" x1="41" y1="160.5" x2="80" y2="160.5" stroke="#F4F5FD"/>
<line opacity="0.2" x1="81" y1="160.5" x2="120" y2="160.5" stroke="#F4F5FD"/>
<line opacity="0.2" x1="121" y1="160.5" x2="160" y2="160.5" stroke="#F4F5FD"/>
<line opacity="0.2" x1="161" y1="160.5" x2="200" y2="160.5" stroke="#F4F5FD"/>
</svg>
