<svg width="521" height="90" viewBox="0 0 521 90" fill="none" xmlns="http://www.w3.org/2000/svg">
<g opacity="0.2">
<line x1="40.5" y1="2.18558e-08" x2="40.5" y2="90" stroke="#F4F5FD"/>
<line x1="80.5" y1="2.18558e-08" x2="80.5" y2="90" stroke="#F4F5FD"/>
<line x1="120.5" y1="2.18558e-08" x2="120.5" y2="90" stroke="#F4F5FD"/>
<line x1="160.5" y1="2.18558e-08" x2="160.5" y2="90" stroke="#F4F5FD"/>
<line x1="200.5" y1="2.18558e-08" x2="200.5" y2="90" stroke="#F4F5FD"/>
<line x1="240.5" y1="2.18558e-08" x2="240.5" y2="90" stroke="#F4F5FD"/>
<line x1="280.5" y1="2.18558e-08" x2="280.5" y2="90" stroke="#F4F5FD"/>
<line x1="320.5" y1="2.18558e-08" x2="320.5" y2="90" stroke="#F4F5FD"/>
<line x1="360.5" y1="2.18558e-08" x2="360.5" y2="90" stroke="#F4F5FD"/>
<line x1="400.5" y1="2.18558e-08" x2="400.5" y2="90" stroke="#F4F5FD"/>
<line x1="440.5" y1="2.18558e-08" x2="440.5" y2="90" stroke="#F4F5FD"/>
<line x1="480.5" y1="2.18558e-08" x2="480.5" y2="90" stroke="#F4F5FD"/>
<line x1="520.5" y1="2.18558e-08" x2="520.5" y2="90" stroke="#F4F5FD"/>
</g>
<line opacity="0.2" y1="49.5" x2="40" y2="49.5" stroke="#F4F5FD"/>
<line opacity="0.2" y1="89.5" x2="40" y2="89.5" stroke="#F4F5FD"/>
<line opacity="0.2" x1="41" y1="49.5" x2="80" y2="49.5" stroke="#F4F5FD"/>
<line opacity="0.2" x1="41" y1="89.5" x2="80" y2="89.5" stroke="#F4F5FD"/>
<line opacity="0.2" x1="81" y1="49.5" x2="120" y2="49.5" stroke="#F4F5FD"/>
<line opacity="0.2" x1="81" y1="89.5" x2="120" y2="89.5" stroke="#F4F5FD"/>
<line opacity="0.2" x1="121" y1="49.5" x2="160" y2="49.5" stroke="#F4F5FD"/>
<line opacity="0.2" x1="121" y1="89.5" x2="160" y2="89.5" stroke="#F4F5FD"/>
<line opacity="0.2" x1="161" y1="49.5" x2="200" y2="49.5" stroke="#F4F5FD"/>
<line opacity="0.2" x1="161" y1="89.5" x2="200" y2="89.5" stroke="#F4F5FD"/>
<line opacity="0.2" x1="201" y1="49.5" x2="240" y2="49.5" stroke="#F4F5FD"/>
<line opacity="0.2" x1="201" y1="89.5" x2="240" y2="89.5" stroke="#F4F5FD"/>
<line opacity="0.2" x1="241" y1="49.5" x2="280" y2="49.5" stroke="#F4F5FD"/>
<line opacity="0.2" x1="241" y1="89.5" x2="280" y2="89.5" stroke="#F4F5FD"/>
<line opacity="0.2" x1="281" y1="49.5" x2="320" y2="49.5" stroke="#F4F5FD"/>
<line opacity="0.2" x1="281" y1="89.5" x2="320" y2="89.5" stroke="#F4F5FD"/>
<line opacity="0.2" x1="321" y1="49.5" x2="360" y2="49.5" stroke="#F4F5FD"/>
<line opacity="0.2" x1="321" y1="89.5" x2="360" y2="89.5" stroke="#F4F5FD"/>
<line opacity="0.2" x1="361" y1="49.5" x2="400" y2="49.5" stroke="#F4F5FD"/>
<line opacity="0.2" x1="361" y1="89.5" x2="400" y2="89.5" stroke="#F4F5FD"/>
<line opacity="0.2" x1="401" y1="49.5" x2="440" y2="49.5" stroke="#F4F5FD"/>
<line opacity="0.2" x1="401" y1="89.5" x2="440" y2="89.5" stroke="#F4F5FD"/>
<line opacity="0.2" x1="441" y1="49.5" x2="480" y2="49.5" stroke="#F4F5FD"/>
<line opacity="0.2" x1="441" y1="89.5" x2="480" y2="89.5" stroke="#F4F5FD"/>
<line opacity="0.2" x1="481" y1="49.5" x2="520" y2="49.5" stroke="#F4F5FD"/>
<line opacity="0.2" x1="481" y1="89.5" x2="520" y2="89.5" stroke="#F4F5FD"/>
</svg>
