<svg width="25" height="25" viewBox="0 0 25 25" fill="none" xmlns="http://www.w3.org/2000/svg">
<path d="M12.5 2.34375C6.8999 2.34375 2.34375 6.8999 2.34375 12.5C2.34375 18.1001 6.8999 22.6562 12.5 22.6562C18.1001 22.6562 22.6562 18.1001 22.6562 12.5C22.6562 6.8999 18.1001 2.34375 12.5 2.34375ZM10.1562 8.59375C10.1581 7.9727 10.4056 7.37761 10.8447 6.93846C11.2839 6.49931 11.879 6.2518 12.5 6.25C13.121 6.2518 13.7161 6.49931 14.1553 6.93846C14.5944 7.37761 14.8419 7.9727 14.8438 8.59375V11.7188C14.8419 12.3398 14.5944 12.9349 14.1553 13.374C13.7161 13.8132 13.121 14.0607 12.5 14.0625C11.879 14.0607 11.2839 13.8132 10.8447 13.374C10.4056 12.9349 10.1581 12.3398 10.1562 11.7188V8.59375ZM17.1875 12.1201C17.1875 13.2607 16.6533 14.3472 15.6841 15.1797C14.9992 15.7676 14.1696 16.1617 13.2812 16.3213V17.1875H14.0625C14.2697 17.1875 14.4684 17.2698 14.6149 17.4163C14.7614 17.5628 14.8438 17.7615 14.8438 17.9688C14.8438 18.176 14.7614 18.3747 14.6149 18.5212C14.4684 18.6677 14.2697 18.75 14.0625 18.75H10.9375C10.7303 18.75 10.5316 18.6677 10.3851 18.5212C10.2386 18.3747 10.1562 18.176 10.1562 17.9688C10.1562 17.7615 10.2386 17.5628 10.3851 17.4163C10.5316 17.2698 10.7303 17.1875 10.9375 17.1875H11.7188V16.3213C10.8304 16.1617 10.0008 15.7676 9.31592 15.1797C8.34668 14.3472 7.8125 13.2607 7.8125 12.1201V10.9521C7.8125 10.7449 7.89481 10.5462 8.04132 10.3997C8.18784 10.2532 8.38655 10.1709 8.59375 10.1709C8.80095 10.1709 8.99966 10.2532 9.14618 10.3997C9.29269 10.5462 9.375 10.7449 9.375 10.9521V12.1201C9.375 13.373 10.7422 14.8291 12.5 14.8291C13.9453 14.8291 15.625 13.646 15.625 12.1201V10.9521C15.625 10.7449 15.7073 10.5462 15.8538 10.3997C16.0003 10.2532 16.199 10.1709 16.4062 10.1709C16.6135 10.1709 16.8122 10.2532 16.9587 10.3997C17.1052 10.5462 17.1875 10.7449 17.1875 10.9521V12.1201Z" fill="#F58220"/>
</svg>
