<svg width="18" height="19" viewBox="0 0 18 19" fill="none" xmlns="http://www.w3.org/2000/svg">
<path d="M15.4656 4.4375H14.6282C14.6273 4.4375 14.6265 4.43783 14.6259 4.43843C14.6253 4.43902 14.625 4.43982 14.625 4.44066V15.125C14.625 15.4234 14.7435 15.7095 14.9545 15.9205C15.1655 16.1315 15.4516 16.25 15.75 16.25C16.0484 16.25 16.3345 16.1315 16.5455 15.9205C16.7565 15.7095 16.875 15.4234 16.875 15.125V5.84691C16.875 5.47311 16.7265 5.11462 16.4622 4.85031C16.1979 4.58599 15.8394 4.4375 15.4656 4.4375Z" fill="#4F4B6A"/>
<path d="M13.5 15.125V3.03125C13.5 2.84658 13.4636 2.66372 13.393 2.4931C13.3223 2.32249 13.2187 2.16746 13.0881 2.03688C12.9575 1.9063 12.8025 1.80272 12.6319 1.73204C12.4613 1.66137 12.2784 1.625 12.0938 1.625H2.53125C2.15829 1.625 1.8006 1.77316 1.53688 2.03688C1.27316 2.3006 1.125 2.65829 1.125 3.03125V15.4062C1.125 15.9284 1.33242 16.4292 1.70163 16.7984C2.07085 17.1676 2.57161 17.375 3.09375 17.375H15.1471C15.1524 17.375 15.1577 17.374 15.1626 17.372C15.1675 17.37 15.172 17.367 15.1758 17.3633C15.1795 17.3595 15.1825 17.355 15.1845 17.3501C15.1865 17.3452 15.1875 17.3399 15.1875 17.3346C15.1875 17.3257 15.1845 17.3171 15.1791 17.3102C15.1737 17.3032 15.1662 17.2981 15.1576 17.2959C14.6818 17.1654 14.2619 16.8823 13.9625 16.4901C13.6631 16.098 13.5006 15.6184 13.5 15.125ZM3.375 5C3.375 4.85082 3.43426 4.70774 3.53975 4.60225C3.64524 4.49676 3.78832 4.4375 3.9375 4.4375H6.1875C6.33668 4.4375 6.47976 4.49676 6.58525 4.60225C6.69074 4.70774 6.75 4.85082 6.75 5V7.25C6.75 7.39918 6.69074 7.54226 6.58525 7.64775C6.47976 7.75324 6.33668 7.8125 6.1875 7.8125H3.9375C3.78832 7.8125 3.64524 7.75324 3.53975 7.64775C3.43426 7.54226 3.375 7.39918 3.375 7.25V5ZM10.6875 14.5625H3.95332C3.65062 14.5625 3.39082 14.3298 3.3757 14.0271C3.37204 13.951 3.38385 13.875 3.41043 13.8037C3.43701 13.7323 3.4778 13.6671 3.53033 13.612C3.58286 13.5568 3.64603 13.5129 3.71602 13.483C3.78601 13.453 3.86136 13.4375 3.9375 13.4375H10.6717C10.9744 13.4375 11.2342 13.6702 11.2493 13.9729C11.253 14.049 11.2411 14.125 11.2146 14.1963C11.188 14.2677 11.1472 14.3329 11.0947 14.388C11.0421 14.4432 10.979 14.4871 10.909 14.517C10.839 14.547 10.7636 14.5625 10.6875 14.5625ZM10.6875 12.3125H3.95332C3.65062 12.3125 3.39082 12.0798 3.3757 11.7771C3.37204 11.701 3.38385 11.625 3.41043 11.5537C3.43701 11.4823 3.4778 11.4171 3.53033 11.362C3.58286 11.3068 3.64603 11.2629 3.71602 11.233C3.78601 11.203 3.86136 11.1875 3.9375 11.1875H10.6717C10.9744 11.1875 11.2342 11.4202 11.2493 11.7229C11.253 11.799 11.2411 11.875 11.2146 11.9463C11.188 12.0177 11.1472 12.0829 11.0947 12.138C11.0421 12.1932 10.979 12.2371 10.909 12.267C10.839 12.297 10.7636 12.3125 10.6875 12.3125ZM10.6875 10.0625H3.95332C3.65062 10.0625 3.39082 9.82977 3.3757 9.52707C3.37204 9.45101 3.38385 9.37501 3.41043 9.30365C3.43701 9.2323 3.4778 9.16708 3.53033 9.11196C3.58286 9.05684 3.64603 9.01295 3.71602 8.98296C3.78601 8.95297 3.86136 8.93751 3.9375 8.9375H10.6717C10.9744 8.9375 11.2342 9.17023 11.2493 9.47293C11.253 9.54899 11.2411 9.62499 11.2146 9.69635C11.188 9.7677 11.1472 9.83292 11.0947 9.88804C11.0421 9.94316 10.979 9.98705 10.909 10.017C10.839 10.047 10.7636 10.0625 10.6875 10.0625ZM10.6875 7.8125H8.45332C8.15062 7.8125 7.89082 7.57977 7.8757 7.27707C7.87204 7.20101 7.88385 7.12501 7.91043 7.05365C7.93701 6.9823 7.9778 6.91708 8.03033 6.86196C8.08286 6.80684 8.14603 6.76295 8.21602 6.73296C8.28601 6.70297 8.36136 6.68751 8.4375 6.6875H10.6717C10.9744 6.6875 11.2342 6.92023 11.2493 7.22293C11.253 7.29899 11.2411 7.37499 11.2146 7.44635C11.188 7.5177 11.1472 7.58292 11.0947 7.63804C11.0421 7.69316 10.979 7.73705 10.909 7.76704C10.839 7.79703 10.7636 7.81249 10.6875 7.8125ZM10.6875 5.5625H8.45332C8.15062 5.5625 7.89082 5.32977 7.8757 5.02707C7.87204 4.95102 7.88385 4.87501 7.91043 4.80365C7.93701 4.7323 7.9778 4.66708 8.03033 4.61196C8.08286 4.55684 8.14603 4.51295 8.21602 4.48296C8.28601 4.45297 8.36136 4.43751 8.4375 4.4375H10.6717C10.9744 4.4375 11.2342 4.67023 11.2493 4.97293C11.253 5.04899 11.2411 5.12499 11.2146 5.19635C11.188 5.2677 11.1472 5.33292 11.0947 5.38804C11.0421 5.44316 10.979 5.48705 10.909 5.51704C10.839 5.54703 10.7636 5.56249 10.6875 5.5625Z" fill="#4F4B6A"/>
</svg>
