<svg width="455" height="453" viewBox="0 0 455 453" fill="none" xmlns="http://www.w3.org/2000/svg">
<g clip-path="url(#clip0_503_6381)">
<path d="M454.5 444.74H14.2402" stroke="#263238" stroke-linecap="round" stroke-linejoin="round"/>
<g opacity="0.3">
<path d="M206.801 18.5605V384.091H325.541V18.5605H206.801ZM319.561 26.6805V80.6805H270.141V26.6805H319.561ZM262.761 26.6805V80.6805H212.761V26.6805H262.761ZM212.761 89.1905H262.761V142.721H212.761V89.1905ZM319.561 375.991H212.781V151.991H319.561V375.991ZM270.141 142.721V89.1905H319.561V142.721H270.141Z" stroke="black" stroke-linecap="round" stroke-linejoin="round"/>
<path d="M325.08 18.5605V384.091H443.82V18.5605H325.08ZM437.84 26.6805V80.6805H388.42V26.6805H437.84ZM381.03 26.6805V80.6805H331.03V26.6805H381.03ZM331.03 89.1905H381.03V142.721H331.03V89.1905ZM437.84 375.991H331.06V151.991H437.84V375.991ZM388.42 142.721V89.1905H437.84V142.721H388.42Z" stroke="black" stroke-linecap="round" stroke-linejoin="round"/>
<path d="M292.98 212.681L263.17 249.781" stroke="black" stroke-linecap="round" stroke-linejoin="round"/>
<path d="M300.381 203.471L295.641 209.371" stroke="black" stroke-linecap="round" stroke-linejoin="round"/>
<path d="M230.76 276.841L224.66 284.011" stroke="black" stroke-linecap="round" stroke-linejoin="round"/>
<path d="M270.35 230.32L235.33 271.47" stroke="black" stroke-linecap="round" stroke-linejoin="round"/>
<path d="M413.091 224.011L383.281 261.111" stroke="black" stroke-linecap="round" stroke-linejoin="round"/>
<path d="M420.49 214.801L415.75 220.701" stroke="black" stroke-linecap="round" stroke-linejoin="round"/>
<path d="M350.881 288.16L344.771 295.34" stroke="black" stroke-linecap="round" stroke-linejoin="round"/>
<path d="M390.471 241.641L355.451 282.791" stroke="black" stroke-linecap="round" stroke-linejoin="round"/>
<path d="M426.86 35.1602L412.59 52.9202" stroke="black" stroke-linecap="round" stroke-linejoin="round"/>
<path d="M430.401 30.751L428.141 33.581" stroke="black" stroke-linecap="round" stroke-linejoin="round"/>
<path d="M397.08 65.8701L394.16 69.3001" stroke="black" stroke-linecap="round" stroke-linejoin="round"/>
<path d="M416.031 43.6006L399.271 63.3006" stroke="black" stroke-linecap="round" stroke-linejoin="round"/>
<path d="M371.18 35.1602L356.91 52.9202" stroke="black" stroke-linecap="round" stroke-linejoin="round"/>
<path d="M374.721 30.751L372.461 33.581" stroke="black" stroke-linecap="round" stroke-linejoin="round"/>
<path d="M341.4 65.8701L338.48 69.3001" stroke="black" stroke-linecap="round" stroke-linejoin="round"/>
<path d="M360.35 43.6006L343.59 63.3006" stroke="black" stroke-linecap="round" stroke-linejoin="round"/>
<path d="M371.18 101.69L356.91 119.45" stroke="black" stroke-linecap="round" stroke-linejoin="round"/>
<path d="M374.721 97.2803L372.461 100.11" stroke="black" stroke-linecap="round" stroke-linejoin="round"/>
<path d="M341.4 132.4L338.48 135.84" stroke="black" stroke-linecap="round" stroke-linejoin="round"/>
<path d="M360.35 110.131L343.59 129.831" stroke="black" stroke-linecap="round" stroke-linejoin="round"/>
<path d="M420.84 101.69L406.57 119.45" stroke="black" stroke-linecap="round" stroke-linejoin="round"/>
<path d="M424.381 97.2803L422.121 100.11" stroke="black" stroke-linecap="round" stroke-linejoin="round"/>
<path d="M391.061 132.4L388.141 135.84" stroke="black" stroke-linecap="round" stroke-linejoin="round"/>
<path d="M410.01 110.131L393.25 129.831" stroke="black" stroke-linecap="round" stroke-linejoin="round"/>
<path d="M309.481 35.1602L295.221 52.9202" stroke="black" stroke-linecap="round" stroke-linejoin="round"/>
<path d="M313.032 30.751L310.762 33.581" stroke="black" stroke-linecap="round" stroke-linejoin="round"/>
<path d="M279.701 65.8701L276.781 69.3001" stroke="black" stroke-linecap="round" stroke-linejoin="round"/>
<path d="M298.651 43.6006L281.891 63.3006" stroke="black" stroke-linecap="round" stroke-linejoin="round"/>
<path d="M309.481 100.15L295.221 117.9" stroke="black" stroke-linecap="round" stroke-linejoin="round"/>
<path d="M313.032 95.7402L310.762 98.5602" stroke="black" stroke-linecap="round" stroke-linejoin="round"/>
<path d="M279.701 130.851L276.781 134.291" stroke="black" stroke-linecap="round" stroke-linejoin="round"/>
<path d="M298.651 108.591L281.891 128.281" stroke="black" stroke-linecap="round" stroke-linejoin="round"/>
<path d="M255.311 100.15L241.041 117.9" stroke="black" stroke-linecap="round" stroke-linejoin="round"/>
<path d="M258.85 95.7402L256.58 98.5602" stroke="black" stroke-linecap="round" stroke-linejoin="round"/>
<path d="M225.531 130.851L222.611 134.291" stroke="black" stroke-linecap="round" stroke-linejoin="round"/>
<path d="M244.481 108.591L227.721 128.281" stroke="black" stroke-linecap="round" stroke-linejoin="round"/>
<path d="M251.551 35.1602L237.281 52.9202" stroke="black" stroke-linecap="round" stroke-linejoin="round"/>
<path d="M255.09 30.751L252.82 33.581" stroke="black" stroke-linecap="round" stroke-linejoin="round"/>
<path d="M221.77 65.8701L218.84 69.3001" stroke="black" stroke-linecap="round" stroke-linejoin="round"/>
<path d="M240.721 43.6006L223.951 63.3006" stroke="black" stroke-linecap="round" stroke-linejoin="round"/>
</g>
<path d="M68.8898 321.81C68.8898 321.81 57.8898 315.72 57.1098 329.54C56.3298 343.36 54.2598 433.18 54.2598 433.18" stroke="#263238" stroke-miterlimit="10" stroke-linecap="round"/>
<path d="M51.4102 330.75C51.4102 330.75 60.4102 350.67 56.2902 431.96" stroke="#263238" stroke-miterlimit="10" stroke-linecap="round"/>
<path d="M60.1992 324.6C60.1992 324.6 55.9992 327.29 53.6092 324.21C51.2192 321.13 55.2292 315.49 51.7292 313.08C48.2292 310.67 42.1092 314.35 42.1092 314.35C42.1092 314.35 46.7992 315.73 46.6492 318.29C46.4992 320.85 44.2392 321.82 43.9392 320.7C43.6392 319.58 41.3992 313.94 37.5892 316.28C36.4898 316.931 35.5339 317.799 34.7794 318.83C34.0248 319.862 33.4873 321.035 33.1992 322.28C33.1992 322.28 42.0592 321.33 42.5992 324.67C43.1392 328.01 38.9592 324.09 35.3092 323.87C31.6592 323.65 28.3092 324.19 28.5492 326.41C28.6287 328.367 28.5114 330.327 28.1992 332.26C30.2004 330.6 32.7292 329.71 35.3292 329.75C39.3292 329.98 39.1992 332.54 35.5392 332.33C31.8792 332.12 28.7292 335.59 28.7292 335.59C28.7292 335.59 32.0592 341.29 36.2992 344.11C40.5392 346.93 42.0692 345.92 42.5692 343.75C43.0692 341.58 41.9192 336 44.4792 336.15C47.0392 336.3 40.2392 345.81 43.4792 346.37C46.7192 346.93 49.3792 345.99 50.2392 343.84L51.0992 341.68C51.0992 341.68 49.9592 336.11 50.4592 333.94C50.9592 331.77 51.5592 334 52.1392 336.6C52.7192 339.2 53.0792 345.47 54.1992 345.17C55.3192 344.87 58.8992 340.31 59.7392 338.52C60.5792 336.73 55.0192 331.27 55.0892 330.17C55.1592 329.07 59.4392 331.17 60.0892 332.3C60.583 333.173 61.0303 334.07 61.4292 334.99C61.4292 334.99 64.0892 333.31 64.0292 328.17C63.9692 323.03 60.1992 324.6 60.1992 324.6Z" fill="#92E3A9"/>
<path opacity="0.3" d="M60.1992 324.6C60.1992 324.6 55.9992 327.29 53.6092 324.21C51.2192 321.13 55.2292 315.49 51.7292 313.08C48.2292 310.67 42.1092 314.35 42.1092 314.35C42.1092 314.35 46.7992 315.73 46.6492 318.29C46.4992 320.85 44.2392 321.82 43.9392 320.7C43.6392 319.58 41.3992 313.94 37.5892 316.28C36.4898 316.931 35.5339 317.799 34.7794 318.83C34.0248 319.862 33.4873 321.035 33.1992 322.28C33.1992 322.28 42.0592 321.33 42.5992 324.67C43.1392 328.01 38.9592 324.09 35.3092 323.87C31.6592 323.65 28.3092 324.19 28.5492 326.41C28.6287 328.367 28.5114 330.327 28.1992 332.26C30.2004 330.6 32.7292 329.71 35.3292 329.75C39.3292 329.98 39.1992 332.54 35.5392 332.33C31.8792 332.12 28.7292 335.59 28.7292 335.59C28.7292 335.59 32.0592 341.29 36.2992 344.11C40.5392 346.93 42.0692 345.92 42.5692 343.75C43.0692 341.58 41.9192 336 44.4792 336.15C47.0392 336.3 40.2392 345.81 43.4792 346.37C46.7192 346.93 49.3792 345.99 50.2392 343.84L51.0992 341.68C51.0992 341.68 49.9592 336.11 50.4592 333.94C50.9592 331.77 51.5592 334 52.1392 336.6C52.7192 339.2 53.0792 345.47 54.1992 345.17C55.3192 344.87 58.8992 340.31 59.7392 338.52C60.5792 336.73 55.0192 331.27 55.0892 330.17C55.1592 329.07 59.4392 331.17 60.0892 332.3C60.583 333.173 61.0303 334.07 61.4292 334.99C61.4292 334.99 64.0892 333.31 64.0292 328.17C63.9692 323.03 60.1992 324.6 60.1992 324.6Z" fill="#263238"/>
<path d="M38.9199 336.66C41.6599 333.27 45.6899 328.66 49.0699 326.51" stroke="#263238" stroke-miterlimit="10" stroke-linecap="round"/>
<path d="M35.7305 340.78C35.7305 340.78 36.4305 339.78 37.5705 338.34" stroke="#263238" stroke-miterlimit="10" stroke-linecap="round"/>
<path d="M50.8594 327.351C50.8594 327.351 54.9294 333.101 55.7294 338.991" stroke="#263238" stroke-miterlimit="10" stroke-linecap="round"/>
<path d="M46.25 330.75C46.25 330.75 47.39 330.08 46.96 337.4" stroke="#263238" stroke-miterlimit="10" stroke-linecap="round"/>
<path d="M49.2207 323.991C49.2207 323.991 51.5507 321.921 50.3207 317.811" stroke="#263238" stroke-miterlimit="10" stroke-linecap="round"/>
<path d="M46.0799 327.43L44.4199 324.4" stroke="#263238" stroke-miterlimit="10" stroke-linecap="round"/>
<path d="M42.5893 330.53C42.5893 330.53 37.3193 326.53 34.0293 326.36" stroke="#263238" stroke-miterlimit="10" stroke-linecap="round"/>
<path d="M75.1591 313.75C75.1591 313.75 74.9891 319.75 70.2791 320.08C65.5691 320.41 62.6591 312.52 57.8391 314.41C53.0191 316.3 52.5491 324.91 52.5491 324.91C52.5491 324.91 57.1291 321.15 59.5491 323.05C61.9691 324.95 61.4391 327.87 60.1091 327.41C58.7791 326.95 51.6191 325.34 51.3691 330.75C51.2702 332.293 51.4851 333.84 52.0007 335.297C52.5163 336.755 53.322 338.092 54.3691 339.23C54.3691 339.23 59.4691 329.71 63.1791 331.44C66.8891 333.17 60.1191 334.69 57.4091 338.2C54.6991 341.71 52.9591 345.43 55.3391 346.7C57.3566 347.954 59.2428 349.408 60.9691 351.04C60.6638 347.906 61.4904 344.767 63.2991 342.19C66.2991 338.32 68.7491 340.19 66.0391 343.73C63.3291 347.27 64.6691 352.73 64.6691 352.73C64.6691 352.73 72.6691 353.28 78.3691 350.96C84.0691 348.64 84.1091 346.42 82.2791 344.44C80.4491 342.46 74.0791 339.8 75.9791 337.34C77.8791 334.88 82.7591 348.18 85.5491 345.28C88.3391 342.38 89.1791 339.11 87.6191 336.78L86.0491 334.46C86.0491 334.46 79.6891 331.8 77.8491 329.82C76.0091 327.84 78.7291 328.8 81.7291 329.99C84.7291 331.18 91.2491 335.09 91.7291 333.76C92.2091 332.43 90.0591 325.76 88.8391 323.69C87.6191 321.62 78.3691 323.46 77.3091 322.69C76.2491 321.92 81.3091 319.01 82.8691 319.12C84.0568 319.222 85.2383 319.386 86.4091 319.61C86.4091 319.61 86.5491 315.79 81.4091 312.35C76.2691 308.91 75.1591 313.75 75.1591 313.75Z" fill="#92E3A9"/>
<path opacity="0.2" d="M75.1591 313.75C75.1591 313.75 74.9891 319.75 70.2791 320.08C65.5691 320.41 62.6591 312.52 57.8391 314.41C53.0191 316.3 52.5491 324.91 52.5491 324.91C52.5491 324.91 57.1291 321.15 59.5491 323.05C61.9691 324.95 61.4391 327.87 60.1091 327.41C58.7791 326.95 51.6191 325.34 51.3691 330.75C51.2702 332.293 51.4851 333.84 52.0007 335.297C52.5163 336.755 53.322 338.092 54.3691 339.23C54.3691 339.23 59.4691 329.71 63.1791 331.44C66.8891 333.17 60.1191 334.69 57.4091 338.2C54.6991 341.71 52.9591 345.43 55.3391 346.7C57.3566 347.954 59.2428 349.408 60.9691 351.04C60.6638 347.906 61.4904 344.767 63.2991 342.19C66.2991 338.32 68.7491 340.19 66.0391 343.73C63.3291 347.27 64.6691 352.73 64.6691 352.73C64.6691 352.73 72.6691 353.28 78.3691 350.96C84.0691 348.64 84.1091 346.42 82.2791 344.44C80.4491 342.46 74.0791 339.8 75.9791 337.34C77.8791 334.88 82.7591 348.18 85.5491 345.28C88.3391 342.38 89.1791 339.11 87.6191 336.78L86.0491 334.46C86.0491 334.46 79.6891 331.8 77.8491 329.82C76.0091 327.84 78.7291 328.8 81.7291 329.99C84.7291 331.18 91.2491 335.09 91.7291 333.76C92.2091 332.43 90.0591 325.76 88.8391 323.69C87.6191 321.62 78.3691 323.46 77.3091 322.69C76.2491 321.92 81.3091 319.01 82.8691 319.12C84.0568 319.222 85.2383 319.386 86.4091 319.61C86.4091 319.61 86.5491 315.79 81.4091 312.35C76.2691 308.91 75.1591 313.75 75.1591 313.75Z" fill="#263238"/>
<path d="M72.7291 343.28C71.2091 338.23 69.3791 331.07 69.4891 326.2" stroke="#263238" stroke-miterlimit="10" stroke-linecap="round"/>
<path d="M74.7308 349.26C74.7308 349.26 74.2408 347.89 73.5508 345.76" stroke="#263238" stroke-miterlimit="10" stroke-linecap="round"/>
<path d="M71.5508 324.99C71.5508 324.99 80.0808 324.84 86.5508 328.12" stroke="#263238" stroke-miterlimit="10" stroke-linecap="round"/>
<path d="M71.8203 331.91C71.8203 331.91 71.9203 330.31 78.9603 335.73" stroke="#263238" stroke-miterlimit="10" stroke-linecap="round"/>
<path d="M67.0296 324.3C67.0296 324.3 66.5496 320.56 61.5996 318.99" stroke="#263238" stroke-miterlimit="10" stroke-linecap="round"/>
<path d="M68.3809 329.82L64.2109 329.41" stroke="#263238" stroke-miterlimit="10" stroke-linecap="round"/>
<path d="M69.0996 335.431C69.0996 335.431 61.5196 337.991 59.0996 341.161" stroke="#263238" stroke-miterlimit="10" stroke-linecap="round"/>
<path d="M24.5898 353.92C24.5898 353.92 48.5898 369.77 48.1598 431.15" stroke="#263238" stroke-miterlimit="10" stroke-linecap="round"/>
<path d="M54.1594 349.74C54.1594 349.74 53.3894 356.68 47.9294 356.58C42.4694 356.48 39.8394 347.14 34.0994 348.86C28.3594 350.58 27.0094 360.48 27.0094 360.48C27.0094 360.48 32.6494 356.57 35.3094 358.99C37.9694 361.41 37.0394 364.73 35.5494 364.08C34.0594 363.43 25.9394 360.89 25.1394 367.08C24.8784 368.851 24.9796 370.657 25.4368 372.388C25.894 374.119 26.6978 375.739 27.7994 377.15C27.7994 377.15 34.5794 366.67 38.7294 368.99C42.8794 371.31 34.8894 372.45 31.4294 376.25C27.9694 380.05 25.6194 384.16 28.2494 385.86C30.4606 387.49 32.498 389.343 34.3294 391.39C34.3294 391.39 34.0594 385.59 37.8594 381.39C41.6594 377.19 44.3294 379.63 40.8594 383.39C37.3894 387.15 38.4394 393.7 38.4394 393.7C38.4394 393.7 47.5994 395.08 54.4394 392.94C61.2794 390.8 61.4994 388.24 59.5594 385.79C57.6194 383.34 50.5594 379.66 52.9594 377C55.3594 374.34 59.7694 390.15 63.2594 387.07C66.7494 383.99 68.0294 380.29 66.4394 377.46L64.8594 374.62C64.8594 374.62 57.7694 370.96 55.8594 368.5C53.9494 366.04 56.8594 367.36 60.2494 369.02C63.6394 370.68 70.7594 375.8 71.4194 374.31C72.0794 372.82 70.2494 364.91 69.0394 362.42C67.8294 359.93 56.8794 361.25 55.7294 360.21C54.5794 359.17 60.6394 356.34 62.4794 356.62C63.827 356.853 65.162 357.153 66.4794 357.52C66.4794 357.52 66.9994 353.13 61.3294 348.67C55.6594 344.21 54.1594 349.74 54.1594 349.74Z" fill="#92E3A9"/>
<path opacity="0.3" d="M54.1594 349.74C54.1594 349.74 53.3894 356.68 47.9294 356.58C42.4694 356.48 39.8394 347.14 34.0994 348.86C28.3594 350.58 27.0094 360.48 27.0094 360.48C27.0094 360.48 32.6494 356.57 35.3094 358.99C37.9694 361.41 37.0394 364.73 35.5494 364.08C34.0594 363.43 25.9394 360.89 25.1394 367.08C24.8784 368.851 24.9796 370.657 25.4368 372.388C25.894 374.119 26.6978 375.739 27.7994 377.15C27.7994 377.15 34.5794 366.67 38.7294 368.99C42.8794 371.31 34.8894 372.45 31.4294 376.25C27.9694 380.05 25.6194 384.16 28.2494 385.86C30.4606 387.49 32.498 389.343 34.3294 391.39C34.3294 391.39 34.0594 385.59 37.8594 381.39C41.6594 377.19 44.3294 379.63 40.8594 383.39C37.3894 387.15 38.4394 393.7 38.4394 393.7C38.4394 393.7 47.5994 395.08 54.4394 392.94C61.2794 390.8 61.4994 388.24 59.5594 385.79C57.6194 383.34 50.5594 379.66 52.9594 377C55.3594 374.34 59.7694 390.15 63.2594 387.07C66.7494 383.99 68.0294 380.29 66.4394 377.46L64.8594 374.62C64.8594 374.62 57.7694 370.96 55.8594 368.5C53.9494 366.04 56.8594 367.36 60.2494 369.02C63.6394 370.68 70.7594 375.8 71.4194 374.31C72.0794 372.82 70.2494 364.91 69.0394 362.42C67.8294 359.93 56.8794 361.25 55.7294 360.21C54.5794 359.17 60.6394 356.34 62.4794 356.62C63.827 356.853 65.162 357.153 66.4794 357.52C66.4794 357.52 66.9994 353.13 61.3294 348.67C55.6594 344.21 54.1594 349.74 54.1594 349.74Z" fill="#263238"/>
<path d="M48.571 383.58C47.291 377.58 45.851 369.18 46.441 363.58" stroke="#263238" stroke-miterlimit="10" stroke-linecap="round"/>
<path d="M50.2695 390.67C50.2695 390.67 49.8195 389.04 49.2695 386.51" stroke="#263238" stroke-miterlimit="10" stroke-linecap="round"/>
<path d="M48.9297 362.351C48.9297 362.351 58.7797 362.981 65.9297 367.351" stroke="#263238" stroke-miterlimit="10" stroke-linecap="round"/>
<path d="M48.5801 370.37C48.5801 370.37 48.8601 368.54 56.4601 375.46" stroke="#263238" stroke-miterlimit="10" stroke-linecap="round"/>
<path d="M43.7798 361.14C43.7798 361.14 43.5698 356.78 38.0098 354.5" stroke="#263238" stroke-miterlimit="10" stroke-linecap="round"/>
<path d="M44.8091 367.641L40.0391 366.771" stroke="#263238" stroke-miterlimit="10" stroke-linecap="round"/>
<path d="M45.1195 374.181C45.1195 374.181 36.1195 376.421 33.0195 379.841" stroke="#263238" stroke-miterlimit="10" stroke-linecap="round"/>
<path d="M33.9395 402.29C33.9395 402.29 49.3795 414.08 51.0095 431.55L47.7295 372.99" stroke="#263238" stroke-miterlimit="10" stroke-linecap="round"/>
<path d="M71.3298 393.75C51.0098 390.1 51.0098 431.55 51.0098 431.55" stroke="#263238" stroke-miterlimit="10" stroke-linecap="round"/>
<path d="M53.4501 431.151C53.4501 431.151 41.6601 345.391 75.8001 345.391" stroke="#263238" stroke-miterlimit="10" stroke-linecap="round"/>
<path d="M63.5903 391.29C60.8103 388.17 54.9103 388.17 51.4403 396.15C47.9703 404.13 51.1003 402.74 51.1003 402.74C51.1003 402.74 57.6903 400.66 61.8503 399.27C66.0103 397.88 71.5703 394.41 71.9203 396.49C72.2703 398.57 69.1403 400.66 65.3203 401.35C61.5003 402.04 51.4403 404.82 52.4803 406.9C53.5203 408.98 55.9503 415.23 55.9503 415.23C58.9188 412.715 62.0488 410.396 65.3203 408.29C69.8303 405.51 72.6103 406.56 70.1803 409.68C67.7503 412.8 60.8103 416.27 62.1803 420.44C63.5503 424.61 71.9003 429.8 71.9003 429.8C71.9003 429.8 72.9003 421.13 75.3703 418.35C77.8403 415.57 77.7903 418.7 77.1003 423.56C76.7557 425.626 76.5253 427.709 76.4103 429.8L86.1203 433.27C87.7101 430.85 89.4502 428.532 91.3303 426.33L93.0603 424.6C93.0603 424.6 85.4303 418.01 85.0603 413.84C84.6903 409.67 90.2703 413.84 92.0003 414.54C93.7303 415.24 96.5103 420.09 96.5103 420.09C96.5103 420.09 98.2503 412.09 98.5903 409.33L98.9403 406.56C98.9403 406.56 91.6503 403.78 88.8803 403.78C86.1103 403.78 84.7303 405.86 84.7303 403.09C84.7303 400.32 87.5103 398.58 90.6303 398.92C93.4639 399.388 96.2559 400.081 98.9803 400.99C98.9803 400.99 101.06 399.26 100.37 394.05C99.6803 388.84 97.9403 388.85 93.7803 390.24C89.6203 391.63 86.8403 394.75 83.7103 394.75C80.5803 394.75 82.3203 390.93 84.4103 389.89C86.5003 388.85 91.7303 386.78 92.7303 386.43C93.7303 386.08 87.1803 381.23 83.7303 380.53C80.2803 379.83 75.7303 382.28 76.1003 385.74C76.7303 392.99 66.3603 394.41 63.5903 391.29Z" fill="#92E3A9"/>
<path d="M85.9199 426.99C86.0299 427.99 86.0999 429.08 86.1399 430.12" stroke="#263238" stroke-miterlimit="10" stroke-linecap="round"/>
<path d="M78.9492 402.11C82.0011 408.982 84.1976 416.203 85.4892 423.61" stroke="#263238" stroke-miterlimit="10" stroke-linecap="round"/>
<path d="M77.7305 399.32C76.0105 395.62 74.7305 393.37 74.7305 393.37C76.6219 392.474 78.1951 391.023 79.2405 389.21C80.051 387.565 81.2402 386.136 82.7105 385.04" stroke="#263238" stroke-miterlimit="10" stroke-linecap="round"/>
<path d="M62.5508 405.17C62.5508 405.17 75.0408 399.99 75.0408 400.99" stroke="#263238" stroke-miterlimit="10" stroke-linecap="round"/>
<path d="M81.9805 398.58C81.9805 398.58 87.5305 395.8 92.3905 395.8" stroke="#263238" stroke-miterlimit="10" stroke-linecap="round"/>
<path d="M79.8992 406.9C77.489 408.88 75.2784 411.09 73.2992 413.5C71.2694 415.894 69.6323 418.594 68.4492 421.5" stroke="#263238" stroke-miterlimit="10" stroke-linecap="round"/>
<path d="M83.7305 408.29C83.7305 408.29 91.0205 406.21 94.8405 409.68" stroke="#263238" stroke-miterlimit="10" stroke-linecap="round"/>
<path d="M96.9106 361.411C93.1306 359.171 88.9106 359.121 86.9106 356.761C84.9106 354.401 88.9106 353.211 91.0306 354.101C93.1506 354.991 98.1706 357.561 99.1106 358.101C100.051 358.641 99.4006 350.491 97.6506 347.421C95.9006 344.351 91.1106 342.551 88.7206 345.071C83.7206 350.371 75.8006 343.421 76.3406 339.271C76.8806 335.121 73.0106 330.671 64.7106 333.271C56.4106 335.871 59.5006 337.331 59.5006 337.331C59.5006 337.331 65.3906 340.941 69.1706 343.171C72.9506 345.401 79.1706 347.331 77.8606 348.951C76.5506 350.571 72.8606 349.591 69.8606 347.161C66.8606 344.731 58.1506 338.951 57.2606 341.101C56.3706 343.251 53.2606 349.181 53.2606 349.181C57.1057 349.771 60.9073 350.617 64.6406 351.711C69.7306 353.331 70.7306 356.111 66.7306 356.331C62.7306 356.551 55.6106 353.571 53.3806 357.331C51.1506 361.091 52.7306 370.831 52.7306 370.831C52.7306 370.831 59.9606 365.931 63.6506 365.941C67.3406 365.951 64.9806 368.011 60.8606 370.671C59.0728 371.764 57.3468 372.956 55.6906 374.241L59.4406 383.851C62.3082 383.464 65.1971 383.257 68.0906 383.231L70.5406 383.401C70.5406 383.401 70.5406 373.311 73.4306 370.321C76.3206 367.331 76.8406 374.251 77.4306 376.021C78.0206 377.791 76.2006 383.021 76.2006 383.021C76.2006 383.021 83.3606 379.101 85.6906 377.541L88.0106 375.991C88.0106 375.991 85.3306 368.661 83.5106 366.571C81.6906 364.481 79.2106 364.791 81.3006 362.971C83.3906 361.151 86.5306 362.111 88.3006 364.691C89.7989 367.136 91.0997 369.698 92.1906 372.351C92.1906 372.351 94.8706 372.781 98.3406 368.851C101.811 364.921 100.731 363.641 96.9106 361.411ZM64.0706 372.511C61.3006 371.121 67.8906 368.351 67.8906 368.351C70.3206 367.991 66.8506 373.901 64.0706 372.511ZM68.7306 359.561C67.5506 358.971 71.1006 357.781 71.1006 357.781C76.2406 358.771 69.9306 360.151 68.7306 359.561Z" fill="#92E3A9"/>
<path d="M63.9995 379.58C63.2795 380.34 62.5395 381.09 61.7695 381.8" stroke="#263238" stroke-miterlimit="10" stroke-linecap="round"/>
<path d="M78.2402 357.99C75.0346 364.792 71.0043 371.173 66.2402 376.99" stroke="#263238" stroke-miterlimit="10" stroke-linecap="round"/>
<path d="M79.5195 355.22C81.1895 351.5 82.0395 349.04 82.0395 349.04C83.956 349.883 86.0844 350.121 88.1395 349.72C89.9121 349.255 91.7696 349.218 93.5595 349.61" stroke="#263238" stroke-miterlimit="10" stroke-linecap="round"/>
<path d="M65.1699 347.601C65.1699 347.601 77.2899 353.601 76.5099 354.311" stroke="#263238" stroke-miterlimit="10" stroke-linecap="round"/>
<path d="M82.8906 357.99C82.8906 357.99 88.6306 360.36 91.8106 363.99" stroke="#263238" stroke-miterlimit="10" stroke-linecap="round"/>
<path d="M75.2405 361.84C72.1686 361.325 69.0542 361.107 65.9405 361.19C62.8079 361.227 59.7005 361.753 56.7305 362.75" stroke="#263238" stroke-miterlimit="10" stroke-linecap="round"/>
<path d="M76.7305 365.641C76.7305 365.641 83.0805 369.771 82.9605 374.931" stroke="#263238" stroke-miterlimit="10" stroke-linecap="round"/>
<path d="M42.9901 409.491C39.9901 407.691 36.5901 407.651 34.9901 405.751C33.3901 403.851 36.5801 402.891 38.3101 403.611C40.0401 404.331 44.0501 406.391 44.8101 406.841C45.5701 407.291 45.0501 400.721 43.6401 398.241C42.2301 395.761 38.3701 394.331 36.4501 396.351C32.3901 400.621 26.0501 395.021 26.4501 391.691C26.8501 388.361 23.7701 384.771 17.0901 386.871C10.4101 388.971 12.9001 390.141 12.9001 390.141C12.9001 390.141 17.6401 393.051 20.6801 394.851C23.7201 396.651 28.7601 398.191 27.6801 399.501C26.6001 400.811 23.6801 400.011 21.2501 398.051C18.8201 396.091 11.8101 391.451 11.1001 393.181C10.3901 394.911 7.87008 399.681 7.87008 399.681C10.9635 400.148 14.0232 400.816 17.0301 401.681C21.0901 402.961 21.9301 405.201 18.7501 405.371C15.5701 405.541 9.75008 403.151 8.00008 406.191C6.25008 409.231 7.43008 417.041 7.43008 417.041C7.43008 417.041 13.2501 413.101 16.2201 413.111C19.1901 413.121 17.2901 414.771 13.9701 416.911C12.5334 417.793 11.1448 418.751 9.81008 419.781L12.8101 427.521C15.1305 427.206 17.4685 427.039 19.8101 427.021L21.8101 427.161C21.8101 427.161 21.8101 419.041 24.1401 416.631C26.4701 414.221 26.8801 419.791 27.3801 421.221C27.8801 422.651 26.3801 426.891 26.3801 426.891C26.3801 426.891 32.1501 423.731 34.0201 422.481L35.8901 421.221C35.8901 421.221 33.7301 415.331 32.2701 413.641C30.8101 411.951 28.8101 412.211 30.4901 410.751C32.1701 409.291 34.7001 410.051 36.1301 412.131C37.3361 414.097 38.3828 416.157 39.2601 418.291C39.2601 418.291 41.4201 418.641 44.2601 415.481C47.1001 412.321 46.0301 411.281 42.9901 409.491ZM16.5701 418.421C14.3301 417.311 19.6401 415.071 19.6401 415.071C21.5901 414.791 18.8001 419.541 16.5701 418.421ZM20.3301 407.991C19.3301 407.511 22.2301 406.561 22.2301 406.561C26.3601 407.361 21.2801 408.471 20.3301 407.991Z" fill="#92E3A9"/>
<path d="M16.5107 424.11C15.9307 424.73 15.3307 425.32 14.7207 425.9" stroke="#263238" stroke-miterlimit="10" stroke-linecap="round"/>
<path d="M27.9696 406.73C25.4015 412.211 22.1707 417.356 18.3496 422.05" stroke="#263238" stroke-miterlimit="10" stroke-linecap="round"/>
<path d="M29 404.51C30.34 401.51 31 399.51 31 399.51C32.5436 400.185 34.2565 400.374 35.91 400.05C37.3358 399.676 38.83 399.645 40.27 399.96" stroke="#263238" stroke-miterlimit="10" stroke-linecap="round"/>
<path d="M17.4492 398.38C17.4492 398.38 27.1992 403.22 26.5692 403.77" stroke="#263238" stroke-miterlimit="10" stroke-linecap="round"/>
<path d="M31.7305 406.71C31.7305 406.71 36.3405 408.62 38.9105 411.57" stroke="#263238" stroke-miterlimit="10" stroke-linecap="round"/>
<path d="M25.5504 409.84C23.0804 409.419 20.5751 409.242 18.0704 409.31C15.5463 409.339 13.0424 409.764 10.6504 410.57" stroke="#263238" stroke-miterlimit="10" stroke-linecap="round"/>
<path d="M26.7305 412.891C26.7305 412.891 31.8405 416.221 31.7305 420.371" stroke="#263238" stroke-miterlimit="10" stroke-linecap="round"/>
<path d="M30.6 352.19C30.6 352.19 26.78 354.96 24.35 352.19C21.92 349.42 25.35 343.86 21.92 341.78C18.49 339.7 12.92 343.51 12.92 343.51C12.92 343.51 17.43 344.51 17.43 346.98C17.43 349.45 15.35 350.45 15 349.41C14.65 348.37 12.21 343.17 8.73002 345.59C7.73005 346.267 6.87652 347.138 6.22025 348.152C5.56398 349.166 5.11839 350.301 4.91002 351.49C4.91002 351.49 13.24 350.1 13.91 353.23C14.58 356.36 10.44 352.88 6.97002 352.88C3.50002 352.88 0.380016 353.57 0.730016 355.66C0.914546 357.506 0.914546 359.365 0.730016 361.21C2.52311 359.525 4.8614 358.538 7.32002 358.43C11.14 358.43 11.14 360.86 7.67002 360.86C4.20002 360.86 1.45002 364.33 1.45002 364.33C1.45002 364.33 4.92002 369.54 9.08002 371.96C13.24 374.38 14.64 373.35 14.98 371.27C15.32 369.19 13.98 363.98 16.37 363.98C18.76 363.98 12.9 373.35 16.02 373.7C19.14 374.05 21.58 373.01 22.27 370.92L22.96 368.84C22.96 368.84 21.58 363.64 21.96 361.56C22.34 359.48 22.96 361.56 23.7 363.98C24.44 366.4 25.09 372.31 26.13 371.98C27.17 371.65 30.29 367.13 30.98 365.39C31.67 363.65 26.13 358.8 26.13 357.76C26.13 356.72 30.29 358.45 30.98 359.49C31.4876 360.274 31.9516 361.085 32.37 361.92C32.37 361.92 34.8 360.19 34.45 355.33C34.1 350.47 30.6 352.19 30.6 352.19Z" fill="#92E3A9"/>
<path d="M11.1602 364.77C13.5602 361.42 17.1102 356.87 20.1602 354.62" stroke="#263238" stroke-miterlimit="10" stroke-linecap="round"/>
<path d="M8.39062 368.841C8.39062 368.841 9.00063 367.841 9.99063 366.431" stroke="#263238" stroke-miterlimit="10" stroke-linecap="round"/>
<path d="M21.9199 355.311C21.9199 355.311 26.0899 360.511 27.1299 366.071" stroke="#263238" stroke-miterlimit="10" stroke-linecap="round"/>
<path d="M17.7305 358.781C17.7305 358.781 18.7305 358.091 18.7305 365.031" stroke="#263238" stroke-miterlimit="10" stroke-linecap="round"/>
<path d="M20.1895 352.19C20.1895 352.19 22.2695 350.1 20.8795 346.29" stroke="#263238" stroke-miterlimit="10" stroke-linecap="round"/>
<path d="M17.4097 355.66L15.6797 352.88" stroke="#263238" stroke-miterlimit="10" stroke-linecap="round"/>
<path d="M14.2909 358.781C14.2909 358.781 9.08094 355.311 5.96094 355.311" stroke="#263238" stroke-miterlimit="10" stroke-linecap="round"/>
<path d="M65.6403 429.931H38.8203V444.091H65.6403V429.931Z" fill="#263238" stroke="#263238" stroke-width="2" stroke-miterlimit="10" stroke-linecap="round"/>
<path opacity="0.2" d="M287.49 7.49023H34.2695C28.4705 7.49023 23.7695 12.1912 23.7695 17.9902V324.88C23.7695 330.679 28.4705 335.38 34.2695 335.38H287.49C293.289 335.38 297.99 330.679 297.99 324.88V17.9902C297.99 12.1912 293.289 7.49023 287.49 7.49023Z" fill="black"/>
<path d="M279.49 1.49023H26.2695C20.4705 1.49023 15.7695 6.19124 15.7695 11.9902V318.88C15.7695 324.679 20.4705 329.38 26.2695 329.38H279.49C285.289 329.38 289.99 324.679 289.99 318.88V11.9902C289.99 6.19124 285.289 1.49023 279.49 1.49023Z" fill="#E3E3E3" stroke="#263238" stroke-linecap="round" stroke-linejoin="round"/>
<path d="M249.919 1.49023H45.5293V329.38H249.919V1.49023Z" fill="white" stroke="#263238" stroke-linecap="round" stroke-linejoin="round"/>
<path d="M280.881 2.25977V329.99C283.386 329.712 285.701 328.519 287.382 326.641C289.062 324.763 289.991 322.33 289.991 319.81V12.4398C289.989 9.91979 289.059 7.48871 287.379 5.61087C285.699 3.73303 283.385 2.54004 280.881 2.25977Z" fill="#B2B2B2" stroke="#263238" stroke-linecap="round" stroke-linejoin="round"/>
<path d="M289.991 129.391H280.881V180.791H289.991V129.391Z" fill="#808080" stroke="#263238" stroke-linecap="round" stroke-linejoin="round"/>
<path d="M289.99 44.5503V12.4403C289.99 11.0939 289.725 9.76065 289.209 8.51697C288.693 7.27329 287.937 6.14355 286.984 5.19242C286.031 4.24129 284.9 3.48743 283.655 2.974C282.411 2.46057 281.077 2.19764 279.73 2.20027H26.0105C24.6624 2.19501 23.3265 2.45599 22.0795 2.96824C20.8325 3.48049 19.6989 4.23392 18.7438 5.18532C17.7887 6.13672 17.0309 7.26735 16.5138 8.51233C15.9966 9.75732 15.7305 11.0922 15.7305 12.4403V44.5503H289.99Z" fill="#B2B2B2" stroke="#263238" stroke-linecap="round" stroke-linejoin="round"/>
<path d="M147.481 18.79H30.8105V26.55H147.481V18.79Z" fill="white" stroke="#263238" stroke-linecap="round" stroke-linejoin="round"/>
<path d="M289.99 30.7207H15.7695V44.5407H289.99V30.7207Z" fill="#263238" stroke="#263238" stroke-linecap="round" stroke-linejoin="round"/>
<path d="M22.1191 34.3105H29.2591" stroke="white" stroke-linecap="round" stroke-linejoin="round"/>
<path d="M22.1191 37.4102H29.2591" stroke="white" stroke-linecap="round" stroke-linejoin="round"/>
<path d="M22.1191 40.5098H29.2591" stroke="white" stroke-linecap="round" stroke-linejoin="round"/>
<path d="M59.0195 34.1807V42.2407" stroke="white" stroke-linecap="round" stroke-linejoin="round"/>
<path d="M101.039 34.1807V42.2407" stroke="white" stroke-linecap="round" stroke-linejoin="round"/>
<path d="M143.07 34.1807V42.2407" stroke="white" stroke-linecap="round" stroke-linejoin="round"/>
<path d="M185.1 34.1807V42.2407" stroke="white" stroke-linecap="round" stroke-linejoin="round"/>
<path d="M227.119 34.1807V42.2407" stroke="white" stroke-linecap="round" stroke-linejoin="round"/>
<path d="M289.99 14.1403V12.4403C289.99 11.0939 289.725 9.76065 289.209 8.51697C288.693 7.27329 287.937 6.14355 286.984 5.19242C286.031 4.24129 284.9 3.48743 283.655 2.974C282.411 2.46057 281.077 2.19764 279.73 2.20027H26.0105C24.6624 2.19501 23.3265 2.45599 22.0795 2.96824C20.8325 3.48049 19.6989 4.23392 18.7438 5.18532C17.7887 6.13672 17.0309 7.26735 16.5138 8.51233C15.9966 9.75732 15.7305 11.0922 15.7305 12.4403V14.1403H289.99Z" fill="#263238" stroke="#263238" stroke-linecap="round" stroke-linejoin="round"/>
<path d="M250.771 11.2606C252.461 11.2606 253.831 9.89062 253.831 8.20062C253.831 6.51063 252.461 5.14062 250.771 5.14062C249.081 5.14062 247.711 6.51063 247.711 8.20062C247.711 9.89062 249.081 11.2606 250.771 11.2606Z" fill="white" stroke="#263238" stroke-linecap="round" stroke-linejoin="round"/>
<path d="M260.419 11.2606C262.109 11.2606 263.479 9.89062 263.479 8.20062C263.479 6.51063 262.109 5.14062 260.419 5.14062C258.729 5.14062 257.359 6.51063 257.359 8.20062C257.359 9.89062 258.729 11.2606 260.419 11.2606Z" fill="white" stroke="#263238" stroke-linecap="round" stroke-linejoin="round"/>
<path d="M273.14 8.20012C273.142 7.59251 272.964 6.99797 272.627 6.4918C272.291 5.98563 271.813 5.59058 271.252 5.35669C270.691 5.12279 270.073 5.06057 269.477 5.17789C268.881 5.29522 268.333 5.58682 267.903 6.01576C267.472 6.44471 267.179 6.99171 267.06 7.5875C266.94 8.1833 267.001 8.80108 267.233 9.36264C267.465 9.92419 267.858 10.4042 268.363 10.742C268.868 11.0798 269.462 11.2601 270.07 11.2601C270.882 11.2601 271.662 10.9381 272.237 10.3645C272.813 9.7909 273.137 9.0126 273.14 8.20012Z" fill="white" stroke="#263238" stroke-linecap="round" stroke-linejoin="round"/>
<path d="M15.7305 310.25V319.84C15.7305 321.189 15.9966 322.524 16.5136 323.769C17.0305 325.015 17.7882 326.146 18.7432 327.098C19.6982 328.051 20.8317 328.805 22.0788 329.318C23.3258 329.832 24.6619 330.094 26.0105 330.09H279.73C282.449 330.09 285.056 329.01 286.978 327.088C288.901 325.166 289.98 322.558 289.98 319.84V310.25H15.7305Z" fill="#B2B2B2" stroke="#263238" stroke-linecap="round" stroke-linejoin="round"/>
<path d="M217.34 91.1699H65.3496V176.37H217.34V91.1699Z" fill="#92E3A9" stroke="#263238" stroke-linecap="round" stroke-linejoin="round"/>
<path d="M217.33 138.96L183.37 117.08L148.83 151.62L124.65 123.41L66.9496 175.41L65.3496 176.38H217.33V138.96Z" fill="white" stroke="#263238" stroke-linecap="round" stroke-linejoin="round"/>
<path d="M88.9494 122.84C95.6265 122.84 101.039 117.427 101.039 110.75C101.039 104.073 95.6265 98.6602 88.9494 98.6602C82.2723 98.6602 76.8594 104.073 76.8594 110.75C76.8594 117.427 82.2723 122.84 88.9494 122.84Z" fill="white" stroke="#263238" stroke-linecap="round" stroke-linejoin="round"/>
<path d="M65.9199 182.141H216.76" stroke="#263238" stroke-miterlimit="10"/>
<path d="M65.9199 189.04H156.31" stroke="#263238" stroke-miterlimit="10"/>
<path d="M197.949 201.971H217.339" stroke="#263238" stroke-miterlimit="10"/>
<path d="M174.891 201.971H195.721" stroke="#263238" stroke-miterlimit="10"/>
<path d="M166.6 201.971H172.65" stroke="#263238" stroke-miterlimit="10"/>
<path d="M138.16 201.971H165.04" stroke="#263238" stroke-miterlimit="10"/>
<path d="M103.23 201.971H135.25" stroke="#263238" stroke-miterlimit="10"/>
<path d="M77.6992 201.971H99.8692" stroke="#263238" stroke-miterlimit="10"/>
<path d="M65.5703 201.971H74.7903" stroke="#263238" stroke-miterlimit="10"/>
<path d="M84.9503 209.98H65.5703" stroke="#263238" stroke-miterlimit="10"/>
<path d="M108.009 209.98H87.1895" stroke="#263238" stroke-miterlimit="10"/>
<path d="M116.3 209.98H110.25" stroke="#263238" stroke-miterlimit="10"/>
<path d="M144.739 209.98H117.869" stroke="#263238" stroke-miterlimit="10"/>
<path d="M179.67 209.98H147.65" stroke="#263238" stroke-miterlimit="10"/>
<path d="M205.199 209.98H183.029" stroke="#263238" stroke-miterlimit="10"/>
<path d="M217.339 209.98H208.119" stroke="#263238" stroke-miterlimit="10"/>
<path d="M197.949 217.641H217.339" stroke="#263238" stroke-miterlimit="10"/>
<path d="M174.891 217.641H195.721" stroke="#263238" stroke-miterlimit="10"/>
<path d="M166.6 217.641H172.65" stroke="#263238" stroke-miterlimit="10"/>
<path d="M138.16 217.641H165.04" stroke="#263238" stroke-miterlimit="10"/>
<path d="M103.23 217.641H135.25" stroke="#263238" stroke-miterlimit="10"/>
<path d="M77.6992 217.641H99.8692" stroke="#263238" stroke-miterlimit="10"/>
<path d="M65.5703 217.641H74.7903" stroke="#263238" stroke-miterlimit="10"/>
<path d="M84.9503 225.65H65.5703" stroke="#263238" stroke-miterlimit="10"/>
<path d="M108.009 225.65H87.1895" stroke="#263238" stroke-miterlimit="10"/>
<path d="M116.3 225.65H110.25" stroke="#263238" stroke-miterlimit="10"/>
<path d="M144.739 225.65H117.869" stroke="#263238" stroke-miterlimit="10"/>
<path d="M179.67 225.65H147.65" stroke="#263238" stroke-miterlimit="10"/>
<path d="M205.199 225.65H183.029" stroke="#263238" stroke-miterlimit="10"/>
<path d="M217.339 225.65H208.119" stroke="#263238" stroke-miterlimit="10"/>
<path d="M197.949 233.311H217.339" stroke="#263238" stroke-miterlimit="10"/>
<path d="M174.891 233.311H195.721" stroke="#263238" stroke-miterlimit="10"/>
<path d="M166.6 233.311H172.65" stroke="#263238" stroke-miterlimit="10"/>
<path d="M138.16 233.311H165.04" stroke="#263238" stroke-miterlimit="10"/>
<path d="M103.23 233.311H135.25" stroke="#263238" stroke-miterlimit="10"/>
<path d="M77.6992 233.311H99.8692" stroke="#263238" stroke-miterlimit="10"/>
<path d="M65.5703 233.311H74.7903" stroke="#263238" stroke-miterlimit="10"/>
<path d="M84.9503 241.32H65.5703" stroke="#263238" stroke-miterlimit="10"/>
<path d="M108.009 241.32H87.1895" stroke="#263238" stroke-miterlimit="10"/>
<path d="M116.3 241.32H110.25" stroke="#263238" stroke-miterlimit="10"/>
<path d="M144.739 241.32H117.869" stroke="#263238" stroke-miterlimit="10"/>
<path d="M179.67 241.32H147.65" stroke="#263238" stroke-miterlimit="10"/>
<path d="M205.199 241.32H183.029" stroke="#263238" stroke-miterlimit="10"/>
<path d="M217.339 241.32H208.119" stroke="#263238" stroke-miterlimit="10"/>
<path d="M197.949 248.98H217.339" stroke="#263238" stroke-miterlimit="10"/>
<path d="M174.891 248.98H195.721" stroke="#263238" stroke-miterlimit="10"/>
<path d="M166.6 248.98H172.65" stroke="#263238" stroke-miterlimit="10"/>
<path d="M138.16 248.98H165.04" stroke="#263238" stroke-miterlimit="10"/>
<path d="M103.23 248.98H135.25" stroke="#263238" stroke-miterlimit="10"/>
<path d="M77.6992 248.98H99.8692" stroke="#263238" stroke-miterlimit="10"/>
<path d="M65.5703 248.98H74.7903" stroke="#263238" stroke-miterlimit="10"/>
<path d="M84.9503 256.99H65.5703" stroke="#263238" stroke-miterlimit="10"/>
<path d="M108.009 256.99H87.1895" stroke="#263238" stroke-miterlimit="10"/>
<path d="M116.3 256.99H110.25" stroke="#263238" stroke-miterlimit="10"/>
<path d="M144.739 256.99H117.869" stroke="#263238" stroke-miterlimit="10"/>
<path d="M179.67 256.99H147.65" stroke="#263238" stroke-miterlimit="10"/>
<path d="M205.199 256.99H183.029" stroke="#263238" stroke-miterlimit="10"/>
<path d="M217.339 256.99H208.119" stroke="#263238" stroke-miterlimit="10"/>
<path d="M197.949 264.65H217.339" stroke="#263238" stroke-miterlimit="10"/>
<path d="M174.891 264.65H195.721" stroke="#263238" stroke-miterlimit="10"/>
<path d="M166.6 264.65H172.65" stroke="#263238" stroke-miterlimit="10"/>
<path d="M138.16 264.65H165.04" stroke="#263238" stroke-miterlimit="10"/>
<path d="M103.23 264.65H135.25" stroke="#263238" stroke-miterlimit="10"/>
<path d="M77.6992 264.65H99.8692" stroke="#263238" stroke-miterlimit="10"/>
<path d="M65.5703 264.65H74.7903" stroke="#263238" stroke-miterlimit="10"/>
<path d="M84.9503 272.66H65.5703" stroke="#263238" stroke-miterlimit="10"/>
<path d="M108.009 272.66H87.1895" stroke="#263238" stroke-miterlimit="10"/>
<path d="M116.3 272.66H110.25" stroke="#263238" stroke-miterlimit="10"/>
<path d="M144.739 272.66H117.869" stroke="#263238" stroke-miterlimit="10"/>
<path d="M179.67 272.66H147.65" stroke="#263238" stroke-miterlimit="10"/>
<path d="M205.199 272.66H183.029" stroke="#263238" stroke-miterlimit="10"/>
<path d="M217.339 272.66H208.119" stroke="#263238" stroke-miterlimit="10"/>
<path d="M197.949 280.32H217.339" stroke="#263238" stroke-miterlimit="10"/>
<path d="M174.891 280.32H195.721" stroke="#263238" stroke-miterlimit="10"/>
<path d="M166.6 280.32H172.65" stroke="#263238" stroke-miterlimit="10"/>
<path d="M138.16 280.32H165.04" stroke="#263238" stroke-miterlimit="10"/>
<path d="M103.23 280.32H135.25" stroke="#263238" stroke-miterlimit="10"/>
<path d="M77.6992 280.32H99.8692" stroke="#263238" stroke-miterlimit="10"/>
<path d="M65.5703 280.32H74.7903" stroke="#263238" stroke-miterlimit="10"/>
<path d="M84.9503 288.32H65.5703" stroke="#263238" stroke-miterlimit="10"/>
<path d="M108.009 288.32H87.1895" stroke="#263238" stroke-miterlimit="10"/>
<path d="M116.3 288.32H110.25" stroke="#263238" stroke-miterlimit="10"/>
<path d="M144.739 288.32H117.869" stroke="#263238" stroke-miterlimit="10"/>
<path d="M179.67 288.32H147.65" stroke="#263238" stroke-miterlimit="10"/>
<path d="M205.199 288.32H183.029" stroke="#263238" stroke-miterlimit="10"/>
<path d="M217.339 288.32H208.119" stroke="#263238" stroke-miterlimit="10"/>
<path d="M197.949 295.98H217.339" stroke="#263238" stroke-miterlimit="10"/>
<path d="M174.891 295.98H195.721" stroke="#263238" stroke-miterlimit="10"/>
<path d="M166.6 295.98H172.65" stroke="#263238" stroke-miterlimit="10"/>
<path d="M138.16 295.98H165.04" stroke="#263238" stroke-miterlimit="10"/>
<path d="M103.23 295.98H135.25" stroke="#263238" stroke-miterlimit="10"/>
<path d="M77.6992 295.98H99.8692" stroke="#263238" stroke-miterlimit="10"/>
<path d="M65.5703 295.98H74.7903" stroke="#263238" stroke-miterlimit="10"/>
<path d="M84.9503 303.99H65.5703" stroke="#263238" stroke-miterlimit="10"/>
<path d="M108.009 303.99H87.1895" stroke="#263238" stroke-miterlimit="10"/>
<path d="M116.3 303.99H110.25" stroke="#263238" stroke-miterlimit="10"/>
<path d="M144.739 303.99H117.869" stroke="#263238" stroke-miterlimit="10"/>
<path d="M179.67 303.99H147.65" stroke="#263238" stroke-miterlimit="10"/>
<path d="M205.199 303.99H183.029" stroke="#263238" stroke-miterlimit="10"/>
<path d="M217.339 303.99H208.119" stroke="#263238" stroke-miterlimit="10"/>
<path d="M70.9093 80.0604L69.8493 85.6004H67.0293L72.2893 58.1104H76.7293L81.9993 85.6004H78.9193L77.8593 80.0604H70.9093ZM71.3093 77.4304H77.4293L74.3293 61.5704L71.3093 77.4304Z" fill="#263238"/>
<path d="M90.5109 58.1104C94.8309 58.1104 96.6309 60.3104 96.6309 64.4004V66.6304C96.6309 69.6304 95.5709 71.5404 93.2209 72.2904C95.7309 72.9904 96.6709 75.0804 96.6709 77.9904V82.2704C96.5811 83.3988 96.77 84.532 97.2209 85.5704H94.1209C93.6906 84.5126 93.5158 83.3683 93.6109 82.2304V77.9904C93.6109 74.8904 92.1609 73.9104 89.6109 73.9104H87.4409V85.6004H84.3809V58.1104H90.5109ZM89.7209 71.1104C92.1609 71.1104 93.6109 70.3304 93.6109 67.3404V64.6704C93.6109 62.2004 92.7109 60.9004 90.4309 60.9004H87.4309V71.0704L89.7209 71.1104Z" fill="#263238"/>
<path d="M103.82 85.6004V60.9004H98.7305V58.1104H111.89V60.9004H106.82V85.6004H103.82Z" fill="#263238"/>
<path d="M117.05 58.1104V85.6004H113.99V58.1104H117.05Z" fill="#263238"/>
<path d="M132.321 64.7498V67.2198H129.421V64.5898C129.421 62.1198 128.421 60.5898 126.201 60.5898C123.981 60.5898 122.981 62.0798 122.981 64.5898V79.1198C122.981 81.5898 123.981 83.1198 126.201 83.1198C128.421 83.1198 129.421 81.6298 129.421 79.1198V75.5498H132.321V78.9898C132.321 83.1498 130.321 85.8998 126.121 85.8998C121.921 85.8998 119.961 83.1498 119.961 78.9898V64.7498C119.961 60.5898 121.961 57.8398 126.121 57.8398C130.281 57.8398 132.321 60.5898 132.321 64.7498Z" fill="#263238"/>
<path d="M135.109 85.6004V58.1104H138.169V82.8104H146.029V85.6004H135.109Z" fill="#263238"/>
<path d="M158.12 70.2904V72.9904H151.41V82.7704H159.65V85.5604H148.34V58.1104H159.65V60.9004H151.41V70.2904H158.12Z" fill="#263238"/>
<path d="M279.921 304.22C279.921 304.22 256.921 309.72 248.921 321.22C240.921 332.72 221.921 368.72 216.921 375.72C211.921 382.72 194.921 392.72 191.921 407.22C188.921 421.72 192.421 431.72 207.921 439.72C223.421 447.72 243.921 431.22 255.921 426.72L256.421 444.72H381.421L385.921 423.22C385.921 423.22 413.421 425.72 420.921 423.22C428.421 420.72 438.421 426.72 439.421 420.72C440.421 414.72 435.921 402.22 429.921 391.72C423.921 381.22 423.921 384.22 417.921 369.72C411.921 355.22 407.421 341.72 402.421 329.22C397.421 316.72 386.981 306.1 377.311 302.88C367.641 299.66 345.421 301.72 336.921 300.72C328.421 299.72 279.921 304.22 279.921 304.22Z" fill="#92E3A9" stroke="#263238" stroke-linecap="round" stroke-linejoin="round"/>
<path d="M383.25 409.221C383.25 409.221 391.92 395.551 407.58 391.221" stroke="#263238" stroke-linecap="round" stroke-linejoin="round"/>
<path d="M407.15 379.041C408.482 378.359 409.851 377.751 411.25 377.221" stroke="#263238" stroke-linecap="round" stroke-linejoin="round"/>
<path d="M380.92 403.891C380.92 403.891 389.82 389.821 403.12 381.351" stroke="#263238" stroke-linecap="round" stroke-linejoin="round"/>
<path d="M386.911 353.75C381.911 366.32 374.581 387.81 375.911 402.55" stroke="#263238" stroke-linecap="round" stroke-linejoin="round"/>
<path d="M391.251 343.55C391.251 343.55 390.341 345.5 388.961 348.76" stroke="#263238" stroke-linecap="round" stroke-linejoin="round"/>
<path d="M217.6 394.16C224.433 396.054 230.566 399.897 235.25 405.22" stroke="#263238" stroke-linecap="round" stroke-linejoin="round"/>
<path d="M206.25 393.22C208.51 392.919 210.8 392.919 213.06 393.22" stroke="#263238" stroke-linecap="round" stroke-linejoin="round"/>
<path d="M224.859 384.99C230.729 389.17 238.209 396.07 241.249 405.57" stroke="#263238" stroke-linecap="round" stroke-linejoin="round"/>
<path d="M216.92 380.221C218.64 381.058 220.31 381.997 221.92 383.031" stroke="#263238" stroke-linecap="round" stroke-linejoin="round"/>
<path d="M301.331 329.4C301.331 329.4 307.781 340.15 323.911 339.79C340.041 339.43 346.851 321.87 346.851 312.91C346.851 303.95 341.111 297.86 326.061 301.44C311.011 305.02 294.171 305.39 301.331 329.4Z" fill="white" stroke="#263238" stroke-linecap="round" stroke-linejoin="round"/>
<path d="M303.841 308.25C303.841 308.25 299.541 322.95 301.331 329.4C302.613 333.67 304.428 337.762 306.731 341.58C306.731 341.58 318.911 330.11 320.731 328.68C322.551 327.25 333.631 339.79 335.061 341.22C336.491 342.65 344.741 337.64 347.241 325.81C349.741 313.98 347.961 300.01 345.451 296.43C342.941 292.85 340.081 292.49 340.081 292.49C340.081 292.49 313.161 289.62 303.841 308.25Z" fill="white" stroke="#263238" stroke-linecap="round" stroke-linejoin="round"/>
<path d="M306.35 309.691C306.35 309.691 316.74 327.251 319.97 327.611C323.2 327.971 337.53 316.141 341.47 306.461C345.41 296.781 342.19 286.391 342.19 286.391C342.19 286.391 330 301.801 321.73 306.821C313.46 311.841 306.35 309.691 306.35 309.691Z" fill="white" stroke="#263238" stroke-linecap="round" stroke-linejoin="round"/>
<path d="M321.73 306.82C317.323 309.655 312.011 310.726 306.85 309.82L306.5 310.001C307.18 311.131 309.76 315.401 312.56 319.461C314.874 319.969 317.296 319.575 319.33 318.361C329.73 312.891 337.73 294.521 337.73 294.521L333.13 296.801C329.46 300.701 325.26 304.69 321.73 306.82Z" fill="#263238" stroke="#263238" stroke-linecap="round" stroke-linejoin="round"/>
<path d="M270.521 214.36C270.521 214.36 247.451 251.15 251.731 272.29C256.011 293.43 275.871 318.65 269.731 325.45C263.591 332.25 260.411 329.76 263.281 333.7C266.151 337.64 283.731 341.99 296.731 337.64C309.731 333.29 311.061 315.06 304.251 305.39C297.441 295.72 284.901 258.8 290.251 250.2C295.601 241.6 317.121 246.62 324.651 250.2C332.181 253.78 341.851 274.93 340.771 284.6C339.691 294.27 344.001 316.5 358.691 316.85C373.381 317.2 377.331 302.85 377.331 302.85C377.331 302.85 367.651 305 367.651 299.62C367.651 294.24 375.531 287.44 371.951 272.39C368.371 257.34 360.131 254.47 359.051 238.7C357.971 222.93 351.881 207.52 339.701 198.57C327.521 189.62 295.241 176.74 270.521 214.36Z" fill="#263238" stroke="#263238" stroke-linecap="round" stroke-linejoin="round"/>
<path d="M272.571 264.36C271.336 269.17 271.257 274.204 272.341 279.05C275.881 297.38 292.601 315.72 289.391 326.98C286.181 338.24 276.201 337.27 270.391 332.45" stroke="#6B6B6B" stroke-linecap="round" stroke-linejoin="round"/>
<path d="M279.091 254.601C277.199 255.909 275.643 257.646 274.551 259.671" stroke="#6B6B6B" stroke-linecap="round" stroke-linejoin="round"/>
<path d="M283.561 312.851C285.58 315.661 286.711 319.011 286.811 322.471" stroke="#6B6B6B" stroke-linecap="round" stroke-linejoin="round"/>
<path d="M289.33 219.641C282 225.641 273.19 234.021 266.87 243.981C254 264.251 255.29 269.401 262.37 285.481C266.9 295.781 275.64 302.781 281.37 309.861" stroke="#6B6B6B" stroke-linecap="round" stroke-linejoin="round"/>
<path d="M302.899 209.88C302.899 209.88 299.239 212.07 294.029 215.97" stroke="#6B6B6B" stroke-linecap="round" stroke-linejoin="round"/>
<path d="M307.401 198.3C307.401 198.3 301.291 217.6 302.251 221.46" stroke="#6B6B6B" stroke-linecap="round" stroke-linejoin="round"/>
<path d="M358.73 309.2C360.251 310.338 361.937 311.235 363.73 311.86" stroke="#6B6B6B" stroke-linecap="round" stroke-linejoin="round"/>
<path d="M346.18 243.55C351.811 247.647 356.571 252.824 360.18 258.78C372.4 278.08 363.07 282.59 357.28 293.2C354.08 299.08 354.22 303.37 356.19 306.48" stroke="#6B6B6B" stroke-linecap="round" stroke-linejoin="round"/>
<path d="M334.42 238.51C336.897 238.855 339.296 239.626 341.51 240.79" stroke="#6B6B6B" stroke-linecap="round" stroke-linejoin="round"/>
<path d="M352.449 235.061C353.881 236.743 355.169 238.542 356.299 240.441" stroke="#6B6B6B" stroke-linecap="round" stroke-linejoin="round"/>
<path d="M307.08 214.99C307.08 214.99 309.01 222.07 326.38 222.39C335.213 222.511 343.652 226.066 349.91 232.3" stroke="#6B6B6B" stroke-linecap="round" stroke-linejoin="round"/>
<path d="M303.479 223.32C303.479 223.32 283.729 240.88 279.829 251.99C275.929 263.1 288.829 289.26 290.229 293.2C291.749 297.4 295.949 301.31 298.829 304.6C303.499 309.92 310.509 316.97 318.279 315.91C327.969 314.6 337.919 299.6 342.189 291.77C346.459 283.94 347.189 272.06 347.189 272.06C347.189 272.06 352.189 272.42 352.189 265.61C352.189 258.8 352.909 248.41 349.319 248.41C346.955 248.531 344.693 249.411 342.869 250.92C334.244 247.583 326.157 242.994 318.869 237.3C307.069 227.99 303.479 223.32 303.479 223.32Z" fill="white" stroke="#263238" stroke-linecap="round" stroke-linejoin="round"/>
<path d="M304.561 286.75C304.703 287.436 304.992 288.082 305.407 288.647C305.822 289.211 306.353 289.679 306.965 290.02C307.577 290.36 308.255 290.565 308.953 290.62C309.651 290.676 310.353 290.58 311.011 290.34C316.391 288.9 317.101 287.11 317.101 287.11" stroke="#263238" stroke-linecap="round" stroke-linejoin="round"/>
<path d="M304.199 294.28C304.199 294.28 316.029 298.58 322.839 291.41" stroke="#263238" stroke-linecap="round" stroke-linejoin="round"/>
<path d="M314.24 257.73C314.24 257.73 318.89 252.35 329.64 255.58" stroke="#263238" stroke-width="2" stroke-linecap="round" stroke-linejoin="round"/>
<path d="M298.471 261.67C298.471 261.67 291.301 259.16 285.211 259.16" stroke="#263238" stroke-width="2" stroke-linecap="round" stroke-linejoin="round"/>
<path d="M305.631 265.99C300.309 263.638 294.602 262.282 288.791 261.99C279.471 261.63 278.041 263.06 278.401 264.49C278.761 265.92 279.121 280.98 287.401 282.41C295.681 283.84 303.521 282.41 304.961 278.47C306.401 274.53 305.631 265.99 305.631 265.99Z" stroke="#263238" stroke-linecap="round" stroke-linejoin="round"/>
<path d="M310.65 265.29C315.544 262.164 320.966 259.954 326.65 258.77C335.8 256.97 337.44 258.16 337.31 259.63C337.18 261.1 339.17 276.02 331.25 278.73C323.33 281.44 315.32 281.24 313.25 277.57C311.18 273.9 310.65 265.29 310.65 265.29Z" stroke="#263238" stroke-linecap="round" stroke-linejoin="round"/>
<path d="M305.631 265.991C306.304 265.395 307.138 265.013 308.028 264.892C308.918 264.771 309.824 264.917 310.631 265.311" stroke="#263238" stroke-linecap="round" stroke-linejoin="round"/>
<path d="M298.45 272.161C298.73 274.161 298.17 275.821 297.19 275.961C296.21 276.101 295.19 274.631 294.9 272.671C294.61 270.711 295.18 269.011 296.16 268.871C297.14 268.731 298.17 270.201 298.45 272.161Z" fill="#263238"/>
<path d="M323.889 270.371C324.179 272.371 323.609 274.031 322.629 274.171C321.649 274.311 320.629 272.841 320.349 270.881C320.069 268.921 320.629 267.221 321.609 267.081C322.589 266.941 323.609 268.411 323.889 270.371Z" fill="#263238"/>
<path d="M337.17 258.08L342.9 250.92" stroke="#263238" stroke-linecap="round" stroke-linejoin="round"/>
<path d="M344.92 396.22C344.92 396.22 343.92 392.22 338.92 388.22C333.92 384.22 321.92 381.22 321.92 384.72C321.92 388.22 333.92 398.72 337.42 403.72C340.92 408.72 344.42 419.72 351.92 425.22C359.42 430.72 396.92 442.72 412.92 443.72C428.92 444.72 439.42 434.22 438.92 423.22C438.42 412.22 430.42 402.22 417.42 400.22C404.42 398.22 398.42 404.72 390.92 406.72C383.42 408.72 377.42 410.72 377.42 410.72C377.42 410.72 381.42 397.22 380.42 393.22C379.42 389.22 372.62 386.69 372.62 386.69L367.42 381.69C367.42 381.69 356.92 373.19 355.42 373.19C353.92 373.19 347.92 366.19 340.42 366.19C332.92 366.19 323.42 371.69 326.42 374.69C329.42 377.69 335.92 375.69 339.42 375.69C342.92 375.69 346.42 383.19 346.42 383.19C346.42 383.19 341.92 386.19 343.42 388.19C344.92 390.19 345.92 391.69 345.92 391.69L344.92 396.22Z" fill="white" stroke="#263238" stroke-linecap="round" stroke-linejoin="round"/>
<path d="M345.65 391.07C345.65 391.07 346.38 395.07 349.48 395.07C352.58 395.07 351.3 390.51 352.39 389.07C353.48 387.63 356.39 382.33 356.39 382.33" stroke="#263238" stroke-linecap="round" stroke-linejoin="round"/>
<path d="M370.981 387.42C370.981 387.42 363.871 394.16 363.331 394.53C362.791 394.9 361.141 398.72 359.861 400.72C358.581 402.72 355.491 403.27 354.581 400.72C353.671 398.17 354.941 394.16 356.041 392.34C357.141 390.52 360.59 385.05 360.59 385.05C360.59 385.05 362.961 381.59 366.241 381.59" stroke="#263238" stroke-linecap="round" stroke-linejoin="round"/>
<path d="M367.149 391.431C367.149 391.431 363.329 396.721 363.329 398.721C363.329 400.721 362.049 405.831 363.689 406.551C365.329 407.271 367.519 407.281 368.609 404.911C369.699 402.541 370.979 399.811 370.979 399.811C370.979 399.811 373.529 399.631 374.619 397.811" stroke="#263238" stroke-linecap="round" stroke-linejoin="round"/>
<path d="M370.98 399.811C371.516 401.033 372.49 402.01 373.71 402.551" stroke="#263238" stroke-linecap="round" stroke-linejoin="round"/>
<path d="M354.22 372.991C353.575 372.923 352.927 373.087 352.392 373.453C351.857 373.82 351.47 374.365 351.3 374.991C350.39 377.361 346.42 383.181 346.42 383.181" stroke="#263238" stroke-linecap="round" stroke-linejoin="round"/>
<path d="M350.939 385.78C351.259 387.099 351.503 388.434 351.669 389.78" stroke="#263238" stroke-linecap="round" stroke-linejoin="round"/>
<path d="M355.131 384.87C355.502 386.31 356.416 387.55 357.681 388.33" stroke="#263238" stroke-linecap="round" stroke-linejoin="round"/>
<path d="M377.42 410.721C377.42 410.721 373.58 423.551 370.58 426.891" stroke="#263238" stroke-linecap="round" stroke-linejoin="round"/>
<path d="M239.871 366.43L268.211 443.92C268.561 444.889 269.203 445.727 270.048 446.318C270.893 446.908 271.9 447.224 272.931 447.22H347.211C348.022 447.225 348.822 447.032 349.542 446.659C350.261 446.286 350.88 445.744 351.343 445.078C351.807 444.413 352.102 443.645 352.202 442.84C352.303 442.036 352.206 441.219 351.921 440.46L324.291 365.64C323.594 363.759 322.335 362.139 320.686 360.997C319.037 359.856 317.077 359.25 315.071 359.26L244.561 359.68C243.753 359.679 242.957 359.874 242.241 360.248C241.524 360.622 240.91 361.163 240.449 361.827C239.988 362.49 239.694 363.256 239.594 364.057C239.493 364.859 239.588 365.673 239.871 366.43Z" fill="#263238" stroke="#263238" stroke-linecap="round" stroke-linejoin="round"/>
<path d="M231.92 410.721L233.42 398.721C233.42 398.721 238.42 397.221 235.92 388.721C233.42 380.221 231.92 379.221 234.92 379.221C237.92 379.221 243.92 380.721 245.42 385.721C246.92 390.721 247.42 399.721 247.42 399.721C247.42 399.721 282.92 394.721 285.42 394.721C287.92 394.721 290.42 397.221 286.42 399.221C282.42 401.221 262.42 410.221 262.42 410.221C262.42 410.221 287.92 404.721 289.42 404.721C290.92 404.721 295.92 404.721 293.42 407.221C290.92 409.721 284.42 412.721 284.42 412.721C284.42 412.721 295.92 410.721 295.42 414.221C294.92 417.721 282.92 421.221 282.92 421.221C282.92 421.221 288.42 421.221 286.92 423.721C285.42 426.221 263.42 434.221 258.92 436.221C254.42 438.221 240.92 438.221 240.92 438.221C235.032 441.62 228.606 443.987 221.92 445.221C210.92 447.221 199.42 446.721 194.42 435.221C189.42 423.721 193.42 407.721 203.42 402.721C213.42 397.721 220.42 399.221 224.42 402.221C228.42 405.221 231.92 410.721 231.92 410.721Z" fill="white" stroke="#263238" stroke-linecap="round" stroke-linejoin="round"/>
<path d="M262.42 410.221L252.42 413.221" stroke="#263238" stroke-linecap="round" stroke-linejoin="round"/>
<path d="M284.42 412.721L255.42 421.721" stroke="#263238" stroke-linecap="round" stroke-linejoin="round"/>
<path d="M282.92 421.221L258.42 429.721" stroke="#263238" stroke-linecap="round" stroke-linejoin="round"/>
<path d="M231.92 410.721C231.92 410.721 229.92 414.721 223.92 410.721" stroke="#263238" stroke-linecap="round" stroke-linejoin="round"/>
<path d="M240.92 438.221L229.42 435.721" stroke="#263238" stroke-linecap="round" stroke-linejoin="round"/>
<path d="M247.42 399.721L236.92 401.721" stroke="#263238" stroke-linecap="round" stroke-linejoin="round"/>
<path d="M134.73 378.87C134.632 380.575 134.905 382.281 135.531 383.87C138.001 390.03 138.71 392.57 137.71 397.57" stroke="#263238" stroke-miterlimit="10" stroke-linecap="round"/>
<path d="M137.129 370.99C136.371 372.316 135.78 373.73 135.369 375.2" stroke="#263238" stroke-miterlimit="10" stroke-linecap="round"/>
<path d="M145.939 370.99C145.939 370.99 141.849 377.59 144.369 383.88C146.889 390.17 147.549 392.58 146.549 397.58" stroke="#263238" stroke-miterlimit="10" stroke-linecap="round"/>
<path d="M155.79 393.99C155.752 395.211 155.605 396.426 155.35 397.62" stroke="#263238" stroke-miterlimit="10" stroke-linecap="round"/>
<path d="M154.73 370.99C154.73 370.99 150.65 377.59 153.16 383.88C153.929 385.709 154.597 387.578 155.16 389.48" stroke="#263238" stroke-miterlimit="10" stroke-linecap="round"/>
<path d="M162.301 410.92C162.301 410.92 166.381 406.84 169.351 410.18C172.321 413.52 171.201 430.18 168.611 435.4C166.021 440.62 160.061 435.67 160.061 435.67V432.06C160.061 432.06 162.721 434.52 165.681 431.56C168.641 428.6 167.871 416.85 166.731 414.99C165.591 413.13 161.171 415.73 161.171 415.73L162.301 410.92Z" fill="white" stroke="#263238" stroke-linecap="round" stroke-linejoin="round"/>
<path d="M159.999 451.51H131.809L128.289 402.05H163.519L159.999 451.51Z" fill="white" stroke="#263238" stroke-linecap="round" stroke-linejoin="round"/>
</g>
<defs>
<clipPath id="clip0_503_6381">
<rect width="454.27" height="451.02" fill="white" transform="translate(0.730469 0.990234)"/>
</clipPath>
</defs>
</svg>
