<svg width="18" height="18" viewBox="0 0 18 18" fill="none" xmlns="http://www.w3.org/2000/svg">
<path d="M9.10263 1.6872C4.99005 1.63166 1.63263 4.98908 1.68818 9.10166C1.74302 13.0458 4.95455 16.2574 8.89873 16.3122C13.012 16.3685 16.3687 13.011 16.3125 8.89845C16.2583 4.95357 13.0468 1.74205 9.10263 1.6872ZM8.97326 7.03482C8.98064 6.99263 8.98873 6.95045 8.99822 6.90861C9.08701 6.49804 9.28485 6.11899 9.57091 5.81138C10.0241 5.32869 10.6664 5.0622 11.3797 5.0622C11.6798 5.06097 11.9779 5.11164 12.2607 5.21197C12.6123 5.33715 12.9289 5.54446 13.1843 5.81666C13.5599 6.22264 13.7835 6.74607 13.8171 7.29814C13.8268 7.43156 13.8268 7.56551 13.8171 7.69892C13.79 8.07704 13.6922 8.44672 13.5288 8.78877C13.511 8.82603 13.4924 8.86295 13.4729 8.89951C13.4339 8.97228 13.392 9.04365 13.347 9.11255C13.2575 9.25012 13.1559 9.37953 13.0436 9.49927C12.5824 9.99146 11.9918 10.2632 11.3804 10.2632C11.1512 10.2631 10.9235 10.2253 10.7065 10.1514C10.6335 10.1267 10.562 10.0981 10.492 10.066C10.199 9.9293 9.93546 9.73681 9.71611 9.49927C9.25953 9.00403 8.98654 8.36722 8.94267 7.69505C8.93634 7.60412 8.93423 7.51412 8.93634 7.42506C8.93906 7.29448 8.9514 7.16428 8.97326 7.03552V7.03482ZM3.70931 7.89052C3.72642 7.63967 3.78834 7.39391 3.89212 7.1649C3.9214 7.10111 3.95403 7.03892 3.98986 6.97857C4.06153 6.8576 4.1463 6.74489 4.24263 6.64248C4.38535 6.49023 4.55151 6.36181 4.73482 6.26209C4.82637 6.21205 4.9217 6.16926 5.01994 6.13412C5.39636 6.00246 5.80105 5.97346 6.1924 6.05009C6.60707 6.1303 6.9858 6.33947 7.27451 6.64775C7.61709 7.01756 7.81016 7.50141 7.81627 8.00548C7.81802 8.07966 7.81627 8.1542 7.81099 8.22978C7.78954 8.51923 7.71817 8.80279 7.60005 9.06791C7.5435 9.19555 7.4761 9.3181 7.39861 9.43423C7.24957 9.65945 7.06202 9.85665 6.84455 10.0168C6.79181 10.0544 6.73697 10.0895 6.68037 10.1247C6.56904 10.191 6.45124 10.2458 6.3288 10.2882C6.14572 10.3522 5.95321 10.385 5.75927 10.3852C5.72658 10.3852 5.69388 10.3852 5.66154 10.3824C5.59695 10.3789 5.53263 10.3716 5.46888 10.3606C5.40546 10.3496 5.34267 10.3351 5.2808 10.3174C5.18785 10.2905 5.09711 10.2565 5.00939 10.2158C4.97986 10.202 4.95103 10.1876 4.9222 10.1725C4.28939 9.83888 3.81232 9.14736 3.7188 8.34017C3.71459 8.30326 3.71107 8.26634 3.70861 8.22908C3.70067 8.11636 3.70091 8.00321 3.70931 7.89052ZM5.60494 14.1694C4.66889 13.5524 3.9166 12.6944 3.42736 11.6856C3.41138 11.6534 3.40838 11.6162 3.41898 11.5818C3.42957 11.5474 3.45295 11.5184 3.48431 11.5007C4.13752 11.1333 4.97177 10.9333 5.75998 10.9333C6.35763 10.9333 6.83927 11.0036 7.2608 11.14C7.30859 11.1557 7.35128 11.184 7.38443 11.2218C7.41758 11.2597 7.43997 11.3057 7.44927 11.3552C7.45857 11.4046 7.45444 11.4557 7.4373 11.503C7.42017 11.5503 7.39066 11.5921 7.35185 11.6241C6.53095 12.2921 6.00185 13.1197 5.7533 14.1114C5.74958 14.1266 5.74227 14.1406 5.73198 14.1524C5.72169 14.1641 5.70872 14.1732 5.69417 14.1789C5.67963 14.1846 5.66393 14.1867 5.6484 14.1851C5.63286 14.1834 5.61796 14.1781 5.60494 14.1694ZM9.00068 15.1872C8.20917 15.188 7.42493 15.0362 6.69091 14.74C6.66092 14.7276 6.63613 14.7052 6.62075 14.6767C6.60537 14.6481 6.60035 14.6151 6.60654 14.5832C6.6206 14.5111 6.63607 14.4454 6.64978 14.3906C6.90009 13.3911 7.52025 12.5624 8.44275 11.9936C9.26154 11.4891 10.306 11.2114 11.379 11.2114C12.4745 11.2114 13.4884 11.4779 14.3138 11.9817C14.3349 11.9948 14.35 12.0156 14.3559 12.0397C14.3619 12.0638 14.3583 12.0892 14.3458 12.1107C13.8015 13.0459 13.0215 13.8221 12.0836 14.3619C11.1458 14.9017 10.0828 15.1863 9.00068 15.1872Z" fill="#4F4B6A"/>
<path d="M5.65855 10.3806C5.59397 10.377 5.52964 10.3698 5.4659 10.3588C5.52964 10.3698 5.59397 10.377 5.65855 10.3806ZM4.73184 6.26203C4.54853 6.36175 4.38236 6.49017 4.23965 6.64242C4.14331 6.74484 4.05854 6.85755 3.98687 6.97852C4.05854 6.85755 4.14331 6.74484 4.23965 6.64242C4.38236 6.49017 4.54853 6.36175 4.73184 6.26203ZM7.59812 9.06609C7.71624 8.80097 7.78761 8.51742 7.80906 8.22797C7.81434 8.15238 7.81609 8.07785 7.81434 8.00367C7.81621 8.0775 7.81445 8.15227 7.80906 8.22797C7.78761 8.51742 7.71624 8.80097 7.59812 9.06609ZM4.73184 6.26203C4.82339 6.212 4.91872 6.16921 5.01695 6.13406C4.91872 6.16921 4.82339 6.212 4.73184 6.26203ZM5.27922 10.3155C5.18627 10.2887 5.09554 10.2547 5.00781 10.2139C5.09554 10.2547 5.18627 10.2887 5.27922 10.3155ZM3.71723 8.33836C3.81074 9.14695 4.28887 9.83707 4.92062 10.1707C4.28746 9.83707 3.81074 9.14555 3.71723 8.33836ZM8.94004 7.69887C8.98391 8.37103 9.2569 9.00784 9.71348 9.50309C9.93282 9.74062 10.1964 9.93312 10.4894 10.0698C10.1964 9.93312 9.93282 9.74062 9.71348 9.50309C9.2569 9.00784 8.98391 8.37103 8.94004 7.69887C8.93371 7.60793 8.9316 7.51793 8.93371 7.42887C8.9316 7.51676 8.93371 7.60676 8.94004 7.69887ZM10.7035 10.1535C10.6306 10.1287 10.559 10.1002 10.489 10.068C10.559 10.1002 10.6306 10.1287 10.7035 10.1535ZM8.99594 6.90926C9.08473 6.49868 9.28257 6.11964 9.56863 5.81203C9.28257 6.11964 9.08473 6.49868 8.99594 6.90926ZM13.182 5.8166C13.5576 6.22259 13.7812 6.74602 13.8148 7.29809C13.7812 6.74602 13.5576 6.22259 13.182 5.8166C12.9267 5.54441 12.61 5.3371 12.2584 5.21191C12.61 5.3371 12.9267 5.54441 13.182 5.8166ZM13.8148 7.69887C13.7877 8.07698 13.6899 8.44666 13.5265 8.78871C13.6899 8.44666 13.7877 8.07698 13.8148 7.69887ZM8.93371 7.42711C8.93644 7.29582 8.9489 7.16492 8.97098 7.03547C8.9489 7.16492 8.93644 7.29582 8.93371 7.42711ZM7.27152 6.64594C7.61411 7.01575 7.80717 7.4996 7.81328 8.00367C7.80717 7.4996 7.61411 7.01575 7.27152 6.64594C6.98282 6.33766 6.60409 6.12849 6.18941 6.04828C6.60409 6.12849 6.98282 6.33766 7.27152 6.64594ZM6.67809 10.1246C6.56676 10.191 6.44896 10.2457 6.32652 10.2881C6.44896 10.2457 6.56676 10.191 6.67809 10.1246ZM3.70703 7.89047C3.72414 7.63962 3.78605 7.39386 3.88984 7.16484C3.78605 7.39386 3.72414 7.63962 3.70703 7.89047ZM6.84262 10.015C6.78953 10.0543 6.73469 10.0895 6.67809 10.1246C6.73469 10.0895 6.78953 10.0543 6.84262 10.015ZM7.59812 9.06609C7.54157 9.19374 7.47417 9.31629 7.39668 9.43242C7.47417 9.31629 7.54157 9.19374 7.59812 9.06609ZM3.88984 7.16484C3.91912 7.10106 3.95175 7.03886 3.98758 6.97852C3.95175 7.03886 3.91912 7.10106 3.88984 7.16484ZM6.84262 10.015C7.06009 9.85483 7.24764 9.65764 7.39668 9.43242C7.24764 9.65764 7.06009 9.85483 6.84262 10.015Z" fill="#4F4B6A"/>
</svg>
