<svg width="18" height="18" viewBox="0 0 18 18" fill="none" xmlns="http://www.w3.org/2000/svg">
<g clip-path="url(#clip0_350_58)">
<path d="M3.78291 8.78906C3.70834 8.6599 3.58553 8.56565 3.44148 8.52701C3.29743 8.48838 3.14394 8.50854 3.01475 8.58305L1.26713 9.59098C1.10353 9.68474 0.960618 9.81068 0.847024 9.9612C0.733429 10.1117 0.651504 10.2837 0.606191 10.4667C0.518997 10.8297 0.576359 11.2123 0.766152 11.5337L0.919433 11.7988C1.10603 12.1215 1.41311 12.3568 1.77317 12.4532C2.13323 12.5496 2.51683 12.4991 2.83967 12.3128L4.58588 11.3062C4.64991 11.2694 4.70604 11.2202 4.75107 11.1616C4.79609 11.103 4.82913 11.0361 4.8483 10.9648C4.86746 10.8934 4.87238 10.8189 4.86276 10.7457C4.85314 10.6724 4.82918 10.6017 4.79225 10.5377L3.78291 8.78906Z" fill="#4F4B6A"/>
<path d="M13.4581 15.4971L10.1492 8.9299C10.1411 8.91385 10.1395 8.89534 10.1447 8.87815C10.1498 8.86096 10.1614 8.84639 10.1769 8.83744L10.4687 8.66904C10.5327 8.63211 10.5888 8.58294 10.6338 8.52433C10.6788 8.46573 10.7118 8.39883 10.731 8.32746C10.7501 8.25609 10.755 8.18166 10.7453 8.1084C10.7357 8.03515 10.7117 7.96451 10.6748 7.90052L9.00378 5.00611C8.96689 4.94208 8.91774 4.88595 8.85914 4.84092C8.80054 4.79589 8.73365 4.76285 8.66228 4.74369C8.59091 4.72453 8.51646 4.71961 8.4432 4.72923C8.36993 4.73885 8.29927 4.76281 8.23526 4.79974L5.19847 6.55052C5.03815 6.64237 4.89766 6.7651 4.78511 6.91163C4.67256 7.05815 4.5902 7.22554 4.5428 7.40412C4.51056 7.51563 4.49434 7.63116 4.49464 7.74724C4.49675 8.01443 4.81808 8.54529 5.13167 9.09302C5.46882 9.68189 5.80808 10.2841 6.05769 10.4342C6.21659 10.5299 6.49714 10.6065 6.73304 10.6065H6.76257L3.97397 16.6393C3.94291 16.7064 3.92536 16.7789 3.92234 16.8528C3.91933 16.9266 3.93089 17.0004 3.95639 17.0697C3.98188 17.1391 4.0208 17.2028 4.07092 17.2571C4.12104 17.3115 4.18137 17.3554 4.24848 17.3864C4.31558 17.4174 4.38813 17.4349 4.46199 17.4378C4.53585 17.4407 4.60957 17.4291 4.67892 17.4035C4.74828 17.378 4.81192 17.339 4.8662 17.2888C4.92048 17.2386 4.96433 17.1782 4.99526 17.1111L8.2887 9.98669C8.31293 9.93396 8.35299 9.89009 8.40331 9.86119L9.07866 9.47166C9.08696 9.46692 9.09613 9.46392 9.10563 9.46284C9.11512 9.46176 9.12474 9.46264 9.13388 9.4654C9.14303 9.46816 9.15152 9.47276 9.15882 9.47891C9.16613 9.48507 9.17211 9.49265 9.1764 9.50119L12.4533 16.0051C12.4866 16.0711 12.5325 16.1298 12.5884 16.1781C12.6444 16.2263 12.7093 16.263 12.7794 16.2862C12.8496 16.3093 12.9236 16.3184 12.9973 16.313C13.071 16.3075 13.1428 16.2876 13.2088 16.2544C13.2748 16.2211 13.3336 16.1752 13.3818 16.1192C13.43 16.0633 13.4668 15.9984 13.4899 15.9282C13.5131 15.8581 13.5222 15.784 13.5167 15.7104C13.5112 15.6367 13.4913 15.5648 13.4581 15.4988V15.4971ZM17.2328 4.06919L15.6114 1.26584C15.4243 0.943641 15.1171 0.70868 14.7572 0.612357C14.3973 0.516033 14.0139 0.566189 13.6908 0.751851L10.4093 2.64255C10.249 2.73434 10.1084 2.85705 9.99588 3.00359C9.88332 3.15012 9.80099 3.31754 9.75366 3.49615C9.70706 3.64673 9.69186 3.80528 9.70901 3.96197C9.77019 4.40564 10.166 5.03072 10.6375 5.85654C11.1149 6.6908 11.6539 7.63123 11.9358 7.83478C12.1742 8.00327 12.4588 8.09378 12.7507 8.09388C12.9966 8.09397 13.2382 8.02922 13.451 7.90615L16.7332 6.01439C16.8965 5.92084 17.0392 5.79527 17.1527 5.6452C17.2662 5.49513 17.3482 5.32367 17.3938 5.14111C17.4817 4.77646 17.4239 4.39194 17.2328 4.06919Z" fill="#4F4B6A"/>
</g>
<defs>
<clipPath id="clip0_350_58">
<rect width="18" height="18" fill="white"/>
</clipPath>
</defs>
</svg>
