<svg width="18" height="18" viewBox="0 0 18 18" fill="none" xmlns="http://www.w3.org/2000/svg">
<path d="M9 9.84375C9.46599 9.84375 9.84375 9.46599 9.84375 9C9.84375 8.53401 9.46599 8.15625 9 8.15625C8.53401 8.15625 8.15625 8.53401 8.15625 9C8.15625 9.46599 8.53401 9.84375 9 9.84375Z" fill="#4F4B6A"/>
<path d="M9 1.6875C4.96793 1.6875 1.6875 4.96793 1.6875 9C1.6875 13.0321 4.96793 16.3125 9 16.3125C13.0321 16.3125 16.3125 13.0321 16.3125 9C16.3125 4.96793 13.0321 1.6875 9 1.6875ZM12.6939 5.67176L11.0457 9.79207C10.9326 10.0751 10.7631 10.3321 10.5476 10.5476C10.3321 10.7631 10.0751 10.9326 9.79207 11.0457L5.67176 12.6939C5.62065 12.7143 5.56466 12.7193 5.51073 12.7083C5.45679 12.6972 5.4073 12.6706 5.36837 12.6316C5.32944 12.5927 5.30279 12.5432 5.29173 12.4893C5.28067 12.4353 5.28567 12.3794 5.30613 12.3282L6.95426 8.20793C7.06742 7.92495 7.2369 7.66791 7.4524 7.4524C7.66791 7.2369 7.92495 7.06742 8.20793 6.95426L12.3282 5.30613C12.3794 5.28567 12.4353 5.28067 12.4893 5.29173C12.5432 5.30279 12.5927 5.32944 12.6316 5.36837C12.6706 5.4073 12.6972 5.45679 12.7083 5.51073C12.7193 5.56466 12.7143 5.62065 12.6939 5.67176Z" fill="#4F4B6A"/>
</svg>
