<svg width="75" height="91" viewBox="0 0 75 91" fill="none" xmlns="http://www.w3.org/2000/svg">
<g clip-path="url(#clip0_488_799)">
<path d="M37.4965 72.0985C57.2398 72.0985 73.2449 55.9592 73.2449 36.0502C73.2449 16.1413 57.2398 0.00195312 37.4965 0.00195312C17.7532 0.00195312 1.74805 16.1413 1.74805 36.0502C1.74805 55.9592 17.7532 72.0985 37.4965 72.0985Z" fill="#FFCE33"/>
<path d="M56.4082 37.793C55.7628 31.5395 54.3769 25.3866 52.2802 19.4655C52.2194 18.5855 52.0853 17.7123 51.8792 16.855C51.2453 14.2854 49.9494 11.9304 48.1227 10.0283C45.9877 7.79931 43.1872 6.33718 40.1498 5.86566L39.849 5.81809C39.7193 5.81809 39.5954 5.78241 39.4657 5.77052C39.2239 5.74079 38.9821 5.72889 38.7403 5.71105C38.4986 5.69321 38.3511 5.71105 38.1506 5.71105H37.844C34.6522 5.77298 31.5708 6.90046 29.0824 8.91697C26.5939 10.9335 24.8388 13.7252 24.0919 16.855C24.0093 17.2118 23.9385 17.5745 23.8737 17.9373C20.5241 25.0732 19.3801 33.2676 19.5098 41.2301C20.0331 39.8535 20.8575 38.6136 21.9217 37.6027C21.4366 38.6741 21.1855 39.8382 21.1855 41.016C21.1855 42.1939 21.4366 43.3579 21.9217 44.4294V44.6018H21.9925L22.0279 44.6851V44.6018H53.8193L53.6955 44.2926C54.0935 44.2434 54.4877 44.1658 54.8749 44.0607C54.8041 43.24 54.7334 42.4135 54.6685 41.5928C55.0636 42.2232 55.5354 42.461 55.9128 43.0973C55.6892 40.8521 55.2949 38.6274 54.7334 36.4431C55.3939 36.8712 56.0661 37.0853 56.4082 37.793Z" fill="#2E2E2E"/>
<path d="M44.703 52.6115C44.7627 53.5321 44.6364 54.4554 44.3317 55.3253C44.0271 56.1953 43.5504 56.9938 42.9306 57.6725C42.3108 58.3512 41.5608 58.8959 40.7261 59.2736C39.8913 59.6513 38.9892 59.8542 38.0744 59.8699C37.1596 59.8856 36.2512 59.7139 35.4042 59.365C34.5571 59.0162 33.7892 58.4976 33.1468 57.8406C32.5045 57.1836 32.0011 56.4019 31.6672 55.5429C31.3333 54.6839 31.1759 53.7655 31.2045 52.8434C31.2045 52.7661 31.2045 52.6888 31.2045 52.6115L31.9475 42.2228L32.0478 40.8848L32.5372 34.4268H43.3879L43.8774 41.1226L43.9836 42.5855L44.703 52.6115Z" fill="#F5F5FF" stroke="#2E2E2E" stroke-width="0.390657" stroke-linecap="round" stroke-linejoin="round"/>
<path d="M44.3295 47.5326C40.9092 47.9548 37.0524 46.2957 34.44 42.9299C33.4225 41.6315 32.6672 40.1446 32.2168 38.5532L32.5234 34.3906H43.3742L43.8518 41.033L43.9639 42.4958L44.3295 47.5326Z" fill="#2E2E2E"/>
<path d="M47.1569 24.0138C45.7946 26.22 45.9244 28.8365 47.4517 29.8534C48.9791 30.8702 51.3202 29.9069 52.6825 27.7007C54.0447 25.4945 53.915 22.878 52.3876 21.8611C50.8603 20.8443 48.5191 21.8017 47.1569 24.0138Z" fill="#F5F5FF" stroke="#2E2E2E" stroke-width="0.390657" stroke-linecap="round" stroke-linejoin="round"/>
<path d="M51.2363 22.9199C51.5685 23.0507 51.8607 23.2672 52.0837 23.5477C52.3067 23.8282 52.4527 24.1629 52.5071 24.5183C52.5614 24.8736 52.5222 25.2371 52.3934 25.5723C52.2645 25.9076 52.0506 26.2028 51.773 26.4284" stroke="#2E2E2E" stroke-width="0.390657" stroke-linecap="round" stroke-linejoin="round"/>
<path d="M28.7492 24.0138C30.1114 26.22 29.9817 28.8365 28.4544 29.8534C26.927 30.8702 24.5917 29.9069 23.2236 27.7007C21.8555 25.4945 21.997 22.878 23.5184 21.8611C25.0399 20.8443 27.387 21.8017 28.7492 24.0138Z" fill="#F5F5FF" stroke="#2E2E2E" stroke-width="0.390657" stroke-linecap="round" stroke-linejoin="round"/>
<path d="M24.6695 22.9199C24.3378 23.0513 24.0461 23.2683 23.8237 23.5491C23.6013 23.83 23.4559 24.1648 23.4022 24.52C23.3484 24.8753 23.3882 25.2386 23.5174 25.5735C23.6467 25.9084 23.861 26.2032 24.1387 26.4284" stroke="#2E2E2E" stroke-width="0.390657" stroke-linecap="round" stroke-linejoin="round"/>
<path d="M50.7657 20.3634C50.7657 20.5715 50.7657 20.7737 50.7657 20.9581C50.7657 21.5527 50.695 22.1474 50.6183 22.742L50.5357 23.5746L50.5004 24.0265L50.4414 24.6806C50.406 25.0791 50.3824 25.4715 50.3529 25.8699C50.3529 26.1197 50.3529 26.3635 50.3117 26.6133C50.2586 27.6004 50.2055 28.5816 50.0758 29.5866C50.0758 29.5866 50.0758 29.6223 50.0758 29.6341C50.0758 29.8185 50.0227 30.0088 49.9873 30.1872C49.9519 30.3894 49.9165 30.5856 49.8635 30.7818C49.8045 31.0732 49.7297 31.361 49.6394 31.6441C49.6132 31.7533 49.5797 31.8606 49.5391 31.9652C49.4743 32.1793 49.3858 32.3993 49.3032 32.6193C49.062 33.2055 48.7802 33.7738 48.46 34.3201C47.1098 36.6371 45.2817 38.6347 43.0995 40.1775C42.8518 40.3559 42.6041 40.5164 42.3623 40.6651C41.1769 41.4066 39.8201 41.8235 38.426 41.8746C37.0319 41.9257 35.6487 41.6093 34.413 40.9565C33.8738 40.6867 33.3589 40.3703 32.8738 40.011C30.8528 38.4857 29.1796 36.541 27.9674 34.3082C27.8731 34.1476 27.7905 33.993 27.702 33.8324L27.5782 33.5767C27.5074 33.44 27.4367 33.2913 27.3659 33.1426C27.1654 32.7561 26.9885 32.3517 26.8234 31.9533C26.7821 31.8403 26.7349 31.7333 26.6995 31.6203C26.1508 29.9761 25.8313 28.2629 25.7501 26.53C25.7501 26.2624 25.7029 25.9829 25.6852 25.7153C25.6675 25.4477 25.638 25.1207 25.6145 24.8055L25.4611 24.0087C25.4611 23.9195 25.4611 23.8303 25.4199 23.747C25.3984 23.6489 25.3826 23.5496 25.3727 23.4497C25.3078 23.081 25.2606 22.7064 25.2194 22.3198C25.1604 21.6895 25.125 21.0354 25.125 20.3634C25.125 20.3099 25.125 20.2504 25.125 20.1909C25.125 19.8817 25.125 19.5963 25.1545 19.2752V18.9541C25.1545 18.6032 25.2253 18.2583 25.2783 17.9253C25.5736 15.9302 26.2356 14.0083 27.2303 12.2582C28.2342 10.4768 29.6058 8.93361 31.2521 7.73282C31.3406 7.66146 31.4349 7.59605 31.5234 7.53658L31.8595 7.31061C32.2975 7.02686 32.7525 6.77066 33.2218 6.5435C34.6033 5.90099 36.1001 5.54894 37.621 5.50879C37.621 5.50879 37.621 5.50879 37.621 5.50879H37.9336C38.1282 5.50879 38.3405 5.50879 38.5233 5.50879C38.7061 5.50879 39.0304 5.53852 39.284 5.5742C39.4197 5.5742 39.5553 5.5742 39.685 5.62772L40.0035 5.68124C40.8863 5.85262 41.7455 6.13012 42.5628 6.50782C43.1942 6.78519 43.7983 7.12166 44.3673 7.51279L44.4558 7.57226C44.8228 7.81907 45.1752 8.08712 45.5114 8.37505C46.8074 9.48613 47.8941 10.8237 48.7194 12.3236C48.7784 12.4128 48.8197 12.502 48.8728 12.5912C48.9258 12.6804 48.8728 12.5912 48.8728 12.5912C49.7304 14.2395 50.3028 16.0233 50.5652 17.8658C50.5652 17.8658 50.5652 17.8658 50.5652 17.9075C50.6183 18.2405 50.6537 18.5854 50.6832 18.9362C50.6832 18.9957 50.6832 19.0551 50.6832 19.1146C50.6832 19.4595 50.7245 19.8163 50.7245 20.1731C50.7657 20.2504 50.7657 20.3099 50.7657 20.3634Z" fill="#F5F5FF" stroke="#2E2E2E" stroke-width="0.390657" stroke-linecap="round" stroke-linejoin="round"/>
<path d="M31.2852 7.73242C30.3836 13.3252 28.4472 18.6971 25.5768 23.5682L25.4765 23.7466C25.455 23.6485 25.4393 23.5492 25.4293 23.4493C25.3645 23.0806 25.3173 22.706 25.2819 22.3194C25.2151 21.6695 25.1816 21.0165 25.1816 20.363C25.1816 20.3095 25.1816 20.25 25.1816 20.1905C25.1812 19.432 25.2384 18.6746 25.3527 17.9249C25.6882 15.4501 26.5996 13.0905 28.0123 11.0387C28.9059 9.75444 30.0132 8.63582 31.2852 7.73242Z" fill="#2E2E2E"/>
<path d="M50.8176 20.3635C50.8176 20.5716 50.8176 20.7738 50.8176 20.9581C50.8176 21.5528 50.7468 22.1475 50.6701 22.7421L50.5876 23.5747L50.5522 24.0266C50.4401 23.8541 50.3517 23.6995 50.2691 23.5628C47.3732 18.6438 45.4282 13.2159 44.5371 7.56641C44.902 7.81341 45.2525 8.08145 45.5868 8.3692C46.9613 9.55023 48.1018 10.9828 48.9482 12.5913C49.8058 14.2396 50.3782 16.0234 50.6406 17.8659C50.6406 17.8659 50.6406 17.8659 50.6406 17.9075C50.7562 18.6732 50.8153 19.4463 50.8176 20.2208C50.8176 20.2505 50.8176 20.31 50.8176 20.3635Z" fill="#2E2E2E"/>
<path d="M50.7533 19.1324C50.4062 19.4915 49.9674 19.7467 49.4854 19.8698C48.0937 20.2147 46.6489 19.2335 45.9766 17.955C45.3044 16.6765 45.5108 14.9282 45.44 13.4832C45.1333 15.8024 43.5883 17.735 41.6481 19.0254C43.1224 17.5031 43.6119 14.9579 43.2757 12.8588C43.157 13.3602 42.9788 13.8454 42.745 14.3038C41.9897 15.7715 40.8447 16.9987 39.4379 17.8482C38.031 18.6977 36.4176 19.1362 34.778 19.1146H31.0569C32.8791 18.181 33.9111 16.2246 34.831 14.3573C32.7485 16.7968 30.0538 18.6268 27.0291 19.6557C26.7227 19.7657 26.3922 19.7884 26.0738 19.7212C25.7555 19.6541 25.4616 19.4997 25.2246 19.2752C25.2541 18.8173 25.3013 18.3653 25.372 17.9372C25.6366 15.9444 26.2665 14.0186 27.2296 12.2582C28.2438 10.4733 29.6277 8.92974 31.2869 7.73282C31.3753 7.66146 31.4697 7.59605 31.5581 7.53658L31.8943 7.31061C32.3322 7.02686 32.7872 6.77066 33.2565 6.5435C34.6381 5.90099 36.1349 5.54894 37.6558 5.50879C37.6558 5.50879 37.6558 5.50879 37.6558 5.50879H37.9683C38.1629 5.50879 38.3752 5.50879 38.558 5.50879C38.7408 5.50879 39.0652 5.53852 39.3188 5.5742C39.4544 5.5742 39.59 5.5742 39.7198 5.62772L40.0382 5.68124C40.9165 5.84972 41.7717 6.12321 42.5858 6.49592C43.2171 6.7733 43.8213 7.10977 44.3903 7.5009L44.4788 7.56037C44.8437 7.80737 45.1942 8.07541 45.5284 8.36316C46.8244 9.47424 47.9111 10.8118 48.7365 12.3117C48.7955 12.4009 48.8367 12.4901 48.8898 12.5793C48.9429 12.6685 48.8898 12.5793 48.8898 12.5793C49.7475 14.2276 50.3198 16.0114 50.5823 17.8539C50.5823 17.8539 50.5823 17.8539 50.5823 17.8956C50.6472 18.2821 50.6825 18.6865 50.712 19.0849L50.7533 19.1324Z" fill="#2E2E2E"/>
<path d="M47.1191 16.0103C49.1338 18.6406 50.2497 21.858 50.2996 25.1811C50.3496 28.5042 49.331 31.7542 47.3963 34.4448C49.8731 32.0662 51.4771 29.408 51.8309 25.9828C52.1712 22.519 51.2855 19.0455 49.3306 16.1768C49.1098 15.7889 48.7735 15.481 48.3693 15.2968C48.1121 15.2603 47.8501 15.3104 47.6241 15.4395C47.398 15.5685 47.2205 15.7692 47.1191 16.0103Z" fill="#2E2E2E"/>
<path d="M40.5391 21.921C40.9412 21.4085 41.4819 21.0243 42.0959 20.815C42.674 20.6081 43.2812 20.4957 43.8945 20.482C44.493 20.474 45.0893 20.5562 45.6637 20.7258C46.2857 20.8969 46.8592 21.2126 47.3385 21.6475C46.7581 21.8029 46.1666 21.9123 45.5693 21.9746C44.9796 22.034 44.4666 22.0638 43.9181 22.0697C43.3697 22.0757 42.833 22.0697 42.2787 22.0697C41.7244 22.0697 41.1877 22.0043 40.5391 21.921Z" fill="#2E2E2E"/>
<path d="M35.3694 21.9211C34.9684 21.4073 34.4273 21.0228 33.8125 20.815C33.2439 20.6108 32.6468 20.4984 32.0434 20.482C31.4449 20.4736 30.8485 20.5558 30.2742 20.7259C29.6623 20.8952 29.0972 21.2045 28.623 21.6297C29.2035 21.7846 29.795 21.894 30.3922 21.9568C30.9819 22.0163 31.5008 22.046 32.0434 22.0519C32.5859 22.0579 33.1344 22.0519 33.6828 22.0519C34.2312 22.0519 34.7207 22.0044 35.3694 21.9211Z" fill="#2E2E2E"/>
<path d="M40.3449 26.7616C40.6477 26.2776 40.9952 25.8237 41.3828 25.4058C41.7937 24.9515 42.3048 24.6012 42.8748 24.383C43.4719 24.1642 44.1227 24.1434 44.7324 24.3235C45.3243 24.4987 45.8649 24.8172 46.3069 25.2512H46.2715C46.5192 25.4474 46.7728 25.6317 47.0205 25.8458L46.8495 25.7863C46.8495 25.7863 46.932 25.7863 47.0028 25.7863C47.0859 25.7593 47.1668 25.7255 47.2446 25.6853C47.4109 25.605 47.5706 25.5115 47.7222 25.4058C47.7475 25.3894 47.7775 25.3824 47.8073 25.3859C47.8371 25.3894 47.8647 25.4031 47.8856 25.4249C47.9064 25.4466 47.9192 25.4749 47.9216 25.505C47.9241 25.5352 47.9162 25.5652 47.8991 25.5901C47.772 25.752 47.632 25.9031 47.4804 26.0421C47.4032 26.1158 47.3204 26.1834 47.2328 26.2442C47.1194 26.3326 46.9854 26.39 46.8436 26.4107C46.796 26.411 46.7493 26.3987 46.7079 26.3751H46.6725C46.4013 26.2145 46.1418 26.0361 45.8705 25.8637C45.4908 25.5214 45.0422 25.2658 44.5555 25.1144C44.0823 24.9716 43.578 24.9716 43.1048 25.1144C42.61 25.2733 42.1525 25.5323 41.7602 25.8755C41.3474 26.2145 40.9759 26.6427 40.5808 27.0649C40.5558 27.0879 40.5232 27.1006 40.4894 27.1006C40.4556 27.1006 40.423 27.0879 40.398 27.0649C40.3581 27.072 40.3171 27.0628 40.2839 27.0394C40.2507 27.016 40.2281 26.9802 40.2211 26.94C40.214 26.8998 40.2231 26.8584 40.2464 26.8249C40.2696 26.7915 40.305 26.7687 40.3449 26.7616Z" fill="#2E2E2E"/>
<path d="M42.563 25.6799C42.5741 25.5352 42.6135 25.3942 42.6789 25.265C42.7444 25.1358 42.8345 25.0209 42.9441 24.9269C43.0537 24.833 43.1807 24.7618 43.3177 24.7175C43.4547 24.6732 43.599 24.6567 43.7424 24.6689C44.0251 24.6951 44.2863 24.832 44.4701 25.0501C44.6539 25.2682 44.7456 25.5503 44.7255 25.8358C44.7054 26.1214 44.5752 26.3876 44.3628 26.5774C44.1503 26.7673 43.8726 26.8656 43.5891 26.8513C43.4452 26.843 43.3044 26.806 43.1747 26.7425C43.0451 26.679 42.9292 26.5902 42.8338 26.4813C42.7384 26.3724 42.6654 26.2455 42.6189 26.1079C42.5724 25.9704 42.5534 25.8249 42.563 25.6799Z" fill="#2E2E2E"/>
<path d="M45.7754 26.6893C46.1756 26.6008 46.5506 26.4219 46.8723 26.166" stroke="#2E2E2E" stroke-width="0.390657" stroke-linecap="round" stroke-linejoin="round"/>
<path d="M40.457 25.4955C40.7111 25.0492 41.0504 24.658 41.4553 24.3447C41.8601 24.0313 42.3226 23.802 42.8159 23.6699" stroke="#2E2E2E" stroke-width="0.390657" stroke-linecap="round" stroke-linejoin="round"/>
<path d="M35.3677 26.9456C34.9608 26.5532 34.5834 26.125 34.1883 25.7563C33.7952 25.4143 33.3379 25.1555 32.8437 24.9952C32.3685 24.8526 31.8624 24.8526 31.3871 24.9952C30.902 25.1463 30.4553 25.402 30.078 25.7444C29.8126 25.9169 29.5531 26.0953 29.2819 26.2558H29.2406C29.2021 26.2812 29.1567 26.2937 29.1108 26.2915C28.9683 26.2733 28.8336 26.2157 28.7216 26.125C28.631 26.0658 28.5461 25.9981 28.468 25.9228C28.32 25.7823 28.182 25.6312 28.0552 25.4709C28.0311 25.4464 28.0176 25.4133 28.0176 25.3787C28.0176 25.3442 28.0311 25.3111 28.0552 25.2865C28.0784 25.2696 28.1063 25.2605 28.1349 25.2605C28.1635 25.2605 28.1913 25.2696 28.2145 25.2865C28.364 25.3923 28.5218 25.4858 28.6862 25.566C28.764 25.6063 28.8449 25.6401 28.928 25.6671C29.0047 25.6671 29.099 25.7028 29.0872 25.6671L28.9162 25.7266C29.158 25.5185 29.4116 25.3341 29.6593 25.1319C30.1004 24.6968 30.6413 24.3782 31.2338 24.2043C31.8413 24.023 32.4906 24.0438 33.0855 24.2637C33.6534 24.4776 34.1641 24.8216 34.5775 25.2687C34.952 25.7336 35.2818 26.2334 35.5623 26.7613C35.5724 26.7748 35.5796 26.7903 35.5836 26.8067C35.5876 26.8231 35.5882 26.8402 35.5855 26.8569C35.5827 26.8736 35.5766 26.8895 35.5676 26.9037C35.5585 26.918 35.5467 26.9302 35.5328 26.9397C35.5103 26.9599 35.4814 26.9715 35.4513 26.9726C35.4212 26.9737 35.3916 26.9642 35.3677 26.9456Z" fill="#2E2E2E"/>
<path d="M33.3201 25.6798C33.3009 25.4651 33.2193 25.2608 33.0855 25.0927C32.9516 24.9246 32.7715 24.8001 32.5677 24.7349C32.3639 24.6697 32.1456 24.6666 31.9401 24.726C31.7346 24.7855 31.5511 24.9049 31.4126 25.0691C31.2741 25.2334 31.1869 25.4352 31.1618 25.6493C31.1367 25.8634 31.1749 26.0803 31.2716 26.2725C31.3682 26.4648 31.5191 26.624 31.7052 26.7302C31.8913 26.8363 32.1043 26.8846 32.3176 26.8691C32.4613 26.8586 32.6015 26.8194 32.73 26.7537C32.8585 26.688 32.9728 26.5971 33.0661 26.4864C33.1595 26.3757 33.23 26.2473 33.2736 26.1089C33.3172 25.9704 33.333 25.8245 33.3201 25.6798Z" fill="#2E2E2E"/>
<path d="M30.13 26.6893C29.7321 26.5996 29.3592 26.4208 29.0391 26.166" stroke="#2E2E2E" stroke-width="0.390657" stroke-linecap="round" stroke-linejoin="round"/>
<path d="M35.4507 25.4955C35.1974 25.0486 34.8583 24.6569 34.4533 24.3435C34.0483 24.03 33.5855 23.8011 33.0918 23.6699" stroke="#2E2E2E" stroke-width="0.390657" stroke-linecap="round" stroke-linejoin="round"/>
<path d="M38.0333 36.5134C38.564 36.5134 39.0888 36.4242 39.6255 36.3529C40.2354 36.3012 40.8394 36.1937 41.43 36.0318L41.3828 35.6809C40.9798 35.6631 40.5958 35.5031 40.2978 35.229L40.1621 35.0863C39.8536 34.8247 39.4997 34.6231 39.1183 34.4916C38.9098 34.4212 38.6863 34.4089 38.4715 34.456C38.2566 34.5031 38.0583 34.6079 37.8976 34.7592C37.7354 34.6063 37.5351 34.5006 37.3181 34.4535C37.101 34.4064 36.8753 34.4195 36.6651 34.4916C36.2883 34.6252 35.9386 34.8267 35.6331 35.0863L35.5034 35.1933C35.2017 35.4653 34.8166 35.6249 34.4124 35.6452L34.3652 36.008C35.104 36.2359 35.8654 36.3815 36.6356 36.4421C37.0988 36.5044 37.5662 36.5282 38.0333 36.5134Z" fill="#2E2E2E"/>
<path d="M40.8516 35.9916C41.2426 35.9143 41.6242 35.7947 41.9897 35.6348" stroke="#2E2E2E" stroke-width="0.453163" stroke-linecap="round" stroke-linejoin="round"/>
<path d="M35.0601 35.9916C34.6673 35.9135 34.2839 35.7939 33.916 35.6348" stroke="#2E2E2E" stroke-width="0.453163" stroke-linecap="round" stroke-linejoin="round"/>
<path d="M35.9707 37.502C37.2549 37.8089 38.5883 37.8433 39.8864 37.603" stroke="#2E2E2E" stroke-width="0.390657" stroke-linecap="round" stroke-linejoin="round"/>
<path d="M36.5703 31.6729C36.9492 32.0059 37.4285 32.2 37.9306 32.2238C38.4327 32.2475 38.9279 32.0995 39.3361 31.8037" stroke="#2E2E2E" stroke-width="0.476602" stroke-linecap="round" stroke-linejoin="round"/>
<path d="M37.9551 25.4658V29.9793" stroke="#2E2E2E" stroke-width="0.390657" stroke-linecap="round" stroke-linejoin="round"/>
<path d="M11.6255 74.3816C16.4139 76.558 20.7837 77.23 21.3911 75.8801C21.9985 74.5302 18.6018 71.6699 13.8133 69.4875C9.02482 67.3051 4.64915 66.6391 4.04764 67.989C3.44613 69.3388 6.83698 72.1992 11.6255 74.3816Z" fill="#2E2E2E"/>
<path d="M0.25 90.1107C0.25 90.0513 0.29128 89.9977 0.308971 89.9383L6.68967 71.5573L8.08139 67.5493L10.8884 59.4679C11.2749 58.2807 11.9197 57.1956 12.7758 56.2922C13.6319 55.3888 14.6775 54.69 15.8361 54.2468C16.5308 53.9968 17.2627 53.8681 18.0004 53.8662C18.6832 53.8667 19.361 53.9833 20.0054 54.2111C23.7678 55.5372 25.4603 60.2945 23.6911 64.5701L20.0349 73.3473L18.708 76.5287L17.6289 79.1214L13.0468 90.1107" fill="#F5F5FF"/>
<path d="M0.25 90.1107C0.25 90.0513 0.29128 89.9978 0.308971 89.9383L6.68967 71.5573L8.08139 67.5493L10.8884 59.4679C11.2749 58.2807 11.9197 57.1956 12.7758 56.2922C13.6319 55.3888 14.6775 54.69 15.8361 54.2468C16.5308 53.9968 17.2627 53.8681 18.0004 53.8662C18.6832 53.8667 19.361 53.9833 20.0054 54.2111C23.7678 55.5372 25.4603 60.2945 23.6911 64.5701L20.0349 73.3473L18.708 76.5287L17.6289 79.1214L13.0468 90.1107" stroke="#2E2E2E" stroke-width="0.390657" stroke-linecap="round" stroke-linejoin="round"/>
<path d="M4.14844 67.8224C5.0389 66.6985 9.23177 67.4061 13.8138 69.4874C18.6023 71.6698 21.9991 74.5301 21.3858 75.8859C21.3731 75.9135 21.3572 75.9394 21.3386 75.9633H21.3858L26.6932 63.4754C28.769 58.5694 26.5222 52.9678 21.8045 51.3086C20.9351 50.9987 20.0198 50.8398 19.0977 50.8389C17.4433 50.8679 15.8287 51.3553 14.4308 52.2479C13.0328 53.1405 11.9054 54.4038 11.1719 55.8994L4.14844 67.8224Z" fill="#2E2E2E"/>
<path d="M63.368 74.3816C58.5795 76.558 54.2038 77.23 53.6023 75.8801C53.0008 74.5302 56.3917 71.6699 61.1801 69.4875C65.9686 67.3051 70.3384 66.6391 70.9458 67.989C71.5532 69.3388 68.1565 72.1992 63.368 74.3816Z" fill="#2E2E2E"/>
<path d="M61.9574 90.1115L57.0981 78.4621L56.2961 76.5294L54.9457 73.348L54.067 71.2429L52.575 67.6749L51.2894 64.5946C49.5203 60.319 51.201 55.5617 54.9634 54.2297C55.6057 54.0019 56.2816 53.8853 56.9625 53.8848C57.5612 53.8862 58.1567 53.9723 58.7316 54.1405C59.9814 54.5398 61.119 55.2334 62.0501 56.1641C62.9813 57.0948 63.6792 58.2357 64.0862 59.4924L66.8933 67.5798L68.285 71.5878L74.6657 89.9687C74.6657 90.0282 74.707 90.0817 74.7247 90.1412" fill="#F5F5FF"/>
<path d="M61.9574 90.1115L57.0981 78.4621L56.2961 76.5294L54.9457 73.348L54.067 71.2429L52.575 67.6749L51.2894 64.5946C49.5203 60.319 51.201 55.5617 54.9634 54.2297C55.6057 54.0019 56.2816 53.8853 56.9625 53.8848C57.5612 53.8862 58.1567 53.9723 58.7316 54.1405C59.9814 54.5398 61.119 55.2334 62.0501 56.1641C62.9813 57.0948 63.6792 58.2357 64.0862 59.4924L66.8933 67.5798L68.285 71.5878L74.6657 89.9687C74.6657 90.0282 74.707 90.0817 74.7247 90.1412" stroke="#2E2E2E" stroke-width="0.390657" stroke-linecap="round" stroke-linejoin="round"/>
<path d="M70.8681 67.8224C69.9835 66.6985 65.7906 67.4061 61.2086 69.4874C56.4201 71.6698 53.0233 74.5301 53.6307 75.8859L53.6838 75.9633H53.6307L48.3233 63.4754C46.2357 58.5694 48.4589 52.9678 53.1767 51.3086C54.0463 50.9995 54.9614 50.8407 55.8834 50.8389C57.5398 50.8657 59.1569 51.3522 60.5571 52.2449C61.9573 53.1376 63.0866 54.402 63.821 55.8994L70.8681 67.8224Z" fill="#2E2E2E"/>
<path d="M59.1029 61.7341L57.5932 69.0128C57.8979 69.6858 58.1312 70.3894 58.2891 71.1119C58.4592 71.8931 58.5442 72.6907 58.5427 73.4906C58.5448 74.4345 58.4218 75.3744 58.177 76.2855C57.98 77.0489 57.697 77.7871 57.3337 78.4857C56.7476 79.6252 55.9671 80.6518 55.028 81.5185L53.2588 90.1351H21.3317L19.5626 81.2747C18.5315 80.2625 17.7122 79.0521 17.153 77.7151C16.5939 76.3781 16.3064 74.9416 16.3074 73.4906C16.2969 72.5734 16.3999 71.6585 16.614 70.767C16.7477 70.232 16.9191 69.7074 17.1271 69.1971L15.6292 61.7103C14.9864 58.9511 15.1103 56.2514 16.0774 54.2176C16.4593 53.3639 17.038 52.6147 17.7653 52.0323C18.4926 51.4499 19.3474 51.0513 20.2585 50.8697C20.8064 50.7644 21.3637 50.7166 21.9214 50.727H53.6009C54.1477 50.7245 54.6933 50.7803 55.2285 50.8935C56.0764 51.0602 56.8674 51.4444 57.5253 52.0089C58.1833 52.5734 58.6859 53.2992 58.9849 54.1165C59.8164 56.1681 59.7575 58.9214 59.1029 61.7341Z" fill="#2E2E2E"/>
<path d="M59.1023 61.7334C58.8782 62.9227 58.6777 64.1715 58.4359 65.3906C58.1941 66.6096 57.9759 67.8227 57.7223 69.0358V68.9823C58.1968 70.031 58.5034 71.149 58.6305 72.2946C58.747 73.4409 58.6853 74.5986 58.4477 75.7257C58.211 76.8495 57.7926 77.9263 57.2093 78.9131C56.6213 79.8769 55.8848 80.7401 55.0273 81.4702C55.8327 80.679 56.5164 79.7711 57.056 78.7764C57.5917 77.788 57.9755 76.7233 58.1941 75.6187C58.6293 73.4039 58.3781 71.1077 57.4747 69.0418C57.4661 69.0147 57.4661 68.9856 57.4747 68.9585C57.7223 67.7692 57.9995 66.5383 58.2649 65.3251C58.5302 64.112 58.8192 62.9406 59.1023 61.7334Z" fill="white"/>
<path d="M19.5622 81.2501C18.7667 80.5083 18.0885 79.6479 17.5513 78.699C17.0055 77.7448 16.6078 76.7121 16.3718 75.6366C16.154 74.557 16.0944 73.451 16.1949 72.354C16.3022 71.2576 16.5767 70.1845 17.0087 69.1726V69.2499C16.5134 66.7523 16.0652 64.2429 15.6465 61.7334C16.2362 64.2131 16.7669 66.6988 17.2741 69.1964C17.2826 69.2214 17.2826 69.2486 17.2741 69.2737C16.4535 71.2702 16.2241 73.4637 16.6136 75.589C16.8172 76.6447 17.1686 77.6659 17.6574 78.6217C18.1661 79.5842 18.8074 80.4691 19.5622 81.2501Z" fill="white"/>
<path d="M45.3813 48.0625H29.4531V52.9506H45.3813V48.0625Z" fill="#2E2E2E"/>
<path d="M45.6343 50.5771C45.6815 51.1718 45.7051 51.8081 45.7051 52.4325C45.7051 59.949 42.0253 66.0383 37.4845 66.0383C32.9437 66.0383 29.2285 59.949 29.2285 52.4325C29.2285 51.8973 29.2285 51.368 29.2875 50.8507" stroke="white" stroke-width="0.390657" stroke-linecap="round" stroke-linejoin="round"/>
</g>
<defs>
<clipPath id="clip0_488_799">
<rect width="74.7875" height="90.2575" fill="white" transform="translate(0.105469)"/>
</clipPath>
</defs>
</svg>
