<svg width="83" height="83" viewBox="0 0 83 83" fill="none" xmlns="http://www.w3.org/2000/svg">
<path d="M41.38 82.8801C64.2335 82.8801 82.76 64.3537 82.76 41.5001C82.76 18.6466 64.2335 0.120117 41.38 0.120117C18.5265 0.120117 0 18.6466 0 41.5001C0 64.3537 18.5265 82.8801 41.38 82.8801Z" fill="#F9F9F9"/>
<path d="M24.2402 31.7798H37.2402V55.0298C37.2402 56.737 36.904 58.4274 36.2507 60.0047C35.5974 61.5819 34.6398 63.015 33.4326 64.2222C32.2255 65.4293 30.7924 66.3869 29.2151 67.0402C27.6379 67.6935 25.9474 68.0298 24.2402 68.0298V31.7798Z" fill="#F58220"/>
<path d="M41.3802 49.2199C50.8464 49.2199 58.5202 41.5461 58.5202 32.0799C58.5202 22.6138 50.8464 14.9399 41.3802 14.9399C31.9141 14.9399 24.2402 22.6138 24.2402 32.0799C24.2402 41.5461 31.9141 49.2199 41.3802 49.2199Z" fill="#F58220"/>
<path d="M41.4105 21.1199C44.3278 21.1199 47.1257 22.2788 49.1886 24.3417C51.2515 26.4046 52.4105 29.2025 52.4105 32.1199C52.4105 35.0373 51.2515 37.8352 49.1886 39.8981C47.1257 41.961 44.3278 43.1199 41.4105 43.1199C33.0105 43.1199 30.4105 35.7599 30.4105 32.1199C30.3998 30.6724 30.6771 29.2372 31.2261 27.8978C31.7751 26.5585 32.585 25.3416 33.6085 24.318C34.6321 23.2945 35.849 22.4846 37.1884 21.9356C38.5278 21.3865 39.9629 21.1093 41.4105 21.1199ZM44.0005 22.1199C45.3181 23.3778 46.2599 24.9774 46.7205 26.7399C47.5213 26.2596 48.2545 25.6744 48.9005 24.9999C47.5699 23.5989 45.8718 22.6009 44.0005 22.1199ZM49.3805 25.5199C48.657 26.2748 47.8284 26.9215 46.9205 27.4399C47.2713 28.8471 47.4592 30.2899 47.4805 31.7399H51.7005C51.6228 29.4658 50.7927 27.2817 49.3405 25.5299L49.3805 25.5199ZM49.3805 38.6699C50.8402 36.9186 51.671 34.7287 51.7405 32.4499H47.4405C47.4198 33.9 47.2319 35.3429 46.8805 36.7499C47.7845 37.2742 48.6123 37.9203 49.3405 38.6699H49.3805ZM48.9005 39.1999C48.2566 38.5232 47.5231 37.9378 46.7205 37.4599C46.2667 39.2368 45.3245 40.851 44.0005 42.1199C45.8701 41.635 47.5672 40.6375 48.9005 39.2399V39.1999ZM41.8105 42.3699C43.6105 42.1199 45.2005 40.1199 46.0605 37.1199C44.7292 36.4397 43.2646 36.0608 41.7705 36.0099L41.8105 42.3699ZM41.8105 35.2999C43.3628 35.3535 44.8862 35.7352 46.2805 36.4199C46.5907 35.1087 46.755 33.7672 46.7705 32.4199H41.7705L41.8105 35.2999ZM41.8105 31.7399H46.8105C46.795 30.3926 46.6307 29.0511 46.3205 27.7399C44.9262 28.4247 43.4028 28.8064 41.8505 28.8599L41.8105 31.7399ZM41.8105 28.1799C43.2872 28.1388 44.7374 27.7772 46.0605 27.1199C45.2005 24.1199 43.6105 22.1199 41.7705 21.8699L41.8105 28.1799ZM33.5205 25.5199C32.0632 27.2734 31.2295 29.4613 31.1505 31.7399H35.4204C35.4367 30.2895 35.6247 28.8461 35.9805 27.4399C35.059 26.9277 34.2168 26.2844 33.4805 25.5299L33.5205 25.5199ZM33.9905 24.9899C34.6359 25.665 35.3691 26.2502 36.1704 26.7299C36.6253 24.9771 37.5523 23.3826 38.8505 22.1199C36.9987 22.6134 35.32 23.6102 34.0005 24.9999L33.9905 24.9899ZM41.0905 21.8199C39.2005 22.1199 37.6105 24.1199 36.7505 27.1199C38.088 27.7914 39.5547 28.1666 41.0505 28.2199V21.8299L41.0905 21.8199ZM41.0905 28.8899C39.5344 28.8396 38.0071 28.4578 36.6105 27.7699C36.3051 29.082 36.1408 30.4229 36.1205 31.7699H41.1205L41.0905 28.8899ZM41.0905 32.4499H36.0905C36.1108 33.7969 36.2751 35.1379 36.5805 36.4499C37.976 35.7605 39.5045 35.3818 41.0605 35.3399L41.0905 32.4499ZM41.0905 42.3699V36.0199C39.5812 36.0681 38.1004 36.4434 36.7505 37.1199C37.6205 40.1199 39.2105 42.1199 41.0505 42.3699H41.0905ZM38.8905 42.0699C37.5777 40.8122 36.6366 39.2172 36.1704 37.4599C35.372 37.9434 34.6421 38.532 34.0005 39.2099C35.3183 40.613 37.0014 41.6207 38.8605 42.1199L38.8905 42.0699ZM33.5205 38.6699C34.2421 37.9158 35.071 37.2722 35.9805 36.7599C35.6215 35.3541 35.4302 33.9107 35.4105 32.4599H31.1205C31.1891 34.7389 32.0201 36.929 33.4805 38.6799L33.5205 38.6699Z" fill="#F9F9F9"/>
</svg>
