<svg width="158" height="93" viewBox="0 0 158 93" fill="none" xmlns="http://www.w3.org/2000/svg">
<g clip-path="url(#clip0_488_1155)">
<path d="M149.626 55.7841C144.044 70.2378 133.548 82.9008 118.97 88.4659C117.074 89.1885 115.138 89.8016 113.171 90.302C102.77 92.9538 91.3914 92.0314 81.8036 87.1996C77.7343 85.1472 74.0237 82.4353 69.9398 80.4124C65.8558 78.3895 61.192 77.0655 56.7469 78.064C52.9197 78.9238 49.6905 81.3876 46.4393 83.5824C38.7749 88.7569 29.5593 92.8518 20.4836 91.0746C16.3075 90.2578 12.1953 87.9954 10.2558 84.2137C5.96917 75.8532 14.0536 65.9132 12.4163 56.6672C11.3686 50.7496 6.5833 46.3181 3.60844 41.0957C-1.48273 32.1629 -0.880875 20.297 5.0885 11.9267C11.0579 3.55633 22.0779 -0.883693 32.1816 1.01514C44.5023 3.33157 53.8175 13.758 65.798 17.4475C73.2905 19.7529 81.4253 19.0651 88.5812 16.0289C100.143 11.1222 116.027 3.59687 129.038 4.82263C135.957 5.47482 142.743 8.54538 147.309 13.7887C153.082 20.4076 154.813 29.8047 153.85 38.5324C153.189 44.4406 151.769 50.2389 149.626 55.7841Z" fill="url(#paint0_linear_488_1155)"/>
<path d="M153.339 67.2168C153.083 67.2164 152.827 67.1855 152.578 67.1246C151.79 66.9309 151.105 66.4435 150.664 65.7621C150.223 65.0807 150.058 64.2566 150.204 63.4581C150.35 62.6596 150.795 61.9469 151.449 61.4655C152.103 60.9841 152.915 60.7703 153.721 60.8678C154.527 60.9653 155.265 61.3667 155.785 61.99C156.305 62.6134 156.568 63.4117 156.519 64.2219C156.47 65.0322 156.114 65.7933 155.523 66.3499C154.932 66.9065 154.151 67.2165 153.339 67.2168ZM153.339 62.2818C152.917 62.2834 152.51 62.4393 152.195 62.7202C151.879 63.0011 151.678 63.3876 151.628 63.8069C151.577 64.2261 151.682 64.6493 151.923 64.9966C152.163 65.3439 152.522 65.5914 152.932 65.6925C153.169 65.7496 153.416 65.7557 153.656 65.7106C153.896 65.6654 154.123 65.57 154.324 65.4306C154.524 65.2911 154.693 65.1108 154.818 64.9016C154.944 64.6923 155.024 64.4588 155.053 64.2164C155.082 63.974 155.059 63.7282 154.986 63.4952C154.914 63.2622 154.792 63.0472 154.63 62.8645C154.469 62.6817 154.27 62.5353 154.047 62.4349C153.825 62.3344 153.584 62.2823 153.339 62.2818Z" fill="#E7F6FF"/>
<path d="M150.431 70.5955C150.612 69.8486 150.154 69.0963 149.407 68.9152C148.66 68.734 147.907 69.1927 147.726 69.9396C147.545 70.6865 148.004 71.4388 148.751 71.6199C149.498 71.801 150.25 71.3424 150.431 70.5955Z" fill="#E7F6FF"/>
<path d="M6.77907 66.913C5.93543 66.8946 5.13312 66.5441 4.5463 65.9378C3.95947 65.3314 3.6355 64.5181 3.64472 63.6743C3.65394 62.8306 3.9956 62.0245 4.59553 61.4311C5.19546 60.8377 6.00524 60.5049 6.84908 60.5049C7.69291 60.5049 8.50269 60.8377 9.10263 61.4311C9.70256 62.0245 10.0442 62.8306 10.0534 63.6743C10.0627 64.5181 9.73869 65.3314 9.15186 65.9378C8.56504 66.5441 7.76272 66.8946 6.91909 66.913H6.77907ZM6.77907 61.9792H6.7066C6.25096 61.9891 5.8176 62.1783 5.50062 62.5057C5.18363 62.8331 5.0086 63.2724 5.01354 63.7281C5.01847 64.1838 5.20296 64.6192 5.52696 64.9397C5.85097 65.2602 6.28832 65.4399 6.74406 65.4399C7.19981 65.4399 7.63716 65.2602 7.96116 64.9397C8.28516 64.6192 8.46966 64.1838 8.47459 63.7281C8.47952 63.2724 8.30449 62.8331 7.98751 62.5057C7.67052 62.1783 7.23716 61.9891 6.78152 61.9792H6.77907Z" fill="#E7F6FF"/>
<path d="M4.49466 72.2909C5.26252 72.2578 5.85814 71.6085 5.82502 70.8406C5.79189 70.0728 5.14257 69.4772 4.37471 69.5103C3.60685 69.5435 3.01123 70.1928 3.04435 70.9606C3.07747 71.7284 3.7268 72.324 4.49466 72.2909Z" fill="#E7F6FF"/>
<path d="M87.0944 15.1056C86.3297 15.1063 85.59 14.8332 85.0092 14.3358C84.4285 13.8383 84.045 13.1494 83.9282 12.3937C83.8114 11.638 83.969 10.8655 84.3725 10.216C84.776 9.56641 85.3987 9.08277 86.1279 8.85258C86.8571 8.62239 87.6447 8.66085 88.348 8.96101C89.0513 9.26117 89.6239 9.8032 89.9622 10.489C90.3004 11.1747 90.382 11.959 90.1921 12.6997C90.0022 13.4404 89.5534 14.0886 88.9269 14.5271C88.3897 14.903 87.75 15.1049 87.0944 15.1056ZM87.0845 10.1731C86.6371 10.1726 86.2068 10.3448 85.8832 10.6538C85.5596 10.9628 85.3678 11.3848 85.3477 11.8317C85.3276 12.2787 85.4808 12.7162 85.7753 13.053C86.0698 13.3898 86.483 13.5999 86.9286 13.6396C87.3743 13.6793 87.8181 13.5455 88.1675 13.266C88.5169 12.9866 88.745 12.5831 88.8042 12.1396C88.8634 11.6961 88.7492 11.2469 88.4854 10.8856C88.2215 10.5243 87.8284 10.2787 87.3879 10.2001C87.2878 10.1822 87.1863 10.1732 87.0845 10.1731Z" fill="#E7F6FF"/>
<path d="M80.5597 14.9299C81.1889 14.4887 81.3413 13.6209 80.9001 12.9916C80.4588 12.3624 79.5909 12.21 78.9617 12.6512C78.3324 13.0925 78.18 13.9603 78.6213 14.5896C79.0625 15.2188 79.9304 15.3712 80.5597 14.9299Z" fill="#E7F6FF"/>
<path d="M157.956 31.6122C157.956 30.2616 157.419 28.9664 156.464 28.0114C155.509 27.0565 154.214 26.52 152.863 26.52C152.75 26.52 152.639 26.52 152.528 26.531C152.536 26.4205 152.539 26.3087 152.539 26.1957C152.539 25.472 152.385 24.7566 152.086 24.0972C151.788 23.4378 151.352 22.8496 150.809 22.3719C150.265 21.8941 149.626 21.5376 148.934 21.3263C148.241 21.115 147.512 21.0537 146.794 21.1465C146.076 21.2392 145.387 21.4839 144.771 21.8643C144.155 22.2446 143.627 22.7518 143.223 23.3521C142.819 23.9524 142.547 24.632 142.426 25.3455C142.305 26.0591 142.338 26.7903 142.521 27.4903C141.906 27.0439 141.198 26.7411 140.451 26.6039C139.703 26.4668 138.934 26.4988 138.2 26.6976C137.466 26.8964 136.786 27.257 136.21 27.7529C135.634 28.2489 135.176 28.8675 134.87 29.5635C134.564 30.2595 134.418 31.0151 134.442 31.775C134.466 32.5348 134.66 33.2796 135.01 33.9547C135.36 34.6297 135.856 35.2179 136.463 35.6761C137.07 36.1343 137.771 36.4508 138.516 36.6024C138.82 37.4091 139.324 38.1254 139.981 38.6841C140.638 39.2427 141.425 39.6256 142.27 39.7967C143.115 39.9678 143.99 39.9216 144.812 39.6623C145.634 39.4031 146.377 38.9394 146.971 38.3146C147.579 38.7734 148.282 39.09 149.029 39.2412C149.775 39.3923 150.546 39.3741 151.285 39.1879C152.023 39.0017 152.71 38.6522 153.296 38.1653C153.881 37.6783 154.35 37.0662 154.668 36.374C155.634 36.0076 156.466 35.3559 157.054 34.5054C157.641 33.6548 157.956 32.6458 157.956 31.6122Z" fill="white"/>
<path d="M23.5152 19.372C23.5158 18.7029 23.3846 18.0403 23.1291 17.422C22.8735 16.8037 22.4986 16.2419 22.0258 15.7685C21.553 15.2951 20.9916 14.9196 20.3736 14.6633C19.7555 14.407 19.0931 14.275 18.424 14.2748C18.311 14.2748 18.1993 14.2748 18.0887 14.2859C18.0961 14.1754 18.0998 14.0636 18.0998 13.9506C18.0996 13.2269 17.9452 12.5114 17.6468 11.8521C17.3484 11.1927 16.9128 10.6045 16.3692 10.1267C15.8256 9.64894 15.1863 9.29252 14.4941 9.08122C13.8018 8.86993 13.0725 8.80861 12.3547 8.90137C11.6369 8.99413 10.9471 9.23883 10.3313 9.61915C9.71556 9.99948 9.18793 10.5067 8.78362 11.107C8.37931 11.7073 8.1076 12.3869 7.98662 13.1004C7.86565 13.814 7.89817 14.5451 8.08203 15.2451C7.46656 14.7988 6.75897 14.496 6.01118 14.3588C5.26338 14.2216 4.49436 14.2536 3.76056 14.4525C3.02675 14.6513 2.34677 15.0119 1.77053 15.5078C1.19428 16.0038 0.736398 16.6224 0.430471 17.3184C0.124545 18.0144 -0.0216581 18.77 0.00259124 19.5299C0.0268406 20.2897 0.220927 21.0345 0.570607 21.7096C0.920288 22.3846 1.41669 22.9728 2.02338 23.431C2.63007 23.8892 3.33166 24.2057 4.07665 24.3573C4.38111 25.1633 4.88509 25.8788 5.54141 26.437C6.19774 26.9951 6.98496 27.3776 7.82938 27.5487C8.67381 27.7198 9.54783 27.6738 10.3696 27.4151C11.1915 27.1564 11.9342 26.6934 12.5284 26.0695C13.1362 26.5283 13.8392 26.8449 14.5857 26.996C15.3321 27.1472 16.1029 27.129 16.8414 26.9428C17.5799 26.7566 18.2672 26.4071 18.8527 25.9201C19.4382 25.4332 19.907 24.821 20.2247 24.1289C21.1908 23.7632 22.023 23.1124 22.6107 22.2628C23.1984 21.4132 23.5138 20.405 23.5152 19.372Z" fill="white"/>
<path d="M117.2 91.8291H43.9336V90.2324H117.2C117.411 90.2324 117.615 90.3165 117.764 90.4663C117.914 90.616 117.998 90.819 117.998 91.0308C117.998 91.2425 117.914 91.4456 117.764 91.5953C117.615 91.745 117.411 91.8291 117.2 91.8291Z" fill="#426572"/>
<path d="M40.6568 91.8291H36.1773C35.9655 91.8291 35.7625 91.745 35.6127 91.5953C35.463 91.4456 35.3789 91.2425 35.3789 91.0308C35.3789 90.819 35.463 90.616 35.6127 90.4663C35.7625 90.3165 35.9655 90.2324 36.1773 90.2324H40.6568C40.8685 90.2324 41.0716 90.3165 41.2213 90.4663C41.371 90.616 41.4551 90.819 41.4551 91.0308C41.4551 91.2425 41.371 91.4456 41.2213 91.5953C41.0716 91.745 40.8685 91.8291 40.6568 91.8291Z" fill="#426572"/>
<path d="M33.2686 91.8291H31.8413C31.6296 91.8291 31.4265 91.745 31.2768 91.5953C31.1271 91.4456 31.043 91.2425 31.043 91.0308C31.043 90.819 31.1271 90.616 31.2768 90.4663C31.4265 90.3165 31.6296 90.2324 31.8413 90.2324H33.2686C33.4803 90.2324 33.6834 90.3165 33.8331 90.4663C33.9828 90.616 34.067 90.819 34.067 91.0308C34.067 91.2425 33.9828 91.4456 33.8331 91.5953C33.6834 91.745 33.4803 91.8291 33.2686 91.8291Z" fill="#426572"/>
<path d="M142.89 91.8291H120.371V90.2324H142.89C143.102 90.2324 143.305 90.3165 143.455 90.4663C143.604 90.616 143.689 90.819 143.689 91.0308C143.689 91.2425 143.604 91.4456 143.455 91.5953C143.305 91.745 143.102 91.8291 142.89 91.8291Z" fill="#426572"/>
<path d="M27.7586 91.8291H5.23828V90.2324H27.7586C27.9703 90.2324 28.1734 90.3165 28.3231 90.4663C28.4728 90.616 28.5569 90.819 28.5569 91.0308C28.5569 91.2425 28.4728 91.4456 28.3231 91.5953C28.1734 91.745 27.9703 91.8291 27.7586 91.8291Z" fill="#426572"/>
<path d="M34.8962 29.5127H116.922C118.403 29.5127 119.823 30.1006 120.87 31.1472C121.917 32.1938 122.505 33.6133 122.506 35.0937V88.1849H29.3125V35.0937C29.3132 33.6133 29.9017 32.1938 30.9488 31.1472C31.9959 30.1006 33.4157 29.5127 34.8962 29.5127Z" fill="#EBF0F9"/>
<path d="M119.266 33.584H32.9199V82.9094H119.266V33.584Z" fill="#637F91"/>
<path d="M32.2727 82.8174H119.633C119.633 83.209 119.478 83.5846 119.202 83.8622C118.926 84.1398 118.551 84.2967 118.159 84.2986H33.7528C33.3599 84.2986 32.9831 84.1426 32.7053 83.8648C32.4275 83.587 32.2715 83.2102 32.2715 82.8174H32.2727Z" fill="white"/>
<g opacity="0.5">
<path d="M58.7221 33.3994L45.8118 83.1867H39.3105L52.2209 33.3994H58.7221Z" fill="#A7BCD5"/>
<path d="M75.2928 33.3994L62.3838 83.1867H48.75L61.6603 33.3994H75.2928Z" fill="#A7BCD5"/>
</g>
<path d="M123.242 88.9215H28.5742V32.7131C28.5755 31.6691 28.9908 30.6683 29.729 29.9301C30.4672 29.192 31.4681 28.7767 32.512 28.7754H119.304C120.348 28.7767 121.349 29.192 122.087 29.9301C122.825 30.6683 123.24 31.6691 123.242 32.7131V88.9215ZM30.0481 87.4476H121.768V32.7131C121.767 32.0598 121.507 31.4335 121.045 30.9716C120.583 30.5097 119.957 30.2499 119.304 30.2493H32.512C31.8588 30.2499 31.2324 30.5097 30.7705 30.9716C30.3086 31.4335 30.0488 32.0598 30.0481 32.7131V87.4476Z" fill="#426572"/>
<path d="M17.5586 86.4268H136.758V86.8186C136.758 88.089 136.254 89.3073 135.355 90.2057C134.457 91.104 133.238 91.6086 131.968 91.6086H22.3488C21.0784 91.6086 19.86 91.104 18.9616 90.2057C18.0633 89.3073 17.5586 88.089 17.5586 86.8186V86.4268Z" fill="#EBF0F9"/>
<path opacity="0.5" d="M136.147 88.9248C135.885 89.6062 135.422 90.1921 134.821 90.6052C134.219 91.0183 133.506 91.2392 132.775 91.2388H20.7969C20.0672 91.2388 19.3547 91.0176 18.7533 90.6045C18.1518 90.1914 17.6897 89.6058 17.4277 88.9248H136.147Z" fill="#A7BCD5"/>
<path d="M131.411 92.1606H21.7928C20.3274 92.159 18.9225 91.5762 17.8863 90.54C16.8501 89.5038 16.2673 88.099 16.2656 86.6336V85.5049H136.939V86.6336C136.938 88.0992 136.354 89.5042 135.318 90.5404C134.282 91.5766 132.876 92.1593 131.411 92.1606ZM17.7531 86.9788C17.8395 87.9903 18.3024 88.9325 19.0502 89.6191C19.7981 90.3058 20.7764 90.6868 21.7916 90.6868H131.411C132.426 90.6868 133.404 90.3058 134.152 89.6191C134.9 88.9325 135.363 87.9903 135.449 86.9788H17.7531Z" fill="#426572"/>
<path d="M119.817 83.3684H31.9961V32.8467H119.817V83.3684ZM33.47 81.8945H118.343V34.3205H33.47V81.8945Z" fill="#426572"/>
<path d="M106.067 17.7499V82.632H47.207V17.7499C47.2093 17.4575 47.3265 17.1776 47.5333 16.9708C47.7401 16.764 48.02 16.6468 48.3125 16.6445H104.956C105.023 16.6446 105.09 16.6507 105.155 16.663C105.41 16.71 105.64 16.8443 105.806 17.0426C105.973 17.241 106.065 17.4911 106.067 17.7499Z" fill="white"/>
<path d="M48.1332 22.007H106.252V18.1037L105.141 16.6396H54.2414H49.2436L47.3926 18.1037V22.007H48.1332Z" fill="#E2F2FF"/>
<path d="M106.99 83.3686H46.6562V17.7496C46.6582 17.2615 46.8529 16.7941 47.198 16.449C47.5431 16.1039 48.0106 15.9092 48.4986 15.9072H105.14C105.628 15.9092 106.096 16.1039 106.441 16.449C106.786 16.7941 106.981 17.2615 106.983 17.7496L106.99 83.3686ZM48.1302 81.8947H105.516V17.7496C105.514 17.6526 105.474 17.5603 105.405 17.4918C105.337 17.4232 105.244 17.3836 105.148 17.3811H48.5036C48.4066 17.3836 48.3143 17.4232 48.2458 17.4918C48.1772 17.5603 48.1376 17.6526 48.1351 17.7496L48.1302 81.8947Z" fill="#426572"/>
<path d="M102.632 18.9141H50.8559C50.4468 18.9141 50.1152 19.2456 50.1152 19.6547C50.1152 20.0637 50.4468 20.3953 50.8559 20.3953H102.632C103.041 20.3953 103.373 20.0637 103.373 19.6547C103.373 19.2456 103.041 18.9141 102.632 18.9141Z" fill="#CADCE8"/>
<path d="M66.5865 28.957H54.4844V42.7463H66.5865V28.957Z" fill="#E8837E"/>
<path d="M96.4245 28.957H67.7285V42.7463H96.4245V28.957Z" fill="#E8837E"/>
<path d="M96.424 44.2734H82.875V58.0627H96.424V44.2734Z" fill="#DDE4ED"/>
<path d="M81.7335 44.2734H54.6367V58.0627H81.7335V44.2734Z" fill="#DDE4ED"/>
<path d="M96.501 59.5889H54.6367V73.3781H96.501V59.5889Z" fill="#DDE4ED"/>
<path d="M96.8698 75.2314H86.1348V76.7053H96.8698V75.2314Z" fill="#DDE4ED"/>
<path d="M38.2257 79.118H20.6541C20.3648 79.1201 20.0796 79.0491 19.825 78.9117C19.4565 78.7103 19.2207 78.3799 19.2207 78.0077L19.2305 53.8535C19.2308 53.6954 19.2732 53.5402 19.3534 53.4039C19.5769 53.0158 20.0817 52.7432 20.6639 52.7432H38.2355C38.8496 52.7432 39.3667 53.0404 39.5731 53.4555C39.6356 53.5785 39.6684 53.7143 39.6689 53.8522L39.6603 78.0077C39.6603 78.5653 39.1211 79.0308 38.4247 79.107C38.3586 79.1144 38.2922 79.1181 38.2257 79.118Z" fill="white"/>
<path d="M38.7045 78.9323L21.1267 78.9286C20.8374 78.9306 20.5523 78.8597 20.2977 78.7222C19.9292 78.5208 19.6934 78.1904 19.6934 77.8183L19.7032 53.664C19.7034 53.5059 19.7458 53.3508 19.826 53.2145C20.0496 52.8264 20.5544 52.5537 21.1366 52.5537H21.3761L21.3724 76.337C21.3724 76.7055 21.6107 77.0396 21.9767 77.241C22.2313 77.3784 22.5165 77.4494 22.8058 77.4473H40.1391V77.8158C40.1391 78.3734 39.5999 78.8389 38.9035 78.9151C38.8375 78.9246 38.7711 78.9303 38.7045 78.9323Z" fill="#D6DEE9"/>
<path d="M38.4646 79.6698H20.8918C20.4774 79.6719 20.0693 79.5693 19.7053 79.3713C19.0911 79.0311 18.7227 78.4514 18.7227 77.8225L18.7325 53.6683C18.734 53.3802 18.8115 53.0976 18.9573 52.8491C19.3257 52.2165 20.0627 51.8223 20.9041 51.8223H38.4756C39.3354 51.8223 40.1031 52.246 40.4519 52.9043L40.5502 53.0554V53.1242C40.6138 53.2994 40.6462 53.4844 40.646 53.6707L40.6362 77.825C40.6362 78.7511 39.8218 79.5445 38.7434 79.6563C38.6508 79.666 38.5577 79.6705 38.4646 79.6698ZM20.9004 53.29C20.57 53.29 20.312 53.4361 20.2297 53.5811C20.2136 53.6056 20.2047 53.6341 20.2039 53.6634L20.1941 77.8176C20.1941 77.8987 20.2838 78.0018 20.4177 78.0768C20.5637 78.154 20.7266 78.1937 20.8918 78.1922H38.4634C38.5019 78.1924 38.5405 78.1904 38.5788 78.1861C38.9473 78.1468 39.161 77.9404 39.161 77.8176L39.1708 53.6634C39.1708 53.6487 39.1684 53.6342 39.1635 53.6204L39.0947 53.5148C38.9248 53.3615 38.7018 53.2809 38.4732 53.29H20.9016H20.9004Z" fill="#426572"/>
<path d="M36.4381 63.1953H24.5215V64.6692H36.4381V63.1953Z" fill="#426572"/>
<path d="M36.4381 60.1201H24.5215V61.594H36.4381V60.1201Z" fill="#426572"/>
<path d="M36.4381 66.6797H24.5215V68.1536H36.4381V66.6797Z" fill="#426572"/>
<path opacity="0.2" d="M131.671 35.462C132.529 33.8507 133.056 32.0837 133.221 30.2654C133.385 28.4472 133.184 26.6143 132.629 24.8751C132.073 23.1359 131.175 21.5256 129.987 20.1391C128.799 18.7526 127.346 17.6181 125.712 16.8024C124.079 15.9868 122.299 15.5066 120.477 15.3901C118.655 15.2737 116.828 15.5234 115.104 16.1244C113.38 16.7255 111.794 17.6657 110.439 18.8897C109.084 20.1137 107.988 21.5966 107.216 23.251C106.15 25.2536 105.598 27.4901 105.612 29.7589C105.625 32.0277 106.203 34.2576 107.293 36.2474C108.383 38.2373 109.951 39.9247 111.856 41.1574C113.761 42.3902 115.942 43.1296 118.204 43.3091C117.809 43.4024 117.409 43.4782 117.002 43.5363C119.143 43.845 121.327 43.6413 123.374 42.9418C125.421 42.2423 127.273 41.0671 128.777 39.5126C129.981 38.3504 130.962 36.9775 131.671 35.462Z" fill="#606060"/>
<path d="M117.762 40.1166C125.312 40.1166 131.433 33.9963 131.433 26.4465C131.433 18.8967 125.312 12.7764 117.762 12.7764C110.212 12.7764 104.092 18.8967 104.092 26.4465C104.092 33.9963 110.212 40.1166 117.762 40.1166Z" fill="#A8EF9E"/>
<path d="M130.781 27.4231C130.78 29.383 130.358 31.32 129.544 33.1026C128.729 34.8852 127.541 36.4719 126.059 37.755C124.577 39.0381 122.837 39.9876 120.956 40.5392C119.076 41.0908 117.098 41.2316 115.158 40.9519C118.411 40.4817 121.386 38.8553 123.537 36.3705C125.689 33.8858 126.873 30.7091 126.873 27.4224C126.873 24.1358 125.689 20.9591 123.537 18.4744C121.386 15.9896 118.411 14.3632 115.158 13.893C117.098 13.6131 119.076 13.7538 120.957 14.3053C122.838 14.8569 124.579 15.8065 126.06 17.0898C127.542 18.373 128.731 19.9599 129.545 21.7428C130.36 23.5257 130.782 25.4629 130.782 27.4231H130.781Z" fill="#A7E59C"/>
<path d="M117.437 41.5036C114.587 41.5036 111.802 40.6586 109.432 39.0755C107.063 37.4925 105.216 35.2424 104.126 32.6099C103.036 29.9773 102.75 27.0805 103.306 24.2858C103.862 21.4911 105.234 18.9241 107.249 16.9092C109.264 14.8943 111.831 13.5222 114.626 12.9663C117.421 12.4104 120.318 12.6957 122.95 13.7861C125.583 14.8766 127.833 16.7232 129.416 19.0924C130.999 21.4616 131.844 24.2471 131.844 27.0965C131.84 30.9162 130.321 34.5782 127.62 37.2792C124.919 39.9801 121.257 41.4993 117.437 41.5036ZM117.437 14.1646C114.879 14.1646 112.378 14.9231 110.251 16.3442C108.124 17.7653 106.467 19.7852 105.488 22.1484C104.509 24.5117 104.253 27.1121 104.752 29.6209C105.251 32.1297 106.483 34.4342 108.291 36.2429C110.1 38.0516 112.405 39.2834 114.914 39.7824C117.423 40.2815 120.023 40.0253 122.386 39.0465C124.75 38.0676 126.77 36.4099 128.191 34.283C129.612 32.1562 130.371 29.6557 130.371 27.0977C130.367 23.6687 129.003 20.3812 126.578 17.9565C124.154 15.5319 120.866 14.1681 117.437 14.1646Z" fill="#426572"/>
<path d="M124.341 21.5069C124.046 21.3421 123.699 21.2979 123.372 21.3835C123.045 21.4692 122.764 21.678 122.588 21.9662L120.221 25.8352L116.44 32.0107L116.334 32.1838L111.967 28.6908L111.171 28.0546C110.649 27.637 109.862 27.5055 109.36 28.0546C108.932 28.52 108.801 29.4191 109.36 29.8662L114.974 34.3566L115.77 34.9928C116.1 35.2581 116.415 35.403 116.846 35.3453C117.039 35.3216 117.223 35.2539 117.386 35.1474C117.548 35.0409 117.684 34.8985 117.782 34.7312L120.149 30.8623L123.932 24.688L124.805 23.2608C125.15 22.6884 124.944 21.8287 124.341 21.5069Z" fill="white"/>
</g>
<defs>
<linearGradient id="paint0_linear_488_1155" x1="0.163151" y1="46.1708" x2="154.099" y2="46.1708" gradientUnits="userSpaceOnUse">
<stop stop-color="#C5E9FA"/>
<stop offset="1" stop-color="#C4F4EA"/>
</linearGradient>
<clipPath id="clip0_488_1155">
<rect width="157.96" height="91.58" fill="white" transform="translate(0 0.580078)"/>
</clipPath>
</defs>
</svg>
