<svg width="158" height="93" viewBox="0 0 158 93" fill="none" xmlns="http://www.w3.org/2000/svg">
<g clip-path="url(#clip0_488_1210)">
<path d="M149.625 59.1539C144.042 72.38 133.547 83.9674 118.968 89.0598C117.072 89.7211 115.136 90.2821 113.17 90.7401C102.769 93.1666 91.39 92.3225 81.8021 87.9C77.7329 86.0219 74.0223 83.5404 69.9383 81.6893C65.8543 79.8382 61.1906 78.6278 56.7455 79.5415C52.9182 80.3282 49.6891 82.5828 46.4379 84.5912C38.7735 89.3262 29.5578 93.0733 20.4822 91.447C16.306 90.6996 12.1938 88.6294 10.2544 85.1689C5.96773 77.5185 14.0522 68.4228 12.4149 59.962C11.3672 54.5471 6.58186 50.492 3.607 45.7132C-1.48294 37.5391 -0.87986 26.6811 5.08829 19.0205C11.0564 11.36 22.0764 7.29937 32.1802 9.03692C44.5009 11.1555 53.8161 20.6985 65.7966 24.0702C73.289 26.1798 81.4238 25.5504 88.5797 22.7721C100.141 18.2821 116.025 11.396 129.036 12.5176C135.955 13.1144 142.741 15.9242 147.308 20.7221C153.081 26.7788 154.812 35.3778 153.849 43.3643C153.188 48.7717 151.768 54.0786 149.625 59.1539Z" fill="url(#paint0_linear_488_1210)"/>
<path d="M153.339 69.615C153.083 69.6147 152.827 69.5864 152.578 69.5307C151.79 69.3534 151.105 68.9074 150.664 68.2839C150.223 67.6604 150.058 66.9063 150.204 66.1756C150.35 65.4449 150.795 64.7927 151.449 64.3522C152.103 63.9117 152.915 63.7161 153.721 63.8053C154.527 63.8945 155.265 64.2618 155.785 64.8322C156.305 65.4026 156.568 66.1331 156.519 66.8745C156.47 67.616 156.114 68.3125 155.523 68.8218C154.932 69.3311 154.151 69.6148 153.339 69.615ZM153.331 65.0992C152.908 65.1003 152.5 65.2431 152.185 65.5006C151.869 65.758 151.667 66.1123 151.617 66.4965C151.568 66.8807 151.673 67.2683 151.915 67.5861C152.156 67.9038 152.516 68.1298 152.927 68.2214C153.147 68.2704 153.377 68.2791 153.601 68.2471C153.825 68.215 154.041 68.1429 154.235 68.0347C154.429 67.9265 154.597 67.7845 154.731 67.6166C154.865 67.4488 154.962 67.2584 155.015 67.0564C155.069 66.8544 155.078 66.6448 155.043 66.4394C155.008 66.2341 154.93 66.037 154.811 65.8596C154.693 65.6821 154.538 65.5277 154.354 65.4051C154.171 65.2825 153.963 65.1942 153.742 65.1452C153.608 65.1145 153.47 65.0987 153.331 65.098V65.0992Z" fill="#E7F6FF"/>
<path d="M150.431 72.7064C150.612 72.0229 150.154 71.3345 149.407 71.1688C148.66 71.0031 147.907 71.4228 147.726 72.1062C147.545 72.7897 148.004 73.4781 148.751 73.6438C149.498 73.8095 150.25 73.3898 150.431 72.7064Z" fill="#E7F6FF"/>
<path d="M6.77907 69.3375C5.93543 69.3206 5.13312 68.9999 4.5463 68.4451C3.95947 67.8902 3.6355 67.1459 3.64472 66.3739C3.65394 65.6018 3.9956 64.8642 4.59553 64.3212C5.19546 63.7782 6.00524 63.4736 6.84908 63.4736C7.69291 63.4736 8.50269 63.7782 9.10263 64.3212C9.70256 64.8642 10.0442 65.6018 10.0534 66.3739C10.0627 67.1459 9.73869 67.8902 9.15186 68.4451C8.56504 68.9999 7.76272 69.3206 6.91909 69.3375H6.77907ZM6.77907 64.8227H6.7066C6.25096 64.8318 5.8176 65.0049 5.50062 65.3045C5.18363 65.6041 5.0086 66.0061 5.01354 66.4231C5.01847 66.8401 5.20296 67.2385 5.52696 67.5317C5.85097 67.825 6.28832 67.9895 6.74406 67.9895C7.19981 67.9895 7.63716 67.825 7.96116 67.5317C8.28516 67.2385 8.46966 66.8401 8.47459 66.4231C8.47952 66.0061 8.30449 65.6041 7.98751 65.3045C7.67052 65.0049 7.23716 64.8318 6.78152 64.8227H6.77907Z" fill="#E7F6FF"/>
<path d="M4.49466 74.2581C5.26252 74.2278 5.85814 73.6336 5.82502 72.931C5.79189 72.2284 5.14257 71.6834 4.37471 71.7137C3.60685 71.744 3.01123 72.3381 3.04435 73.0408C3.07747 73.7434 3.7268 74.2884 4.49466 74.2581Z" fill="#E7F6FF"/>
<path d="M87.0932 21.9342C86.3283 21.9365 85.5877 21.6881 85.0056 21.234C84.4235 20.7799 84.0382 20.1501 83.9196 19.4586C83.801 18.7671 83.9568 18.0597 84.3589 17.4642C84.7609 16.8687 85.3827 16.4246 86.1116 16.2123C86.8405 16 87.6284 16.0334 88.3326 16.3066C89.0369 16.5797 89.6111 17.0746 89.9512 17.7016C90.2913 18.3285 90.3748 19.0462 90.1868 19.7246C89.9987 20.4031 89.5514 20.9975 88.9258 21.4004C88.3892 21.7459 87.7494 21.9323 87.0932 21.9342ZM87.0834 17.4161C86.6363 17.4157 86.2063 17.5732 85.883 17.8558C85.5597 18.1384 85.368 18.5242 85.3479 18.9329C85.3278 19.3416 85.4809 19.7416 85.7752 20.0496C86.0696 20.3576 86.4824 20.5497 86.9277 20.586C87.3731 20.6223 87.8165 20.5 88.1657 20.2444C88.5149 19.9889 88.7428 19.6199 88.802 19.2144C88.8612 18.8089 88.747 18.3982 88.4834 18.0678C88.2197 17.7373 87.8269 17.5128 87.3868 17.4409C87.2866 17.4245 87.1851 17.4163 87.0834 17.4161Z" fill="#E7F6FF"/>
<path d="M80.5616 21.7701C81.1909 21.3663 81.3433 20.5722 80.902 19.9964C80.4607 19.4206 79.5929 19.2811 78.9636 19.6849C78.3343 20.0887 78.1819 20.8828 78.6232 21.4586C79.0645 22.0344 79.9323 22.1738 80.5616 21.7701Z" fill="#E7F6FF"/>
<path d="M157.956 37.0351C157.956 35.7993 157.419 34.6141 156.464 33.7402C155.509 32.8664 154.214 32.3754 152.864 32.3754C152.751 32.3754 152.639 32.3754 152.528 32.3855C152.536 32.2844 152.539 32.1821 152.539 32.0787C152.539 31.4164 152.385 30.7618 152.086 30.1584C151.788 29.5551 151.352 29.0168 150.809 28.5796C150.265 28.1424 149.626 27.8163 148.934 27.6229C148.241 27.4296 147.512 27.3735 146.794 27.4584C146.076 27.5432 145.387 27.7671 144.771 28.1152C144.155 28.4632 143.627 28.9273 143.223 29.4766C142.819 30.0259 142.547 30.6478 142.426 31.3007C142.305 31.9537 142.338 32.6228 142.522 33.2633C141.906 32.8547 141.198 32.5776 140.45 32.4521C139.702 32.3266 138.933 32.3561 138.199 32.5383C137.464 32.7205 136.784 33.0508 136.208 33.5051C135.632 33.9593 135.174 34.5258 134.869 35.163C134.563 35.8003 134.417 36.4921 134.442 37.1877C134.467 37.8832 134.662 38.5648 135.012 39.1825C135.363 39.8001 135.86 40.3381 136.467 40.7569C137.075 41.1757 137.777 41.4647 138.522 41.6027C138.826 42.3408 139.33 42.9962 139.987 43.5075C140.644 44.0187 141.431 44.369 142.276 44.5256C143.121 44.6822 143.996 44.6399 144.818 44.4026C145.641 44.1654 146.384 43.7411 146.978 43.1694C147.586 43.5892 148.289 43.8789 149.035 44.0172C149.781 44.1555 150.552 44.1389 151.291 43.9685C152.029 43.7981 152.716 43.4783 153.302 43.0327C153.888 42.5871 154.356 42.027 154.674 41.3936C155.64 41.0574 156.471 40.4604 157.057 39.682C157.643 38.9036 157.956 37.9804 157.956 37.0351Z" fill="white"/>
<path d="M23.5152 25.83C23.5152 24.5944 22.9788 23.4094 22.0241 22.5355C21.0694 21.6617 19.7744 21.1706 18.424 21.1703C18.311 21.1703 18.1993 21.1703 18.0887 21.1805C18.0961 21.0793 18.0998 20.977 18.0998 20.8736C18.0996 20.2114 17.9452 19.5567 17.6468 18.9534C17.3484 18.35 16.9128 17.8118 16.3692 17.3746C15.8256 16.9373 15.1863 16.6112 14.4941 16.4178C13.8018 16.2245 13.0725 16.1684 12.3547 16.2533C11.6369 16.3382 10.9471 16.5621 10.3313 16.9101C9.71556 17.2581 9.18793 17.7222 8.78362 18.2715C8.37931 18.8209 8.1076 19.4427 7.98662 20.0957C7.86565 20.7486 7.89817 21.4177 8.08203 22.0582C7.46656 21.6498 6.75897 21.3727 6.01118 21.2472C5.26338 21.1216 4.49436 21.1509 3.76056 21.3329C3.02675 21.5148 2.34677 21.8448 1.77053 22.2986C1.19428 22.7524 0.736398 23.3185 0.430471 23.9554C0.124545 24.5922 -0.0216581 25.2837 0.00259124 25.979C0.0268406 26.6743 0.220927 27.3559 0.570607 27.9736C0.920288 28.5913 1.41669 29.1295 2.02338 29.5488C2.63007 29.9681 3.33166 30.2577 4.07665 30.3965C4.38124 31.1339 4.88532 31.7885 5.54171 32.2992C6.1981 32.8098 6.98534 33.1597 7.82975 33.3161C8.67416 33.4725 9.54813 33.4303 10.3699 33.1935C11.1916 32.9567 11.9343 32.533 12.5284 31.962C13.1362 32.3819 13.8392 32.6716 14.5857 32.8099C15.3321 32.9482 16.1029 32.9316 16.8414 32.7612C17.5799 32.5908 18.2672 32.271 18.8527 31.8254C19.4382 31.3798 19.907 30.8197 20.2247 30.1863C21.1914 29.8515 22.024 29.2554 22.6117 28.4773C23.1995 27.6992 23.5146 26.7759 23.5152 25.83Z" fill="white"/>
<path d="M117.2 92.1369H43.9336V90.6758H117.2C117.411 90.6758 117.615 90.7527 117.764 90.8898C117.914 91.0268 117.998 91.2126 117.998 91.4063C117.998 91.6001 117.914 91.7859 117.764 91.9229C117.615 92.0599 117.411 92.1369 117.2 92.1369Z" fill="#426572"/>
<path d="M40.6568 92.1369H36.1773C35.9655 92.1369 35.7625 92.0599 35.6127 91.9229C35.463 91.7859 35.3789 91.6001 35.3789 91.4063C35.3789 91.2126 35.463 91.0268 35.6127 90.8898C35.7625 90.7527 35.9655 90.6758 36.1773 90.6758H40.6568C40.8685 90.6758 41.0716 90.7527 41.2213 90.8898C41.371 91.0268 41.4551 91.2126 41.4551 91.4063C41.4551 91.6001 41.371 91.7859 41.2213 91.9229C41.0716 92.0599 40.8685 92.1369 40.6568 92.1369Z" fill="#426572"/>
<path d="M33.2686 92.1369H31.8413C31.6296 92.1369 31.4265 92.0599 31.2768 91.9229C31.1271 91.7859 31.043 91.6001 31.043 91.4063C31.043 91.2126 31.1271 91.0268 31.2768 90.8898C31.4265 90.7527 31.6296 90.6758 31.8413 90.6758H33.2686C33.4803 90.6758 33.6834 90.7527 33.8331 90.8898C33.9828 91.0268 34.067 91.2126 34.067 91.4063C34.067 91.6001 33.9828 91.7859 33.8331 91.9229C33.6834 92.0599 33.4803 92.1369 33.2686 92.1369Z" fill="#426572"/>
<path d="M142.89 92.1369H120.371V90.6758H142.89C143.102 90.6758 143.305 90.7527 143.455 90.8898C143.604 91.0268 143.689 91.2126 143.689 91.4063C143.689 91.6001 143.604 91.7859 143.455 91.9229C143.305 92.0599 143.102 92.1369 142.89 92.1369Z" fill="#426572"/>
<path d="M27.7586 92.1369H5.23828V90.6758H27.7586C27.9703 90.6758 28.1734 90.7527 28.3231 90.8898C28.4728 91.0268 28.5569 91.2126 28.5569 91.4063C28.5569 91.6001 28.4728 91.7859 28.3231 91.9229C28.1734 92.0599 27.9703 92.1369 27.7586 92.1369Z" fill="#426572"/>
<path d="M121.826 14.4634V91.5979H31.75V14.4634C31.7542 13.0433 32.3725 11.6824 33.4699 10.678C34.5672 9.67374 36.0543 9.10767 37.6064 9.10352H115.97C117.522 9.10767 119.009 9.67374 120.106 10.678C121.204 11.6824 121.822 13.0433 121.826 14.4634Z" fill="white"/>
<path d="M115.961 21.8232H36.6348V91.5984H115.961V21.8232Z" fill="white"/>
<path opacity="0.4" d="M121.336 12.9349V14.0217C120.612 12.5359 118.366 11.4457 115.725 11.4457H37.3618C34.14 11.4457 31.5054 13.0686 31.5054 15.0534V64.849H31.2598V12.9349C31.2598 10.9512 33.8944 9.32715 37.1161 9.32715H115.48C118.701 9.32827 121.336 10.9512 121.336 12.9349Z" fill="#C1CEDE"/>
<path d="M122.074 92.1604H30.5234V14.3516C30.5254 12.752 31.2206 11.2184 32.4567 10.0871C33.6927 8.95592 35.3686 8.31947 37.1168 8.31738H115.48C117.228 8.31947 118.904 8.95592 120.14 10.0871C121.376 11.2184 122.072 12.752 122.074 14.3516V41.2477H120.6V14.3516C120.598 13.1095 120.059 11.9186 119.099 11.0401C118.139 10.1617 116.838 9.66755 115.48 9.66606H37.1168C35.7593 9.66755 34.4579 10.1617 33.4982 11.0401C32.5384 11.9186 31.9987 13.1095 31.9974 14.3516V90.8118H120.6V56.9823H122.074V92.1604Z" fill="#426572"/>
<path d="M37.8127 28.085H115.637V23.3444L115.513 21.5664H45.9278H36.9541L36.8301 23.3444V28.085H37.8127Z" fill="#E2F2FF"/>
<path d="M111.214 24.1797H40.4058C39.9649 24.1797 39.6074 24.5068 39.6074 24.9102V25.2474C39.6074 25.6509 39.9649 25.9779 40.4058 25.9779H111.214C111.655 25.9779 112.013 25.6509 112.013 25.2474V24.9102C112.013 24.5068 111.655 24.1797 111.214 24.1797Z" fill="#CADCE8"/>
<path d="M116.699 92.0478H35.8984V20.9229H116.699V92.0478ZM37.3724 90.6992H115.225V22.2715H37.3724V90.6992Z" fill="#426572"/>
<path d="M105.095 69.7383H87.1133V86.4844H105.095V69.7383Z" fill="#DDE4ED"/>
<path d="M85.6004 69.7383H49.6367V86.4844H85.6004V69.7383Z" fill="#DDE4ED"/>
<path d="M105.075 35.291H89.2734V41.5849H105.075V35.291Z" fill="#E8837E"/>
<path d="M105.075 42.7266H89.2734V49.0204H105.075V42.7266Z" fill="#87D6FE"/>
<path d="M105.075 57.6006H89.2734V63.8944H105.075V57.6006Z" fill="#FBC907"/>
<path d="M105.075 50.1631H89.2734V56.4569H105.075V50.1631Z" fill="#A8EF9E"/>
<path opacity="0.2" d="M45.0883 21.413C45.953 19.9382 46.4856 18.3196 46.6544 16.6531C46.8232 14.9865 46.6249 13.3059 46.0711 11.7108C45.5173 10.1157 44.6194 8.63844 43.4304 7.36658C42.2414 6.09472 40.7857 5.05409 39.1493 4.30632C37.5129 3.55854 35.7292 3.11883 33.9037 3.01322C32.0782 2.9076 30.2482 3.13823 28.5219 3.69144C26.7956 4.24466 25.2082 5.10922 23.8536 6.23392C22.499 7.35862 21.4049 8.72059 20.6359 10.2392C19.5695 12.0717 19.0181 14.1183 19.0315 16.1944C19.0449 18.2705 19.6227 20.3109 20.7127 22.1318C21.8028 23.9526 23.3709 25.4967 25.2757 26.6247C27.1805 27.7528 29.3622 28.4294 31.624 28.5936C31.2293 28.679 30.8285 28.7484 30.4215 28.8016C32.5627 29.0841 34.7465 28.8976 36.7936 28.2575C38.8406 27.6175 40.6925 26.542 42.1969 25.1197C43.3999 24.0559 44.3798 22.7997 45.0883 21.413Z" fill="#606060"/>
<path opacity="0.2" d="M124.98 4.95447C123.214 4.53317 121.374 4.43966 119.568 4.67944C117.762 4.91922 116.027 5.48745 114.464 6.35062C112.902 7.21378 111.544 8.35442 110.472 9.70529C109.399 11.0562 108.632 12.5899 108.217 14.2161C107.802 15.8423 107.748 17.5281 108.056 19.174C108.364 20.8199 109.03 22.3926 110.013 23.7995C110.996 25.2064 112.277 26.4189 113.781 27.3656C115.284 28.3123 116.979 28.974 118.767 29.3117C120.962 29.8366 123.266 29.8534 125.47 29.3606C127.674 28.8678 129.709 27.8808 131.393 26.4886C133.076 25.0965 134.355 23.3429 135.113 21.3859C135.871 19.4289 136.085 17.3301 135.735 15.2786C135.917 15.6098 136.084 15.9503 136.235 16.3003C136.039 14.3289 135.335 12.4283 134.18 10.7544C133.026 9.08061 131.453 7.6814 129.593 6.67179C128.183 5.84643 126.619 5.26439 124.98 4.95447Z" fill="#606060"/>
<path opacity="0.2" d="M45.9148 71.4794C46.7129 70.1122 47.2034 68.6125 47.3574 67.069C47.5114 65.5254 47.3257 63.9692 46.8113 62.4925C46.2969 61.0157 45.4642 59.6482 44.3625 58.4708C43.2607 57.2935 41.9123 56.3301 40.3968 55.6377C38.8813 54.9453 37.2295 54.5378 35.539 54.4394C33.8485 54.341 32.1535 54.5536 30.5544 55.0647C28.9552 55.5758 27.4842 56.3751 26.2283 57.4152C24.9724 58.4553 23.957 59.7152 23.2422 61.1204C22.2532 62.8193 21.7418 64.7168 21.7541 66.6417C21.7664 68.5666 22.3021 70.4584 23.3127 72.1467C24.3234 73.8349 25.7773 75.2665 27.5434 76.3123C29.3096 77.3581 31.3324 77.9853 33.4295 78.1374C33.0635 78.2161 32.6921 78.2805 32.3154 78.3307C34.3009 78.5929 36.3261 78.4201 38.2244 77.8265C40.1227 77.2329 41.8398 76.2355 43.2347 74.9163C44.3499 73.93 45.2582 72.7651 45.9148 71.4794Z" fill="#606060"/>
<path d="M31.1804 25.6772C38.7304 25.6772 44.851 20.0767 44.851 13.1682C44.851 6.25966 38.7304 0.65918 31.1804 0.65918C23.6303 0.65918 17.5098 6.25966 17.5098 13.1682C17.5098 20.0767 23.6303 25.6772 31.1804 25.6772Z" fill="#A8EF9E"/>
<path d="M44.1997 14.0618C44.1994 15.8553 43.7775 17.6279 42.9628 19.2592C42.1481 20.8905 40.9596 22.3425 39.4778 23.5166C37.996 24.6907 36.2557 25.5596 34.3747 26.0642C32.4938 26.5689 30.5162 26.6976 28.5762 26.4415C31.8292 26.0113 34.8038 24.5229 36.9553 22.2493C39.1067 19.9756 40.2909 17.0687 40.2909 14.0612C40.2909 11.0537 39.1067 8.14683 36.9553 5.87314C34.8038 3.59945 31.8292 2.11115 28.5762 1.68086C30.5163 1.42481 32.494 1.55351 34.375 2.05823C36.2561 2.56296 37.9965 3.43191 39.4783 4.60616C40.9601 5.78041 42.1486 7.23249 42.9632 8.86395C43.7778 10.4954 44.1995 12.2681 44.1997 14.0618Z" fill="#A7E59C"/>
<path d="M30.8548 26.9458C28.0052 26.9458 25.2196 26.1726 22.8503 24.724C20.481 23.2753 18.6343 21.2163 17.5439 18.8073C16.4534 16.3983 16.1682 13.7475 16.7242 11.1901C17.2802 8.63276 18.6525 6.28371 20.6676 4.44003C22.6826 2.59635 25.2499 1.34084 28.0448 0.832285C30.8397 0.323729 33.7366 0.584964 36.3692 1.58295C39.0018 2.58094 41.2519 4.27086 42.8349 6.43901C44.4179 8.60715 45.2627 11.1561 45.2624 13.7636C45.2579 17.2587 43.7384 20.6094 41.0374 23.0806C38.3364 25.5519 34.6745 26.942 30.8548 26.9458ZM30.8548 1.92891C28.2968 1.92891 25.7962 2.62301 23.6693 3.92342C21.5424 5.22383 19.8846 7.07215 18.9057 9.23466C17.9268 11.3972 17.6707 13.7767 18.1697 16.0724C18.6688 18.3681 19.9006 20.4769 21.7094 22.132C23.5182 23.7871 25.8227 24.9142 28.3316 25.3709C30.8405 25.8275 33.441 25.5932 35.8043 24.6974C38.1676 23.8017 40.1876 22.2848 41.6088 20.3386C43.0299 18.3924 43.7885 16.1043 43.7885 13.7636C43.7849 10.6258 42.4211 7.61755 39.9964 5.39883C37.5716 3.1801 34.284 1.93219 30.8548 1.92891Z" fill="#426572"/>
<path d="M123.482 2.55859C119.953 2.56425 116.571 3.85179 114.079 6.13825C111.587 8.42472 110.188 11.523 110.191 14.7523C110.195 17.9817 111.599 21.0777 114.095 23.3602C116.592 25.6427 119.977 26.9248 123.506 26.9248C127.035 26.9248 130.42 25.6427 132.916 23.3602C135.413 21.0777 136.817 17.9817 136.82 14.7523C136.823 11.523 135.425 8.42472 132.933 6.13825C130.441 3.85179 127.058 2.56425 123.529 2.55859H123.482Z" fill="#87D6FE"/>
<path d="M136.934 14.8826C136.93 17.7627 135.813 20.5486 133.779 22.7471C131.746 24.9457 128.929 26.4151 125.825 26.8953C122.722 27.3755 119.533 26.8355 116.823 25.3709C114.113 23.9062 112.056 21.6114 111.018 18.8927C111.087 18.8599 111.159 18.8317 111.233 18.8084C112.592 18.3746 113.812 19.6199 114.826 20.5527C116.967 22.5207 120.141 23.5682 123.131 23.0984C126.12 22.6286 128.802 20.5696 129.617 17.8958C130.354 15.4895 129.665 12.7045 131.135 10.5995C131.563 10.0052 132.137 9.51107 132.811 9.15678C133.486 8.8025 134.241 8.59794 135.018 8.55957C136.28 10.4659 136.943 12.6538 136.934 14.8826Z" fill="#37B5FF"/>
<path d="M123.851 27.7675C120.12 27.7675 116.542 26.4114 113.903 23.9974C111.265 21.5834 109.783 18.3094 109.783 14.8955C109.783 11.4816 111.265 8.20755 113.903 5.79357C116.542 3.3796 120.12 2.02344 123.851 2.02344H123.897C127.628 2.0291 131.204 3.39069 133.837 5.80867C136.471 8.22665 137.947 11.503 137.941 14.9168C137.935 18.3307 136.447 21.6025 133.804 24.0125C131.162 26.4225 127.581 27.7732 123.851 27.7675ZM123.851 3.37212C120.521 3.37763 117.33 4.59247 114.979 6.74969C112.628 8.90691 111.309 11.83 111.312 14.8766C111.315 17.9233 112.64 20.8442 114.995 22.9975C117.35 25.1508 120.544 26.3604 123.873 26.3604C127.203 26.3604 130.396 25.1508 132.752 22.9975C135.107 20.8442 136.432 17.9233 136.435 14.8766C136.438 11.83 135.119 8.90691 132.768 6.74969C130.416 4.59247 127.226 3.37763 123.896 3.37212H123.851Z" fill="#426572"/>
<path d="M125.563 23.9015C121.23 23.9015 120.358 20.8524 120.148 20.0892V13.991H117.648V10.9418C118.8 10.4209 119.81 9.67044 120.603 8.74563C121.396 7.82081 121.952 6.74513 122.231 5.59766H124.731V10.9418H128.477V13.991H124.731V19.3351C124.853 20.1724 125.353 20.7849 126.397 20.8602C127.479 20.7849 128.064 20.3264 128.107 20.1477L128.064 20.1083C128.074 20.1074 128.085 20.1102 128.093 20.116C128.101 20.1219 128.106 20.1305 128.107 20.1398C128.107 20.1424 128.107 20.1451 128.107 20.1477L129.315 22.3955C129.315 22.3955 128.231 23.9015 125.563 23.9015Z" fill="white"/>
<path d="M30.0098 53.583C26.4806 53.5887 23.0983 54.8762 20.6061 57.1627C18.1139 59.4491 16.7157 62.5475 16.7188 65.7768C16.7218 69.0061 18.126 72.1021 20.6226 74.3846C23.1192 76.6671 26.504 77.9492 30.0332 77.9492C33.5623 77.9492 36.9471 76.6671 39.4437 74.3846C41.9403 72.1021 43.3445 69.0061 43.3476 65.7768C43.3507 62.5475 41.9525 59.4491 39.4602 57.1627C36.968 54.8762 33.5857 53.5887 30.0565 53.583H30.0098Z" fill="#E8837E"/>
<path d="M43.4633 65.908C43.4593 68.7881 42.3419 71.5739 40.3087 73.7725C38.2756 75.9711 35.4579 77.4405 32.3545 77.9207C29.2511 78.4009 26.0621 77.8609 23.352 76.3962C20.6419 74.9316 18.5855 72.6368 17.5469 69.9181C17.6162 69.8852 17.688 69.8571 17.7618 69.8338C19.1215 69.4 20.3412 70.6453 21.3557 71.5781C23.4966 73.5461 26.6704 74.5935 29.66 74.1238C32.6496 73.654 35.3309 71.595 36.1465 68.9212C36.8835 66.5149 36.1944 63.7299 37.6647 61.6248C38.0923 61.0306 38.6663 60.5365 39.3407 60.1822C40.015 59.8279 40.7708 59.6233 41.5472 59.585C42.8093 61.4913 43.4723 63.6792 43.4633 65.908Z" fill="#D66765"/>
<path d="M30.3798 78.7929C26.6489 78.7929 23.0709 77.4368 20.4327 75.0228C17.7946 72.6088 16.3125 69.3348 16.3125 65.9209C16.3125 62.507 17.7946 59.2329 20.4327 56.819C23.0709 54.405 26.6489 53.0488 30.3798 53.0488H30.4265C34.1574 53.0545 37.733 54.4161 40.3668 56.8341C43.0005 59.252 44.4767 62.5283 44.4705 65.9422C44.4643 69.3561 42.9763 72.6279 40.3338 75.0379C37.6913 77.4479 34.1107 78.7986 30.3798 78.7929ZM30.3798 54.3975C27.0503 54.403 23.8594 55.6179 21.5082 57.7751C19.1571 59.9323 17.8381 62.8554 17.8411 65.902C17.8441 68.9487 19.1689 71.8696 21.5243 74.0229C23.8797 76.1762 27.073 77.3858 30.4026 77.3858C33.7321 77.3858 36.9254 76.1762 39.2809 74.0229C41.6363 71.8696 42.961 68.9487 42.964 65.902C42.9671 62.8554 41.6481 59.9323 39.2969 57.7751C36.9458 55.6179 33.7548 54.403 30.4253 54.3975H30.3798Z" fill="#426572"/>
<path d="M28.4528 72.9147V64.7551L25.9962 66.9816L23.5176 64.6214L29.0632 59.6504H32.8303V72.9147H28.4528Z" fill="white"/>
<path d="M86.0934 66.6481H50.3066L57.6762 57.3355L62.5893 61.6872L69.6088 50.6719L86.0934 66.6481Z" fill="#DDE4ED"/>
<path d="M63.9381 49.4348C64.6154 49.4348 65.2774 49.2511 65.8406 48.9068C66.4037 48.5625 66.8426 48.0731 67.1018 47.5005C67.361 46.928 67.4288 46.2979 67.2967 45.6901C67.1646 45.0823 66.8384 44.524 66.3595 44.0857C65.8806 43.6475 65.2704 43.3491 64.6061 43.2282C63.9419 43.1073 63.2533 43.1693 62.6276 43.4065C62.0019 43.6437 61.4671 44.0453 61.0908 44.5606C60.7145 45.0759 60.5137 45.6817 60.5137 46.3014C60.5176 47.1314 60.8796 47.9263 61.5209 48.5132C62.1623 49.1 63.0311 49.4313 63.9381 49.4348Z" fill="#DDE4ED"/>
<path d="M122.023 51.9424H120.549V54.4712H122.023V51.9424Z" fill="#426572"/>
<path d="M122.023 43.4951H120.549V50.3127H122.023V43.4951Z" fill="#426572"/>
<path d="M35.9718 19.2684C31.9603 19.7888 27.0153 18.4424 27.0153 18.4424L24.5772 18.8863C24.4703 18.9051 24.3602 18.9017 24.2549 18.8761C24.1497 18.8506 24.0522 18.8037 23.9695 18.7389C23.8869 18.6741 23.8213 18.593 23.7776 18.5018C23.734 18.4106 23.7134 18.3115 23.7174 18.212C23.7667 16.6165 23.722 15.0197 23.5835 13.4286C23.5712 13.3137 23.5921 13.1978 23.6441 13.0925C23.6961 12.9873 23.7775 12.8963 23.8799 12.8289C23.9824 12.7614 24.1024 12.7197 24.228 12.708C24.3536 12.6963 24.4804 12.715 24.5956 12.7622C25.1449 13.0102 25.747 13.1453 26.3594 13.1578C27.8395 13.1465 29.1316 12.1081 29.7924 10.8751C30.4532 9.64222 30.6031 8.84312 30.7418 7.47196C30.802 6.87293 30.8978 6.2087 31.3953 5.82432C32.2551 5.15785 33.67 5.93672 33.9489 6.94261C34.2277 7.9485 33.7781 8.39244 33.3986 9.37361C33.1529 10.012 33.207 10.0479 33.008 10.7054C32.9827 10.7588 32.9702 10.8166 32.9715 10.8748C32.9727 10.9329 32.9877 10.9902 33.0154 11.0426C33.051 11.0792 33.0945 11.1086 33.1431 11.1291C33.1917 11.1496 33.2444 11.1607 33.2979 11.1617C34.1012 11.2561 34.6281 11.5304 35.4326 11.6113C35.8022 11.6479 36.1534 11.7778 36.4469 11.9866C36.7404 12.1954 36.9646 12.4749 37.0944 12.7936V18.3109C37.0957 18.4425 37.0671 18.5729 37.0104 18.6939C36.9537 18.8149 36.8702 18.9238 36.7651 19.0137C36.6601 19.1036 36.5357 19.1726 36.4 19.2162C36.2643 19.2599 36.1202 19.2773 35.9767 19.2673L35.9718 19.2684Z" fill="#85D175"/>
</g>
<defs>
<linearGradient id="paint0_linear_488_1210" x1="0.161711" y1="50.3572" x2="154.098" y2="50.3572" gradientUnits="userSpaceOnUse">
<stop stop-color="#C5E9FA"/>
<stop offset="1" stop-color="#C4F4EA"/>
</linearGradient>
<clipPath id="clip0_488_1210">
<rect width="157.96" height="91.58" fill="white" transform="translate(0 0.580078)"/>
</clipPath>
</defs>
</svg>
