<svg width="158" height="92" viewBox="0 0 158 92" fill="none" xmlns="http://www.w3.org/2000/svg">
<g clip-path="url(#clip0_488_1102)">
<path d="M149.628 55.17C144.045 69.6148 133.55 82.2699 118.972 87.8316C117.076 88.5538 115.139 89.1665 113.173 89.6667C102.772 92.3168 91.3934 91.3949 81.8055 86.5661C77.7363 84.515 74.0257 81.8047 69.9417 79.7831C65.8577 77.7615 61.194 76.4383 56.7489 77.4362C52.9216 78.2954 49.6925 80.7577 46.4413 82.9512C38.7769 88.1225 29.5612 92.2149 20.4855 90.4387C16.3094 89.6225 12.1972 87.3615 10.2578 83.5821C5.97112 75.2267 14.0556 65.2929 12.4183 56.0525C11.3706 50.1386 6.58525 45.7099 3.61039 40.4907C-1.48077 31.5633 -0.878922 19.7048 5.09045 11.3396C11.0598 2.97442 22.0798 -1.46287 32.1836 0.434794C44.5043 2.74979 53.8195 13.1698 65.8 16.8571C73.2924 19.161 81.4272 18.4736 88.5831 15.4393C100.145 10.5356 116.029 3.01493 129.04 4.23994C135.959 4.89172 142.745 7.96039 147.311 13.2004C153.084 19.8153 154.815 29.2066 153.852 37.929C153.191 43.8334 151.771 49.6282 149.628 55.17Z" fill="url(#paint0_linear_488_1102)"/>
<path d="M153.341 66.5956C153.085 66.5953 152.829 66.5644 152.58 66.5036C151.792 66.3099 151.107 65.8229 150.666 65.1419C150.225 64.4609 150.06 63.6373 150.206 62.8393C150.352 62.0413 150.797 61.329 151.451 60.8479C152.104 60.3668 152.917 60.1532 153.723 60.2506C154.529 60.348 155.267 60.7492 155.787 61.3721C156.307 61.9951 156.57 62.7929 156.521 63.6027C156.472 64.4124 156.116 65.1731 155.525 65.7293C154.934 66.2855 154.153 66.5954 153.341 66.5956ZM153.341 61.6637C152.919 61.6653 152.512 61.8211 152.197 62.1019C151.881 62.3826 151.68 62.7688 151.63 63.1879C151.579 63.6069 151.684 64.0298 151.925 64.3768C152.165 64.7239 152.524 64.9713 152.934 65.0724C153.171 65.1294 153.418 65.1355 153.658 65.0904C153.898 65.0453 154.125 64.9499 154.326 64.8106C154.526 64.6712 154.695 64.491 154.82 64.2819C154.946 64.0727 155.026 63.8394 155.055 63.5971C155.084 63.3549 155.061 63.1092 154.988 62.8764C154.916 62.6435 154.794 62.4287 154.632 62.246C154.47 62.0634 154.272 61.9171 154.049 61.8167C153.827 61.7163 153.585 61.6642 153.341 61.6637Z" fill="#E7F6FF"/>
<path d="M150.433 69.9719C150.614 69.2254 150.156 68.4736 149.409 68.2926C148.662 68.1116 147.909 68.57 147.728 69.3164C147.547 70.0629 148.006 70.8147 148.753 70.9957C149.5 71.1767 150.252 70.7183 150.433 69.9719Z" fill="#E7F6FF"/>
<path d="M6.78102 66.2918C5.93739 66.2734 5.13507 65.9232 4.54825 65.3172C3.96142 64.7112 3.63746 63.8984 3.64668 63.0552C3.65589 62.2119 3.99755 61.4064 4.59749 60.8133C5.19742 60.2203 6.0072 59.8877 6.85103 59.8877C7.69487 59.8877 8.50465 60.2203 9.10458 60.8133C9.70451 61.4064 10.0462 62.2119 10.0554 63.0552C10.0646 63.8984 9.74064 64.7112 9.15382 65.3172C8.56699 65.9232 7.76468 66.2734 6.92104 66.2918H6.78102ZM6.78102 61.3611H6.70855C6.25291 61.371 5.81956 61.56 5.50257 61.8873C5.18558 62.2145 5.01056 62.6535 5.01549 63.1089C5.02042 63.5644 5.20492 63.9994 5.52892 64.3198C5.85292 64.6401 6.29027 64.8197 6.74602 64.8197C7.20176 64.8197 7.63911 64.6401 7.96311 64.3198C8.28711 63.9994 8.47161 63.5644 8.47654 63.1089C8.48147 62.6535 8.30645 62.2145 7.98946 61.8873C7.67247 61.56 7.23912 61.371 6.78348 61.3611H6.78102Z" fill="#E7F6FF"/>
<path d="M4.49661 71.6662C5.26447 71.6331 5.86009 70.9842 5.82697 70.2168C5.79385 69.4495 5.14452 68.8542 4.37666 68.8873C3.6088 68.9204 3.01318 69.5693 3.0463 70.3367C3.07942 71.104 3.72875 71.6993 4.49661 71.6662Z" fill="#E7F6FF"/>
<path d="M87.0963 14.5167C86.3316 14.5174 85.592 14.2445 85.0112 13.7473C84.4304 13.2502 84.0469 12.5617 83.9301 11.8065C83.8133 11.0513 83.971 10.2792 84.3745 9.63007C84.7779 8.98092 85.4006 8.49758 86.1299 8.26753C86.8591 8.03748 87.6466 8.07592 88.3499 8.37589C89.0532 8.67587 89.6258 9.21756 89.9641 9.90291C90.3024 10.5883 90.3839 11.372 90.1941 12.1122C90.0042 12.8525 89.5554 13.5004 88.9289 13.9386C88.3917 14.3142 87.752 14.516 87.0963 14.5167ZM87.0865 9.58719C86.6391 9.58673 86.2087 9.75884 85.8852 10.0677C85.5616 10.3765 85.3698 10.7982 85.3497 11.2449C85.3296 11.6915 85.4827 12.1287 85.7773 12.4653C86.0718 12.8019 86.4849 13.0119 86.9306 13.0516C87.3763 13.0913 87.82 12.9575 88.1695 12.6783C88.5189 12.399 88.747 11.9957 88.8062 11.5525C88.8654 11.1093 88.7512 10.6604 88.4873 10.2993C88.2235 9.93818 87.8303 9.69276 87.3899 9.61419C87.2897 9.59635 87.1882 9.58731 87.0865 9.58719Z" fill="#E7F6FF"/>
<path d="M80.5616 14.3411C81.1909 13.9001 81.3433 13.0329 80.902 12.404C80.4607 11.7751 79.5929 11.6228 78.9636 12.0638C78.3343 12.5048 78.1819 13.3721 78.6232 14.001C79.0645 14.6298 79.9323 14.7821 80.5616 14.3411Z" fill="#E7F6FF"/>
<path d="M157.958 31.0139C157.958 29.6642 157.421 28.3698 156.466 27.4154C155.511 26.461 154.216 25.9248 152.865 25.9248C152.752 25.9248 152.641 25.9248 152.53 25.9359C152.538 25.8254 152.541 25.7137 152.541 25.6008C152.541 24.8775 152.387 24.1625 152.088 23.5036C151.79 22.8446 151.354 22.2568 150.811 21.7793C150.267 21.3018 149.628 20.9456 148.936 20.7344C148.243 20.5232 147.514 20.462 146.796 20.5547C146.078 20.6474 145.389 20.8919 144.773 21.272C144.157 21.6521 143.629 22.159 143.225 22.7589C142.821 23.3588 142.549 24.038 142.428 24.7511C142.307 25.4643 142.34 26.195 142.523 26.8945C141.908 26.4485 141.2 26.1458 140.453 26.0087C139.705 25.8716 138.936 25.9036 138.202 26.1023C137.468 26.3011 136.788 26.6614 136.212 27.1571C135.636 27.6527 135.178 28.2709 134.872 28.9665C134.566 29.662 134.42 30.4172 134.444 31.1766C134.468 31.936 134.662 32.6803 135.012 33.355C135.362 34.0296 135.858 34.6174 136.465 35.0753C137.071 35.5332 137.773 35.8496 138.518 36.0011C138.822 36.8073 139.326 37.5231 139.983 38.0814C140.64 38.6398 141.427 39.0224 142.272 39.1934C143.117 39.3644 143.992 39.3182 144.814 39.0591C145.636 38.8 146.379 38.3366 146.973 37.7122C147.581 38.1707 148.284 38.4871 149.031 38.6382C149.777 38.7892 150.548 38.771 151.286 38.5849C152.025 38.3989 152.712 38.0496 153.298 37.5629C153.883 37.0763 154.352 36.4645 154.67 35.7728C155.636 35.4066 156.468 34.7553 157.056 33.9053C157.643 33.0553 157.958 32.0468 157.958 31.0139Z" fill="white"/>
<path d="M23.5171 18.7805C23.5178 18.1119 23.3866 17.4497 23.131 16.8318C22.8755 16.2139 22.5006 15.6523 22.0278 15.1793C21.555 14.7062 20.9935 14.3309 20.3755 14.0748C19.7575 13.8186 19.095 13.6867 18.426 13.6865C18.313 13.6865 18.2012 13.6865 18.0907 13.6976C18.098 13.5871 18.1017 13.4754 18.1017 13.3625C18.1016 12.6392 17.9472 11.9242 17.6488 11.2653C17.3503 10.6063 16.9148 10.0185 16.3712 9.54099C15.8275 9.06349 15.1883 8.70729 14.496 8.49612C13.8038 8.28496 13.0745 8.22368 12.3567 8.31638C11.6389 8.40909 10.9491 8.65363 10.3333 9.03372C9.71752 9.41381 9.18988 9.92072 8.78557 10.5206C8.38126 11.1206 8.10956 11.7997 7.98858 12.5128C7.8676 13.226 7.90012 13.9567 8.08398 14.6562C7.46852 14.2102 6.76093 13.9075 6.01313 13.7704C5.26534 13.6334 4.49632 13.6654 3.76251 13.8641C3.0287 14.0628 2.34872 14.4232 1.77248 14.9188C1.19624 15.4144 0.738351 16.0327 0.432425 16.7282C0.126498 17.4238 -0.019705 18.1789 0.00454436 18.9383C0.0287937 19.6977 0.22288 20.442 0.57256 21.1167C0.922241 21.7913 1.41864 22.3792 2.02533 22.8371C2.63202 23.2949 3.33361 23.6113 4.0786 23.7628C4.38306 24.5683 4.88704 25.2834 5.54337 25.8412C6.19969 26.399 6.98691 26.7813 7.83134 26.9522C8.67576 27.1232 9.54978 27.0772 10.3716 26.8187C11.1934 26.5601 11.9362 26.0974 12.5303 25.4739C13.1382 25.9324 13.8412 26.2489 14.5876 26.3999C15.3341 26.5509 16.1049 26.5328 16.8434 26.3467C17.5818 26.1606 18.2691 25.8113 18.8546 25.3247C19.4402 24.838 19.909 24.2262 20.2266 23.5345C21.1928 23.169 22.0249 22.5186 22.6126 21.6696C23.2003 20.8205 23.5158 19.8129 23.5171 18.7805Z" fill="white"/>
<path d="M117.2 91.1924H43.9336V89.5967H117.2C117.411 89.5967 117.615 89.6807 117.764 89.8304C117.914 89.98 117.998 90.1829 117.998 90.3945C117.998 90.6061 117.914 90.8091 117.764 90.9587C117.615 91.1083 117.411 91.1924 117.2 91.1924Z" fill="#426572"/>
<path d="M40.6568 91.1924H36.1773C35.9655 91.1924 35.7625 91.1083 35.6127 90.9587C35.463 90.8091 35.3789 90.6061 35.3789 90.3945C35.3789 90.1829 35.463 89.98 35.6127 89.8304C35.7625 89.6807 35.9655 89.5967 36.1773 89.5967H40.6568C40.8685 89.5967 41.0716 89.6807 41.2213 89.8304C41.371 89.98 41.4551 90.1829 41.4551 90.3945C41.4551 90.6061 41.371 90.8091 41.2213 90.9587C41.0716 91.1083 40.8685 91.1924 40.6568 91.1924Z" fill="#426572"/>
<path d="M33.2705 91.1924H31.8433C31.6316 91.1924 31.4285 91.1083 31.2788 90.9587C31.129 90.8091 31.0449 90.6061 31.0449 90.3945C31.0449 90.1829 31.129 89.98 31.2788 89.8304C31.4285 89.6807 31.6316 89.5967 31.8433 89.5967H33.2705C33.4823 89.5967 33.6854 89.6807 33.8351 89.8304C33.9848 89.98 34.0689 90.1829 34.0689 90.3945C34.0689 90.6061 33.9848 90.8091 33.8351 90.9587C33.6854 91.1083 33.4823 91.1924 33.2705 91.1924Z" fill="#426572"/>
<path d="M142.892 91.1924H120.373V89.5967H142.892C143.104 89.5967 143.307 89.6807 143.457 89.8304C143.606 89.98 143.69 90.1829 143.69 90.3945C143.69 90.6061 143.606 90.8091 143.457 90.9587C143.307 91.1083 143.104 91.1924 142.892 91.1924Z" fill="#426572"/>
<path d="M27.7605 91.1924H5.24023V89.5967H27.7605C27.9722 89.5967 28.1753 89.6807 28.325 89.8304C28.4748 89.98 28.5589 90.1829 28.5589 90.3945C28.5589 90.6061 28.4748 90.8091 28.325 90.9587C28.1753 91.1083 27.9722 91.1924 27.7605 91.1924Z" fill="#426572"/>
<path d="M31.2328 28.8994H120.986C121.201 28.8994 121.415 28.9418 121.614 29.0242C121.813 29.1067 121.994 29.2274 122.146 29.3797C122.299 29.532 122.419 29.7128 122.502 29.9117C122.584 30.1107 122.627 30.324 122.627 30.5393V87.4336H29.5918V30.5393C29.5918 30.324 29.6342 30.1107 29.7167 29.9117C29.7992 29.7128 29.92 29.532 30.0724 29.3797C30.2248 29.2274 30.4057 29.1067 30.6048 29.0242C30.8039 28.9418 31.0173 28.8994 31.2328 28.8994Z" fill="#EBF0F9"/>
<path d="M119.391 32.9609H33.1953V82.17H119.391V32.9609Z" fill="#637F91"/>
<path d="M32.5508 82.0781H119.758C119.758 82.4688 119.602 82.8434 119.326 83.1197C119.05 83.3959 118.675 83.5511 118.284 83.5511H34.0247C33.6338 83.5511 33.2589 83.3959 32.9825 83.1197C32.7061 82.8434 32.5508 82.4688 32.5508 82.0781Z" fill="white"/>
<g opacity="0.5">
<path d="M58.9514 32.7773L46.0644 82.448H39.5742L52.4612 32.7773H58.9514Z" fill="#A7BCD5"/>
<path d="M75.4954 32.7773L62.6072 82.448H48.998L61.885 32.7773H75.4954Z" fill="#A7BCD5"/>
</g>
<path d="M123.361 88.1702H28.8555V34.4796C28.8574 32.805 29.524 31.1995 30.7089 30.0153C31.8938 28.8312 33.5004 28.165 35.1761 28.1631H70.5625V29.636H35.1761C33.8912 29.6377 32.6593 30.1485 31.7508 31.0565C30.8422 31.9645 30.331 33.1955 30.3294 34.4796V86.6973H121.887V30.9777C121.887 30.6219 121.745 30.2809 121.493 30.0294C121.242 29.7778 120.9 29.6364 120.544 29.636H86.8972V28.1631H120.544C121.291 28.1654 122.006 28.4626 122.533 28.99C123.061 29.5173 123.359 30.2319 123.361 30.9777V88.1702Z" fill="#426572"/>
<path d="M17.8594 85.6777H136.851V86.0607C136.851 87.3303 136.347 88.5479 135.448 89.4457C134.55 90.3435 133.332 90.8478 132.061 90.8478H22.6496C21.3792 90.8478 20.1607 90.3435 19.2624 89.4457C18.3641 88.5479 17.8594 87.3303 17.8594 86.0607V85.6777Z" fill="#EBF0F9"/>
<path opacity="0.5" d="M136.243 88.1729C135.981 88.8522 135.52 89.4364 134.919 89.8483C134.318 90.2603 133.607 90.4807 132.879 90.4805H21.0927C20.3643 90.4807 19.6529 90.2603 19.0523 89.8483C18.4517 89.4364 17.9902 88.8522 17.7285 88.1729H136.243Z" fill="#A7BCD5"/>
<path d="M131.507 91.4028H22.0956C20.6302 91.4012 19.2252 90.8187 18.189 89.7832C17.1528 88.7477 16.57 87.3437 16.5684 85.8792V84.7598H137.034V85.8792C137.033 87.3437 136.45 88.7477 135.414 89.7832C134.377 90.8187 132.973 91.4012 131.507 91.4028ZM18.0582 86.2315C18.1467 87.2409 18.6105 88.1804 19.3581 88.8648C20.1058 89.5492 21.0829 89.9288 22.0968 89.9286H131.508C132.522 89.9288 133.499 89.5492 134.247 88.8648C134.995 88.1804 135.458 87.2409 135.547 86.2315H18.0582Z" fill="#426572"/>
<path d="M119.942 82.6305H32.2734V32.2246H119.942V82.6305ZM33.7461 81.1575H118.468V33.6976H33.7474L33.7461 81.1575Z" fill="#426572"/>
<path d="M134.633 44.7791V58.3511C134.631 58.6435 134.514 58.9234 134.307 59.1302C134.1 59.3369 133.82 59.4539 133.528 59.4559H109.412C109.257 59.4562 109.104 59.4236 108.962 59.3601C108.766 59.2737 108.599 59.132 108.482 58.9524C108.365 58.7728 108.303 58.563 108.303 58.3487V44.7791C108.302 44.5552 108.37 44.3365 108.497 44.1519C108.624 43.9673 108.803 43.8256 109.013 43.7455C109.139 43.6966 109.273 43.6716 109.408 43.6719H133.52C133.787 43.6727 134.045 43.7695 134.247 43.9446C134.448 44.1197 134.58 44.3614 134.618 44.6256C134.627 44.6763 134.632 44.7276 134.633 44.7791Z" fill="white"/>
<path d="M134.449 44.4099V57.982C134.448 58.2744 134.33 58.5543 134.124 58.761C133.917 58.9678 133.637 59.0848 133.344 59.0867H109.228C109.073 59.0871 108.92 59.0544 108.779 58.991C108.582 58.9045 108.416 58.7629 108.298 58.5833C108.181 58.4037 108.119 58.1939 108.119 57.9795V57.7954H131.863C132.155 57.7935 132.435 57.6765 132.642 57.4697C132.849 57.263 132.966 56.9831 132.968 56.6907V43.3027H133.337C133.604 43.3036 133.862 43.4003 134.063 43.5754C134.265 43.7505 134.397 43.9923 134.435 44.2565C134.443 44.3072 134.448 44.3585 134.449 44.4099Z" fill="#D6DEE9"/>
<path d="M133.341 60.0114H109.229C108.97 60.0118 108.713 59.957 108.477 59.8506C108.151 59.7058 107.874 59.4697 107.68 59.1707C107.486 58.8718 107.383 58.5229 107.383 58.1665V44.5956C107.385 44.2309 107.494 43.8748 107.697 43.5718C107.9 43.2687 108.188 43.0323 108.525 42.8919L108.648 42.8256H108.707C108.875 42.7763 109.049 42.7515 109.224 42.752H133.336C133.781 42.7536 134.21 42.9147 134.545 43.2061C134.881 43.4974 135.1 43.8995 135.164 44.3391C135.176 44.424 135.182 44.5098 135.182 44.5956V58.1677C135.183 58.5512 135.063 58.9251 134.839 59.2368C134.669 59.4754 134.444 59.6701 134.184 59.8048C133.923 59.9394 133.634 60.0102 133.341 60.0114ZM109.008 44.2998C108.961 44.3339 108.923 44.3787 108.897 44.4303C108.87 44.4819 108.857 44.5389 108.857 44.5968V58.1677C108.857 58.2397 108.878 58.3102 108.917 58.3704C108.957 58.4306 109.013 58.4779 109.079 58.5065C109.126 58.5277 109.177 58.5386 109.229 58.5384H133.341C133.4 58.5383 133.459 58.5238 133.512 58.4963C133.564 58.4687 133.609 58.4288 133.643 58.3801C133.688 58.3177 133.712 58.2431 133.712 58.1665V44.5956C133.713 44.5801 133.713 44.5645 133.712 44.549C133.7 44.4595 133.656 44.3772 133.589 44.3175C133.521 44.2577 133.434 44.2244 133.343 44.2237H109.229C109.194 44.2236 109.16 44.2286 109.127 44.2384L109.008 44.2998Z" fill="#426572"/>
<path d="M115.09 50.7938C114.725 50.5753 114.327 50.4174 113.911 50.3262C114.123 50.1942 114.298 50.0099 114.418 49.7911C114.539 49.5724 114.601 49.3263 114.599 49.0766C114.597 48.823 114.528 48.5744 114.401 48.3552C114.273 48.136 114.09 47.9537 113.871 47.8263C113.652 47.6988 113.403 47.6304 113.149 47.628C112.895 47.6255 112.645 47.6891 112.424 47.8123C112.202 47.9355 112.016 48.1142 111.884 48.3309C111.752 48.5476 111.679 48.7948 111.672 49.0483C111.664 49.3018 111.723 49.5529 111.842 49.7769C111.961 50.0009 112.136 50.1902 112.35 50.3262C111.917 50.4129 111.502 50.5722 111.122 50.7975C111.029 50.8583 110.951 50.94 110.895 51.0361C110.839 51.1322 110.806 51.2401 110.799 51.3511V53.1051C110.799 53.2028 110.838 53.2965 110.907 53.3655C110.976 53.4346 111.07 53.4734 111.167 53.4734H115.047C115.145 53.4734 115.239 53.4346 115.308 53.3655C115.377 53.2965 115.416 53.2028 115.416 53.1051V51.3486C115.411 51.2367 115.379 51.1277 115.322 51.031C115.265 50.9343 115.186 50.8529 115.09 50.7938Z" fill="#426572"/>
<path d="M130.568 45.9678H117.635V47.4407H130.568V45.9678Z" fill="#426572"/>
<path d="M125.949 48.5527H117.635V50.0257H125.949V48.5527Z" fill="#426572"/>
<path d="M130.384 53.6309H117.635V55.1038H130.384V53.6309Z" fill="#426572"/>
<path d="M77.4585 90.7574C77.4585 90.7574 97.1181 80.9377 97.1181 66.1995V46.5515L77.4585 41.6416L57.7988 46.5515V66.1983C57.7988 80.934 77.4585 90.7574 77.4585 90.7574Z" fill="#E8837E"/>
<path d="M81.3563 88.9485C80.0931 89.7812 78.7882 90.5489 77.4467 91.2487C77.4467 91.2487 57.7871 81.429 57.7871 66.6896V47.0428L62.086 45.9688V62.6242C62.086 75.4635 75.0737 85.0635 81.3563 88.9485Z" fill="#D66765"/>
<path d="M77.0665 91.5801L76.7373 91.4156C76.5334 91.3137 71.6806 88.8686 66.7515 84.5578C63.8418 82.0132 61.5203 79.3496 59.8511 76.6382C57.7397 73.2099 56.6699 69.6981 56.6699 66.2047V45.9773L77.0665 40.8809L77.2458 40.9251L97.4631 45.9761V66.1986C97.4631 69.6981 96.3933 73.2099 94.2819 76.632C92.6127 79.3435 90.2913 82.0071 87.3815 84.5516C82.4525 88.8625 77.5996 91.3027 77.3957 91.4095L77.0665 91.5801ZM58.1438 47.1274V66.1986C58.1438 69.4207 59.14 72.6735 61.1064 75.8661C62.7032 78.4511 64.9239 81.003 67.7219 83.4494C70.5942 85.9386 73.7273 88.1103 77.0665 89.9267C80.4149 88.1046 83.5563 85.9259 86.4357 83.4285C89.2276 80.9834 91.4483 78.4352 93.0352 75.8575C95.0004 72.6661 95.9831 69.4219 95.9831 66.2047V47.1274L77.0665 42.3992L58.1438 47.1274Z" fill="#426572"/>
<path d="M65.6451 73.746L74.1397 80.5376L75.3459 81.5024C76.0116 82.0351 76.643 82.3285 77.5126 82.2119C77.8997 82.1652 78.271 82.0303 78.5977 81.8174C78.9244 81.6046 79.1978 81.3196 79.3967 80.9844L88.6947 65.792L90.0212 63.6256C90.7263 62.4742 90.3111 60.7398 89.0964 60.0991C87.8398 59.435 86.3192 59.7946 85.5675 61.0233L76.2696 76.2145L74.943 78.3809L78.9963 77.8593L70.5041 71.0702L69.2979 70.1054C68.2465 69.2646 66.6633 69.0006 65.65 70.1054C64.7902 71.0407 64.5249 72.8512 65.65 73.7509L65.6451 73.746Z" fill="white"/>
<path opacity="0.2" d="M43.7274 42.348C44.5859 40.7377 45.113 38.9719 45.2775 37.1547C45.442 35.3375 45.2406 33.5058 44.6852 31.7677C44.1299 30.0296 43.2318 28.4202 42.0439 27.0346C40.8561 25.6489 39.4025 24.5151 37.7691 23.7C36.1356 22.8849 34.3554 22.4049 32.5333 22.2886C30.7112 22.1722 28.8843 22.4217 27.1603 23.0224C25.4363 23.6231 23.8502 24.5627 22.4954 25.786C21.1407 27.0092 20.0449 28.4912 19.2727 30.1445C18.2062 32.1459 17.6548 34.381 17.6682 36.6485C17.6816 38.9159 18.2594 41.1443 19.3495 43.133C20.4395 45.1216 22.0076 46.8079 23.9125 48.04C25.8173 49.272 27.9989 50.0109 30.2607 50.1903C29.8661 50.2836 29.4652 50.3593 29.0583 50.4174C31.1994 50.7259 33.3832 50.5223 35.4303 49.8232C37.4774 49.1242 39.3292 47.9496 40.8337 46.3962C42.0375 45.2347 43.0183 43.8626 43.7274 42.348Z" fill="#606060"/>
<path d="M29.819 47.0001C37.3691 47.0001 43.4897 40.8836 43.4897 33.3385C43.4897 25.7933 37.3691 19.6768 29.819 19.6768C22.269 19.6768 16.1484 25.7933 16.1484 33.3385C16.1484 40.8836 22.269 47.0001 29.819 47.0001Z" fill="#A8EF9E"/>
<path d="M42.8372 34.314C42.8368 36.2728 42.415 38.2085 41.6004 39.9901C40.7857 41.7716 39.5973 43.3573 38.1157 44.6396C36.634 45.9219 34.8938 46.8708 33.013 47.4221C31.1322 47.9733 29.1548 48.114 27.2148 47.8346C30.4678 47.3646 33.4425 45.7392 35.594 43.256C37.7454 40.7728 38.9296 37.5981 38.9296 34.3134C38.9296 31.0288 37.7454 27.8541 35.594 25.3709C33.4425 22.8877 30.4678 21.2622 27.2148 20.7923C29.155 20.5126 31.1327 20.6532 33.0137 21.2044C34.8947 21.7557 36.6352 22.7047 38.117 23.9871C39.5987 25.2696 40.7873 26.8555 41.6019 28.6373C42.4165 30.4191 42.8382 32.3551 42.8384 34.314H42.8372Z" fill="#A7E59C"/>
<path d="M29.4947 48.3852C26.6451 48.3855 23.8594 47.5412 21.4899 45.9592C19.1204 44.3772 17.2735 42.1285 16.1829 39.4976C15.0923 36.8666 14.8068 33.9715 15.3627 31.1784C15.9186 28.3853 17.2908 25.8197 19.3058 23.806C21.3208 21.7923 23.8881 20.421 26.683 19.8655C29.4779 19.31 32.3749 19.5952 35.0076 20.6851C37.6403 21.775 39.8904 23.6207 41.4735 25.9886C43.0565 28.3566 43.9013 31.1405 43.9011 33.9883C43.8965 37.8052 42.3773 41.4645 39.6765 44.1634C36.9758 46.8624 33.3141 48.3807 29.4947 48.3852ZM29.4947 21.0631C26.9367 21.0628 24.4359 21.8207 22.3089 23.2408C20.1818 24.6608 18.5238 26.6794 17.5447 29.0412C16.5656 31.4029 16.3093 34.0018 16.8082 36.5091C17.3071 39.0164 18.5389 41.3196 20.3476 43.1273C22.1564 44.9351 24.4609 46.1662 26.9698 46.665C29.4787 47.1639 32.0793 46.908 34.4427 45.9297C36.8061 44.9515 38.8261 43.2948 40.2474 41.1693C41.6686 39.0437 42.4272 36.5447 42.4272 33.9883C42.4236 30.5616 41.06 27.2763 38.6355 24.8531C36.211 22.43 32.9236 21.067 29.4947 21.0631Z" fill="#426572"/>
<path d="M85.0351 28.2285H82.2715V29.7015H85.0351V28.2285Z" fill="#426572"/>
<path d="M80.4897 28.2285H73.0391V29.7015H80.4897V28.2285Z" fill="#426572"/>
<path d="M34.8683 41.4569C30.8568 42.0252 25.9118 40.5547 25.9118 40.5547L23.4737 41.0396C23.3668 41.0601 23.2566 41.0563 23.1514 41.0285C23.0462 41.0006 22.9487 40.9493 22.866 40.8786C22.7834 40.8078 22.7178 40.7193 22.6741 40.6196C22.6305 40.52 22.6099 40.4118 22.6139 40.3031C22.6632 38.5606 22.6185 36.8167 22.48 35.079C22.4677 34.9534 22.4886 34.8268 22.5406 34.7119C22.5926 34.5969 22.6739 34.4976 22.7764 34.4239C22.8789 34.3502 22.9989 34.3047 23.1245 34.2919C23.2501 34.2792 23.3769 34.2996 23.4921 34.3511C24.0414 34.622 24.6434 34.7695 25.2559 34.7832C26.7359 34.7709 28.0281 33.6367 28.6889 32.2902C29.3497 30.9437 29.4995 30.0709 29.6383 28.5734C29.6985 27.9192 29.7943 27.1937 30.2918 26.7739C31.1516 26.0461 32.5665 26.8967 32.8453 27.9953C33.1242 29.0939 32.6746 29.5824 32.2951 30.6503C32.0494 31.3475 32.1035 31.3868 31.9045 32.1048C31.8791 32.1631 31.8667 32.2262 31.868 32.2898C31.8692 32.3533 31.8842 32.4158 31.9119 32.4731C31.9475 32.513 31.9909 32.5452 32.0395 32.5675C32.0881 32.5899 32.1408 32.6021 32.1944 32.6032C32.9976 32.7063 33.5246 33.0058 34.3291 33.0942C34.6988 33.1342 35.0501 33.2763 35.3437 33.5046C35.6372 33.7329 35.8613 34.0383 35.9909 34.3867V40.4123C35.9922 40.5561 35.9636 40.6985 35.9069 40.8307C35.8502 40.9628 35.7667 41.0817 35.6616 41.1799C35.5565 41.2781 35.4322 41.3534 35.2965 41.4011C35.1608 41.4488 35.0166 41.4678 34.8732 41.4569H34.8683Z" fill="#85D175"/>
</g>
<defs>
<linearGradient id="paint0_linear_488_1102" x1="0.165104" y1="45.5626" x2="154.101" y2="45.5626" gradientUnits="userSpaceOnUse">
<stop stop-color="#C5E9FA"/>
<stop offset="1" stop-color="#C4F4EA"/>
</linearGradient>
<clipPath id="clip0_488_1102">
<rect width="157.96" height="91.58" fill="white"/>
</clipPath>
</defs>
</svg>
