<svg width="158" height="92" viewBox="0 0 158 92" fill="none" xmlns="http://www.w3.org/2000/svg">
<g clip-path="url(#clip0_488_1047)">
<path d="M149.63 55.205C144.047 69.6592 133.552 82.3226 118.974 87.8879C117.077 88.6106 115.141 89.2237 113.175 89.7242C102.774 92.376 91.3953 91.4536 81.8075 86.6216C77.7382 84.5691 74.0276 81.8571 69.9436 79.8341C65.8596 77.8112 61.1959 76.4871 56.7508 77.4857C52.9235 78.3455 49.6944 80.8094 46.4432 83.0043C38.7788 88.179 29.5632 92.274 20.4875 90.4967C16.3114 89.6799 12.1992 87.4175 10.2597 83.6356C5.97307 75.2748 14.0575 65.3345 12.4202 56.0881C11.3725 50.1703 6.58721 45.7387 3.61234 40.5161C-1.47882 31.5829 -0.876969 19.7167 5.0924 11.346C11.0618 2.97538 22.0818 -1.4648 32.1855 0.434101C44.5062 2.75061 53.8214 13.1774 65.8019 16.8671C73.2943 19.1725 81.4292 18.4847 88.585 15.4484C100.147 10.5415 116.031 3.01592 129.042 4.24173C135.96 4.89394 142.747 7.9646 147.313 13.2081C153.086 19.8272 154.817 29.2247 153.854 37.9527C153.193 43.861 151.773 49.6596 149.63 55.205Z" fill="url(#paint0_linear_488_1047)"/>
<path d="M153.343 66.6379C153.087 66.6376 152.831 66.6067 152.582 66.5458C151.793 66.352 151.109 65.8646 150.668 65.1832C150.227 64.5017 150.062 63.6776 150.208 62.8791C150.354 62.0806 150.799 61.3678 151.453 60.8864C152.106 60.405 152.919 60.1912 153.725 60.2887C154.531 60.3862 155.269 60.7876 155.789 61.411C156.309 62.0343 156.571 62.8327 156.523 63.643C156.474 64.4532 156.118 65.2144 155.527 65.771C154.936 66.3276 154.155 66.6376 153.343 66.6379ZM153.335 61.7027C152.912 61.704 152.504 61.86 152.188 62.1414C151.873 62.4227 151.671 62.8099 151.621 63.2298C151.572 63.6497 151.677 64.0733 151.919 64.4205C152.16 64.7678 152.52 65.0148 152.931 65.1148C153.376 65.223 153.847 65.1496 154.239 64.9109C154.63 64.6721 154.911 64.2875 155.019 63.8417C155.127 63.3959 155.054 62.9254 154.815 62.5337C154.577 62.142 154.192 61.8612 153.746 61.7531C153.612 61.7195 153.473 61.7022 153.335 61.7015V61.7027Z" fill="#E7F6FF"/>
<path d="M150.435 70.0163C150.616 69.2694 150.158 68.5171 149.411 68.336C148.664 68.1549 147.911 68.6135 147.73 69.3605C147.549 70.1074 148.008 70.8597 148.755 71.0408C149.502 71.2219 150.254 70.7633 150.435 70.0163Z" fill="#E7F6FF"/>
<path d="M6.78225 66.3346C5.93829 66.3162 5.13566 65.9656 4.54861 65.359C3.96155 64.7524 3.63746 63.9387 3.64668 63.0946C3.65589 62.2505 3.99768 61.4441 4.59785 60.8504C5.19801 60.2568 6.0081 59.9238 6.85226 59.9238C7.69642 59.9238 8.50651 60.2568 9.10667 60.8504C9.70684 61.4441 10.0486 62.2505 10.0578 63.0946C10.0671 63.9387 9.74297 64.7524 9.15591 65.359C8.56886 65.9656 7.76623 66.3162 6.92227 66.3346H6.78225ZM6.78225 61.4007H6.70978C6.25387 61.4107 5.82032 61.6001 5.50322 61.9279C5.18613 62.2556 5.01109 62.6952 5.01611 63.1511C5.02112 63.6071 5.20578 64.0427 5.53 64.3634C5.85422 64.6841 6.29184 64.864 6.74786 64.864C7.20388 64.864 7.64149 64.6841 7.96571 64.3634C8.28993 64.0427 8.47459 63.6071 8.47961 63.1511C8.48462 62.6952 8.30958 62.2556 7.99249 61.9279C7.6754 61.6001 7.24184 61.4107 6.78593 61.4007H6.78225Z" fill="#E7F6FF"/>
<path d="M4.49856 71.7119C5.26642 71.6788 5.86204 71.0295 5.82892 70.2616C5.7958 69.4937 5.14647 68.8981 4.37861 68.9312C3.61075 68.9644 3.01513 69.6137 3.04825 70.3815C3.08138 71.1494 3.7307 71.745 4.49856 71.7119Z" fill="#E7F6FF"/>
<path d="M87.0979 14.5243C86.3329 14.5251 85.5929 14.2519 85.0118 13.7543C84.4308 13.2567 84.0471 12.5675 83.9302 11.8115C83.8133 11.0554 83.9709 10.2825 84.3746 9.63269C84.7782 8.98283 85.4012 8.49896 86.1307 8.26866C86.8602 8.03836 87.6481 8.07685 88.3517 8.37717C89.0553 8.67749 89.6281 9.21979 89.9665 9.90591C90.3049 10.592 90.3864 11.3766 90.1964 12.1176C90.0064 12.8587 89.5573 13.5072 88.9305 13.9458C88.3933 14.3217 87.7536 14.5236 87.0979 14.5243ZM87.0881 9.59158C86.641 9.59114 86.211 9.76327 85.8877 10.0721C85.5644 10.3809 85.3727 10.8026 85.3526 11.2492C85.3325 11.6959 85.4856 12.133 85.7799 12.4696C86.0743 12.8062 86.4871 13.0161 86.9324 13.0558C87.3778 13.0955 87.8212 12.9618 88.1704 12.6825C88.5196 12.4033 88.7475 12 88.8067 11.5569C88.8659 11.1137 88.7517 10.6648 88.4881 10.3037C88.2244 9.94261 87.8316 9.69719 87.3915 9.6186C87.2913 9.60075 87.1898 9.5917 87.0881 9.59158Z" fill="#E7F6FF"/>
<path d="M80.5636 14.3499C81.1928 13.9086 81.3452 13.0408 80.904 12.4115C80.4627 11.7822 79.5948 11.6298 78.9656 12.0711C78.3363 12.5124 78.1839 13.3802 78.6252 14.0095C79.0664 14.6388 79.9343 14.7912 80.5636 14.3499Z" fill="#E7F6FF"/>
<path d="M157.96 31.0325C157.96 29.6819 157.423 28.3866 156.468 27.4316C155.513 26.4766 154.218 25.9401 152.867 25.9401C152.754 25.9401 152.643 25.9401 152.532 25.9511C152.539 25.8406 152.543 25.7288 152.543 25.6158C152.543 24.892 152.389 24.1766 152.09 23.5172C151.792 22.8578 151.356 22.2696 150.813 21.7918C150.269 21.314 149.63 20.9576 148.937 20.7463C148.245 20.535 147.516 20.4737 146.798 20.5664C146.08 20.6592 145.39 20.9039 144.775 21.2842C144.159 21.6646 143.631 22.1718 143.227 22.7721C142.823 23.3724 142.551 24.052 142.43 24.7656C142.309 25.4792 142.342 26.2104 142.525 26.9104C141.91 26.4641 141.202 26.1612 140.455 26.024C139.707 25.8869 138.938 25.9189 138.204 26.1177C137.47 26.3165 136.79 26.6772 136.214 27.1731C135.638 27.669 135.18 28.2877 134.874 28.9837C134.568 29.6797 134.422 30.4354 134.446 31.1953C134.47 31.9552 134.664 32.7 135.014 33.3751C135.364 34.0501 135.86 34.6384 136.467 35.0965C137.073 35.5547 137.775 35.8713 138.52 36.0229C138.824 36.8296 139.328 37.5459 139.985 38.1046C140.641 38.6633 141.429 39.0462 142.274 39.2173C143.119 39.3884 143.994 39.3421 144.816 39.0829C145.638 38.8237 146.381 38.3599 146.975 37.7351C147.583 38.1939 148.286 38.5106 149.033 38.6617C149.779 38.8129 150.55 38.7947 151.288 38.6085C152.027 38.4222 152.714 38.0728 153.3 37.5858C153.885 37.0988 154.354 36.4866 154.672 35.7945C155.638 35.4281 156.47 34.7763 157.058 33.9258C157.645 33.0752 157.96 32.0661 157.96 31.0325Z" fill="white"/>
<path d="M23.5191 18.7913C23.5197 18.1222 23.3885 17.4596 23.133 16.8413C22.8774 16.223 22.5025 15.6611 22.0297 15.1877C21.5569 14.7143 20.9955 14.3387 20.3775 14.0824C19.7594 13.8261 19.097 13.6941 18.4279 13.694C18.3149 13.694 18.2032 13.694 18.0926 13.705C18.1 13.5945 18.1037 13.4827 18.1037 13.3697C18.1035 12.646 17.9491 11.9305 17.6507 11.2711C17.3523 10.6117 16.9167 10.0235 16.3731 9.54572C15.8295 9.06791 15.1902 8.71148 14.498 8.50017C13.8057 8.28887 13.0764 8.22756 12.3586 8.32032C11.6408 8.41308 10.951 8.65779 10.3352 9.03812C9.71947 9.41846 9.19183 9.9257 8.78752 10.526C8.38321 11.1263 8.11151 11.8059 7.99053 12.5195C7.86955 13.2331 7.90207 13.9643 8.08593 14.6643C7.47047 14.218 6.76288 13.9151 6.01508 13.7779C5.26729 13.6408 4.49827 13.6728 3.76446 13.8716C3.03065 14.0705 2.35068 14.4311 1.77443 14.927C1.19819 15.4229 0.740304 16.0416 0.434378 16.7376C0.128451 17.4336 -0.0177518 18.1893 0.00649749 18.9492C0.0307468 19.7091 0.224833 20.4539 0.574513 21.129C0.924194 21.804 1.42059 22.3923 2.02728 22.8505C2.63398 23.3086 3.33556 23.6252 4.08055 23.7768C4.38501 24.5828 4.88899 25.2984 5.54532 25.8566C6.20165 26.4147 6.98886 26.7972 7.83329 26.9683C8.67771 27.1394 9.55173 27.0934 10.3736 26.8347C11.1954 26.576 11.9381 26.113 12.5323 25.489C13.1401 25.9478 13.8431 26.2645 14.5896 26.4156C15.336 26.5668 16.1068 26.5486 16.8453 26.3624C17.5838 26.1762 18.2711 25.8267 18.8566 25.3397C19.4421 24.8527 19.9109 24.2405 20.2286 23.5484C21.1947 23.1827 22.0269 22.5318 22.6146 21.6822C23.2023 20.8326 23.5177 19.8244 23.5191 18.7913Z" fill="white"/>
<path d="M117.202 91.251H43.9355V89.6543H117.202C117.413 89.6543 117.616 89.7384 117.766 89.8881C117.916 90.0379 118 90.2409 118 90.4527C118 90.6644 117.916 90.8675 117.766 91.0172C117.616 91.1669 117.413 91.251 117.202 91.251Z" fill="#426572"/>
<path d="M40.6587 91.251H36.1792C35.9675 91.251 35.7644 91.1669 35.6147 91.0172C35.465 90.8675 35.3809 90.6644 35.3809 90.4527C35.3809 90.2409 35.465 90.0379 35.6147 89.8881C35.7644 89.7384 35.9675 89.6543 36.1792 89.6543H40.6587C40.8705 89.6543 41.0735 89.7384 41.2233 89.8881C41.373 90.0379 41.4571 90.2409 41.4571 90.4527C41.4571 90.6644 41.373 90.8675 41.2233 91.0172C41.0735 91.1669 40.8705 91.251 40.6587 91.251Z" fill="#426572"/>
<path d="M33.2725 91.251H31.8452C31.6335 91.251 31.4304 91.1669 31.2807 91.0172C31.131 90.8675 31.0469 90.6644 31.0469 90.4527C31.0469 90.2409 31.131 90.0379 31.2807 89.8881C31.4304 89.7384 31.6335 89.6543 31.8452 89.6543H33.2725C33.4842 89.6543 33.6873 89.7384 33.837 89.8881C33.9868 90.0379 34.0709 90.2409 34.0709 90.4527C34.0709 90.6644 33.9868 90.8675 33.837 91.0172C33.6873 91.1669 33.4842 91.251 33.2725 91.251Z" fill="#426572"/>
<path d="M142.892 91.251H120.373V89.6543H142.892C143.104 89.6543 143.307 89.7384 143.457 89.8881C143.606 90.0379 143.69 90.2409 143.69 90.4527C143.69 90.6644 143.606 90.8675 143.457 91.0172C143.307 91.1669 143.104 91.251 142.892 91.251Z" fill="#426572"/>
<path d="M27.7625 91.251H5.24219V89.6543H27.7625C27.9742 89.6543 28.1773 89.7384 28.327 89.8881C28.4767 90.0379 28.5608 90.2409 28.5608 90.4527C28.5608 90.6644 28.4767 90.8675 28.327 91.0172C28.1773 91.1669 27.9742 91.251 27.7625 91.251Z" fill="#426572"/>
<path d="M34.8982 28.9326H116.924C118.405 28.9326 119.825 29.5206 120.872 30.5672C121.919 31.6138 122.507 33.0334 122.508 34.5139V87.6069H29.3145V34.5139C29.3151 33.0334 29.9037 31.6138 30.9507 30.5672C31.9978 29.5206 33.4177 28.9326 34.8982 28.9326Z" fill="#EBF0F9"/>
<path d="M119.27 33.0039H32.9238V82.3311H119.27V33.0039Z" fill="#637F91"/>
<path d="M32.2766 82.2393H119.637C119.637 82.6308 119.482 83.0065 119.206 83.2841C118.93 83.5617 118.555 83.7186 118.163 83.7205H33.7567C33.3638 83.7205 32.987 83.5645 32.7092 83.2867C32.4315 83.0089 32.2754 82.6321 32.2754 82.2393H32.2766Z" fill="white"/>
<g opacity="0.5">
<path d="M58.726 32.8203L45.8157 82.6093H39.3145L52.2248 32.8203H58.726Z" fill="#A7BCD5"/>
<path d="M75.2967 32.8203L62.3877 82.6093H48.7539L61.6642 32.8203H75.2967Z" fill="#A7BCD5"/>
</g>
<path d="M123.246 88.3435H28.5781V32.1331C28.5794 31.0892 28.9947 30.0883 29.7329 29.3501C30.4711 28.6119 31.472 28.1966 32.5159 28.1953H119.308C120.352 28.1966 121.353 28.6119 122.091 29.3501C122.829 30.0883 123.244 31.0892 123.246 32.1331V88.3435ZM30.052 86.8696H121.772V32.1331C121.771 31.4799 121.511 30.8535 121.049 30.3916C120.587 29.9297 119.961 29.6699 119.308 29.6692H32.5159C31.8627 29.6699 31.2364 29.9297 30.7744 30.3916C30.3125 30.8535 30.0527 31.4799 30.052 32.1331V86.8696Z" fill="#426572"/>
<path d="M17.5625 85.8486H136.762V86.2405C136.762 87.5109 136.257 88.7293 135.359 89.6277C134.461 90.526 133.242 91.0307 131.972 91.0307H22.3527C21.0823 91.0307 19.8639 90.526 18.9655 89.6277C18.0672 88.7293 17.5625 87.5109 17.5625 86.2405V85.8486Z" fill="#EBF0F9"/>
<path opacity="0.5" d="M136.151 88.3477C135.889 89.0291 135.426 89.615 134.824 90.0281C134.222 90.4413 133.509 90.6622 132.779 90.6617H20.8008C20.0711 90.6617 19.3586 90.4405 18.7572 90.0274C18.1557 89.6143 17.6936 89.0287 17.4316 88.3477H136.151Z" fill="#A7BCD5"/>
<path d="M131.416 91.5827H21.7967C20.3313 91.5811 18.9264 90.9983 17.8902 89.9621C16.854 88.9259 16.2712 87.5209 16.2695 86.0555V84.9268H136.943V86.0555C136.941 87.5209 136.359 88.9259 135.322 89.9621C134.286 90.9983 132.881 91.5811 131.416 91.5827ZM17.7582 86.4007C17.8446 87.4122 18.3076 88.3545 19.0554 89.0412C19.8032 89.7278 20.7815 90.1088 21.7967 90.1088H131.416C132.431 90.1088 133.409 89.7278 134.157 89.0412C134.905 88.3545 135.368 87.4122 135.454 86.4007H17.7582Z" fill="#426572"/>
<path d="M119.821 82.7901H32V32.2666H119.821V82.7901ZM33.4739 81.3162H118.347V33.7405H33.4739V81.3162Z" fill="#426572"/>
<path d="M106.071 17.1689V82.0533H47.2109V17.1689C47.2132 16.8764 47.3304 16.5966 47.5372 16.3897C47.744 16.1829 48.0239 16.0657 48.3164 16.0635H104.96C105.027 16.0635 105.094 16.0697 105.159 16.0819C105.414 16.129 105.644 16.2632 105.81 16.4616C105.977 16.66 106.069 16.9101 106.071 17.1689Z" fill="white"/>
<path d="M48.1371 21.4261H106.256V17.5227L105.145 16.0586H54.2453H49.2475L47.3965 17.5227V21.4261H48.1371Z" fill="#E2F2FF"/>
<path d="M106.993 82.7909H46.6602V17.1695C46.6621 16.6815 46.8568 16.214 47.2019 15.8689C47.547 15.5238 48.0145 15.3291 48.5026 15.3271H105.144C105.632 15.3291 106.1 15.5238 106.445 15.8689C106.79 16.214 106.985 16.6815 106.986 17.1695L106.993 82.7909ZM48.1328 81.317H105.519V17.1695C105.516 17.0726 105.477 16.9803 105.408 16.9117C105.339 16.8432 105.247 16.8036 105.15 16.8011H48.5075C48.4105 16.8036 48.3182 16.8432 48.2497 16.9117C48.1811 16.9803 48.1415 17.0726 48.139 17.1695L48.1328 81.317Z" fill="#426572"/>
<path d="M102.636 18.334H50.8598C50.4507 18.334 50.1191 18.6656 50.1191 19.0746C50.1191 19.4837 50.4507 19.8153 50.8598 19.8153H102.636C103.045 19.8153 103.377 19.4837 103.377 19.0746C103.377 18.6656 103.045 18.334 102.636 18.334Z" fill="#CADCE8"/>
<path d="M38.2296 78.5399H20.658C20.3687 78.5419 20.0835 78.4709 19.8289 78.3335C19.4604 78.1321 19.2246 77.8017 19.2246 77.4295L19.2344 53.2744C19.2347 53.1163 19.2771 52.9611 19.3573 52.8249C19.5808 52.4367 20.0856 52.1641 20.6678 52.1641H38.2394C38.8535 52.1641 39.3706 52.4613 39.577 52.8765C39.6397 52.9993 39.6725 53.1352 39.6728 53.2732L39.6642 77.4295C39.6642 77.9871 39.125 78.4526 38.4286 78.5288C38.3625 78.5362 38.2961 78.5399 38.2296 78.5399Z" fill="white"/>
<path d="M38.7084 78.3541L21.1307 78.3504C20.8413 78.3525 20.5562 78.2815 20.3016 78.144C19.9331 77.9426 19.6973 77.6122 19.6973 77.24L19.7071 53.085C19.7073 52.9269 19.7497 52.7717 19.8299 52.6354C20.0535 52.2473 20.5583 51.9746 21.1405 51.9746H21.38L21.3763 75.7588C21.3763 76.1272 21.6146 76.4613 21.9806 76.6628C22.2352 76.8002 22.5204 76.8712 22.8097 76.8691H40.143V77.2376C40.143 77.7952 39.6038 78.2607 38.9074 78.3369C38.8414 78.3464 38.775 78.3521 38.7084 78.3541Z" fill="#D6DEE9"/>
<path d="M38.4685 79.0907H20.8957C20.4813 79.0928 20.0732 78.9902 19.7092 78.7922C19.095 78.452 18.7266 77.8722 18.7266 77.2434L18.7364 53.0883C18.738 52.8002 18.8155 52.5176 18.9612 52.269C19.3296 51.6365 20.0666 51.2422 20.908 51.2422H38.4808C39.3406 51.2422 40.1082 51.6659 40.4571 52.3243L40.5553 52.4754V52.5441C40.6189 52.7194 40.6513 52.9043 40.6511 53.0907L40.6413 77.2446C40.6413 78.1707 39.827 78.9642 38.7485 79.0759C38.6555 79.0861 38.562 79.091 38.4685 79.0907ZM20.9043 52.71C20.5739 52.71 20.3159 52.8561 20.2336 53.0011C20.2176 53.0256 20.2087 53.0541 20.2079 53.0834L20.198 77.2372C20.198 77.3183 20.2877 77.4215 20.4216 77.4964C20.5675 77.5737 20.7305 77.6134 20.8957 77.6118H38.4673C38.5058 77.612 38.5444 77.61 38.5827 77.6057C38.9512 77.5664 39.1649 77.36 39.1649 77.2372L39.1747 53.0821C39.1749 53.0675 39.1724 53.0529 39.1674 53.0391L39.0986 52.9335C38.9288 52.7802 38.7057 52.6995 38.4771 52.7087H20.9043V52.71Z" fill="#426572"/>
<path d="M36.442 62.6162H24.5254V64.0901H36.442V62.6162Z" fill="#426572"/>
<path d="M36.442 59.541H24.5254V61.0149H36.442V59.541Z" fill="#426572"/>
<path d="M36.442 66.1006H24.5254V67.5745H36.442V66.1006Z" fill="#426572"/>
<path opacity="0.2" d="M131.675 34.8826C132.533 33.2712 133.06 31.5042 133.225 29.6859C133.389 27.8675 133.188 26.0346 132.633 24.2954C132.077 22.5561 131.179 20.9457 129.991 19.5592C128.803 18.1726 127.35 17.0381 125.716 16.2224C124.083 15.4067 122.303 14.9265 120.481 14.8101C118.658 14.6936 116.832 14.9433 115.108 15.5444C113.384 16.1454 111.797 17.0857 110.443 18.3097C109.088 19.5338 107.992 21.0167 107.22 22.6712C106.153 24.6738 105.602 26.9104 105.615 29.1793C105.629 31.4482 106.207 33.6781 107.297 35.6681C108.387 37.658 109.955 39.3454 111.86 40.5782C113.765 41.8111 115.946 42.5505 118.208 42.73C117.813 42.8233 117.412 42.8991 117.006 42.9572C119.147 43.2659 121.33 43.0622 123.378 42.3627C125.425 41.6632 127.276 40.4879 128.781 38.9334C129.985 37.7711 130.966 36.3982 131.675 34.8826Z" fill="#606060"/>
<path d="M117.764 39.5375C125.314 39.5375 131.435 33.417 131.435 25.8669C131.435 18.3168 125.314 12.1963 117.764 12.1963C110.214 12.1963 104.094 18.3168 104.094 25.8669C104.094 33.417 110.214 39.5375 117.764 39.5375Z" fill="#A8EF9E"/>
<path d="M130.784 26.8435C130.784 28.8035 130.362 30.7405 129.548 32.5232C128.733 34.3059 127.545 35.8926 126.063 37.1758C124.581 38.4589 122.841 39.4084 120.96 39.9601C119.079 40.5117 117.102 40.6524 115.162 40.3728C118.415 39.9026 121.39 38.2761 123.541 35.7912C125.693 33.3064 126.877 30.1296 126.877 26.8428C126.877 23.556 125.693 20.3793 123.541 17.8944C121.39 15.4096 118.415 13.7831 115.162 13.3129C117.102 13.033 119.08 13.1737 120.961 13.7253C122.842 14.2769 124.582 15.2265 126.064 16.5098C127.546 17.7931 128.735 19.38 129.549 21.163C130.364 22.9459 130.785 24.8832 130.786 26.8435H130.784Z" fill="#A7E59C"/>
<path d="M117.439 40.9235C114.589 40.9235 111.804 40.0785 109.434 38.4954C107.065 36.9123 105.218 34.6621 104.128 32.0295C103.037 29.3969 102.752 26.5 103.308 23.7052C103.864 20.9104 105.236 18.3432 107.251 16.3283C109.266 14.3133 111.833 12.9412 114.628 12.3852C117.423 11.8293 120.32 12.1146 122.952 13.2051C125.585 14.2956 127.835 16.1422 129.418 18.5116C131.001 20.8809 131.846 23.6664 131.846 26.516C131.842 30.3358 130.323 33.998 127.622 36.699C124.921 39.4 121.259 40.9193 117.439 40.9235ZM117.439 13.5836C114.881 13.5836 112.38 14.3421 110.253 15.7633C108.126 17.1844 106.469 19.2044 105.49 21.5677C104.511 23.931 104.255 26.5315 104.754 29.0404C105.253 31.5493 106.485 33.8539 108.293 35.6627C110.102 37.4715 112.407 38.7033 114.916 39.2023C117.424 39.7014 120.025 39.4452 122.388 38.4663C124.752 37.4874 126.772 35.8297 128.193 33.7027C129.614 31.5758 130.372 29.0752 130.372 26.5172C130.369 23.0881 129.005 19.8004 126.58 17.3757C124.156 14.9509 120.868 13.5871 117.439 13.5836Z" fill="#426572"/>
<path d="M86.3506 61.3004H67.4881C66.2754 61.2991 65.1127 60.8168 64.2552 59.9593C63.3977 59.1018 62.9154 57.9391 62.9141 56.7264V30.9979C62.9154 29.7852 63.3977 28.6225 64.2552 27.765C65.1127 26.9075 66.2754 26.4251 67.4881 26.4238H86.3506C87.5633 26.4251 88.726 26.9075 89.5835 27.765C90.441 28.6225 90.9234 29.7852 90.9247 30.9979V56.7264C90.9234 57.9391 90.441 59.1018 89.5835 59.9593C88.726 60.8168 87.5633 61.2991 86.3506 61.3004ZM68.6267 55.5829H85.2083V32.1414H68.6267V55.5829Z" fill="#FBC907"/>
<path opacity="0.6" d="M90.9601 40.4326V57.874C90.9588 59.0867 90.4765 60.2494 89.619 61.1069C88.7614 61.9644 87.5988 62.4468 86.386 62.4481H67.5174C66.3047 62.4468 65.142 61.9644 64.2845 61.1069C63.427 60.2494 62.9447 59.0867 62.9434 57.874V40.4326H68.6634V56.7268H85.245V40.4326H90.9601Z" fill="#F3A70F"/>
<path d="M86.3512 62.7529H67.4888C66.0807 62.7512 64.7308 62.1912 63.7351 61.1955C62.7394 60.1998 62.1794 58.8499 62.1777 57.4418V31.7133C62.1807 30.3061 62.7413 28.9574 63.7368 27.9628C64.7323 26.9682 66.0815 26.4088 67.4888 26.4072H86.3512C87.7593 26.4089 89.1092 26.9689 90.1049 27.9646C91.1006 28.9602 91.6606 30.3102 91.6623 31.7182V57.4418C91.6606 58.8499 91.1006 60.1998 90.1049 61.1955C89.1092 62.1912 87.7593 62.7512 86.3512 62.7529ZM67.4888 27.8811C66.4715 27.8824 65.4963 28.2871 64.777 29.0064C64.0576 29.7258 63.653 30.701 63.6517 31.7182V57.4418C63.6526 58.4592 64.0572 59.4346 64.7766 60.154C65.496 60.8734 66.4714 61.278 67.4888 61.2789H86.3512C87.3686 61.278 88.344 60.8734 89.0634 60.154C89.7828 59.4346 90.1874 58.4592 90.1883 57.4418V31.7133C90.1857 30.6969 89.7805 29.723 89.0613 29.0047C88.3421 28.2864 87.3677 27.8824 86.3512 27.8811H67.4888ZM85.9496 57.0402H67.8941V32.1199H85.9496V57.0402ZM69.368 55.5663H84.4757V33.5938H69.368V55.5663Z" fill="#426572"/>
<path d="M92.9704 43.6191H60.5872C59.7732 43.6191 59.1133 44.279 59.1133 45.0931V73.7903C59.1133 74.6043 59.7732 75.2642 60.5872 75.2642H92.9704C93.7845 75.2642 94.4444 74.6043 94.4444 73.7903V45.0931C94.4444 44.279 93.7845 43.6191 92.9704 43.6191Z" fill="#FBC907"/>
<path opacity="0.6" d="M94.7308 45.3075V73.6657C94.7295 74.1012 94.556 74.5184 94.248 74.8263C93.9401 75.1343 93.5229 75.3078 93.0874 75.3091H77.3496V43.6641H93.0874C93.5229 43.6654 93.9401 43.8389 94.248 44.1468C94.556 44.4548 94.7295 44.872 94.7308 45.3075Z" fill="#F3A70F"/>
<path d="M92.9711 75.6932H60.5878C60.0015 75.6932 59.4391 75.4603 59.0245 75.0456C58.6099 74.631 58.377 74.0687 58.377 73.4823V44.7851C58.377 44.1987 58.6099 43.6364 59.0245 43.2218C59.4391 42.8071 60.0015 42.5742 60.5878 42.5742H92.9711C93.5574 42.5742 94.1198 42.8071 94.5344 43.2218C94.949 43.6364 95.182 44.1987 95.182 44.7851V73.4823C95.182 74.0687 94.949 74.631 94.5344 75.0456C94.1198 75.4603 93.5574 75.6932 92.9711 75.6932ZM60.5878 44.0481C60.3924 44.0481 60.2049 44.1258 60.0667 44.264C59.9285 44.4022 59.8509 44.5896 59.8509 44.7851V73.4823C59.8509 73.6778 59.9285 73.8652 60.0667 74.0034C60.2049 74.1416 60.3924 74.2193 60.5878 74.2193H92.9711C93.1665 74.2193 93.354 74.1416 93.4922 74.0034C93.6304 73.8652 93.708 73.6778 93.708 73.4823V44.7851C93.708 44.5896 93.6304 44.4022 93.4922 44.264C93.354 44.1258 93.1665 44.0481 92.9711 44.0481H60.5878Z" fill="#426572"/>
<path d="M124.591 21.295C124.296 21.1302 123.949 21.086 123.622 21.1716C123.295 21.2573 123.014 21.4661 122.838 21.7544L120.471 25.6234L116.689 31.7991L116.584 31.9723L112.217 28.4791L111.421 27.8429C110.899 27.4253 110.112 27.2938 109.61 27.8429C109.182 28.3084 109.051 29.2075 109.61 29.6546L115.224 34.1451L116.02 34.7813C116.35 35.0467 116.665 35.1916 117.096 35.1339C117.289 35.1102 117.473 35.0424 117.636 34.9359C117.798 34.8295 117.934 34.687 118.032 34.5197L120.399 30.6507L124.182 24.4762L125.055 23.049C125.4 22.4766 125.194 21.6168 124.591 21.295Z" fill="white"/>
</g>
<defs>
<linearGradient id="paint0_linear_488_1047" x1="0.167058" y1="45.5913" x2="154.103" y2="45.5913" gradientUnits="userSpaceOnUse">
<stop stop-color="#C5E9FA"/>
<stop offset="1" stop-color="#C4F4EA"/>
</linearGradient>
<clipPath id="clip0_488_1047">
<rect width="157.96" height="91.5832" fill="white"/>
</clipPath>
</defs>
</svg>
