<svg width="18" height="19" viewBox="0 0 18 19" fill="none" xmlns="http://www.w3.org/2000/svg">
<path d="M15.1875 6.6875H11.25V2.75C11.25 2.30245 11.0722 1.87322 10.7557 1.55676C10.4393 1.24029 10.0101 1.0625 9.5625 1.0625H2.8125C2.36495 1.0625 1.93572 1.24029 1.61926 1.55676C1.30279 1.87322 1.125 2.30245 1.125 2.75V17.375C1.125 17.5242 1.18426 17.6673 1.28975 17.7727C1.39524 17.8782 1.53832 17.9375 1.6875 17.9375H5.34375C5.41834 17.9375 5.48988 17.9079 5.54262 17.8551C5.59537 17.8024 5.625 17.7308 5.625 17.6562V15.1408C5.625 14.8381 5.85773 14.5783 6.16043 14.5632C6.23649 14.5595 6.31249 14.5714 6.38385 14.5979C6.4552 14.6245 6.52042 14.6653 6.57554 14.7178C6.63066 14.7704 6.67455 14.8335 6.70454 14.9035C6.73453 14.9735 6.74999 15.0489 6.75 15.125V17.6562C6.75 17.7308 6.77963 17.8024 6.83238 17.8551C6.88512 17.9079 6.95666 17.9375 7.03125 17.9375H16.3125C16.4617 17.9375 16.6048 17.8782 16.7102 17.7727C16.8157 17.6673 16.875 17.5242 16.875 17.375V8.375C16.875 7.92745 16.6972 7.49822 16.3807 7.18176C16.0643 6.86529 15.6351 6.6875 15.1875 6.6875ZM3.44813 15.6829C3.33163 15.6982 3.21328 15.6765 3.1097 15.6211C3.00612 15.5656 2.9225 15.4791 2.87058 15.3738C2.81866 15.2684 2.80105 15.1493 2.82021 15.0334C2.83938 14.9175 2.89435 14.8105 2.97743 14.7274C3.06051 14.6444 3.16752 14.5894 3.28343 14.5702C3.39935 14.551 3.51836 14.5687 3.62375 14.6206C3.72915 14.6725 3.81564 14.7561 3.87109 14.8597C3.92654 14.9633 3.94817 15.0816 3.93293 15.1981C3.91685 15.3211 3.8606 15.4353 3.77293 15.5229C3.68525 15.6106 3.57107 15.6669 3.44813 15.6829ZM3.44813 12.8704C3.33163 12.8857 3.21328 12.864 3.1097 12.8086C3.00612 12.7531 2.9225 12.6666 2.87058 12.5613C2.81866 12.4559 2.80105 12.3368 2.82021 12.2209C2.83938 12.105 2.89435 11.998 2.97743 11.9149C3.06051 11.8319 3.16752 11.7769 3.28343 11.7577C3.39935 11.7385 3.51836 11.7562 3.62375 11.8081C3.72915 11.86 3.81564 11.9436 3.87109 12.0472C3.92654 12.1508 3.94817 12.2691 3.93293 12.3856C3.91685 12.5086 3.8606 12.6228 3.77293 12.7104C3.68525 12.7981 3.57107 12.8544 3.44813 12.8704ZM3.44813 10.0579C3.33163 10.0732 3.21328 10.0515 3.1097 9.99609C3.00612 9.94064 2.9225 9.85415 2.87058 9.74875C2.81866 9.64336 2.80105 9.52435 2.82021 9.40843C2.83938 9.29252 2.89435 9.18551 2.97743 9.10243C3.06051 9.01935 3.16752 8.96438 3.28343 8.94521C3.39935 8.92605 3.51836 8.94366 3.62375 8.99558C3.72915 9.0475 3.81564 9.13112 3.87109 9.2347C3.92654 9.33828 3.94817 9.45663 3.93293 9.57312C3.91685 9.69607 3.8606 9.81025 3.77293 9.89793C3.68525 9.9856 3.57107 10.0419 3.44813 10.0579ZM3.44813 7.24543C3.33163 7.26067 3.21328 7.23904 3.1097 7.18359C3.00612 7.12814 2.9225 7.04165 2.87058 6.93625C2.81866 6.83086 2.80105 6.71185 2.82021 6.59593C2.83938 6.48002 2.89435 6.37301 2.97743 6.28993C3.06051 6.20685 3.16752 6.15188 3.28343 6.13271C3.39935 6.11355 3.51836 6.13116 3.62375 6.18308C3.72915 6.235 3.81564 6.31862 3.87109 6.4222C3.92654 6.52578 3.94817 6.64413 3.93293 6.76062C3.91685 6.88357 3.8606 6.99775 3.77293 7.08543C3.68525 7.1731 3.57107 7.22935 3.44813 7.24543ZM3.44813 4.43293C3.33163 4.44817 3.21328 4.42654 3.1097 4.37109C3.00612 4.31564 2.9225 4.22915 2.87058 4.12375C2.81866 4.01836 2.80105 3.89935 2.82021 3.78343C2.83938 3.66752 2.89435 3.56051 2.97743 3.47743C3.06051 3.39435 3.16752 3.33938 3.28343 3.32021C3.39935 3.30105 3.51836 3.31866 3.62375 3.37058C3.72915 3.4225 3.81564 3.50612 3.87109 3.6097C3.92654 3.71328 3.94817 3.83163 3.93293 3.94813C3.91685 4.07107 3.8606 4.18525 3.77293 4.27293C3.68525 4.3606 3.57107 4.41685 3.44813 4.43293ZM6.26062 12.8704C6.14413 12.8857 6.02578 12.864 5.9222 12.8086C5.81862 12.7531 5.735 12.6666 5.68308 12.5613C5.63116 12.4559 5.61355 12.3368 5.63271 12.2209C5.65188 12.105 5.70685 11.998 5.78993 11.9149C5.87301 11.8319 5.98002 11.7769 6.09593 11.7577C6.21185 11.7385 6.33086 11.7562 6.43625 11.8081C6.54165 11.86 6.62814 11.9436 6.68359 12.0472C6.73904 12.1508 6.76067 12.2691 6.74543 12.3856C6.72935 12.5086 6.6731 12.6228 6.58543 12.7104C6.49775 12.7981 6.38357 12.8544 6.26062 12.8704ZM6.26062 10.0579C6.14413 10.0732 6.02578 10.0515 5.9222 9.99609C5.81862 9.94064 5.735 9.85415 5.68308 9.74875C5.63116 9.64336 5.61355 9.52435 5.63271 9.40843C5.65188 9.29252 5.70685 9.18551 5.78993 9.10243C5.87301 9.01935 5.98002 8.96438 6.09593 8.94521C6.21185 8.92605 6.33086 8.94366 6.43625 8.99558C6.54165 9.0475 6.62814 9.13112 6.68359 9.2347C6.73904 9.33828 6.76067 9.45663 6.74543 9.57312C6.72935 9.69607 6.6731 9.81025 6.58543 9.89793C6.49775 9.9856 6.38357 10.0419 6.26062 10.0579ZM6.26062 7.24543C6.14413 7.26067 6.02578 7.23904 5.9222 7.18359C5.81862 7.12814 5.735 7.04165 5.68308 6.93625C5.63116 6.83086 5.61355 6.71185 5.63271 6.59593C5.65188 6.48002 5.70685 6.37301 5.78993 6.28993C5.87301 6.20685 5.98002 6.15188 6.09593 6.13271C6.21185 6.11355 6.33086 6.13116 6.43625 6.18308C6.54165 6.235 6.62814 6.31862 6.68359 6.4222C6.73904 6.52578 6.76067 6.64413 6.74543 6.76062C6.72935 6.88357 6.6731 6.99775 6.58543 7.08543C6.49775 7.1731 6.38357 7.22935 6.26062 7.24543ZM6.26062 4.43293C6.14413 4.44817 6.02578 4.42654 5.9222 4.37109C5.81862 4.31564 5.735 4.22915 5.68308 4.12375C5.63116 4.01836 5.61355 3.89935 5.63271 3.78343C5.65188 3.66752 5.70685 3.56051 5.78993 3.47743C5.87301 3.39435 5.98002 3.33938 6.09593 3.32021C6.21185 3.30105 6.33086 3.31866 6.43625 3.37058C6.54165 3.4225 6.62814 3.50612 6.68359 3.6097C6.73904 3.71328 6.76067 3.83163 6.74543 3.94813C6.72935 4.07107 6.6731 4.18525 6.58543 4.27293C6.49775 4.3606 6.38357 4.41685 6.26062 4.43293ZM9.07312 15.6829C8.95663 15.6982 8.83828 15.6765 8.7347 15.6211C8.63112 15.5656 8.5475 15.4791 8.49558 15.3738C8.44366 15.2684 8.42605 15.1493 8.44521 15.0334C8.46438 14.9175 8.51935 14.8105 8.60243 14.7274C8.68551 14.6444 8.79252 14.5894 8.90843 14.5702C9.02435 14.551 9.14336 14.5687 9.24875 14.6206C9.35415 14.6725 9.44064 14.7561 9.49609 14.8597C9.55154 14.9633 9.57317 15.0816 9.55793 15.1981C9.54185 15.3211 9.4856 15.4353 9.39793 15.5229C9.31025 15.6106 9.19607 15.6669 9.07312 15.6829ZM9.07312 12.8704C8.95663 12.8857 8.83828 12.864 8.7347 12.8086C8.63112 12.7531 8.5475 12.6666 8.49558 12.5613C8.44366 12.4559 8.42605 12.3368 8.44521 12.2209C8.46438 12.105 8.51935 11.998 8.60243 11.9149C8.68551 11.8319 8.79252 11.7769 8.90843 11.7577C9.02435 11.7385 9.14336 11.7562 9.24875 11.8081C9.35415 11.86 9.44064 11.9436 9.49609 12.0472C9.55154 12.1508 9.57317 12.2691 9.55793 12.3856C9.54185 12.5086 9.4856 12.6228 9.39793 12.7104C9.31025 12.7981 9.19607 12.8544 9.07312 12.8704ZM9.07312 10.0579C8.95663 10.0732 8.83828 10.0515 8.7347 9.99609C8.63112 9.94064 8.5475 9.85415 8.49558 9.74875C8.44366 9.64336 8.42605 9.52435 8.44521 9.40843C8.46438 9.29252 8.51935 9.18551 8.60243 9.10243C8.68551 9.01935 8.79252 8.96438 8.90843 8.94521C9.02435 8.92605 9.14336 8.94366 9.24875 8.99558C9.35415 9.0475 9.44064 9.13112 9.49609 9.2347C9.55154 9.33828 9.57317 9.45663 9.55793 9.57312C9.54185 9.69607 9.4856 9.81025 9.39793 9.89793C9.31025 9.9856 9.19607 10.0419 9.07312 10.0579ZM9.07312 7.24543C8.95663 7.26067 8.83828 7.23904 8.7347 7.18359C8.63112 7.12814 8.5475 7.04165 8.49558 6.93625C8.44366 6.83086 8.42605 6.71185 8.44521 6.59593C8.46438 6.48002 8.51935 6.37301 8.60243 6.28993C8.68551 6.20685 8.79252 6.15188 8.90843 6.13271C9.02435 6.11355 9.14336 6.13116 9.24875 6.18308C9.35415 6.235 9.44064 6.31862 9.49609 6.4222C9.55154 6.52578 9.57317 6.64413 9.55793 6.76062C9.54185 6.88357 9.4856 6.99775 9.39793 7.08543C9.31025 7.1731 9.19607 7.22935 9.07312 7.24543ZM9.07312 4.43293C8.95663 4.44817 8.83828 4.42654 8.7347 4.37109C8.63112 4.31564 8.5475 4.22915 8.49558 4.12375C8.44366 4.01836 8.42605 3.89935 8.44521 3.78343C8.46438 3.66752 8.51935 3.56051 8.60243 3.47743C8.68551 3.39435 8.79252 3.33938 8.90843 3.32021C9.02435 3.30105 9.14336 3.31866 9.24875 3.37058C9.35415 3.4225 9.44064 3.50612 9.49609 3.6097C9.55154 3.71328 9.57317 3.83163 9.55793 3.94813C9.54185 4.07107 9.4856 4.18525 9.39793 4.27293C9.31025 4.3606 9.19607 4.41685 9.07312 4.43293ZM15.6094 16.8125H11.25V7.8125H15.1875C15.3367 7.8125 15.4798 7.87176 15.5852 7.97725C15.6907 8.08274 15.75 8.22582 15.75 8.375V16.6719C15.75 16.7092 15.7352 16.7449 15.7088 16.7713C15.6824 16.7977 15.6467 16.8125 15.6094 16.8125Z" fill="#4F4B6A"/>
<path d="M14.0625 14.5625C13.9512 14.5625 13.8425 14.5955 13.75 14.6573C13.6575 14.7191 13.5854 14.807 13.5428 14.9097C13.5002 15.0125 13.4891 15.1256 13.5108 15.2347C13.5325 15.3439 13.5861 15.4441 13.6648 15.5227C13.7434 15.6014 13.8436 15.655 13.9528 15.6767C14.0619 15.6984 14.175 15.6873 14.2778 15.6447C14.3805 15.6021 14.4684 15.53 14.5302 15.4375C14.592 15.345 14.625 15.2363 14.625 15.125C14.625 14.9758 14.5657 14.8327 14.4602 14.7273C14.3548 14.6218 14.2117 14.5625 14.0625 14.5625ZM14.0625 11.75C13.9512 11.75 13.8425 11.783 13.75 11.8448C13.6575 11.9066 13.5854 11.9945 13.5428 12.0972C13.5002 12.2 13.4891 12.3131 13.5108 12.4222C13.5325 12.5314 13.5861 12.6316 13.6648 12.7102C13.7434 12.7889 13.8436 12.8425 13.9528 12.8642C14.0619 12.8859 14.175 12.8748 14.2778 12.8322C14.3805 12.7896 14.4684 12.7175 14.5302 12.625C14.592 12.5325 14.625 12.4238 14.625 12.3125C14.625 12.1633 14.5657 12.0202 14.4602 11.9148C14.3548 11.8093 14.2117 11.75 14.0625 11.75ZM14.0625 8.9375C13.9512 8.9375 13.8425 8.97049 13.75 9.0323C13.6575 9.09411 13.5854 9.18196 13.5428 9.28474C13.5002 9.38752 13.4891 9.50062 13.5108 9.60974C13.5325 9.71885 13.5861 9.81908 13.6648 9.89775C13.7434 9.97642 13.8436 10.03 13.9528 10.0517C14.0619 10.0734 14.175 10.0623 14.2778 10.0197C14.3805 9.97711 14.4684 9.90501 14.5302 9.81251C14.592 9.72001 14.625 9.61125 14.625 9.5C14.625 9.35082 14.5657 9.20774 14.4602 9.10225C14.3548 8.99676 14.2117 8.9375 14.0625 8.9375ZM11.8125 14.5625C11.7012 14.5625 11.5925 14.5955 11.5 14.6573C11.4075 14.7191 11.3354 14.807 11.2928 14.9097C11.2502 15.0125 11.2391 15.1256 11.2608 15.2347C11.2825 15.3439 11.3361 15.4441 11.4148 15.5227C11.4934 15.6014 11.5936 15.655 11.7028 15.6767C11.8119 15.6984 11.925 15.6873 12.0278 15.6447C12.1305 15.6021 12.2184 15.53 12.2802 15.4375C12.342 15.345 12.375 15.2363 12.375 15.125C12.375 14.9758 12.3157 14.8327 12.2102 14.7273C12.1048 14.6218 11.9617 14.5625 11.8125 14.5625ZM11.8125 11.75C11.7012 11.75 11.5925 11.783 11.5 11.8448C11.4075 11.9066 11.3354 11.9945 11.2928 12.0972C11.2502 12.2 11.2391 12.3131 11.2608 12.4222C11.2825 12.5314 11.3361 12.6316 11.4148 12.7102C11.4934 12.7889 11.5936 12.8425 11.7028 12.8642C11.8119 12.8859 11.925 12.8748 12.0278 12.8322C12.1305 12.7896 12.2184 12.7175 12.2802 12.625C12.342 12.5325 12.375 12.4238 12.375 12.3125C12.375 12.1633 12.3157 12.0202 12.2102 11.9148C12.1048 11.8093 11.9617 11.75 11.8125 11.75ZM11.8125 8.9375C11.7012 8.9375 11.5925 8.97049 11.5 9.0323C11.4075 9.09411 11.3354 9.18196 11.2928 9.28474C11.2502 9.38752 11.2391 9.50062 11.2608 9.60974C11.2825 9.71885 11.3361 9.81908 11.4148 9.89775C11.4934 9.97642 11.5936 10.03 11.7028 10.0517C11.8119 10.0734 11.925 10.0623 12.0278 10.0197C12.1305 9.97711 12.2184 9.90501 12.2802 9.81251C12.342 9.72001 12.375 9.61125 12.375 9.5C12.375 9.35082 12.3157 9.20774 12.2102 9.10225C12.1048 8.99676 11.9617 8.9375 11.8125 8.9375Z" fill="#4F4B6A"/>
</svg>
