<svg width="18" height="18" viewBox="0 0 18 18" fill="none" xmlns="http://www.w3.org/2000/svg">
<path d="M9 12.9378C8.90208 12.9378 8.80586 12.9123 8.72086 12.8637L3.79688 10.0494C3.75409 10.0247 3.70555 10.0117 3.65615 10.0117C3.60674 10.0117 3.55821 10.0248 3.51545 10.0495C3.47268 10.0742 3.43718 10.1098 3.41252 10.1526C3.38787 10.1954 3.37493 10.244 3.375 10.2934V12.9378C3.37492 13.0382 3.4017 13.1368 3.45258 13.2234C3.50346 13.3099 3.57657 13.3813 3.66434 13.43L8.72684 16.2425C8.8104 16.2889 8.90441 16.3133 9 16.3133C9.09559 16.3133 9.1896 16.2889 9.27316 16.2425L14.3357 13.43C14.4234 13.3813 14.4965 13.3099 14.5474 13.2234C14.5983 13.1368 14.6251 13.0382 14.625 12.9378V10.2934C14.6251 10.244 14.6121 10.1954 14.5875 10.1526C14.5628 10.1098 14.5273 10.0742 14.4846 10.0495C14.4418 10.0248 14.3933 10.0117 14.3439 10.0117C14.2944 10.0117 14.2459 10.0247 14.2031 10.0494L9.27914 12.8637C9.19414 12.9123 9.09792 12.9378 9 12.9378Z" fill="#2F80ED"/>
<path d="M17.4353 6.69724V6.69337C17.4262 6.60421 17.396 6.51851 17.347 6.44341C17.2981 6.36832 17.232 6.306 17.1541 6.26165L9.27909 1.76165C9.19408 1.71306 9.09786 1.6875 8.99995 1.6875C8.90203 1.6875 8.80581 1.71306 8.72081 1.76165L0.845806 6.26165C0.759739 6.31086 0.688206 6.38194 0.638454 6.46769C0.588703 6.55345 0.5625 6.65083 0.5625 6.74997C0.5625 6.84911 0.588703 6.94649 0.638454 7.03225C0.688206 7.118 0.759739 7.18908 0.845806 7.23829L8.72081 11.7383C8.80581 11.7869 8.90203 11.8124 8.99995 11.8124C9.09786 11.8124 9.19408 11.7869 9.27909 11.7383L16.2077 7.77934C16.2184 7.77316 16.2305 7.76991 16.2429 7.76992C16.2553 7.76994 16.2674 7.77321 16.2781 7.77941C16.2888 7.78562 16.2977 7.79453 16.3038 7.80526C16.31 7.81599 16.3132 7.82815 16.3131 7.84052V12.9216C16.3131 13.2243 16.5459 13.4841 16.8486 13.4993C16.9246 13.5029 17.0006 13.4911 17.072 13.4645C17.1433 13.438 17.2086 13.3972 17.2637 13.3446C17.3188 13.2921 17.3627 13.2289 17.3927 13.159C17.4227 13.089 17.4381 13.0136 17.4381 12.9375V6.74997C17.4381 6.73236 17.4372 6.71475 17.4353 6.69724Z" fill="#2F80ED"/>
</svg>
