<svg width="75" height="90" viewBox="0 0 75 90" fill="none" xmlns="http://www.w3.org/2000/svg">
<g clip-path="url(#clip0_488_846)">
<path d="M37.167 70.7112C55.5094 70.7112 70.3789 55.1605 70.3789 35.9777C70.3789 16.7949 55.5094 1.24414 37.167 1.24414C18.8246 1.24414 3.95508 16.7949 3.95508 35.9777C3.95508 55.1605 18.8246 70.7112 37.167 70.7112Z" fill="#3B4EFF"/>
<path d="M62.4118 76.1495C57.4153 78.5044 52.857 79.2321 52.2269 77.771C51.5969 76.3099 55.1361 73.2159 60.1272 70.8552C65.1183 68.4946 69.6821 67.7726 70.3121 69.2337C70.9422 70.6948 67.4084 73.7888 62.4118 76.1495Z" fill="#2E2E2E"/>
<path d="M60.3411 88.9893L57.9579 83.082L56.0568 78.3321L54.446 74.3213L50.9178 65.5319C49.0605 60.9137 50.8191 55.7627 54.7528 54.3188C55.4245 54.0767 56.1298 53.9528 56.8402 53.9521H57.032C60.0891 54.0438 63.0586 56.393 64.2584 60.0027L67.1292 68.5629L68.4113 72.4018L73.9557 88.9836" fill="#F5F5FF"/>
<path d="M60.3411 88.9893L57.9579 83.082L56.0568 78.3321L54.446 74.3213L50.9178 65.5319C49.0605 60.9137 50.8191 55.7627 54.7528 54.3188C55.4245 54.0767 56.1298 53.9528 56.8402 53.9521H57.032C60.0891 54.0438 63.0586 56.393 64.2584 60.0027L67.1292 68.5629L68.4113 72.4018L73.9557 88.9836" stroke="#2E2E2E" stroke-width="0.4167" stroke-linecap="round" stroke-linejoin="round"/>
<path d="M70.2074 69.0545C69.2815 67.8341 64.9095 68.6018 60.132 70.8536C55.1354 73.2085 51.5907 76.3083 52.2263 77.7694C52.2413 77.8001 52.2597 77.829 52.281 77.8553L52.2263 77.884L46.7092 64.3504C44.5177 59.0389 46.8845 52.9826 51.8044 51.1721C52.7102 50.835 53.6645 50.6625 54.6259 50.6621C56.3518 50.6973 58.0352 51.2279 59.4923 52.196C60.9493 53.164 62.1239 54.5323 62.8878 56.1512L70.2074 69.0545Z" fill="#2E2E2E"/>
<path d="M11.9203 76.1495C16.9169 78.5044 21.4751 79.2321 22.1052 77.771C22.7352 76.3099 19.196 73.2159 14.2049 70.8552C9.21379 68.4946 4.65003 67.7726 4.01998 69.2337C3.38993 70.6948 6.9237 73.7888 11.9203 76.1495Z" fill="#2E2E2E"/>
<path d="M0.382812 88.9893L5.92726 72.4133L7.20928 68.5686L10.0966 60.0085C11.3238 56.3242 14.3919 53.9521 17.5092 53.9521H17.5531C18.2487 53.9585 18.9388 54.0823 19.5966 54.3188C23.5249 55.7627 25.289 60.9137 23.4317 65.5319L19.9034 74.3213L18.2927 78.3321L16.5833 82.595L14.0083 89.0008" fill="#F5F5FF"/>
<path d="M0.382812 88.9893L5.92726 72.4133L7.20928 68.5686L10.0966 60.0085C11.3238 56.3242 14.3919 53.9521 17.5092 53.9521H17.5531C18.2487 53.9585 18.9388 54.0823 19.5966 54.3188C23.5249 55.7627 25.289 60.9137 23.4317 65.5319L19.9034 74.3213L18.2927 78.3321L16.5833 82.595L14.0083 89.0008" stroke="#2E2E2E" stroke-width="0.4167" stroke-linecap="round" stroke-linejoin="round"/>
<path d="M4.125 69.0545C5.0509 67.8341 9.42291 68.6018 14.2003 70.8536C19.1969 73.2085 22.7416 76.3083 22.1061 77.7694C22.0911 77.8001 22.0727 77.829 22.0513 77.8553L22.1061 77.884L27.6286 64.3504C29.7927 59.0389 27.4533 52.9826 22.5334 51.1721C21.6275 50.8354 20.6733 50.663 19.7119 50.6621C17.9851 50.6963 16.3005 51.2264 14.8424 52.1945C13.3843 53.1626 12.2088 54.5314 11.4445 56.1512L4.125 69.0545Z" fill="#2E2E2E"/>
<path d="M46.0037 23.699C44.645 25.9909 44.7765 28.6724 46.2941 29.7209C47.8117 30.7694 50.1291 29.7782 51.4933 27.5035C52.8575 25.2288 52.7206 22.5301 51.1865 21.4816C49.6525 20.433 47.3514 21.4243 46.0037 23.699Z" fill="#F5F5FF" stroke="#2E2E2E" stroke-width="0.4167" stroke-linecap="round" stroke-linejoin="round"/>
<path d="M50.0898 22.5693C50.422 22.702 50.7149 22.9238 50.9389 23.2126C51.1629 23.5014 51.3101 23.8469 51.3656 24.2141C51.4212 24.5814 51.3832 24.9575 51.2554 25.3045C51.1276 25.6515 50.9145 25.9571 50.6377 26.1905" stroke="#2E2E2E" stroke-width="0.4167" stroke-linecap="round" stroke-linejoin="round"/>
<path d="M27.712 23.699C29.0653 25.9909 28.9338 28.6724 27.4162 29.7209C25.8986 30.7694 23.5811 29.7782 22.2169 27.5035C20.8527 25.2288 20.9951 22.5301 22.5072 21.4816C24.0194 20.433 26.3533 21.4243 27.712 23.699Z" fill="#F5F5FF" stroke="#2E2E2E" stroke-width="0.4167" stroke-linecap="round" stroke-linejoin="round"/>
<path d="M23.6483 22.5693C23.3161 22.702 23.0233 22.9238 22.7993 23.2126C22.5753 23.5014 22.4281 23.8469 22.3725 24.2141C22.3169 24.5814 22.355 24.9575 22.4828 25.3045C22.6106 25.6515 22.8236 25.9571 23.1004 26.1905" stroke="#2E2E2E" stroke-width="0.4167" stroke-linecap="round" stroke-linejoin="round"/>
<path d="M43.5819 49.2067C43.6116 51.012 42.9545 52.7557 41.7549 54.0543C40.5554 55.3529 38.9117 56.0999 37.1855 56.1311C35.4593 56.1622 33.7919 55.4749 32.5502 54.2204C31.3085 52.9659 30.5942 51.2469 30.5645 49.4416C30.5645 49.3614 30.5645 49.2869 30.5645 49.2067L31.2876 39.0651L31.463 36.4982L31.8246 31.4561H42.2889L42.8367 39.4204L43.2477 45.2188L43.5819 49.2067Z" fill="#F5F5FF" stroke="#2E2E2E" stroke-width="0.432133" stroke-linecap="round" stroke-linejoin="round"/>
<path d="M43.2934 45.2188C39.8582 45.4767 36.0724 43.689 33.4755 40.2168C32.6228 39.0953 31.9443 37.8404 31.4648 36.4982L31.8264 31.4561H42.2908L42.8386 39.4204L43.2934 45.2188Z" fill="#2E2E2E"/>
<path d="M48.3162 29.9613C47.864 31.137 47.2928 32.2588 46.6124 33.3074C45.2872 35.4127 43.5982 37.2412 41.6322 38.6991C40.6438 39.4038 39.5147 39.8635 38.3308 40.0432C37.147 40.2229 35.9395 40.1179 34.8003 39.7362C33.0252 39.1059 31.5569 37.7766 30.2475 36.3728C28.5501 34.6728 27.2006 32.6299 26.2809 30.3681C25.6517 28.5079 25.3131 26.5539 25.2783 24.5811C25.2454 23.5211 25.2783 22.4553 25.2783 21.3896C25.3605 19.6363 25.5193 17.9002 25.6673 16.2959C25.834 14.4024 26.424 12.5764 27.3898 10.9653C28.3556 9.35416 29.67 8.00307 31.227 7.02106C32.784 6.03904 34.5399 5.45361 36.3531 5.312C38.1663 5.1704 39.9859 5.47659 41.6651 6.20587C43.319 6.93896 44.7903 8.05865 45.9661 9.47898C47.1419 10.8993 47.9908 12.5825 48.4477 14.3994C49.0339 16.8345 48.8805 19.3556 48.886 21.848C48.886 22.0027 48.886 22.1459 48.886 22.3006C48.886 23.0398 48.9353 23.7846 48.9463 24.5352C49.0875 26.3698 48.8732 28.2153 48.3162 29.9613Z" fill="#F5F5FF" stroke="#2E2E2E" stroke-width="0.4167" stroke-linecap="round" stroke-linejoin="round"/>
<path d="M35.2977 17.7617C36.3099 17.841 37.3236 17.6289 38.2288 17.1486C38.6743 16.907 39.0598 16.5601 39.3546 16.1354C39.6494 15.7107 39.8455 15.2199 39.9272 14.702C40.2652 15.3919 40.7402 15.9984 41.3205 16.4808C41.9007 16.9631 42.5728 17.3103 43.2917 17.4991C44.0107 17.6879 44.7599 17.7139 45.4892 17.5754C46.2185 17.4369 46.9111 17.1371 47.5207 16.696C49.0273 15.6073 49.8929 13.4816 49.241 11.6997C48.5178 9.73439 46.3537 8.83482 44.3704 8.35926C40.4842 7.49284 36.4583 7.58701 32.6131 8.63428C31.4297 8.95515 28.148 9.58542 27.6823 10.9262C27.2166 12.2669 29.1013 14.5015 29.9614 15.338C31.4102 16.7803 33.3009 17.639 35.2977 17.7617Z" fill="#2E2E2E"/>
<path d="M40.1148 19.1551C40.6289 18.8419 41.1821 18.6047 41.7584 18.4503C42.3645 18.2856 42.9897 18.2103 43.6157 18.2268C44.2752 18.2434 44.9228 18.4137 45.5113 18.7253C46.0901 19.0262 46.5566 19.5201 46.8372 20.1291C46.307 19.939 45.7535 19.829 45.1936 19.8025C44.6934 19.7954 44.1939 19.8434 43.7034 19.9458C42.7172 20.1291 41.7091 20.4901 40.5805 20.639C40.4061 20.6613 40.2297 20.6202 40.0808 20.5227C39.9318 20.4252 39.8194 20.2772 39.7623 20.1035C39.7052 19.9297 39.7069 19.7407 39.7671 19.5681C39.8273 19.3954 39.9423 19.2496 40.0929 19.1551H40.1148Z" fill="#2E2E2E"/>
<path d="M34.8211 20.6279C33.687 20.4789 32.6844 20.1179 31.6983 19.9346C31.2077 19.8324 30.7082 19.7844 30.2081 19.7913C29.6481 19.8178 29.0947 19.9278 28.5645 20.1179C28.8429 19.5094 29.3076 19.0154 29.8848 18.7141C30.4735 18.4031 31.1211 18.2328 31.7805 18.2157C32.4125 18.2007 33.0434 18.2798 33.6542 18.4506C34.2307 18.6044 34.7839 18.8416 35.2978 19.1553C35.4721 19.2648 35.5977 19.4422 35.647 19.6485C35.6963 19.8547 35.6653 20.0731 35.5608 20.2554C35.4829 20.3835 35.3724 20.4862 35.2417 20.552C35.111 20.6178 34.9654 20.6441 34.8211 20.6279V20.6279Z" fill="#2E2E2E"/>
<path d="M34.7498 24.6038C34.5197 24.4147 34.306 24.2142 34.0868 24.0308C33.8842 23.8434 33.6596 23.6836 33.4184 23.5553C32.9518 23.2917 32.4311 23.1502 31.9008 23.1427C31.3765 23.1353 30.857 23.2468 30.3778 23.4693C30.1349 23.5821 29.9036 23.7203 29.6874 23.8819C29.4655 24.09 29.2014 24.2428 28.9149 24.3288C28.8801 24.3356 28.8441 24.3281 28.8145 24.3078C28.7849 24.2875 28.7639 24.256 28.7561 24.2199C28.748 24.1919 28.748 24.162 28.7561 24.134C28.8872 23.8583 29.0741 23.6159 29.3039 23.4235C29.5352 23.1965 29.7951 23.0037 30.0764 22.8505C30.6411 22.5483 31.2734 22.4117 31.9063 22.4552C32.5305 22.4983 33.1331 22.7117 33.654 23.074C33.9167 23.2573 34.1561 23.4749 34.3662 23.7214C34.5525 23.9563 34.7333 24.1855 34.9141 24.4319C34.9365 24.4555 34.9491 24.4874 34.9491 24.5207C34.9491 24.554 34.9365 24.5859 34.9141 24.6095C34.8911 24.6305 34.8614 24.6416 34.8309 24.6405C34.8004 24.6395 34.7714 24.6263 34.7498 24.6038V24.6038Z" fill="#2E2E2E"/>
<path d="M32.8547 23.6702C32.8253 23.4638 32.7379 23.2711 32.6037 23.1167C32.4695 22.9622 32.2944 22.8529 32.1007 22.8026C31.907 22.7523 31.7034 22.7632 31.5157 22.834C31.3279 22.9048 31.1645 23.0323 31.0461 23.2004C30.9277 23.3684 30.8597 23.5694 30.8506 23.7779C30.8416 23.9864 30.8919 24.193 30.9953 24.3716C31.0986 24.5502 31.2503 24.6927 31.4311 24.781C31.6119 24.8693 31.8138 24.8995 32.011 24.8678C32.2745 24.8254 32.5111 24.6756 32.6693 24.4511C32.8274 24.2267 32.8941 23.946 32.8547 23.6702V23.6702Z" fill="#2E2E2E"/>
<path d="M34.7064 24.541C34.2204 24.8523 33.6653 25.026 33.0957 25.0452" stroke="#2E2E2E" stroke-width="0.385833" stroke-linecap="round" stroke-linejoin="round"/>
<path d="M34.751 23.2574C34.441 22.8764 34.0612 22.564 33.6341 22.3386C33.2069 22.1133 32.741 21.9796 32.2637 21.9453" stroke="#2E2E2E" stroke-width="0.385833" stroke-linecap="round" stroke-linejoin="round"/>
<path d="M39.8839 24.4311C40.0592 24.1847 40.24 23.9555 40.4318 23.7206C40.9498 23.0969 41.6524 22.6723 42.4278 22.5145C43.2032 22.3566 44.0068 22.4746 44.7106 22.8497C44.9911 23.0043 45.2509 23.197 45.4831 23.4227C45.7147 23.6132 45.902 23.8561 46.031 24.1331C46.0383 24.1497 46.0424 24.1676 46.0431 24.1858C46.0437 24.204 46.0409 24.2221 46.0348 24.2392C46.0287 24.2563 46.0194 24.2719 46.0075 24.2852C45.9955 24.2984 45.9812 24.3091 45.9653 24.3165C45.9384 24.3246 45.9099 24.3246 45.8831 24.3165C45.595 24.2305 45.329 24.0778 45.1051 23.8696C44.8908 23.7081 44.6614 23.5699 44.4203 23.457C43.9411 23.2345 43.4215 23.1231 42.8972 23.1304C42.3669 23.1379 41.8462 23.2795 41.3796 23.543C41.1377 23.6699 40.9129 23.8298 40.7112 24.0186C40.492 24.2134 40.2729 24.4139 40.0483 24.5915C40.0257 24.615 39.9952 24.6281 39.9633 24.6281C39.9315 24.6281 39.901 24.615 39.8784 24.5915C39.8614 24.5683 39.8526 24.5396 39.8536 24.5103C39.8546 24.481 39.8653 24.453 39.8839 24.4311Z" fill="#2E2E2E"/>
<path d="M41.9367 23.6691C41.9659 23.4629 42.053 23.2703 42.1869 23.1158C42.3208 22.9613 42.4955 22.8518 42.6889 22.8011C42.8823 22.7505 43.0858 22.7609 43.2735 22.8312C43.4612 22.9014 43.6248 23.0283 43.7436 23.1958C43.8623 23.3633 43.931 23.5638 43.9407 23.7721C43.9505 23.9804 43.901 24.187 43.7985 24.3658C43.696 24.5447 43.5451 24.6877 43.3648 24.7769C43.1846 24.866 42.9831 24.8973 42.7859 24.8666C42.5214 24.8256 42.2834 24.6764 42.1242 24.4518C41.9649 24.2272 41.8975 23.9457 41.9367 23.6691V23.6691Z" fill="#2E2E2E"/>
<path d="M40.0801 24.541C40.5661 24.8523 41.1212 25.026 41.6908 25.0452" stroke="#2E2E2E" stroke-width="0.385833" stroke-linecap="round" stroke-linejoin="round"/>
<path d="M40.0332 23.2574C40.3426 22.877 40.7215 22.565 41.1477 22.3397C41.5738 22.1144 42.0387 21.9803 42.5151 21.9453" stroke="#2E2E2E" stroke-width="0.385833" stroke-linecap="round" stroke-linejoin="round"/>
<path d="M36.707 32.3956C36.8874 32.575 37.1265 32.6754 37.3754 32.6764C37.6222 32.6728 37.8588 32.5727 38.0384 32.3956C38.3123 32.1149 38.8109 32.2868 39.1944 32.344C39.5701 32.4324 39.9578 32.4499 40.3394 32.3956C40.6112 32.3334 40.8501 32.1654 41.0078 31.9258" stroke="#2E2E2E" stroke-width="0.34725" stroke-linecap="round" stroke-linejoin="round"/>
<path d="M36.7058 32.3964C36.4318 32.1157 35.9278 32.2875 35.5498 32.3448C35.1741 32.4331 34.7863 32.4506 34.4047 32.3964C34.2524 32.3647 34.1107 32.292 33.9935 32.1855C33.8763 32.079 33.7876 31.9423 33.7363 31.7891" stroke="#2E2E2E" stroke-width="0.34725" stroke-linecap="round" stroke-linejoin="round"/>
<path d="M35.6113 33.5303C36.5962 33.8846 37.6582 33.9324 38.6684 33.6678" stroke="#2E2E2E" stroke-width="0.34725" stroke-linecap="round" stroke-linejoin="round"/>
<path d="M37.3086 36.9971V38.8993" stroke="#2E2E2E" stroke-width="0.4167" stroke-linecap="round" stroke-linejoin="round"/>
<path d="M37.3906 28.4885V24.4434" stroke="#2E2E2E" stroke-width="0.4167" stroke-linecap="round" stroke-linejoin="round"/>
<path d="M36.0977 29.2734L36.7496 29.7433C36.9383 29.8893 37.1668 29.9682 37.4016 29.9682C37.6363 29.9682 37.8649 29.8893 38.0536 29.7433V29.7433L38.7055 29.2734" stroke="#2E2E2E" stroke-width="0.43985" stroke-linecap="round" stroke-linejoin="round"/>
<path d="M48.8855 21.8308C48.5861 21.6969 48.3214 21.4907 48.113 21.2292C47.7706 20.7901 47.512 20.2863 47.3514 19.7452C46.6177 17.2886 46.4783 14.68 46.946 12.1533C45.608 12.1441 44.2988 11.7466 43.1641 11.005C42.0294 10.2635 41.1139 9.20707 40.5195 7.95343C37.455 9.96457 33.8626 10.9149 30.2524 10.6693C30.1636 12.7155 29.6773 14.7213 28.8229 16.5644C27.9686 18.4075 26.7642 20.0493 25.2832 21.3896C25.3654 19.6363 25.5243 17.9002 25.6722 16.2959C25.8389 14.4024 26.429 12.5764 27.3947 10.9653C28.3605 9.35416 29.6749 8.00307 31.2319 7.02106C32.7889 6.03904 34.5449 5.45361 36.358 5.312C38.1712 5.1704 39.9908 5.47659 41.67 6.20587C43.3229 6.93967 44.7932 8.05967 45.9679 9.47996C47.1427 10.9002 47.9908 12.5831 48.4472 14.3994C49.0334 16.8345 48.88 19.3556 48.8855 21.8308Z" fill="#2E2E2E"/>
<path d="M24.4219 12.0728C25.2437 7.10519 29.7581 1.00877 35.1985 0.24672C40.6388 -0.515332 46.5668 4.12574 48.9391 8.65221C40.9566 11.2764 32.8591 12.7948 24.4219 12.0728Z" fill="#F5F5FF" stroke="#2E2E2E" stroke-width="0.447566" stroke-linecap="round" stroke-linejoin="round"/>
<path d="M50.091 10.3648C46.6175 13.1208 41.9496 14.3756 37.3585 14.9486C32.7673 15.5215 28.094 15.5215 23.5138 16.1919C23.2345 15.8628 23.0274 15.4738 22.9072 15.0521C22.787 14.6304 22.7566 14.1864 22.818 13.7511C22.9761 12.7629 23.4922 11.8765 24.2589 11.2758C32.8166 10.7315 41.2757 9.3048 49.2637 6.50297C49.6636 6.49151 50.8635 9.06415 50.091 10.3648Z" fill="#F5F5FF" stroke="#2E2E2E" stroke-width="0.385833" stroke-linecap="round" stroke-linejoin="round"/>
<path d="M25.8866 15.8599C25.6704 15.2663 25.5885 14.6284 25.6475 13.9962C25.7064 13.3639 25.9045 12.7546 26.2263 12.2158" stroke="#2E2E2E" stroke-width="0.4167" stroke-linecap="round" stroke-linejoin="round"/>
<path d="M46.5469 8.59473C47.2576 9.5451 47.7134 10.6764 47.8672 11.8721" stroke="#2E2E2E" stroke-width="0.4167" stroke-linecap="round" stroke-linejoin="round"/>
<path d="M41.873 10.1758C42.5405 11.2971 42.946 12.5671 43.0564 13.8829" stroke="#2E2E2E" stroke-width="0.4167" stroke-linecap="round" stroke-linejoin="round"/>
<path d="M29.5066 12.0908C29.3701 12.6858 29.3581 13.3047 29.4716 13.905C29.5851 14.5053 29.8213 15.0728 30.1641 15.5688" stroke="#2E2E2E" stroke-width="0.4167" stroke-linecap="round" stroke-linejoin="round"/>
<path d="M35.7656 11.5508C36.1716 12.6717 36.3849 13.8588 36.3957 15.0574" stroke="#2E2E2E" stroke-width="0.4167" stroke-linecap="round" stroke-linejoin="round"/>
<path d="M33.0418 12.4678C32.9916 13.001 33.0571 13.5392 33.2336 14.0422C33.41 14.5452 33.6928 15 34.0608 15.3727L34.1101 15.1837" stroke="#2E2E2E" stroke-width="0.4167" stroke-linecap="round" stroke-linejoin="round"/>
<path d="M39.4961 11.7295C39.7268 12.5952 39.7643 13.5048 39.6057 14.3881" stroke="#2E2E2E" stroke-width="0.4167" stroke-linecap="round" stroke-linejoin="round"/>
<path d="M58.1556 88.9886H16.3477L16.5668 82.5828L16.7202 77.9589L16.912 72.2865L17.5365 53.9514L17.6297 51.2241L18.9774 50.7141L26.812 47.7519L28.3241 47.1846L29.0747 46.8981L31.0361 46.159L31.6278 45.9355H42.9413L43.1769 46.0272L45.3738 46.8523L46.1189 47.1331L47.6311 47.706L55.6957 50.7542L56.9394 51.2241L57.027 53.9571L57.3612 64.2821L57.6133 72.1719L57.794 77.8787V77.9131L57.9584 83.0698L58.1556 88.9886Z" fill="#2E2E2E"/>
</g>
<defs>
<clipPath id="clip0_488_846">
<rect width="73.8639" height="89.1429" fill="white" transform="translate(0.234375)"/>
</clipPath>
</defs>
</svg>
