<svg width="75" height="90" viewBox="0 0 75 90" fill="none" xmlns="http://www.w3.org/2000/svg">
<g clip-path="url(#clip0_488_895)">
<path d="M61.4356 56.5612C74.4675 43.6215 74.4675 22.6422 61.4356 9.70249C48.4037 -3.23718 27.2748 -3.23718 14.2429 9.70249C1.21094 22.6422 1.21094 43.6215 14.2429 56.5612C27.2748 69.5009 48.4037 69.5009 61.4356 56.5612Z" fill="#004545"/>
<path d="M42.8453 32.8342H32.4191C29.3529 32.8342 26.7436 30.2106 26.2757 26.6523L25.3234 19.3553C24.7729 14.9444 27.6574 10.9707 31.4668 10.9707H43.8857C47.7391 10.9707 50.6456 15.01 50.0126 19.4483L48.9777 26.7452C48.4767 30.2598 45.8839 32.8342 42.8453 32.8342Z" fill="#2E2E2E"/>
<path d="M46.0825 26.2371C44.8109 28.2704 44.932 30.6754 46.3577 31.6155C47.7835 32.5556 49.9744 31.6647 51.2515 29.6314C52.5286 27.5981 52.402 25.1931 50.9763 24.253C49.5505 23.3128 47.3596 24.2256 46.0825 26.2371Z" fill="#F5F5FF" stroke="#2E2E2E" stroke-width="0.385833" stroke-linecap="round" stroke-linejoin="round"/>
<path d="M49.8984 25.2529C50.2081 25.3746 50.4802 25.5746 50.6876 25.8333C50.895 26.0919 51.0306 26.3999 51.0807 26.7268C51.1308 27.0536 51.0938 27.3878 50.9733 27.696C50.8528 28.0042 50.653 28.2756 50.3939 28.4833" stroke="#2E2E2E" stroke-width="0.385833" stroke-linecap="round" stroke-linejoin="round"/>
<path d="M28.8847 26.2371C30.1563 28.2704 30.0352 30.6754 28.6094 31.6155C27.1837 32.5556 24.9928 31.6647 23.7211 29.6314C22.4495 27.5981 22.5706 25.1931 23.9964 24.253C25.4221 23.3128 27.6076 24.2256 28.8847 26.2371Z" fill="#F5F5FF" stroke="#2E2E2E" stroke-width="0.385833" stroke-linecap="round" stroke-linejoin="round"/>
<path d="M25.0707 25.2529C24.7598 25.3733 24.4864 25.5727 24.2779 25.8313C24.0694 26.0899 23.9332 26.3985 23.883 26.726C23.8327 27.0534 23.8703 27.3883 23.9918 27.6968C24.1133 28.0053 24.3146 28.2765 24.5752 28.4833" stroke="#2E2E2E" stroke-width="0.385833" stroke-linecap="round" stroke-linejoin="round"/>
<path d="M44.5738 50.7903C44.5883 51.643 44.4335 52.4902 44.1182 53.2836C43.8029 54.0769 43.3333 54.8008 42.7362 55.4139C42.1392 56.027 41.4264 56.5174 40.6385 56.8569C39.8506 57.1965 39.003 57.3787 38.1442 57.3931C37.2854 57.4074 36.4321 57.2537 35.6332 56.9406C34.8342 56.6276 34.1051 56.1613 33.4876 55.5685C32.8702 54.9757 32.3763 54.2679 32.0343 53.4855C31.6923 52.7032 31.5088 51.8617 31.4943 51.0089C31.4889 50.9362 31.4889 50.8631 31.4943 50.7903L32.2265 41.1102L32.4137 38.6615L32.777 33.8516H43.2912L43.8417 41.4546L44.2821 47.0079L44.5738 50.7903Z" fill="#F5F5FF" stroke="#2E2E2E" stroke-width="0.432133" stroke-linecap="round" stroke-linejoin="round"/>
<path d="M44.2844 47.0069C40.8329 47.2529 37.0291 45.5476 34.4198 42.2352C33.5697 41.1637 32.8936 39.9668 32.416 38.6879L32.7793 33.8779H43.2936L43.8441 41.481L44.2844 47.0069Z" fill="#2E2E2E"/>
<path d="M49.349 29.5435C49.3498 30.9355 49.0657 32.3132 48.514 33.5929C47.9623 34.8726 47.1546 36.0277 46.1397 36.988L43.0184 39.7756C42.551 40.2884 41.9812 40.699 41.3453 40.9813C40.7094 41.2636 40.0213 41.4115 39.3247 41.4154H36.3906C35.7024 41.4151 35.0215 41.2748 34.39 41.0031C33.7585 40.7315 33.1898 40.3342 32.7189 39.8358L29.5316 36.9935C28.5022 36.0341 27.6812 34.876 27.1189 33.5902C26.5566 32.3044 26.2649 30.918 26.2617 29.5162L26.3113 28.658L26.5975 23.7388L26.8122 20.093C26.7999 18.6524 27.0744 17.2236 27.6201 15.8887C28.1658 14.5538 28.9719 13.3391 29.9919 12.3146C31.012 11.2901 32.226 10.4758 33.5641 9.91874C34.9021 9.36164 36.3379 9.07264 37.7888 9.06837C39.2339 9.06638 40.6649 9.35001 41.9985 9.90273C43.332 10.4555 44.5414 11.2662 45.5562 12.2878C46.5854 13.3076 47.4016 14.5191 47.958 15.8529C48.5144 17.1868 48.8 18.6165 48.7985 20.0602L49.0407 24.2143L49.2774 28.3082L49.349 29.5435Z" fill="#F5F5FF" stroke="#2E2E2E" stroke-width="0.385833" stroke-linecap="round" stroke-linejoin="round"/>
<path d="M49.0149 24.2143H48.6736C47.0574 21.8598 46.0325 19.1554 45.6845 16.327C45.4698 14.567 42.9596 13.9767 41.1816 14.168C40.7762 14.768 40.2339 15.2645 39.5987 15.6169C38.9635 15.9692 38.2534 16.1676 37.5264 16.1959C36.0786 16.2396 34.6583 15.2721 33.7831 14.1188C32.016 13.9275 29.4893 14.5178 29.2746 16.3052C28.9502 18.9488 28.0342 21.4868 26.5938 23.7333L26.8084 20.0876C26.7968 18.6474 27.0719 17.2192 27.618 15.8849C28.164 14.5506 28.9702 13.3366 29.9902 12.3127C31.0102 11.2887 32.2239 10.475 33.5616 9.91822C34.8993 9.36146 36.3346 9.07264 37.7851 9.06837C39.2301 9.06638 40.6612 9.35001 41.9947 9.90273C43.3282 10.4555 44.5376 11.2662 45.5524 12.2878C46.5816 13.3076 47.3978 14.5191 47.9542 15.8529C48.5106 17.1868 48.7963 18.6165 48.7948 20.0602L49.0149 24.2143Z" fill="#2E2E2E"/>
<path d="M49.349 29.5439L49.2774 28.3086C48.4187 29.44 47.3673 30.8174 46.6186 31.6318C45.5176 32.8015 43.701 32.9327 41.8569 32.889C41.2442 32.8166 40.6505 32.6312 40.1064 32.3424C39.2899 31.983 38.4067 31.7973 37.5136 31.7973C36.6205 31.7973 35.7373 31.983 34.9208 32.3424C34.3729 32.6316 33.7755 32.8169 33.1593 32.889C31.3207 32.9327 29.471 32.8015 28.4031 31.6318C27.623 30.6979 26.9302 29.6953 26.3333 28.6365L26.2617 29.5166C26.2653 29.9977 26.3021 30.478 26.3718 30.9541C26.3537 30.9165 26.3335 30.88 26.3113 30.8448L26.2617 31.7029C26.2645 33.1056 26.5559 34.4929 27.1182 35.7796C27.6805 37.0664 28.5018 38.2255 29.5316 39.1857L32.7244 42.0006C33.1953 42.499 33.764 42.8963 34.3955 43.168C35.027 43.4397 35.7079 43.58 36.3961 43.5802H39.3082C40.0047 43.5763 40.6929 43.4285 41.3288 43.1462C41.9647 42.8639 42.5345 42.4533 43.0019 41.9405L46.1232 39.1529C47.1381 38.1963 47.9472 37.0453 48.5017 35.7696C49.0561 34.4938 49.3444 33.1197 49.349 31.7302L49.2884 30.6371C49.3276 30.2739 49.3478 29.9091 49.349 29.5439Z" fill="#2E2E2E"/>
<path d="M35.8496 43.5524C36.4827 43.5524 37.1157 43.4922 37.7488 43.4868C38.3818 43.4813 39.0259 43.4868 39.6424 43.4321C40.8846 43.3273 42.0472 42.7821 42.9178 41.8962C43.4298 41.4699 43.9472 41.049 44.4702 40.6445C44.0078 41.1255 43.5344 41.5901 43.0554 42.0438C42.6266 42.5293 42.1042 42.9246 41.5189 43.2063C40.9336 43.4879 40.2975 43.6502 39.6479 43.6836C38.9984 43.6836 38.3763 43.6836 37.7378 43.6836C37.1064 43.6749 36.476 43.6311 35.8496 43.5524Z" fill="#F5F5FF"/>
<path d="M42.9224 35.0913C42.281 35.7819 41.5037 36.3343 40.6385 36.7143C39.7733 37.0943 38.8388 37.2938 37.8927 37.3004C36.9467 37.3071 36.0094 37.1208 35.1389 36.753C34.2684 36.3852 33.4832 35.8438 32.832 35.1624H33.1403C33.7627 35.0905 34.3629 34.8894 34.9018 34.5721C35.7055 34.1677 36.5937 33.957 37.4946 33.957C38.3955 33.957 39.2838 34.1677 40.0874 34.5721C40.6228 34.8884 41.2192 35.0895 41.8379 35.1624C42.2009 35.1765 42.5644 35.1527 42.9224 35.0913Z" fill="#F5F5FF"/>
<path d="M37.6167 36.623C38.0557 36.782 38.4515 37.0402 38.7727 37.3773C38.9695 37.5809 39.0794 37.8522 39.0794 38.1344C39.0794 38.4165 38.9695 38.6878 38.7727 38.8914C38.4503 39.2297 38.0525 39.488 37.6112 39.6457C37.1713 39.4884 36.7751 39.2299 36.4551 38.8914C36.2583 38.6878 36.1484 38.4165 36.1484 38.1344C36.1484 37.8522 36.2583 37.5809 36.4551 37.3773C36.7771 37.0386 37.1751 36.7801 37.6167 36.623Z" fill="#2E2E2E"/>
<path d="M40.1967 22.1163C40.7141 21.819 41.2696 21.5928 41.8482 21.444C42.4571 21.2862 43.0853 21.2145 43.7143 21.2308C44.3753 21.2457 45.0244 21.4083 45.6135 21.7063C46.1964 21.9941 46.6655 22.4675 46.9457 23.0509C46.4138 22.8653 45.8574 22.7585 45.2942 22.7339C44.7914 22.7264 44.2892 22.7741 43.7969 22.876C42.806 23.0509 41.7986 23.3898 40.6591 23.5319C40.457 23.5567 40.2533 23.501 40.0924 23.3771C39.9315 23.2532 39.8265 23.0711 39.8004 22.8705C39.786 22.7202 39.8158 22.569 39.8862 22.4352C39.9565 22.3013 40.0644 22.1905 40.1967 22.1163Z" fill="#2E2E2E"/>
<path d="M34.8803 23.5318C33.7463 23.3897 32.7334 23.0508 31.7425 22.8759C31.2502 22.7738 30.7481 22.7261 30.2452 22.7338C29.682 22.7584 29.1256 22.8652 28.5938 23.0508C28.8754 22.4684 29.344 21.9954 29.9259 21.7062C30.5155 21.4096 31.1643 21.2471 31.8251 21.2307C32.4559 21.2147 33.0859 21.2864 33.6967 21.4439C34.275 21.5936 34.8305 21.8197 35.3482 22.1162C35.4995 22.2064 35.6151 22.3455 35.6756 22.5102C35.736 22.6749 35.7377 22.8552 35.6803 23.0209C35.623 23.1867 35.51 23.3279 35.3604 23.4209C35.2107 23.5139 35.0335 23.553 34.8583 23.5318H34.8803Z" fill="#2E2E2E"/>
<path d="M40.4302 26.7839C40.5899 26.5379 40.755 26.3029 40.9256 26.0678C41.1085 25.8188 41.3252 25.5963 41.5697 25.4065C42.0705 25.0223 42.6651 24.777 43.2927 24.6959C43.9257 24.6043 44.5719 24.6895 45.1589 24.9419C45.4492 25.0606 45.7216 25.2188 45.9681 25.4119C46.2226 25.576 46.437 25.7945 46.5956 26.0514C46.6111 26.0834 46.6134 26.1201 46.6021 26.1538C46.5908 26.1875 46.5668 26.2154 46.5351 26.2318C46.5082 26.2399 46.4794 26.2399 46.4525 26.2318C46.1608 26.1729 45.8861 26.0496 45.6488 25.8711C45.4233 25.7313 45.1834 25.6158 44.9332 25.5267C44.4366 25.3483 43.9069 25.2793 43.3808 25.3245C42.85 25.3702 42.3381 25.5427 41.889 25.8273C41.6549 25.9665 41.4402 26.1355 41.2504 26.3302C41.0468 26.5324 40.8431 26.7401 40.6284 26.9369C40.6057 26.9593 40.575 26.9718 40.5431 26.9718C40.5111 26.9718 40.4804 26.9593 40.4577 26.9369C40.4347 26.9195 40.419 26.8941 40.4139 26.8657C40.4088 26.8374 40.4146 26.8082 40.4302 26.7839Z" fill="#2E2E2E"/>
<path d="M42.4333 25.9199C42.451 25.7228 42.527 25.5352 42.6517 25.3807C42.7763 25.2263 42.9441 25.1118 43.134 25.0516C43.324 24.9913 43.5275 24.9881 43.7193 25.0423C43.911 25.0965 44.0824 25.2056 44.212 25.3561C44.3415 25.5065 44.4235 25.6916 44.4476 25.8881C44.4717 26.0846 44.4368 26.2837 44.3474 26.4607C44.258 26.6376 44.118 26.7844 43.945 26.8827C43.7719 26.9809 43.5735 27.0263 43.3746 27.0131C43.2402 27.0035 43.1091 26.9674 42.9888 26.9071C42.8686 26.8468 42.7616 26.7634 42.674 26.6617C42.5865 26.56 42.5201 26.4421 42.4788 26.3148C42.4375 26.1874 42.422 26.0532 42.4333 25.9199Z" fill="#2E2E2E"/>
<path d="M40.6387 26.8818C41.1478 27.1438 41.7173 27.2682 42.2901 27.2426" stroke="#2E2E2E" stroke-width="0.385833" stroke-linecap="round" stroke-linejoin="round"/>
<path d="M40.4941 25.6908C40.7774 25.3061 41.1351 24.9813 41.5462 24.7354C41.9574 24.4895 42.4138 24.3275 42.8887 24.2588" stroke="#2E2E2E" stroke-width="0.385833" stroke-linecap="round" stroke-linejoin="round"/>
<path d="M35.4909 26.9479C35.2763 26.7511 35.0726 26.5434 34.8689 26.3412C34.6791 26.1465 34.4644 25.9774 34.2303 25.8383C33.7812 25.5537 33.2694 25.3811 32.7385 25.3354C32.2124 25.2899 31.6826 25.3589 31.1862 25.5377C30.9359 25.6268 30.696 25.7422 30.4705 25.882C30.2332 26.0605 29.9586 26.1838 29.6668 26.2428C29.6426 26.2459 29.618 26.2425 29.5955 26.233C29.573 26.2235 29.5534 26.2082 29.5389 26.1887C29.5243 26.1692 29.5152 26.1463 29.5125 26.1221C29.5099 26.098 29.5137 26.0736 29.5237 26.0515C29.6791 25.7957 29.8897 25.5773 30.1402 25.412C30.3868 25.2188 30.6591 25.0606 30.9495 24.9419C31.5413 24.6862 32.1937 24.6009 32.8321 24.6959C33.4588 24.7812 34.0515 25.0302 34.5496 25.4174C34.7928 25.6087 35.0094 25.8311 35.1937 26.0788C35.3643 26.3138 35.5295 26.5489 35.6891 26.7948C35.7032 26.8192 35.7083 26.8477 35.7035 26.8754C35.6986 26.9032 35.6841 26.9283 35.6625 26.9465C35.6409 26.9647 35.6136 26.9748 35.5852 26.9751C35.5569 26.9753 35.5294 26.9657 35.5075 26.9479H35.4909Z" fill="#2E2E2E"/>
<path d="M33.6702 25.9199C33.6524 25.7228 33.5764 25.5352 33.4518 25.3807C33.3271 25.2263 33.1593 25.1118 32.9694 25.0516C32.7795 24.9913 32.5759 24.9881 32.3842 25.0423C32.1924 25.0965 32.021 25.2056 31.8915 25.3561C31.7619 25.5065 31.68 25.6916 31.6559 25.8881C31.6318 26.0846 31.6666 26.2837 31.756 26.4607C31.8454 26.6376 31.9854 26.7844 32.1585 26.8827C32.3315 26.9809 32.5299 27.0263 32.7289 27.0131C32.8632 27.0035 32.9943 26.9674 33.1146 26.9071C33.2348 26.8468 33.3418 26.7634 33.4294 26.6617C33.517 26.56 33.5833 26.4421 33.6246 26.3148C33.666 26.1874 33.6815 26.0532 33.6702 25.9199Z" fill="#2E2E2E"/>
<path d="M35.464 26.8818C34.9548 27.1438 34.3853 27.2682 33.8125 27.2426" stroke="#2E2E2E" stroke-width="0.385833" stroke-linecap="round" stroke-linejoin="round"/>
<path d="M35.5841 25.6908C35.3008 25.3061 34.9431 24.9813 34.532 24.7354C34.1208 24.4895 33.6644 24.3275 33.1895 24.2588" stroke="#2E2E2E" stroke-width="0.385833" stroke-linecap="round" stroke-linejoin="round"/>
<path d="M38.0137 30.5429V25.6455" stroke="#2E2E2E" stroke-width="0.354966" stroke-linecap="round" stroke-linejoin="round"/>
<path d="M36.3027 31.3916L37.145 31.7414C37.4129 31.8551 37.7013 31.9137 37.9927 31.9137C38.2841 31.9137 38.5725 31.8551 38.8405 31.7414L39.6827 31.3916" stroke="#2E2E2E" stroke-width="0.354966" stroke-linecap="round" stroke-linejoin="round"/>
<path d="M38.6895 35.2678C39.7348 35.3055 40.7706 35.0579 41.6841 34.5518" stroke="#2E2E2E" stroke-width="0.3241" stroke-linecap="round" stroke-linejoin="round"/>
<path d="M36.7247 35.3108C35.6775 35.3492 34.6398 35.1015 33.7246 34.5947" stroke="#2E2E2E" stroke-width="0.3241" stroke-linecap="round" stroke-linejoin="round"/>
<path d="M36.7246 35.3113C37.0137 35.5141 37.3607 35.6193 37.7145 35.6114C38.0683 35.6035 38.4102 35.483 38.6898 35.2676" stroke="#2E2E2E" stroke-width="0.3241" stroke-linecap="round" stroke-linejoin="round"/>
<path d="M37.7305 32.9118C37.8488 32.6918 38.0132 32.4994 38.2126 32.3476C38.412 32.1958 38.6417 32.0882 38.8865 32.0318C39.3244 31.9282 39.7807 31.9282 40.2187 32.0318C40.8854 32.202 41.5314 32.444 42.1453 32.7533L42.6958 32.9829C42.8679 33.0649 43.0555 33.1097 43.2463 33.1141C43.7307 33.1469 44.4409 32.9064 45.3492 32.8244C45.3346 33.3221 45.2211 33.8121 45.0152 34.2661C44.8092 34.7201 44.5149 35.1292 44.1491 35.4698C43.7171 35.8359 43.175 36.0493 42.6078 36.0766C42.096 36.1095 41.5843 36.0117 41.1214 35.7923C40.4187 35.4536 39.8002 34.9645 39.3104 34.3603C39.0902 34.1143 38.8865 33.8683 38.6553 33.6169C38.3991 33.3213 38.0843 33.0812 37.7305 32.9118Z" fill="#2E2E2E"/>
<path d="M37.7375 32.9108C37.3861 33.0817 37.0734 33.3215 36.8182 33.6159C36.587 33.8674 36.3833 34.1133 36.1631 34.3593C35.6733 34.9636 35.0548 35.4526 34.352 35.7913C33.8892 36.0107 33.3775 36.1085 32.8657 36.0756C32.3131 36.0316 31.7897 35.8111 31.3739 35.447C31.0074 35.1057 30.7127 34.6957 30.5068 34.2407C30.3008 33.7857 30.1876 33.2947 30.1738 32.796C31.0821 32.878 31.7923 33.1185 32.2767 33.0857C32.4675 33.0813 32.6551 33.0366 32.8272 32.9546L33.3776 32.725C33.9915 32.4157 34.6376 32.1737 35.3043 32.0035C35.7423 31.8999 36.1986 31.8999 36.6365 32.0035C36.874 32.0692 37.0949 32.184 37.2846 32.3404C37.4743 32.4967 37.6287 32.6911 37.7375 32.9108Z" fill="#2E2E2E"/>
<path d="M38.6616 14.0706C40.7039 13.8356 42.8948 13.1523 44.0013 11.4306C44.9371 9.98213 44.8765 8.06361 44.227 6.47304C43.7348 5.28553 42.9402 4.24545 41.9211 3.4549C40.902 2.66434 39.6934 2.15046 38.4138 1.9637C37.1302 1.81226 35.8295 2.02321 34.6611 2.57235C33.4927 3.12149 32.5038 3.98656 31.808 5.06832C31.1476 6.17105 30.8393 7.44665 30.9238 8.72688C31.0084 10.0071 31.4817 11.2318 32.2815 12.2395C33.1271 13.211 34.2678 13.8834 35.5316 14.1555C36.7955 14.4276 38.1142 14.2846 39.2891 13.7481" fill="#2E2E2E"/>
<path d="M44.6176 6.13867C45.7186 7.23185 45.7516 9.1285 44.9589 10.5114C44.0822 11.8083 42.7995 12.7823 41.3092 13.2826C39.1073 14.168 36.5365 14.4796 34.3016 13.616C32.0666 12.7524 30.272 10.5278 30.3711 8.15011" stroke="#2E2E2E" stroke-width="0.308666" stroke-linecap="round" stroke-linejoin="round"/>
<path d="M39.4372 12.7321C40.4811 12.5627 41.4529 12.096 42.2347 11.3887C43.0165 10.6813 43.5745 9.76377 43.8411 8.74748C44.0783 7.7182 44.0437 6.64555 43.7409 5.63339C43.4381 4.62123 42.8772 3.70385 42.1126 2.97006C41.3319 2.25433 40.3993 1.72169 39.3837 1.41141C38.3681 1.10113 37.2953 1.02111 36.2444 1.17725C35.2909 1.30391 34.3766 1.63496 33.5649 2.14745C32.7531 2.65995 32.0633 3.34163 31.5433 4.14522C31.0411 4.9596 30.7754 5.89593 30.7754 6.85082C30.7754 7.80572 31.0411 8.74204 31.5433 9.55643C32.0753 10.3526 32.8592 10.9503 33.7712 11.2552C34.6833 11.56 35.6716 11.5546 36.5802 11.2399" stroke="#2E2E2E" stroke-width="0.308666" stroke-linecap="round" stroke-linejoin="round"/>
<path d="M63.1463 76.4848C58.1314 78.7313 53.5459 79.4255 52.9128 78.0317C52.2798 76.6379 55.8359 73.6863 60.8563 71.4398C65.8767 69.1934 70.4567 68.4937 71.0898 69.8875C71.7228 71.2813 68.1667 74.2329 63.1463 76.4848Z" fill="#2E2E2E"/>
<path d="M60.9471 88.7238L58.5965 83.083L56.7139 78.5463L55.1285 74.7202L51.6439 66.3137C49.8108 61.8918 51.6439 56.9889 55.5689 55.6443C56.2458 55.4159 56.9568 55.3032 57.6717 55.3109H57.8644C60.9306 55.4202 63.9197 57.6831 65.0867 61.1375L67.9052 69.3363L69.1658 73.0094L74.6211 88.8604" fill="#F5F5FF"/>
<path d="M60.9471 88.7238L58.5965 83.083L56.7139 78.5463L55.1285 74.7202L51.6439 66.3137C49.8108 61.8918 51.6439 56.9889 55.5689 55.6443C56.2458 55.4159 56.9568 55.3032 57.6717 55.3109H57.8644C60.9306 55.4202 63.9197 57.6831 65.0867 61.1375L67.9052 69.3363L69.1658 73.0094L74.6211 88.8604" stroke="#2E2E2E" stroke-width="0.4167" stroke-linecap="round" stroke-linejoin="round"/>
<path d="M70.9831 69.7183C70.0583 68.5541 65.6544 69.2865 60.8652 71.4346C55.8393 73.6865 52.2832 76.6381 52.9218 78.0373C52.9342 78.0682 52.9529 78.0961 52.9768 78.1193H52.9218L50.6758 72.9049C51.6777 71.3143 54.7494 69.1334 58.6853 67.3734C62.6213 65.6134 66.3921 64.7389 68.2252 65.0778L70.9831 69.7183Z" fill="#F5F5FF" stroke="#2E2E2E" stroke-width="0.385833" stroke-linecap="round" stroke-linejoin="round"/>
<path d="M68.2236 65.0985C66.3795 64.7596 62.6637 65.6068 58.6838 67.3941C54.7038 69.1815 51.6761 71.335 50.6742 72.9256L47.3713 65.2351C45.1694 60.1683 47.5475 54.3908 52.4908 52.6636C53.4039 52.3468 54.3641 52.1842 55.3313 52.1826C57.062 52.2128 58.7511 52.7147 60.2141 53.6333C61.6771 54.5519 62.8577 55.852 63.6271 57.3916L68.2236 65.0985Z" fill="#2E2E2E"/>
<path d="M12.5242 76.4848C17.5391 78.7313 22.1246 79.4255 22.7577 78.0317C23.3907 76.6379 19.8346 73.6863 14.8142 71.4398C9.79377 69.1934 5.21375 68.4937 4.58069 69.8875C3.94764 71.2813 7.50926 74.2329 12.5242 76.4848Z" fill="#2E2E2E"/>
<path d="M14.7264 88.7224L17.077 83.0816L18.9596 78.545L20.545 74.7188L24.0241 66.2795C25.8572 61.8577 24.0516 56.9548 20.0991 55.6102C19.4222 55.3817 18.7112 55.269 17.9963 55.2767H17.8036C14.7374 55.3861 11.7483 57.6489 10.5813 61.1034L7.76277 69.3022L6.50217 72.9752L1.04688 88.8263" fill="#F5F5FF"/>
<path d="M14.7264 88.7224L17.077 83.0816L18.9596 78.545L20.545 74.7188L24.0241 66.2795C25.8572 61.8577 24.0516 56.9548 20.0991 55.6102C19.4222 55.3817 18.7112 55.269 17.9963 55.2767H17.8036C14.7374 55.3861 11.7483 57.6489 10.5813 61.1034L7.76277 69.3022L6.50217 72.9752L1.04688 88.8263" stroke="#2E2E2E" stroke-width="0.4167" stroke-linecap="round" stroke-linejoin="round"/>
<path d="M4.69141 69.7183C5.61622 68.5541 10.0201 69.2865 14.8148 71.4346C19.8352 73.6865 23.3968 76.6381 22.7528 78.0373C22.7403 78.0682 22.7216 78.0961 22.6977 78.1193H22.7528L24.9987 72.9049C23.9969 71.3143 20.9252 69.1334 16.9892 67.3734C13.0533 65.6134 9.28244 64.7389 7.44933 65.0778L4.69141 69.7183Z" fill="#F5F5FF" stroke="#2E2E2E" stroke-width="0.385833" stroke-linecap="round" stroke-linejoin="round"/>
<path d="M7.45117 65.0985C9.29529 64.7596 13.0111 65.6068 16.9911 67.3941C20.971 69.1815 24.0262 71.335 25.0006 72.9256L28.3035 65.2351C30.4779 60.1683 28.1273 54.3908 23.184 52.6636C22.271 52.3464 21.3108 52.1838 20.3435 52.1826C18.6128 52.2128 16.9237 52.7147 15.4607 53.6333C13.9978 54.5519 12.8171 55.852 12.0477 57.3916L7.45117 65.0985Z" fill="#2E2E2E"/>
<path d="M58.8691 88.9957H16.8672L17.0819 82.8848L17.236 78.4739L17.4342 73.0627L18.0562 55.5719L18.1498 52.9701L19.504 52.4837L27.3814 49.6633L28.9008 49.1167L29.6549 48.8434L31.6201 47.7939H32.2147H43.5822H43.8189L46.0263 48.7997L46.775 49.073L48.2943 49.6141L56.4029 52.5219L57.6525 52.9701L57.7406 55.5773L58.0764 65.4268L58.3296 72.9533L58.5113 78.4028V78.4302L58.6764 83.3494L58.8691 88.9957Z" fill="#F5F5FF" stroke="#2E2E2E" stroke-width="0.4167" stroke-linecap="round" stroke-linejoin="round"/>
<path d="M44.2166 47.555L45.868 48.681L46.5837 48.9379C46.3186 51.0175 45.2999 52.9301 43.718 54.3182C42.136 55.7063 40.0991 56.4749 37.9879 56.4802C35.8768 56.4856 33.8359 55.7274 32.2469 54.3473C30.6578 52.9673 29.6292 51.0598 29.3535 48.9816L30.0802 48.7138L31.8087 47.3965" fill="#F5F5FF"/>
<path d="M44.2166 47.555L45.868 48.681L46.5837 48.9379C46.3186 51.0175 45.2999 52.9301 43.718 54.3182C42.136 55.7063 40.0991 56.4749 37.9879 56.4802C35.8768 56.4856 33.8359 55.7274 32.2469 54.3473C30.6578 52.9673 29.6292 51.0598 29.3535 48.9816L30.0802 48.7138L31.8087 47.3965" stroke="#2E2E2E" stroke-width="0.401266" stroke-linecap="round" stroke-linejoin="round"/>
<path d="M23.832 50.9756V88.8158" stroke="#2E2E2E" stroke-width="0.354966" stroke-linecap="round" stroke-linejoin="round"/>
<path d="M31.1426 53.249V88.8154" stroke="#2E2E2E" stroke-width="0.354966" stroke-linecap="round" stroke-linejoin="round"/>
<path d="M37.9297 56.5176V88.8154" stroke="#2E2E2E" stroke-width="0.354966" stroke-linecap="round" stroke-linejoin="round"/>
<path d="M45.2402 52.6152V88.8157" stroke="#2E2E2E" stroke-width="0.354966" stroke-linecap="round" stroke-linejoin="round"/>
<path d="M52.0293 50.9756V88.8158" stroke="#2E2E2E" stroke-width="0.354966" stroke-linecap="round" stroke-linejoin="round"/>
</g>
<defs>
<clipPath id="clip0_488_895">
<rect width="73.8639" height="89.1429" fill="white" transform="translate(0.902344)"/>
</clipPath>
</defs>
</svg>
