<svg width="16" height="14" viewBox="0 0 16 14" fill="none" xmlns="http://www.w3.org/2000/svg">
<path d="M11.9375 1.375H4.0625C3.91332 1.375 3.77024 1.31574 3.66475 1.21025C3.55926 1.10476 3.5 0.961684 3.5 0.8125C3.5 0.663316 3.55926 0.520242 3.66475 0.414753C3.77024 0.309263 3.91332 0.25 4.0625 0.25H11.9375C12.0867 0.25 12.2298 0.309263 12.3352 0.414753C12.4407 0.520242 12.5 0.663316 12.5 0.8125C12.5 0.961684 12.4407 1.10476 12.3352 1.21025C12.2298 1.31574 12.0867 1.375 11.9375 1.375ZM13.0625 3.0625H2.9375C2.78832 3.0625 2.64524 3.00324 2.53975 2.89775C2.43426 2.79226 2.375 2.64918 2.375 2.5C2.375 2.35082 2.43426 2.20774 2.53975 2.10225C2.64524 1.99676 2.78832 1.9375 2.9375 1.9375H13.0625C13.2117 1.9375 13.3548 1.99676 13.4602 2.10225C13.5657 2.20774 13.625 2.35082 13.625 2.5C13.625 2.64918 13.5657 2.79226 13.4602 2.89775C13.3548 3.00324 13.2117 3.0625 13.0625 3.0625ZM13.735 13.75H2.26496C1.84674 13.7495 1.44577 13.5832 1.15004 13.2875C0.854311 12.9917 0.687965 12.5908 0.6875 12.1725V5.20246C0.687965 4.78424 0.854311 4.38327 1.15004 4.08754C1.44577 3.79181 1.84674 3.62547 2.26496 3.625H13.735C14.1533 3.62547 14.5542 3.79181 14.85 4.08754C15.1457 4.38327 15.312 4.78424 15.3125 5.20246V12.1725C15.312 12.5908 15.1457 12.9917 14.85 13.2875C14.5542 13.5832 14.1533 13.7495 13.735 13.75Z" fill="#4F4B6A"/>
</svg>
