<svg width="21" height="17" viewBox="0 0 21 17" fill="none" xmlns="http://www.w3.org/2000/svg">
<path d="M20.6289 2.49122C19.8904 2.8121 19.109 3.02351 18.3095 3.11876C19.1497 2.62673 19.7817 1.84504 20.0867 0.920319C19.2922 1.38486 18.4245 1.7108 17.5207 1.88419C17.1402 1.48532 16.6824 1.16801 16.1754 0.951551C15.6684 0.735087 15.1226 0.623988 14.5713 0.625007C12.3392 0.625007 10.5329 2.40508 10.5329 4.59942C10.5313 4.90464 10.5663 5.20896 10.6371 5.50587C9.03653 5.43083 7.46926 5.02253 6.03554 4.30708C4.60182 3.59164 3.33323 2.5848 2.31092 1.35098C1.95227 1.9556 1.76259 2.64545 1.76172 3.34844C1.76172 4.72657 2.48072 5.94473 3.56641 6.65841C2.92317 6.64314 2.29311 6.47289 1.72973 6.16212V6.21134C1.72973 8.13907 3.12426 9.74278 4.96996 10.1078C4.62288 10.2003 4.26522 10.2472 3.90602 10.2473C3.65114 10.2477 3.39684 10.223 3.14682 10.1734C3.65992 11.7525 5.1533 12.901 6.92231 12.9338C5.48486 14.0416 3.72006 14.6404 1.90527 14.6359C1.58314 14.6355 1.26131 14.6163 0.941406 14.5785C2.78759 15.7574 4.93364 16.381 7.1241 16.375C14.5627 16.375 18.6265 10.317 18.6265 5.0629C18.6265 4.89063 18.622 4.71837 18.6138 4.5502C19.4026 3.98913 20.085 3.29189 20.6289 2.49122Z" fill="#404040"/>
</svg>
