<svg width="60" height="60" viewBox="0 0 60 60" fill="none" xmlns="http://www.w3.org/2000/svg">
<circle cx="30" cy="30" r="30" fill="#FDE6D2"/>
<g clip-path="url(#clip0_410_11363)">
<path d="M25.0645 49.1737C25.0645 50.1824 25.8948 51 26.9191 51C27.9432 51 28.7737 50.1824 28.7737 49.1737V38.3506L25.0645 37.7089V49.1737ZM31.3575 36.3496L30.8475 38.1074L29.392 38.3521V49.1735C29.392 50.1822 30.2223 50.9998 31.2466 50.9998C32.2704 50.9998 33.1012 50.1822 33.1012 49.1735V37.7107L31.5586 37.9931L31.3575 36.3496Z" fill="#F58220"/>
<path d="M24.2498 23.1401C24.2536 23.1357 24.2575 23.1317 24.2614 23.1273C24.2783 22.9691 24.3141 22.8168 24.3642 22.6709C24.357 22.7434 24.3531 22.8166 24.3531 22.8911C24.3531 24.1145 25.3597 25.1058 26.6021 25.1058C27.3186 25.1058 27.9553 24.7747 28.3672 24.2608C28.0207 24.982 27.277 25.4822 26.4128 25.4822C26.1954 25.4822 25.9857 25.4499 25.7878 25.3911C25.9386 26.0299 26.0307 26.641 26.0183 27.1591C26.3358 27.2603 26.698 27.36 27.1148 27.4537C27.5009 27.5408 27.8295 27.7709 28.0398 28.1018C28.25 28.4325 28.3169 28.8244 28.2286 29.2047C28.0729 29.8722 27.4785 30.3388 26.7833 30.3388C26.6713 30.3388 26.5595 30.3262 26.4504 30.3015C25.9569 30.1894 25.5022 30.0639 25.0758 29.9273C24.8128 30.4378 24.5741 30.9869 24.4845 31.7379C24.4226 31.9837 24.3872 32.3508 24.3872 32.88C24.3872 32.9302 24.3879 32.9837 24.3892 33.0385C24.4217 34.4657 24.861 37.3087 24.861 37.3087L29.0829 38.0392L30.5388 37.8109L31.4349 35.3608L31.8214 37.5826L33.3051 37.3087C33.3051 37.3087 33.7441 34.4652 33.7767 33.0383C33.778 32.9836 33.7789 32.9302 33.7789 32.88C33.7789 32.3511 33.7435 31.9846 33.6816 31.7382C33.4577 29.8599 32.3043 29.2403 32.1565 27.3474C32.1534 27.3094 32.1528 27.2692 32.1512 27.2299C32.1272 26.6751 32.2276 26.0073 32.3976 25.3087C32.1352 25.42 31.8464 25.4822 31.543 25.4822C30.6791 25.4822 29.9356 24.9824 29.589 24.2614C30.0009 24.7751 30.6374 25.1058 31.3537 25.1058C32.5961 25.1058 33.6028 24.1145 33.6028 22.8911C33.6028 22.8168 33.5989 22.7434 33.5913 22.6709C33.6169 22.7452 33.6389 22.8208 33.656 22.8986C34.0121 23.2303 34.4381 23.6233 34.9474 24.0519L36.4785 22.4567C35.8073 21.8966 35.278 21.3885 34.8185 20.9661C34.5768 20.7449 34.3544 20.5461 34.12 20.3674C33.9948 20.2747 33.8661 20.1848 33.7218 20.103C33.301 19.8011 32.5818 19.3977 31.4976 19.1342L29.9881 21.6086L29.4256 19.9458L30.0078 18.9008C29.7168 18.8776 29.4095 18.8643 29.0838 18.8643C28.7576 18.8643 28.4503 18.8776 28.1593 18.9008L28.7416 19.9458L28.1788 21.6086L26.6697 19.1342C25.596 19.395 24.8805 19.7931 24.4578 20.0941C24.2156 20.2235 23.9992 20.3828 23.7403 20.5795C23.1704 21.0317 22.5268 21.6697 21.9871 22.457C21.7996 22.7344 21.6238 23.0327 21.4727 23.3493L23.5094 24.2353C23.6913 23.8631 23.95 23.4796 24.2498 23.1401ZM29.0825 26.3207C28.8779 26.3207 28.7116 26.157 28.7116 25.9552C28.7116 25.7534 28.8779 25.5898 29.0825 25.5898C29.2876 25.5898 29.4538 25.7534 29.4538 25.9552C29.4538 26.157 29.2876 26.3207 29.0825 26.3207ZM29.4538 28.6546C29.4538 28.8562 29.2876 29.0199 29.0825 29.0199C28.8779 29.0199 28.7116 28.8562 28.7116 28.6546C28.7116 28.4528 28.8779 28.2892 29.0825 28.2892C29.2876 28.2892 29.4538 28.4526 29.4538 28.6546ZM29.0825 31.9417C28.8779 31.9417 28.7116 31.7782 28.7116 31.5762C28.7116 31.3746 28.8779 31.211 29.0825 31.211C29.2876 31.211 29.4538 31.3746 29.4538 31.5762C29.4538 31.778 29.2876 31.9417 29.0825 31.9417ZM29.0825 22.6682C29.2876 22.6682 29.4538 22.8316 29.4538 23.0334C29.4538 23.2352 29.2876 23.3987 29.0825 23.3987C28.8779 23.3987 28.7116 23.2352 28.7116 23.0334C28.7116 22.8316 28.8779 22.6682 29.0825 22.6682Z" fill="#F58220"/>
<path d="M22.9277 28.5386C23.8168 29.1314 24.988 29.594 26.5334 29.9452C26.6175 29.9642 26.7011 29.9732 26.7834 29.9732C27.2905 29.9732 27.7488 29.6296 27.8673 29.1227C28.0049 28.5328 27.6312 27.9446 27.032 27.8094C25.6679 27.5019 24.7452 27.1076 24.1768 26.725C24.1766 26.7248 24.1762 26.7246 24.1759 26.7244C23.8862 26.5296 23.689 26.3433 23.5512 26.17C23.4937 26.098 23.4459 26.0281 23.4071 25.9613C23.2766 25.7315 23.2274 25.5237 23.2256 25.2799C23.2191 25.071 23.2703 24.8284 23.3647 24.5722L21.3257 23.6852C21.1308 24.1757 21.0037 24.7072 21 25.2799C20.9982 25.8615 21.1439 26.4783 21.4709 27.0424C21.6347 27.3269 21.8407 27.5958 22.0861 27.8469C22.3283 28.0949 22.6089 28.3259 22.9255 28.5375C22.9264 28.5379 22.9271 28.5383 22.9277 28.5386ZM42.5152 28.297C42.638 28.3398 42.7635 28.36 42.8867 28.36C43.345 28.36 43.7741 28.0795 43.9358 27.6299C44.141 27.0594 43.8379 26.4332 43.2584 26.231C40.1968 25.1615 38.1843 23.835 36.7641 22.6908L35.2312 24.2877C36.8032 25.5701 39.1094 27.1158 42.5152 28.297ZM28.2 17.9944C30.2944 18.4745 32.3873 17.1916 32.8753 15.1294C33.2282 13.6359 32.6396 12.1462 31.4942 11.2539C28.2174 11.6858 25.9314 13.3534 25.2063 13.9478C25.0498 15.812 26.2946 17.5572 28.2 17.9944Z" fill="#F58220"/>
<path d="M25.1657 13.4462C25.1657 13.4462 27.7887 11.2385 31.3657 10.9647C31.3657 10.9647 31.3551 10.9478 31.3372 10.9189C31.132 10.5913 29.8175 8.54276 28.6474 8C27.3967 8.43191 25.9263 9.92322 25.9263 9.92322L24.6973 10.0312C24.6973 10.0312 24.7067 10.4837 24.811 11.3188C24.8799 11.8682 24.9894 12.5815 25.1657 13.4462ZM28.8236 10.7668C28.4649 10.7668 28.1745 10.4808 28.1745 10.1276C28.1745 9.77457 28.4649 9.48839 28.8236 9.48839C29.1819 9.48839 29.4727 9.77457 29.4727 10.1276C29.4727 10.4808 29.1817 10.7668 28.8236 10.7668Z" fill="#F58220"/>
</g>
<defs>
<clipPath id="clip0_410_11363">
<rect width="23" height="43" fill="white" transform="translate(21 8)"/>
</clipPath>
</defs>
</svg>
