<svg width="18" height="19" viewBox="0 0 18 19" fill="none" xmlns="http://www.w3.org/2000/svg">
<path d="M3.35742 4.15658H14.6074C14.7388 4.15652 14.8701 4.16486 15.0005 4.18154C14.9563 3.87139 14.8497 3.57339 14.6873 3.30552C14.5248 3.03765 14.3098 2.80545 14.0552 2.62293C13.8005 2.44041 13.5116 2.31134 13.2057 2.24351C12.8999 2.17568 12.5834 2.1705 12.2755 2.22826L3.02344 3.80783H3.01289C2.43214 3.91889 1.91569 4.24747 1.56902 4.72647C2.0913 4.35498 2.7165 4.15576 3.35742 4.15658ZM14.6074 5.00033H3.35742C2.76088 5.00098 2.18897 5.23825 1.76715 5.66006C1.34534 6.08188 1.10807 6.6538 1.10742 7.25033V14.0003C1.10807 14.5969 1.34534 15.1688 1.76715 15.5906C2.18897 16.0124 2.76088 16.2497 3.35742 16.2503H14.6074C15.204 16.2497 15.7759 16.0124 16.1977 15.5906C16.6195 15.1688 16.8568 14.5969 16.8574 14.0003V7.25033C16.8568 6.6538 16.6195 6.08188 16.1977 5.66006C15.7759 5.23825 15.204 5.00098 14.6074 5.00033ZM12.9375 11.7503C12.715 11.7503 12.4975 11.6844 12.3125 11.5607C12.1275 11.4371 11.9833 11.2614 11.8981 11.0559C11.813 10.8503 11.7907 10.6241 11.8341 10.4059C11.8775 10.1876 11.9847 9.98717 12.142 9.82984C12.2993 9.6725 12.4998 9.56536 12.718 9.52195C12.9363 9.47854 13.1625 9.50082 13.368 9.58597C13.5736 9.67112 13.7493 9.81531 13.8729 10.0003C13.9965 10.1853 14.0625 10.4028 14.0625 10.6253C14.0625 10.9237 13.944 11.2098 13.733 11.4208C13.522 11.6318 13.2359 11.7503 12.9375 11.7503Z" fill="#6FCF97"/>
<path d="M1.125 9.62305V6.125C1.125 5.36316 1.54688 4.08594 3.01113 3.80926C4.25391 3.57617 5.48438 3.57617 5.48438 3.57617C5.48438 3.57617 6.29297 4.13867 5.625 4.13867C4.95703 4.13867 4.97461 5 5.625 5C6.27539 5 5.625 5.82617 5.625 5.82617L3.00586 8.79688L1.125 9.62305Z" fill="#6FCF97"/>
</svg>
