<svg width="14" height="18" viewBox="0 0 14 18" fill="none" xmlns="http://www.w3.org/2000/svg">
<path d="M10.9375 0.5625H3.0625C2.46596 0.563151 1.89404 0.800413 1.47223 1.22223C1.05041 1.64404 0.813151 2.21596 0.8125 2.8125V15.1875C0.813151 15.784 1.05041 16.356 1.47223 16.7778C1.89404 17.1996 2.46596 17.4368 3.0625 17.4375H10.9375C11.534 17.4368 12.106 17.1996 12.5278 16.7778C12.9496 16.356 13.1868 15.784 13.1875 15.1875V2.8125C13.1868 2.21596 12.9496 1.64404 12.5278 1.22223C12.106 0.800413 11.534 0.563151 10.9375 0.5625ZM9.72391 10.0023C9.99004 10.2895 10.1201 10.6759 10.0892 11.09C10.0284 11.9148 9.39941 12.5859 8.6875 12.5859C7.97559 12.5859 7.34559 11.9148 7.28547 11.09C7.25523 10.6717 7.38426 10.2846 7.64898 10.0002C7.91371 9.71578 8.27969 9.5625 8.6875 9.5625C8.88134 9.55971 9.07363 9.59738 9.25208 9.67311C9.43054 9.74884 9.59123 9.86096 9.72391 10.0023ZM4.75 2.8125C4.75 2.66332 4.80926 2.52024 4.91475 2.41475C5.02024 2.30926 5.16332 2.25 5.3125 2.25H8.6875C8.83668 2.25 8.97976 2.30926 9.08525 2.41475C9.19074 2.52024 9.25 2.66332 9.25 2.8125C9.25 2.96168 9.19074 3.10476 9.08525 3.21025C8.97976 3.31574 8.83668 3.375 8.6875 3.375H5.3125C5.16332 3.375 5.02024 3.31574 4.91475 3.21025C4.80926 3.10476 4.75 2.96168 4.75 2.8125ZM11.3945 15.6034C11.354 15.6503 11.3037 15.6877 11.2472 15.713C11.1906 15.7384 11.1292 15.751 11.0672 15.75H6.30777C6.24582 15.751 6.18439 15.7384 6.12784 15.713C6.07129 15.6877 6.02098 15.6503 5.98047 15.6034C5.93654 15.5508 5.90501 15.489 5.88822 15.4225C5.87142 15.356 5.86979 15.2867 5.88344 15.2195C5.9977 14.6021 6.35383 14.0836 6.91352 13.7197C7.41062 13.3966 8.04063 13.2188 8.6875 13.2188C9.33438 13.2188 9.96437 13.3966 10.4615 13.7197C11.0212 14.0836 11.3773 14.6021 11.4916 15.2195C11.5052 15.2867 11.5036 15.356 11.4868 15.4225C11.47 15.489 11.4385 15.5508 11.3945 15.6034Z" fill="#F58220"/>
</svg>
