<svg width="18" height="18" viewBox="0 0 18 18" fill="none" xmlns="http://www.w3.org/2000/svg">
<path d="M11.5609 5.51172C11.3438 5.51184 11.1335 5.58722 10.9657 5.72502C10.798 5.86283 10.6832 6.05452 10.641 6.26745C10.5987 6.48038 10.6316 6.70137 10.7341 6.89277C10.8365 7.08416 11.0021 7.23413 11.2027 7.3171C11.4033 7.40008 11.6264 7.41094 11.8342 7.34784C12.0419 7.28473 12.2213 7.15156 12.3418 6.97101C12.4623 6.79046 12.5165 6.57371 12.4951 6.35769C12.4738 6.14166 12.3782 5.93973 12.2246 5.78629C12.1375 5.69904 12.0341 5.62986 11.9201 5.58274C11.8062 5.53562 11.6841 5.51148 11.5609 5.51172Z" fill="#F58220"/>
<path d="M16.7844 1.75984C16.7842 1.75879 16.7842 1.75773 16.7844 1.75668C16.7547 1.62636 16.6891 1.50694 16.5951 1.4119C16.5012 1.31686 16.3825 1.24997 16.2525 1.21879C15.2048 0.963202 13.5567 1.23566 11.7303 1.96691C9.88957 2.70519 8.1648 3.79504 6.99902 4.96293C6.62536 5.3346 6.27822 5.73202 5.96015 6.15226C5.17512 6.11711 4.48359 6.2289 3.90105 6.48308C1.87113 7.3764 1.2914 9.66261 1.13707 10.6013C1.11474 10.7347 1.12348 10.8714 1.16262 11.0008C1.20176 11.1303 1.27025 11.2489 1.36274 11.3476C1.45523 11.4462 1.56924 11.5222 1.6959 11.5696C1.82255 11.617 1.95843 11.6345 2.09297 11.6208H2.09754L4.35879 11.374C4.3616 11.4028 4.36476 11.4292 4.36722 11.4535C4.39627 11.729 4.51915 11.9862 4.71527 12.1819L5.81883 13.2862C6.01424 13.4826 6.27138 13.6056 6.54691 13.6346L6.6225 13.6427L6.3764 15.9011V15.9057C6.36383 16.0273 6.37677 16.1502 6.4144 16.2666C6.45204 16.3829 6.51354 16.4901 6.59497 16.5813C6.6764 16.6726 6.77597 16.7458 6.88731 16.7963C6.99866 16.8469 7.11932 16.8737 7.2416 16.8749C7.29048 16.875 7.33928 16.871 7.3875 16.863C8.33144 16.7111 10.6166 16.1384 11.5075 14.0976C11.7595 13.5189 11.871 12.8302 11.8397 12.0466C12.2618 11.7292 12.6607 11.382 13.0332 11.0077C14.2085 9.8384 15.3019 8.12769 16.0324 6.31363C16.7598 4.50801 17.0337 2.84758 16.7844 1.75984ZM13.0206 7.90797C12.7317 8.19714 12.3636 8.39413 11.9627 8.47403C11.5619 8.55392 11.1463 8.51313 10.7687 8.35682C10.391 8.2005 10.0682 7.93568 9.84107 7.59586C9.61394 7.25604 9.49271 6.85649 9.49271 6.44775C9.49271 6.03902 9.61394 5.63947 9.84107 5.29965C10.0682 4.95983 10.391 4.69501 10.7687 4.53869C11.1463 4.38237 11.5619 4.34158 11.9627 4.42148C12.3636 4.50137 12.7317 4.69837 13.0206 4.98754C13.2142 5.17825 13.368 5.40556 13.4729 5.65624C13.5779 5.90693 13.6319 6.17598 13.6319 6.44775C13.6319 6.71952 13.5779 6.98857 13.4729 7.23926C13.368 7.48995 13.2142 7.71726 13.0206 7.90797Z" fill="#F58220"/>
<path d="M5.69304 13.5855C5.557 13.5686 5.41948 13.602 5.30632 13.6794C5.08167 13.833 4.85597 13.9849 4.62815 14.1329C4.16726 14.4324 3.616 13.9065 3.88987 13.4297L4.31702 12.6915C4.37809 12.6021 4.41209 12.4971 4.41496 12.3889C4.41782 12.2807 4.38942 12.174 4.33316 12.0816C4.2769 11.9892 4.19518 11.9149 4.09778 11.8677C4.00039 11.8206 3.89146 11.8025 3.78405 11.8157C3.30997 11.8757 2.8693 12.0916 2.53143 12.4296C2.40276 12.5586 2.01147 12.9502 1.80089 14.4426C1.74095 14.8713 1.70316 15.3027 1.68768 15.7353C1.68576 15.8104 1.69889 15.8851 1.72629 15.955C1.7537 16.0249 1.79483 16.0886 1.84725 16.1424C1.89968 16.1962 1.96234 16.2389 2.03154 16.2681C2.10075 16.2972 2.17509 16.3122 2.25018 16.3122H2.26425C2.69714 16.2969 3.12896 16.2593 3.558 16.1997C5.05108 15.9888 5.44272 15.5971 5.5714 15.4685C5.9109 15.1304 6.12632 14.6877 6.18276 14.212C6.20084 14.064 6.15941 13.9148 6.06758 13.7974C5.97575 13.6799 5.84103 13.6037 5.69304 13.5855Z" fill="#F58220"/>
</svg>
