<svg width="18" height="18" viewBox="0 0 18 18" fill="none" xmlns="http://www.w3.org/2000/svg">
<g clip-path="url(#clip0_497_3735)">
<path d="M3.78096 8.78906C3.70639 8.6599 3.58358 8.56565 3.43953 8.52701C3.29548 8.48838 3.14199 8.50854 3.01279 8.58305L1.26518 9.59098C1.10157 9.68474 0.958665 9.81068 0.845071 9.9612C0.731476 10.1117 0.649551 10.2837 0.604238 10.4667C0.517043 10.8297 0.574406 11.2123 0.764199 11.5337L0.91748 11.7988C1.10408 12.1215 1.41115 12.3568 1.77122 12.4532C2.13128 12.5496 2.51488 12.4991 2.83771 12.3128L4.58393 11.3062C4.64795 11.2694 4.70409 11.2202 4.74911 11.1616C4.79414 11.103 4.82718 11.0361 4.84634 10.9648C4.86551 10.8934 4.87042 10.8189 4.86081 10.7457C4.85119 10.6724 4.82723 10.6017 4.79029 10.5377L3.78096 8.78906Z" fill="#F58220"/>
<path d="M13.46 15.4971L10.1511 8.9299C10.1431 8.91385 10.1415 8.89534 10.1466 8.87815C10.1518 8.86096 10.1633 8.84639 10.1789 8.83744L10.4707 8.66904C10.5347 8.63211 10.5908 8.58294 10.6358 8.52433C10.6808 8.46573 10.7138 8.39883 10.7329 8.32746C10.752 8.25609 10.7569 8.18166 10.7473 8.1084C10.7376 8.03515 10.7137 7.96451 10.6767 7.90052L9.00573 5.00611C8.96884 4.94208 8.91969 4.88595 8.86109 4.84092C8.8025 4.79589 8.7356 4.76285 8.66423 4.74369C8.59286 4.72453 8.51842 4.71961 8.44515 4.72923C8.37188 4.73885 8.30122 4.76281 8.23722 4.79974L5.20042 6.55052C5.04011 6.64237 4.89961 6.7651 4.78706 6.91163C4.67452 7.05815 4.59216 7.22554 4.54476 7.40412C4.51251 7.51563 4.4963 7.63116 4.49659 7.74724C4.4987 8.01443 4.82003 8.54529 5.13362 9.09302C5.47077 9.68189 5.81003 10.2841 6.05964 10.4342C6.21855 10.5299 6.49909 10.6065 6.73499 10.6065H6.76452L3.97593 16.6393C3.94486 16.7064 3.92731 16.7789 3.9243 16.8528C3.92128 16.9266 3.93285 17.0004 3.95834 17.0697C3.98384 17.1391 4.02275 17.2028 4.07287 17.2571C4.12299 17.3115 4.18333 17.3554 4.25043 17.3864C4.31753 17.4174 4.39009 17.4349 4.46395 17.4378C4.53781 17.4407 4.61152 17.4291 4.68088 17.4035C4.75023 17.378 4.81387 17.339 4.86815 17.2888C4.92243 17.2386 4.96629 17.1782 4.99722 17.1111L8.29065 9.98669C8.31488 9.93396 8.35494 9.89009 8.40526 9.86119L9.08062 9.47166C9.08891 9.46692 9.09809 9.46392 9.10758 9.46284C9.11707 9.46176 9.12669 9.46264 9.13584 9.4654C9.14498 9.46816 9.15347 9.47276 9.16078 9.47891C9.16809 9.48507 9.17407 9.49265 9.17835 9.50119L12.4553 16.0051C12.4885 16.0711 12.5344 16.1298 12.5904 16.1781C12.6463 16.2263 12.7112 16.263 12.7814 16.2862C12.8516 16.3093 12.9256 16.3184 12.9993 16.313C13.0729 16.3075 13.1448 16.2876 13.2108 16.2544C13.2767 16.2211 13.3355 16.1752 13.3838 16.1192C13.432 16.0633 13.4687 15.9984 13.4919 15.9282C13.515 15.8581 13.5241 15.784 13.5187 15.7104C13.5132 15.6367 13.4933 15.5648 13.46 15.4988V15.4971ZM17.2348 4.06919L15.6133 1.26584C15.4262 0.943641 15.1191 0.70868 14.7592 0.612357C14.3992 0.516033 14.0158 0.566189 13.6928 0.751851L10.4113 2.64255C10.2509 2.73434 10.1104 2.85705 9.99783 3.00359C9.88528 3.15012 9.80295 3.31754 9.75562 3.49615C9.70901 3.64673 9.69382 3.80528 9.71097 3.96197C9.77214 4.40564 10.168 5.03072 10.6394 5.85654C11.1169 6.6908 11.6558 7.63123 11.9378 7.83478C12.1761 8.00327 12.4608 8.09378 12.7527 8.09388C12.9986 8.09397 13.2401 8.02922 13.453 7.90615L16.7352 6.01439C16.8985 5.92084 17.0411 5.79527 17.1546 5.6452C17.2682 5.49513 17.3502 5.32367 17.3958 5.14111C17.4836 4.77646 17.4258 4.39194 17.2348 4.06919Z" fill="#F58220"/>
</g>
<defs>
<clipPath id="clip0_497_3735">
<rect width="18" height="18" fill="white"/>
</clipPath>
</defs>
</svg>
